%TF.GenerationSoftware,KiCad,Pcbnew,10.0.0*%
%TF.CreationDate,2026-04-12T14:52:28+04:00*%
%TF.ProjectId,project,70726f6a-6563-4742-9e6b-696361645f70,rev?*%
%TF.SameCoordinates,Original*%
%TF.FileFunction,Copper,L1,Top*%
%TF.FilePolarity,Positive*%
%FSLAX46Y46*%
G04 Gerber Fmt 4.6, Leading zero omitted, Abs format (unit mm)*
G04 Created by KiCad (PCBNEW 10.0.0) date 2026-04-12 14:52:28*
%MOMM*%
%LPD*%
G01*
G04 APERTURE LIST*
G04 Aperture macros list*
%AMRoundRect*
0 Rectangle with rounded corners*
0 $1 Rounding radius*
0 $2 $3 $4 $5 $6 $7 $8 $9 X,Y pos of 4 corners*
0 Add a 4 corners polygon primitive as box body*
4,1,4,$2,$3,$4,$5,$6,$7,$8,$9,$2,$3,0*
0 Add four circle primitives for the rounded corners*
1,1,$1+$1,$2,$3*
1,1,$1+$1,$4,$5*
1,1,$1+$1,$6,$7*
1,1,$1+$1,$8,$9*
0 Add four rect primitives between the rounded corners*
20,1,$1+$1,$2,$3,$4,$5,0*
20,1,$1+$1,$4,$5,$6,$7,0*
20,1,$1+$1,$6,$7,$8,$9,0*
20,1,$1+$1,$8,$9,$2,$3,0*%
G04 Aperture macros list end*
%TA.AperFunction,SMDPad,CuDef*%
%ADD10RoundRect,0.135000X-0.135000X-0.185000X0.135000X-0.185000X0.135000X0.185000X-0.135000X0.185000X0*%
%TD*%
%TA.AperFunction,ComponentPad*%
%ADD11R,2.000000X2.000000*%
%TD*%
%TA.AperFunction,ComponentPad*%
%ADD12C,2.000000*%
%TD*%
%TA.AperFunction,SMDPad,CuDef*%
%ADD13RoundRect,0.140000X-0.140000X-0.170000X0.140000X-0.170000X0.140000X0.170000X-0.140000X0.170000X0*%
%TD*%
%TA.AperFunction,ComponentPad*%
%ADD14RoundRect,0.250000X0.550000X0.550000X-0.550000X0.550000X-0.550000X-0.550000X0.550000X-0.550000X0*%
%TD*%
%TA.AperFunction,ComponentPad*%
%ADD15C,1.600000*%
%TD*%
%TA.AperFunction,SMDPad,CuDef*%
%ADD16RoundRect,0.243750X0.243750X0.456250X-0.243750X0.456250X-0.243750X-0.456250X0.243750X-0.456250X0*%
%TD*%
%TA.AperFunction,SMDPad,CuDef*%
%ADD17RoundRect,0.150000X0.825000X0.150000X-0.825000X0.150000X-0.825000X-0.150000X0.825000X-0.150000X0*%
%TD*%
%TA.AperFunction,SMDPad,CuDef*%
%ADD18RoundRect,0.135000X0.135000X0.185000X-0.135000X0.185000X-0.135000X-0.185000X0.135000X-0.185000X0*%
%TD*%
%TA.AperFunction,ComponentPad*%
%ADD19R,1.700000X1.700000*%
%TD*%
%TA.AperFunction,ComponentPad*%
%ADD20C,1.700000*%
%TD*%
%TA.AperFunction,ComponentPad*%
%ADD21R,3.200000X2.000000*%
%TD*%
%TA.AperFunction,ComponentPad*%
%ADD22RoundRect,0.250000X0.625000X-0.350000X0.625000X0.350000X-0.625000X0.350000X-0.625000X-0.350000X0*%
%TD*%
%TA.AperFunction,ComponentPad*%
%ADD23O,1.750000X1.200000*%
%TD*%
%TA.AperFunction,SMDPad,CuDef*%
%ADD24RoundRect,0.150000X-0.825000X-0.150000X0.825000X-0.150000X0.825000X0.150000X-0.825000X0.150000X0*%
%TD*%
%TA.AperFunction,HeatsinkPad*%
%ADD25C,0.500000*%
%TD*%
%TA.AperFunction,HeatsinkPad*%
%ADD26R,2.410000X3.300000*%
%TD*%
%TA.AperFunction,ComponentPad*%
%ADD27R,1.508000X1.508000*%
%TD*%
%TA.AperFunction,ComponentPad*%
%ADD28C,1.508000*%
%TD*%
%TA.AperFunction,SMDPad,CuDef*%
%ADD29RoundRect,0.150000X-0.512500X-0.150000X0.512500X-0.150000X0.512500X0.150000X-0.512500X0.150000X0*%
%TD*%
%TA.AperFunction,ComponentPad*%
%ADD30C,2.100000*%
%TD*%
%TA.AperFunction,ComponentPad*%
%ADD31C,1.750000*%
%TD*%
%TA.AperFunction,SMDPad,CuDef*%
%ADD32RoundRect,0.218750X0.381250X-0.218750X0.381250X0.218750X-0.381250X0.218750X-0.381250X-0.218750X0*%
%TD*%
%TA.AperFunction,SMDPad,CuDef*%
%ADD33RoundRect,0.150000X-0.575000X0.150000X-0.575000X-0.150000X0.575000X-0.150000X0.575000X0.150000X0*%
%TD*%
%TA.AperFunction,SMDPad,CuDef*%
%ADD34RoundRect,0.075000X-0.650000X0.075000X-0.650000X-0.075000X0.650000X-0.075000X0.650000X0.075000X0*%
%TD*%
%TA.AperFunction,ComponentPad*%
%ADD35O,2.100000X1.000000*%
%TD*%
%TA.AperFunction,ComponentPad*%
%ADD36O,1.600000X1.000000*%
%TD*%
%TA.AperFunction,ViaPad*%
%ADD37C,0.200000*%
%TD*%
%TA.AperFunction,Conductor*%
%ADD38C,0.200000*%
%TD*%
G04 APERTURE END LIST*
D10*
%TO.P,R2,2*%
%TO.N,GND*%
X58000000Y-107000000D03*
%TO.P,R2,1*%
%TO.N,Net-(J1-CC2)*%
X56980000Y-107000000D03*
%TD*%
D11*
%TO.P,BZ1,1,+_1*%
%TO.N,Net-(BZ1-+)*%
X102000000Y-161500000D03*
D12*
%TO.P,BZ1,2,-_2*%
%TO.N,GND*%
X107000000Y-161500000D03*
%TD*%
D10*
%TO.P,R6,1*%
%TO.N,Net-(D1-K)*%
X71190000Y-91800000D03*
%TO.P,R6,2*%
%TO.N,Net-(U1-~{CHRG})*%
X72210000Y-91800000D03*
%TD*%
%TO.P,R1,1*%
%TO.N,GND*%
X63990000Y-102500000D03*
%TO.P,R1,2*%
%TO.N,Net-(J1-CC1)*%
X65010000Y-102500000D03*
%TD*%
D13*
%TO.P,C3,1*%
%TO.N,+5V*%
X136520000Y-128000000D03*
%TO.P,C3,2*%
%TO.N,GND*%
X137480000Y-128000000D03*
%TD*%
D14*
%TO.P,C4,1*%
%TO.N,+5V*%
X131152700Y-116000000D03*
D15*
%TO.P,C4,2*%
%TO.N,GND*%
X127652700Y-116000000D03*
%TD*%
D16*
%TO.P,D1,1,K_1*%
%TO.N,Net-(D1-K)*%
X67937500Y-85000000D03*
%TO.P,D1,2,A_2*%
%TO.N,+5V*%
X66062500Y-85000000D03*
%TD*%
D10*
%TO.P,R8,1*%
%TO.N,Net-(U2-FB)*%
X79990000Y-100000000D03*
%TO.P,R8,2*%
%TO.N,GND*%
X81010000Y-100000000D03*
%TD*%
D13*
%TO.P,C2,1*%
%TO.N,+3.3V*%
X135020000Y-145000000D03*
%TO.P,C2,2*%
%TO.N,GND*%
X135980000Y-145000000D03*
%TD*%
D10*
%TO.P,R13,1*%
%TO.N,+3.3V*%
X65510000Y-125500000D03*
%TO.P,R13,2*%
%TO.N,/BTN2*%
X66530000Y-125500000D03*
%TD*%
D13*
%TO.P,C6,1*%
%TO.N,/BTN2*%
X70040000Y-126500000D03*
%TO.P,C6,2*%
%TO.N,GND*%
X71000000Y-126500000D03*
%TD*%
D17*
%TO.P,U4,1*%
%TO.N,GND*%
X130950000Y-135500000D03*
%TO.P,U4,2*%
%TO.N,/LED_DATA*%
X130950000Y-134230000D03*
%TO.P,U4,3*%
%TO.N,/LED_DATA_5V*%
X130950000Y-132960000D03*
%TO.P,U4,4*%
%TO.N,N/C*%
X130950000Y-131690000D03*
%TO.P,U4,5*%
X130950000Y-130420000D03*
%TO.P,U4,6*%
X130950000Y-129150000D03*
%TO.P,U4,7,GND_7*%
%TO.N,GND*%
X130950000Y-127880000D03*
%TO.P,U4,8*%
%TO.N,N/C*%
X126000000Y-127880000D03*
%TO.P,U4,9*%
X126000000Y-129150000D03*
%TO.P,U4,10*%
X126000000Y-130420000D03*
%TO.P,U4,11*%
X126000000Y-131690000D03*
%TO.P,U4,12*%
X126000000Y-132960000D03*
%TO.P,U4,13*%
X126000000Y-134230000D03*
%TO.P,U4,14,VCC_14*%
%TO.N,+5V*%
X126000000Y-135500000D03*
%TD*%
D18*
%TO.P,R7,1*%
%TO.N,Net-(U2-FB)*%
X82010000Y-106500000D03*
%TO.P,R7,2*%
%TO.N,Net-(U2-SW)*%
X80990000Y-106500000D03*
%TD*%
%TO.P,R9,1*%
%TO.N,Net-(J4-Pin_3)*%
X135010000Y-124500000D03*
%TO.P,R9,2*%
%TO.N,/LED_DATA_5V*%
X133990000Y-124500000D03*
%TD*%
D10*
%TO.P,R5,1*%
%TO.N,+5V*%
X74690000Y-93300000D03*
%TO.P,R5,2*%
%TO.N,Net-(U1-CE)*%
X75710000Y-93300000D03*
%TD*%
D18*
%TO.P,R14,1*%
%TO.N,/BUZZER*%
X95510000Y-156000000D03*
%TO.P,R14,2*%
%TO.N,Net-(BZ1-+)*%
X94490000Y-156000000D03*
%TD*%
D10*
%TO.P,R4,1*%
%TO.N,Net-(U1-PROG)*%
X74690000Y-96800000D03*
%TO.P,R4,2*%
%TO.N,GND*%
X75710000Y-96800000D03*
%TD*%
%TO.P,R44,1*%
%TO.N,+3.3V*%
X63990000Y-130500000D03*
%TO.P,R44,2*%
%TO.N,/ENC_CLK*%
X65010000Y-130500000D03*
%TD*%
%TO.P,R11,1*%
%TO.N,+3.3V*%
X79990000Y-144500000D03*
%TO.P,R11,2*%
%TO.N,/ENC_SW*%
X81010000Y-144500000D03*
%TD*%
%TO.P,R10,1*%
%TO.N,+3.3V*%
X52490000Y-137000000D03*
%TO.P,R10,2*%
%TO.N,/ENC_DT*%
X53510000Y-137000000D03*
%TD*%
D18*
%TO.P,R3,1*%
%TO.N,Net-(U1-TEMP)*%
X63010000Y-89000000D03*
%TO.P,R3,2*%
%TO.N,+5V*%
X61990000Y-89000000D03*
%TD*%
D19*
%TO.P,J4,1,Pin_1_1*%
%TO.N,+5V*%
X146500000Y-118000000D03*
D20*
%TO.P,J4,2,Pin_2_2*%
%TO.N,GND*%
X146500000Y-115460000D03*
%TO.P,J4,3,Pin_3_3*%
%TO.N,Net-(J4-Pin_3)*%
X146500000Y-112920000D03*
%TD*%
D11*
%TO.P,SW1,A,A_A*%
%TO.N,/ENC_CLK*%
X62500000Y-137500000D03*
D12*
%TO.P,SW1,B,B_B*%
%TO.N,/ENC_DT*%
X62500000Y-142500000D03*
%TO.P,SW1,C,C_C*%
%TO.N,GND*%
X62500000Y-140000000D03*
D21*
%TO.P,SW1,MP*%
%TO.N,N/C*%
X70000000Y-134400000D03*
X70000000Y-145600000D03*
D12*
%TO.P,SW1,S1,S1_S1*%
%TO.N,/ENC_SW*%
X77000000Y-142500000D03*
%TO.P,SW1,S2,S2_S2*%
%TO.N,GND*%
X77000000Y-137500000D03*
%TD*%
D22*
%TO.P,J2,1,Pin_1_1*%
%TO.N,/VBAT_POS*%
X127050000Y-99500000D03*
D23*
%TO.P,J2,2,Pin_2_2*%
%TO.N,GND*%
X127050000Y-97500000D03*
%TD*%
D24*
%TO.P,U1,1,TEMP_1*%
%TO.N,Net-(U1-TEMP)*%
X64725000Y-93895000D03*
%TO.P,U1,2,PROG_2*%
%TO.N,Net-(U1-PROG)*%
X64725000Y-95165000D03*
%TO.P,U1,3,GND_3*%
%TO.N,GND*%
X64725000Y-96435000D03*
%TO.P,U1,4,V_{CC}_4*%
%TO.N,+5V*%
X64725000Y-97705000D03*
%TO.P,U1,5,BAT_5*%
%TO.N,/VBAT_POS*%
X69675000Y-97705000D03*
%TO.P,U1,6,~{STDBY}_6*%
%TO.N,unconnected-(U1-~{STDBY}-Pad6)*%
X69675000Y-96435000D03*
%TO.P,U1,7,~{CHRG}_7*%
%TO.N,Net-(U1-~{CHRG})*%
X69675000Y-95165000D03*
%TO.P,U1,8,CE_8*%
%TO.N,Net-(U1-CE)*%
X69675000Y-93895000D03*
D25*
%TO.P,U1,9,EPAD_9*%
%TO.N,GND*%
X66500000Y-94600000D03*
X66500000Y-95800000D03*
X66500000Y-97000000D03*
D26*
X67200000Y-95800000D03*
D25*
X67900000Y-94600000D03*
X67900000Y-95800000D03*
X67900000Y-97000000D03*
%TD*%
D19*
%TO.P,J3,1,Pin_1_1*%
%TO.N,+3.3V*%
X129000000Y-149260000D03*
D20*
%TO.P,J3,2,Pin_2_2*%
%TO.N,GND*%
X129000000Y-151800000D03*
%TO.P,J3,3,Pin_3_3*%
%TO.N,/LCD_SCL*%
X129000000Y-154340000D03*
%TO.P,J3,4,Pin_4_4*%
%TO.N,/LCD_SDA*%
X129000000Y-156880000D03*
%TO.P,J3,5,Pin_5_5*%
%TO.N,/LCD_RST*%
X129000000Y-159420000D03*
%TO.P,J3,6,Pin_6_6*%
%TO.N,/LCD_DC*%
X129000000Y-161960000D03*
%TO.P,J3,7,Pin_7_7*%
%TO.N,/LCD_CS*%
X129000000Y-164500000D03*
%TD*%
D27*
%TO.P,A1,1,3V3[1]_1*%
%TO.N,+3.3V*%
X90500000Y-145160000D03*
D28*
%TO.P,A1,2,5V[1]_2*%
%TO.N,+5V*%
X87960000Y-145160000D03*
%TO.P,A1,3,GPIO2/SDA_3*%
%TO.N,unconnected-(A1-GPIO2{slash}SDA-Pad3)*%
X90500000Y-142620000D03*
%TO.P,A1,4,5V[2]_4*%
%TO.N,+5V*%
X87960000Y-142620000D03*
%TO.P,A1,5,GPIO3/SCL_5*%
%TO.N,unconnected-(A1-GPIO3{slash}SCL-Pad5)*%
X90500000Y-140080000D03*
%TO.P,A1,6,GND[8]_6*%
%TO.N,GND*%
X87960000Y-140080000D03*
%TO.P,A1,7,GPIO4/GPCKL0_7*%
%TO.N,unconnected-(A1-GPIO4{slash}GPCKL0-Pad7)*%
X90500000Y-137540000D03*
%TO.P,A1,8,TXD0/GPIO14_8*%
%TO.N,unconnected-(A1-TXD0{slash}GPIO14-Pad8)*%
X87960000Y-137540000D03*
%TO.P,A1,9,GND[1]_9*%
%TO.N,GND*%
X90500000Y-135000000D03*
%TO.P,A1,10,RXD0/GPIO15_10*%
%TO.N,unconnected-(A1-RXD0{slash}GPIO15-Pad10)*%
X87960000Y-135000000D03*
%TO.P,A1,11,GPIO17/GEN0_11*%
%TO.N,/ENC_CLK*%
X90500000Y-132460000D03*
%TO.P,A1,12,GPIO18_12*%
%TO.N,/LED_DATA*%
X87960000Y-132460000D03*
%TO.P,A1,13,GPIO27/GEN2_13*%
%TO.N,/ENC_DT*%
X90500000Y-129920000D03*
%TO.P,A1,14,GND[4]_14*%
%TO.N,GND*%
X87960000Y-129920000D03*
%TO.P,A1,15,GPIO22/GEN3_15*%
%TO.N,/ENC_SW*%
X90500000Y-127380000D03*
%TO.P,A1,16,GEN4/GPIO23_16*%
%TO.N,/BTN1*%
X87960000Y-127380000D03*
%TO.P,A1,17,3V3[2]_17*%
%TO.N,+3.3V*%
X90500000Y-124840000D03*
%TO.P,A1,18,GEN5/GPIO24_18*%
%TO.N,/LCD_RST*%
X87960000Y-124840000D03*
%TO.P,A1,19,GPIO10/MOSI_19*%
%TO.N,/LCD_SDA*%
X90500000Y-122300000D03*
%TO.P,A1,20,GND[5]_20*%
%TO.N,GND*%
X87960000Y-122300000D03*
%TO.P,A1,21,GPIO9/MISO_21*%
%TO.N,unconnected-(A1-GPIO9{slash}MISO-Pad21)*%
X90500000Y-119760000D03*
%TO.P,A1,22,GEN/6GPIO25_22*%
%TO.N,/LCD_DC*%
X87960000Y-119760000D03*
%TO.P,A1,23,GPIO11/SCLK_23*%
%TO.N,/LCD_SCL*%
X90500000Y-117220000D03*
%TO.P,A1,24,~{CE0}/GPIO8_24*%
%TO.N,/LCD_CS*%
X87960000Y-117220000D03*
%TO.P,A1,25,GND[2]_25*%
%TO.N,GND*%
X90500000Y-114680000D03*
%TO.P,A1,26,~{CE1}/~{GPIO7}_26*%
%TO.N,unconnected-(A1-~{CE1}{slash}~{GPIO7}-Pad26)*%
X87960000Y-114680000D03*
%TO.P,A1,27,ID_SD_27*%
%TO.N,unconnected-(A1-ID_SD-Pad27)*%
X90500000Y-112140000D03*
%TO.P,A1,28,ID_SC_28*%
%TO.N,unconnected-(A1-ID_SC-Pad28)*%
X87960000Y-112140000D03*
%TO.P,A1,29,GPIO5_29*%
%TO.N,/BTN2*%
X90500000Y-109600000D03*
%TO.P,A1,30,GND[6]_30*%
%TO.N,GND*%
X87960000Y-109600000D03*
%TO.P,A1,31,GPIO6_31*%
%TO.N,unconnected-(A1-GPIO6-Pad31)*%
X90500000Y-107060000D03*
%TO.P,A1,32,GPIO12_32*%
%TO.N,/BUZZER*%
X87960000Y-107060000D03*
%TO.P,A1,33,GPIO13_33*%
%TO.N,unconnected-(A1-GPIO13-Pad33)*%
X90500000Y-104520000D03*
%TO.P,A1,34,GND[7]_34*%
%TO.N,GND*%
X87960000Y-104520000D03*
%TO.P,A1,35,GPIO19_35*%
%TO.N,unconnected-(A1-GPIO19-Pad35)*%
X90500000Y-101980000D03*
%TO.P,A1,36,GPIO16_36*%
%TO.N,unconnected-(A1-GPIO16-Pad36)*%
X87960000Y-101980000D03*
%TO.P,A1,37,GPIO26_37*%
%TO.N,unconnected-(A1-GPIO26-Pad37)*%
X90500000Y-99440000D03*
%TO.P,A1,38,GPIO20_38*%
%TO.N,unconnected-(A1-GPIO20-Pad38)*%
X87960000Y-99440000D03*
%TO.P,A1,39,GND[3]_39*%
%TO.N,GND*%
X90500000Y-96900000D03*
%TO.P,A1,40,GPIO21_40*%
%TO.N,unconnected-(A1-GPIO21-Pad40)*%
X87960000Y-96900000D03*
%TD*%
D10*
%TO.P,R12,1*%
%TO.N,+3.3V*%
X54490000Y-142500000D03*
%TO.P,R12,2*%
%TO.N,/BTN1*%
X55510000Y-142500000D03*
%TD*%
D29*
%TO.P,U2,1,SW_1*%
%TO.N,Net-(U2-SW)*%
X66362500Y-116050000D03*
%TO.P,U2,2,GND_2*%
%TO.N,GND*%
X66362500Y-117000000D03*
%TO.P,U2,3,FB_3*%
%TO.N,Net-(U2-FB)*%
X66362500Y-117950000D03*
%TO.P,U2,4,EN_4*%
%TO.N,/VBAT_POS*%
X68637500Y-117950000D03*
%TO.P,U2,5,IN_5*%
X68637500Y-117000000D03*
%TO.P,U2,6,NC_6*%
%TO.N,unconnected-(U2-NC-Pad6)*%
X68637500Y-116050000D03*
%TD*%
D30*
%TO.P,SW2,*%
%TO.N,*%
X54352500Y-154025000D03*
X54352500Y-147015000D03*
D31*
%TO.P,SW2,1,1_1*%
%TO.N,/BTN1*%
X51862500Y-152775000D03*
%TO.P,SW2,2,2_2*%
%TO.N,GND*%
X51862500Y-148275000D03*
%TD*%
D13*
%TO.P,C5,1*%
%TO.N,/BTN1*%
X61520000Y-151000000D03*
%TO.P,C5,2*%
%TO.N,GND*%
X62480000Y-151000000D03*
%TD*%
%TO.P,C1,1*%
%TO.N,GND*%
X75520000Y-112000000D03*
%TO.P,C1,2*%
%TO.N,+5V*%
X76480000Y-112000000D03*
%TD*%
D32*
%TO.P,L1,1,1_1*%
%TO.N,+5V*%
X72500000Y-102562500D03*
%TO.P,L1,2,2_2*%
%TO.N,Net-(U2-SW)*%
X72500000Y-100437500D03*
%TD*%
D30*
%TO.P,SW3,*%
%TO.N,*%
X54352500Y-128250000D03*
X54352500Y-121240000D03*
D31*
%TO.P,SW3,1,1_1*%
%TO.N,GND*%
X51862500Y-127000000D03*
%TO.P,SW3,2,2_2*%
%TO.N,/BTN2*%
X51862500Y-122500000D03*
%TD*%
D33*
%TO.P,J1,A1,GND_A1*%
%TO.N,GND*%
X61245000Y-93050000D03*
%TO.P,J1,A4,VBUS_A4*%
%TO.N,+5V*%
X61245000Y-93850000D03*
D34*
%TO.P,J1,A5,CC1_A5*%
%TO.N,Net-(J1-CC1)*%
X61245000Y-95050000D03*
%TO.P,J1,A6,D+_A6*%
%TO.N,unconnected-(J1-D+-PadA6)*%
X61245000Y-96050000D03*
%TO.P,J1,A7,D-_A7*%
%TO.N,unconnected-(J1-D--PadA7)*%
X61245000Y-96550000D03*
%TO.P,J1,A8*%
%TO.N,N/C*%
X61245000Y-97550000D03*
D33*
%TO.P,J1,A9,VBUS_A9*%
%TO.N,+5V*%
X61245000Y-98750000D03*
%TO.P,J1,A12,GND_A12*%
%TO.N,GND*%
X61245000Y-99550000D03*
%TO.P,J1,B1,GND_B1*%
X61245000Y-99550000D03*
%TO.P,J1,B4,VBUS_B4*%
%TO.N,+5V*%
X61245000Y-98750000D03*
D34*
%TO.P,J1,B5,CC2_B5*%
%TO.N,Net-(J1-CC2)*%
X61245000Y-98050000D03*
%TO.P,J1,B6,D+_B6*%
%TO.N,unconnected-(J1-D+-PadB6)*%
X61245000Y-97050000D03*
%TO.P,J1,B7,D-_B7*%
%TO.N,unconnected-(J1-D--PadB7)*%
X61245000Y-95550000D03*
%TO.P,J1,B8*%
%TO.N,N/C*%
X61245000Y-94550000D03*
D33*
%TO.P,J1,B9,VBUS_B9*%
%TO.N,+5V*%
X61245000Y-93850000D03*
%TO.P,J1,B12,GND_B12*%
%TO.N,GND*%
X61245000Y-93050000D03*
D35*
%TO.P,J1,SH,SHIELD_SH*%
%TO.N,unconnected-(J1-SHIELD-PadSH)*%
X60330000Y-91980000D03*
D36*
%TO.N,unconnected-(J1-SHIELD-PadSH)_2*%
X56150000Y-91980000D03*
D35*
%TO.N,unconnected-(J1-SHIELD-PadSH)_1*%
X60330000Y-100620000D03*
D36*
%TO.N,unconnected-(J1-SHIELD-PadSH)_3*%
X56150000Y-100620000D03*
%TD*%
D37*
%TO.N,/BTN1*%
X62301500Y-128711000D03*
X61156200Y-142121400D03*
X60316100Y-150623000D03*
%TO.N,/LCD_CS*%
X121863500Y-121739000D03*
%TO.N,/LCD_DC*%
X122161700Y-123731000D03*
%TO.N,/LCD_RST*%
X122856200Y-128711000D03*
%TO.N,/LCD_SDA*%
X92126100Y-122735000D03*
X95811000Y-154772500D03*
%TO.N,/LCD_SCL*%
X91089800Y-151619000D03*
%TO.N,/VBAT_POS*%
X68361200Y-98934500D03*
X67678200Y-116474300D03*
%TO.N,Net-(U1-TEMP)*%
X63413700Y-93766900D03*
X64286900Y-88871000D03*
%TO.N,/ENC_SW*%
X80170100Y-128711000D03*
%TO.N,/ENC_CLK*%
X63294200Y-132695000D03*
X90097100Y-133942000D03*
%TO.N,Net-(U1-PROG)*%
X73221200Y-95843000D03*
X73221200Y-93618100D03*
%TO.N,/BUZZER*%
X96165100Y-155603000D03*
%TO.N,Net-(J4-Pin_3)*%
X141717500Y-123731000D03*
%TO.N,Net-(U2-SW)*%
X65241300Y-115763000D03*
X67348600Y-100739400D03*
X65241300Y-105803000D03*
%TO.N,/LED_DATA_5V*%
X133081500Y-132695000D03*
X133260500Y-125204300D03*
%TO.N,/BTN2*%
X71235800Y-115763000D03*
X69452200Y-126517200D03*
%TO.N,+3.3V*%
X63258700Y-130415900D03*
X64286900Y-125723000D03*
X64286900Y-143651000D03*
%TO.N,Net-(U2-FB)*%
X67959500Y-106799000D03*
X67352200Y-117713700D03*
%TO.N,+5V*%
X132783200Y-127715000D03*
X132783200Y-133691000D03*
X66948500Y-111193200D03*
X68011300Y-101819000D03*
X83148200Y-110496200D03*
%TO.N,Net-(J1-CC1)*%
X63273600Y-95843000D03*
X64470200Y-101780000D03*
%TO.N,Net-(J1-CC2)*%
X61308800Y-103811000D03*
X62384100Y-98139100D03*
%TO.N,GND*%
X64286900Y-95800000D03*
X72228500Y-126719000D03*
X76338100Y-96839000D03*
X59323400Y-106799000D03*
X129641600Y-127715000D03*
X136755400Y-144647000D03*
X61308800Y-90863000D03*
X138739400Y-127715000D03*
X82155500Y-99827000D03*
X129641600Y-135683000D03*
X63258700Y-102815000D03*
X65241300Y-116759000D03*
X62641000Y-99550000D03*
X74213900Y-111870900D03*
%TD*%
%TO.N,GND*%
D38*
X89014000Y-139026000D02*
X87960000Y-140080000D01*
X90500000Y-135000000D02*
X89014000Y-136486000D01*
X89014000Y-136486000D02*
X89014000Y-139026000D01*
X53760500Y-150173000D02*
X51862500Y-148275000D01*
X63500000Y-151000000D02*
X62673000Y-150173000D01*
X62480000Y-151000000D02*
X63500000Y-151000000D01*
X62673000Y-150173000D02*
X53760500Y-150173000D01*
X81183000Y-99827000D02*
X81010000Y-100000000D01*
X82155500Y-99827000D02*
X81183000Y-99827000D01*
%TO.N,/BTN1*%
X63632500Y-127380000D02*
X62301500Y-128711000D01*
X87960000Y-127380000D02*
X63632500Y-127380000D01*
X55888600Y-142121400D02*
X55510000Y-142500000D01*
X61156200Y-142121400D02*
X55888600Y-142121400D01*
X61143000Y-150623000D02*
X60316100Y-150623000D01*
X61520000Y-151000000D02*
X61143000Y-150623000D01*
X54014500Y-150623000D02*
X51862500Y-152775000D01*
X60316100Y-150623000D02*
X54014500Y-150623000D01*
%TO.N,/LCD_CS*%
X118455600Y-118331100D02*
X121863500Y-121739000D01*
X89071100Y-118331100D02*
X118455600Y-118331100D01*
X87960000Y-117220000D02*
X89071100Y-118331100D01*
%TO.N,/LCD_DC*%
X89230000Y-121030000D02*
X87960000Y-119760000D01*
X119460700Y-121030000D02*
X89230000Y-121030000D01*
X122161700Y-123731000D02*
X119460700Y-121030000D01*
%TO.N,/LCD_RST*%
X89230000Y-126110000D02*
X87960000Y-124840000D01*
X120255200Y-126110000D02*
X89230000Y-126110000D01*
X122856200Y-128711000D02*
X120255200Y-126110000D01*
%TO.N,/LCD_SDA*%
X91691100Y-122300000D02*
X92126100Y-122735000D01*
X90500000Y-122300000D02*
X91691100Y-122300000D01*
X126892500Y-154772500D02*
X129000000Y-156880000D01*
X95811000Y-154772500D02*
X126892500Y-154772500D01*
%TO.N,/LCD_SCL*%
X93810800Y-154340000D02*
X91089800Y-151619000D01*
X129000000Y-154340000D02*
X93810800Y-154340000D01*
%TO.N,/VBAT_POS*%
X68203900Y-117000000D02*
X68637500Y-117000000D01*
X67678200Y-116474300D02*
X68203900Y-117000000D01*
X68637500Y-117950000D02*
X68637500Y-117000000D01*
X68972000Y-98323700D02*
X68361200Y-98934500D01*
X69675000Y-98323700D02*
X68972000Y-98323700D01*
X69675000Y-97705000D02*
X69675000Y-98323700D01*
X125873700Y-98323700D02*
X69675000Y-98323700D01*
X127050000Y-99500000D02*
X125873700Y-98323700D01*
%TO.N,Net-(U1-TEMP)*%
X63139000Y-88871000D02*
X63010000Y-89000000D01*
X64286900Y-88871000D02*
X63139000Y-88871000D01*
X64596900Y-93766900D02*
X63413700Y-93766900D01*
X64725000Y-93895000D02*
X64596900Y-93766900D01*
%TO.N,/ENC_DT*%
X54297300Y-137787300D02*
X53510000Y-137000000D01*
X58831400Y-137787300D02*
X54297300Y-137787300D01*
X58831400Y-138831400D02*
X58831400Y-137787300D01*
X62500000Y-142500000D02*
X58831400Y-138831400D01*
X65428700Y-131190000D02*
X58831400Y-137787300D01*
X89230000Y-131190000D02*
X65428700Y-131190000D01*
X90500000Y-129920000D02*
X89230000Y-131190000D01*
%TO.N,/ENC_SW*%
X79010000Y-142500000D02*
X77000000Y-142500000D01*
X81010000Y-144500000D02*
X79010000Y-142500000D01*
X89169000Y-128711000D02*
X80170100Y-128711000D01*
X90500000Y-127380000D02*
X89169000Y-128711000D01*
%TO.N,/ENC_CLK*%
X65010000Y-130979200D02*
X63294200Y-132695000D01*
X65010000Y-130500000D02*
X65010000Y-130979200D01*
X69926700Y-137500000D02*
X62500000Y-137500000D01*
X73484700Y-133942000D02*
X69926700Y-137500000D01*
X90097100Y-133942000D02*
X73484700Y-133942000D01*
%TO.N,Net-(U1-PROG)*%
X73733000Y-95843000D02*
X73221200Y-95843000D01*
X74690000Y-96800000D02*
X73733000Y-95843000D01*
X64216100Y-95165000D02*
X64725000Y-95165000D01*
X63006500Y-93955400D02*
X64216100Y-95165000D01*
X63006500Y-93603600D02*
X63006500Y-93955400D01*
X63369800Y-93240300D02*
X63006500Y-93603600D01*
X72843400Y-93240300D02*
X63369800Y-93240300D01*
X73221200Y-93618100D02*
X72843400Y-93240300D01*
%TO.N,/BUZZER*%
X95907000Y-155603000D02*
X95510000Y-156000000D01*
X96165100Y-155603000D02*
X95907000Y-155603000D01*
%TO.N,Net-(U1-CE)*%
X74990200Y-94019800D02*
X75710000Y-93300000D01*
X69799800Y-94019800D02*
X74990200Y-94019800D01*
X69675000Y-93895000D02*
X69799800Y-94019800D01*
%TO.N,Net-(J4-Pin_3)*%
X135779000Y-123731000D02*
X135010000Y-124500000D01*
X141717500Y-123731000D02*
X135779000Y-123731000D01*
%TO.N,Net-(U2-SW)*%
X65528300Y-116050000D02*
X65241300Y-115763000D01*
X66362500Y-116050000D02*
X65528300Y-116050000D01*
X72198100Y-100739400D02*
X72500000Y-100437500D01*
X67348600Y-100739400D02*
X72198100Y-100739400D01*
X66648000Y-107209700D02*
X65241300Y-105803000D01*
X80280300Y-107209700D02*
X66648000Y-107209700D01*
X80990000Y-106500000D02*
X80280300Y-107209700D01*
%TO.N,/LED_DATA_5V*%
X132816500Y-132960000D02*
X133081500Y-132695000D01*
X130950000Y-132960000D02*
X132816500Y-132960000D01*
X133964800Y-124500000D02*
X133990000Y-124500000D01*
X133260500Y-125204300D02*
X133964800Y-124500000D01*
%TO.N,/LED_DATA*%
X89040300Y-133540300D02*
X87960000Y-132460000D01*
X90263500Y-133540300D02*
X89040300Y-133540300D01*
X90318200Y-133595000D02*
X90263500Y-133540300D01*
X130315000Y-133595000D02*
X90318200Y-133595000D01*
X130950000Y-134230000D02*
X130315000Y-133595000D01*
%TO.N,/BTN2*%
X70022800Y-126517200D02*
X70040000Y-126500000D01*
X69452200Y-126517200D02*
X70022800Y-126517200D01*
X67530000Y-126500000D02*
X66530000Y-125500000D01*
X70040000Y-126500000D02*
X67530000Y-126500000D01*
X64880000Y-123850000D02*
X66530000Y-125500000D01*
X53212500Y-123850000D02*
X64880000Y-123850000D01*
X51862500Y-122500000D02*
X53212500Y-123850000D01*
X89202100Y-110897900D02*
X90500000Y-109600000D01*
X78517600Y-110897900D02*
X89202100Y-110897900D01*
X73652500Y-115763000D02*
X78517600Y-110897900D01*
X71235800Y-115763000D02*
X73652500Y-115763000D01*
%TO.N,+3.3V*%
X89444300Y-145292100D02*
X89444300Y-145160000D01*
X88520700Y-146215700D02*
X89444300Y-145292100D01*
X81705700Y-146215700D02*
X88520700Y-146215700D01*
X79990000Y-144500000D02*
X81705700Y-146215700D01*
X65287000Y-125723000D02*
X65510000Y-125500000D01*
X64286900Y-125723000D02*
X65287000Y-125723000D01*
X63342800Y-130500000D02*
X63258700Y-130415900D01*
X63990000Y-130500000D02*
X63342800Y-130500000D01*
X52490000Y-140500000D02*
X54490000Y-142500000D01*
X52490000Y-137000000D02*
X52490000Y-140500000D01*
X79337700Y-143847700D02*
X64286900Y-143847700D01*
X79990000Y-144500000D02*
X79337700Y-143847700D01*
X55837700Y-143847700D02*
X54490000Y-142500000D01*
X64286900Y-143847700D02*
X55837700Y-143847700D01*
X64286900Y-143847700D02*
X64286900Y-143651000D01*
X89972200Y-145160000D02*
X89444300Y-145160000D01*
X89972200Y-145160000D02*
X90500000Y-145160000D01*
X129000000Y-149260000D02*
X127848300Y-149260000D01*
X127848300Y-145160000D02*
X127848300Y-149260000D01*
X90500000Y-145160000D02*
X127848300Y-145160000D01*
X134860000Y-145160000D02*
X135020000Y-145000000D01*
X127848300Y-145160000D02*
X134860000Y-145160000D01*
%TO.N,Net-(U2-FB)*%
X67115900Y-117950000D02*
X66362500Y-117950000D01*
X67352200Y-117713700D02*
X67115900Y-117950000D01*
X77671000Y-106799000D02*
X67959500Y-106799000D01*
X79990000Y-104480000D02*
X77671000Y-106799000D01*
X79990000Y-100000000D02*
X79990000Y-104480000D01*
X79990000Y-104480000D02*
X82010000Y-106500000D01*
%TO.N,+5V*%
X64725000Y-97705000D02*
X64725000Y-98750000D01*
X133068200Y-128000000D02*
X132783200Y-127715000D01*
X136520000Y-128000000D02*
X133068200Y-128000000D01*
X64725000Y-98750000D02*
X61245000Y-98750000D01*
X60643400Y-93850000D02*
X61245000Y-93850000D01*
X60167600Y-94325800D02*
X60643400Y-93850000D01*
X60167600Y-98262700D02*
X60167600Y-94325800D01*
X60654900Y-98750000D02*
X60167600Y-98262700D01*
X61245000Y-98750000D02*
X60654900Y-98750000D01*
X143348300Y-116000000D02*
X145348300Y-118000000D01*
X131152700Y-116000000D02*
X143348300Y-116000000D01*
X146500000Y-118000000D02*
X145348300Y-118000000D01*
X89230000Y-141350000D02*
X87960000Y-142620000D01*
X120150000Y-141350000D02*
X89230000Y-141350000D01*
X126000000Y-135500000D02*
X120150000Y-141350000D01*
X67794000Y-101819000D02*
X64725000Y-98750000D01*
X68011300Y-101819000D02*
X67794000Y-101819000D01*
X68754800Y-102562500D02*
X68011300Y-101819000D01*
X72500000Y-102562500D02*
X68754800Y-102562500D01*
X65990000Y-85000000D02*
X66062500Y-85000000D01*
X61990000Y-89000000D02*
X65990000Y-85000000D01*
X61814300Y-93850000D02*
X61245000Y-93850000D01*
X62708700Y-92955600D02*
X61814300Y-93850000D01*
X62083400Y-89093400D02*
X61990000Y-89000000D01*
X62083400Y-92330400D02*
X62083400Y-89093400D01*
X62708700Y-92955600D02*
X62083400Y-92330400D01*
X132783200Y-134076400D02*
X132783200Y-133691000D01*
X131993100Y-134866500D02*
X132783200Y-134076400D01*
X126633500Y-134866500D02*
X131993100Y-134866500D01*
X126000000Y-135500000D02*
X126633500Y-134866500D01*
X62897500Y-93144500D02*
X62708700Y-92955600D01*
X62897600Y-93144500D02*
X62897500Y-93144500D01*
X63203500Y-92838600D02*
X62897600Y-93144500D01*
X74228600Y-92838600D02*
X63203500Y-92838600D01*
X74690000Y-93300000D02*
X74228600Y-92838600D01*
X75673200Y-111193200D02*
X76480000Y-112000000D01*
X66948500Y-111193200D02*
X75673200Y-111193200D01*
X77983800Y-110496200D02*
X83148200Y-110496200D01*
X76480000Y-112000000D02*
X77983800Y-110496200D01*
%TO.N,Net-(J1-CC1)*%
X62480600Y-95050000D02*
X63273600Y-95843000D01*
X61245000Y-95050000D02*
X62480600Y-95050000D01*
X65010000Y-102319800D02*
X65010000Y-102500000D01*
X64470200Y-101780000D02*
X65010000Y-102319800D01*
%TO.N,Net-(BZ1-+)*%
X99990000Y-161500000D02*
X94490000Y-156000000D01*
X102000000Y-161500000D02*
X99990000Y-161500000D01*
%TO.N,Net-(J1-CC2)*%
X60169000Y-103811000D02*
X61308800Y-103811000D01*
X56980000Y-107000000D02*
X60169000Y-103811000D01*
X62295000Y-98050000D02*
X62384100Y-98139100D01*
X61245000Y-98050000D02*
X62295000Y-98050000D01*
%TO.N,Net-(U1-~{CHRG})*%
X75162300Y-91800000D02*
X72210000Y-91800000D01*
X76284800Y-92922500D02*
X75162300Y-91800000D01*
X76284800Y-93763300D02*
X76284800Y-92922500D01*
X74883100Y-95165000D02*
X76284800Y-93763300D01*
X69675000Y-95165000D02*
X74883100Y-95165000D01*
%TO.N,Net-(D1-K)*%
X67937500Y-88547500D02*
X71190000Y-91800000D01*
X67937500Y-85000000D02*
X67937500Y-88547500D01*
%TO.N,GND*%
X67900000Y-95800000D02*
X67200000Y-95800000D01*
X64725000Y-96238100D02*
X64725000Y-96435000D01*
X64286900Y-95800000D02*
X64725000Y-96238100D01*
X71219000Y-126719000D02*
X71000000Y-126500000D01*
X72228500Y-126719000D02*
X71219000Y-126719000D01*
X75749000Y-96839000D02*
X75710000Y-96800000D01*
X76338100Y-96839000D02*
X75749000Y-96839000D01*
X58201000Y-106799000D02*
X58000000Y-107000000D01*
X59323400Y-106799000D02*
X58201000Y-106799000D01*
X130785000Y-127715000D02*
X130950000Y-127880000D01*
X129641600Y-127715000D02*
X130785000Y-127715000D01*
X136333000Y-144647000D02*
X135980000Y-145000000D01*
X136755400Y-144647000D02*
X136333000Y-144647000D01*
X61681700Y-92613300D02*
X61245000Y-93050000D01*
X61681700Y-91235900D02*
X61681700Y-92613300D01*
X61308800Y-90863000D02*
X61681700Y-91235900D01*
X137765000Y-127715000D02*
X137480000Y-128000000D01*
X138739400Y-127715000D02*
X137765000Y-127715000D01*
X130767000Y-135683000D02*
X130950000Y-135500000D01*
X129641600Y-135683000D02*
X130767000Y-135683000D01*
X63675000Y-102815000D02*
X63990000Y-102500000D01*
X63258700Y-102815000D02*
X63675000Y-102815000D01*
X66121500Y-116759000D02*
X66362500Y-117000000D01*
X65241300Y-116759000D02*
X66121500Y-116759000D01*
X62641000Y-99550000D02*
X61245000Y-99550000D01*
X75390900Y-111870900D02*
X75520000Y-112000000D01*
X74213900Y-111870900D02*
X75390900Y-111870900D01*
%TD*%
M02*
