%TF.GenerationSoftware,KiCad,Pcbnew,10.0.0*%
%TF.CreationDate,2026-04-12T14:52:28+04:00*%
%TF.ProjectId,project,70726f6a-6563-4742-9e6b-696361645f70,rev?*%
%TF.SameCoordinates,Original*%
%TF.FileFunction,Copper,L2,Bot*%
%TF.FilePolarity,Positive*%
%FSLAX46Y46*%
G04 Gerber Fmt 4.6, Leading zero omitted, Abs format (unit mm)*
G04 Created by KiCad (PCBNEW 10.0.0) date 2026-04-12 14:52:28*
%MOMM*%
%LPD*%
G01*
G04 APERTURE LIST*
G04 Aperture macros list*
%AMRoundRect*
0 Rectangle with rounded corners*
0 $1 Rounding radius*
0 $2 $3 $4 $5 $6 $7 $8 $9 X,Y pos of 4 corners*
0 Add a 4 corners polygon primitive as box body*
4,1,4,$2,$3,$4,$5,$6,$7,$8,$9,$2,$3,0*
0 Add four circle primitives for the rounded corners*
1,1,$1+$1,$2,$3*
1,1,$1+$1,$4,$5*
1,1,$1+$1,$6,$7*
1,1,$1+$1,$8,$9*
0 Add four rect primitives between the rounded corners*
20,1,$1+$1,$2,$3,$4,$5,0*
20,1,$1+$1,$4,$5,$6,$7,0*
20,1,$1+$1,$6,$7,$8,$9,0*
20,1,$1+$1,$8,$9,$2,$3,0*%
G04 Aperture macros list end*
%TA.AperFunction,ComponentPad*%
%ADD10R,2.000000X2.000000*%
%TD*%
%TA.AperFunction,ComponentPad*%
%ADD11C,2.000000*%
%TD*%
%TA.AperFunction,ComponentPad*%
%ADD12RoundRect,0.250000X0.550000X0.550000X-0.550000X0.550000X-0.550000X-0.550000X0.550000X-0.550000X0*%
%TD*%
%TA.AperFunction,ComponentPad*%
%ADD13C,1.600000*%
%TD*%
%TA.AperFunction,ComponentPad*%
%ADD14R,1.700000X1.700000*%
%TD*%
%TA.AperFunction,ComponentPad*%
%ADD15C,1.700000*%
%TD*%
%TA.AperFunction,ComponentPad*%
%ADD16R,3.200000X2.000000*%
%TD*%
%TA.AperFunction,ComponentPad*%
%ADD17RoundRect,0.250000X0.625000X-0.350000X0.625000X0.350000X-0.625000X0.350000X-0.625000X-0.350000X0*%
%TD*%
%TA.AperFunction,ComponentPad*%
%ADD18O,1.750000X1.200000*%
%TD*%
%TA.AperFunction,HeatsinkPad*%
%ADD19C,0.500000*%
%TD*%
%TA.AperFunction,HeatsinkPad*%
%ADD20R,1.900000X2.900000*%
%TD*%
%TA.AperFunction,ComponentPad*%
%ADD21R,1.508000X1.508000*%
%TD*%
%TA.AperFunction,ComponentPad*%
%ADD22C,1.508000*%
%TD*%
%TA.AperFunction,ComponentPad*%
%ADD23C,2.100000*%
%TD*%
%TA.AperFunction,ComponentPad*%
%ADD24C,1.750000*%
%TD*%
%TA.AperFunction,ComponentPad*%
%ADD25O,2.100000X1.000000*%
%TD*%
%TA.AperFunction,ComponentPad*%
%ADD26O,1.600000X1.000000*%
%TD*%
%TA.AperFunction,ViaPad*%
%ADD27C,0.200000*%
%TD*%
%TA.AperFunction,Conductor*%
%ADD28C,0.200000*%
%TD*%
G04 APERTURE END LIST*
D10*
%TO.P,BZ1,1,+_1*%
%TO.N,Net-(BZ1-+)*%
X102000000Y-161500000D03*
D11*
%TO.P,BZ1,2,-_2*%
%TO.N,GND*%
X107000000Y-161500000D03*
%TD*%
D12*
%TO.P,C4,1*%
%TO.N,+5V*%
X131152700Y-116000000D03*
D13*
%TO.P,C4,2*%
%TO.N,GND*%
X127652700Y-116000000D03*
%TD*%
D14*
%TO.P,J4,1,Pin_1_1*%
%TO.N,+5V*%
X146500000Y-118000000D03*
D15*
%TO.P,J4,2,Pin_2_2*%
%TO.N,GND*%
X146500000Y-115460000D03*
%TO.P,J4,3,Pin_3_3*%
%TO.N,Net-(J4-Pin_3)*%
X146500000Y-112920000D03*
%TD*%
D10*
%TO.P,SW1,A,A_A*%
%TO.N,/ENC_CLK*%
X62500000Y-137500000D03*
D11*
%TO.P,SW1,B,B_B*%
%TO.N,/ENC_DT*%
X62500000Y-142500000D03*
%TO.P,SW1,C,C_C*%
%TO.N,GND*%
X62500000Y-140000000D03*
D16*
%TO.P,SW1,MP*%
%TO.N,N/C*%
X70000000Y-134400000D03*
X70000000Y-145600000D03*
D11*
%TO.P,SW1,S1,S1_S1*%
%TO.N,/ENC_SW*%
X77000000Y-142500000D03*
%TO.P,SW1,S2,S2_S2*%
%TO.N,GND*%
X77000000Y-137500000D03*
%TD*%
D17*
%TO.P,J2,1,Pin_1_1*%
%TO.N,/VBAT_POS*%
X127050000Y-99500000D03*
D18*
%TO.P,J2,2,Pin_2_2*%
%TO.N,GND*%
X127050000Y-97500000D03*
%TD*%
D19*
%TO.P,U1,9,EPAD_9*%
%TO.N,GND*%
X66500000Y-94600000D03*
X66500000Y-95800000D03*
X66500000Y-97000000D03*
D20*
X67200000Y-95800000D03*
D19*
X67900000Y-94600000D03*
X67900000Y-95800000D03*
X67900000Y-97000000D03*
%TD*%
D14*
%TO.P,J3,1,Pin_1_1*%
%TO.N,+3.3V*%
X129000000Y-149260000D03*
D15*
%TO.P,J3,2,Pin_2_2*%
%TO.N,GND*%
X129000000Y-151800000D03*
%TO.P,J3,3,Pin_3_3*%
%TO.N,/LCD_SCL*%
X129000000Y-154340000D03*
%TO.P,J3,4,Pin_4_4*%
%TO.N,/LCD_SDA*%
X129000000Y-156880000D03*
%TO.P,J3,5,Pin_5_5*%
%TO.N,/LCD_RST*%
X129000000Y-159420000D03*
%TO.P,J3,6,Pin_6_6*%
%TO.N,/LCD_DC*%
X129000000Y-161960000D03*
%TO.P,J3,7,Pin_7_7*%
%TO.N,/LCD_CS*%
X129000000Y-164500000D03*
%TD*%
D21*
%TO.P,A1,1,3V3[1]_1*%
%TO.N,+3.3V*%
X90500000Y-145160000D03*
D22*
%TO.P,A1,2,5V[1]_2*%
%TO.N,+5V*%
X87960000Y-145160000D03*
%TO.P,A1,3,GPIO2/SDA_3*%
%TO.N,unconnected-(A1-GPIO2{slash}SDA-Pad3)*%
X90500000Y-142620000D03*
%TO.P,A1,4,5V[2]_4*%
%TO.N,+5V*%
X87960000Y-142620000D03*
%TO.P,A1,5,GPIO3/SCL_5*%
%TO.N,unconnected-(A1-GPIO3{slash}SCL-Pad5)*%
X90500000Y-140080000D03*
%TO.P,A1,6,GND[8]_6*%
%TO.N,GND*%
X87960000Y-140080000D03*
%TO.P,A1,7,GPIO4/GPCKL0_7*%
%TO.N,unconnected-(A1-GPIO4{slash}GPCKL0-Pad7)*%
X90500000Y-137540000D03*
%TO.P,A1,8,TXD0/GPIO14_8*%
%TO.N,unconnected-(A1-TXD0{slash}GPIO14-Pad8)*%
X87960000Y-137540000D03*
%TO.P,A1,9,GND[1]_9*%
%TO.N,GND*%
X90500000Y-135000000D03*
%TO.P,A1,10,RXD0/GPIO15_10*%
%TO.N,unconnected-(A1-RXD0{slash}GPIO15-Pad10)*%
X87960000Y-135000000D03*
%TO.P,A1,11,GPIO17/GEN0_11*%
%TO.N,/ENC_CLK*%
X90500000Y-132460000D03*
%TO.P,A1,12,GPIO18_12*%
%TO.N,/LED_DATA*%
X87960000Y-132460000D03*
%TO.P,A1,13,GPIO27/GEN2_13*%
%TO.N,/ENC_DT*%
X90500000Y-129920000D03*
%TO.P,A1,14,GND[4]_14*%
%TO.N,GND*%
X87960000Y-129920000D03*
%TO.P,A1,15,GPIO22/GEN3_15*%
%TO.N,/ENC_SW*%
X90500000Y-127380000D03*
%TO.P,A1,16,GEN4/GPIO23_16*%
%TO.N,/BTN1*%
X87960000Y-127380000D03*
%TO.P,A1,17,3V3[2]_17*%
%TO.N,+3.3V*%
X90500000Y-124840000D03*
%TO.P,A1,18,GEN5/GPIO24_18*%
%TO.N,/LCD_RST*%
X87960000Y-124840000D03*
%TO.P,A1,19,GPIO10/MOSI_19*%
%TO.N,/LCD_SDA*%
X90500000Y-122300000D03*
%TO.P,A1,20,GND[5]_20*%
%TO.N,GND*%
X87960000Y-122300000D03*
%TO.P,A1,21,GPIO9/MISO_21*%
%TO.N,unconnected-(A1-GPIO9{slash}MISO-Pad21)*%
X90500000Y-119760000D03*
%TO.P,A1,22,GEN/6GPIO25_22*%
%TO.N,/LCD_DC*%
X87960000Y-119760000D03*
%TO.P,A1,23,GPIO11/SCLK_23*%
%TO.N,/LCD_SCL*%
X90500000Y-117220000D03*
%TO.P,A1,24,~{CE0}/GPIO8_24*%
%TO.N,/LCD_CS*%
X87960000Y-117220000D03*
%TO.P,A1,25,GND[2]_25*%
%TO.N,GND*%
X90500000Y-114680000D03*
%TO.P,A1,26,~{CE1}/~{GPIO7}_26*%
%TO.N,unconnected-(A1-~{CE1}{slash}~{GPIO7}-Pad26)*%
X87960000Y-114680000D03*
%TO.P,A1,27,ID_SD_27*%
%TO.N,unconnected-(A1-ID_SD-Pad27)*%
X90500000Y-112140000D03*
%TO.P,A1,28,ID_SC_28*%
%TO.N,unconnected-(A1-ID_SC-Pad28)*%
X87960000Y-112140000D03*
%TO.P,A1,29,GPIO5_29*%
%TO.N,/BTN2*%
X90500000Y-109600000D03*
%TO.P,A1,30,GND[6]_30*%
%TO.N,GND*%
X87960000Y-109600000D03*
%TO.P,A1,31,GPIO6_31*%
%TO.N,unconnected-(A1-GPIO6-Pad31)*%
X90500000Y-107060000D03*
%TO.P,A1,32,GPIO12_32*%
%TO.N,/BUZZER*%
X87960000Y-107060000D03*
%TO.P,A1,33,GPIO13_33*%
%TO.N,unconnected-(A1-GPIO13-Pad33)*%
X90500000Y-104520000D03*
%TO.P,A1,34,GND[7]_34*%
%TO.N,GND*%
X87960000Y-104520000D03*
%TO.P,A1,35,GPIO19_35*%
%TO.N,unconnected-(A1-GPIO19-Pad35)*%
X90500000Y-101980000D03*
%TO.P,A1,36,GPIO16_36*%
%TO.N,unconnected-(A1-GPIO16-Pad36)*%
X87960000Y-101980000D03*
%TO.P,A1,37,GPIO26_37*%
%TO.N,unconnected-(A1-GPIO26-Pad37)*%
X90500000Y-99440000D03*
%TO.P,A1,38,GPIO20_38*%
%TO.N,unconnected-(A1-GPIO20-Pad38)*%
X87960000Y-99440000D03*
%TO.P,A1,39,GND[3]_39*%
%TO.N,GND*%
X90500000Y-96900000D03*
%TO.P,A1,40,GPIO21_40*%
%TO.N,unconnected-(A1-GPIO21-Pad40)*%
X87960000Y-96900000D03*
%TD*%
D23*
%TO.P,SW2,*%
%TO.N,*%
X54352500Y-154025000D03*
X54352500Y-147015000D03*
D24*
%TO.P,SW2,1,1_1*%
%TO.N,/BTN1*%
X51862500Y-152775000D03*
%TO.P,SW2,2,2_2*%
%TO.N,GND*%
X51862500Y-148275000D03*
%TD*%
D23*
%TO.P,SW3,*%
%TO.N,*%
X54352500Y-128250000D03*
X54352500Y-121240000D03*
D24*
%TO.P,SW3,1,1_1*%
%TO.N,GND*%
X51862500Y-127000000D03*
%TO.P,SW3,2,2_2*%
%TO.N,/BTN2*%
X51862500Y-122500000D03*
%TD*%
D25*
%TO.P,J1,SH,SHIELD_SH*%
%TO.N,unconnected-(J1-SHIELD-PadSH)*%
X60330000Y-91980000D03*
D26*
%TO.N,unconnected-(J1-SHIELD-PadSH)_2*%
X56150000Y-91980000D03*
D25*
%TO.N,unconnected-(J1-SHIELD-PadSH)_1*%
X60330000Y-100620000D03*
D26*
%TO.N,unconnected-(J1-SHIELD-PadSH)_3*%
X56150000Y-100620000D03*
%TD*%
D27*
%TO.N,/BTN1*%
X62301500Y-128711000D03*
X61156200Y-142121400D03*
X60316100Y-150623000D03*
%TO.N,/LCD_CS*%
X121863500Y-121739000D03*
%TO.N,/LCD_DC*%
X122161700Y-123731000D03*
%TO.N,/LCD_RST*%
X122856200Y-128711000D03*
%TO.N,/LCD_SDA*%
X92126100Y-122735000D03*
X95811000Y-154772500D03*
%TO.N,/LCD_SCL*%
X91089800Y-151619000D03*
%TO.N,/VBAT_POS*%
X68361200Y-98934500D03*
X67678200Y-116474300D03*
%TO.N,Net-(U1-TEMP)*%
X63413700Y-93766900D03*
X64286900Y-88871000D03*
%TO.N,/ENC_SW*%
X80170100Y-128711000D03*
%TO.N,/ENC_CLK*%
X63294200Y-132695000D03*
X90097100Y-133942000D03*
%TO.N,Net-(U1-PROG)*%
X73221200Y-95843000D03*
X73221200Y-93618100D03*
%TO.N,/BUZZER*%
X96165100Y-155603000D03*
%TO.N,Net-(J4-Pin_3)*%
X141717500Y-123731000D03*
%TO.N,Net-(U2-SW)*%
X65241300Y-115763000D03*
X67348600Y-100739400D03*
X65241300Y-105803000D03*
%TO.N,/LED_DATA_5V*%
X133081500Y-132695000D03*
X133260500Y-125204300D03*
%TO.N,/BTN2*%
X71235800Y-115763000D03*
X69452200Y-126517200D03*
%TO.N,+3.3V*%
X63258700Y-130415900D03*
X64286900Y-125723000D03*
X64286900Y-143651000D03*
%TO.N,Net-(U2-FB)*%
X67959500Y-106799000D03*
X67352200Y-117713700D03*
%TO.N,+5V*%
X132783200Y-127715000D03*
X132783200Y-133691000D03*
X66948500Y-111193200D03*
X68011300Y-101819000D03*
X83148200Y-110496200D03*
%TO.N,Net-(J1-CC1)*%
X63273600Y-95843000D03*
X64470200Y-101780000D03*
%TO.N,Net-(J1-CC2)*%
X61308800Y-103811000D03*
X62384100Y-98139100D03*
%TO.N,GND*%
X64286900Y-95800000D03*
X72228500Y-126719000D03*
X76338100Y-96839000D03*
X59323400Y-106799000D03*
X129641600Y-127715000D03*
X136755400Y-144647000D03*
X61308800Y-90863000D03*
X138739400Y-127715000D03*
X82155500Y-99827000D03*
X129641600Y-135683000D03*
X63258700Y-102815000D03*
X65241300Y-116759000D03*
X62641000Y-99550000D03*
X74213900Y-111870900D03*
%TD*%
%TO.N,GND*%
D28*
X89014000Y-113194000D02*
X90500000Y-114680000D01*
X87960000Y-109600000D02*
X89014000Y-110654000D01*
X89014000Y-110654000D02*
X89014000Y-113194000D01*
X63800000Y-151000000D02*
X63000000Y-151000000D01*
X63800000Y-141300000D02*
X63800000Y-151000000D01*
X62500000Y-140000000D02*
X63800000Y-141300000D01*
X81173000Y-99827000D02*
X81000000Y-100000000D01*
X82155500Y-99827000D02*
X81173000Y-99827000D01*
X86848500Y-104520000D02*
X87960000Y-104520000D01*
X82155500Y-99827000D02*
X86848500Y-104520000D01*
X62641000Y-102197300D02*
X63258700Y-102815000D01*
X62641000Y-99550000D02*
X62641000Y-102197300D01*
%TO.N,/BTN1*%
X61156200Y-129856300D02*
X61156200Y-142121400D01*
X62301500Y-128711000D02*
X61156200Y-129856300D01*
X60316100Y-142961500D02*
X60316100Y-150623000D01*
X61156200Y-142121400D02*
X60316100Y-142961500D01*
%TO.N,/LCD_CS*%
X121760000Y-157260000D02*
X129000000Y-164500000D01*
X121760000Y-121842500D02*
X121760000Y-157260000D01*
X121863500Y-121739000D02*
X121760000Y-121842500D01*
%TO.N,/LCD_DC*%
X122161700Y-155121700D02*
X122161700Y-123731000D01*
X129000000Y-161960000D02*
X122161700Y-155121700D01*
%TO.N,/LCD_RST*%
X122856200Y-153276200D02*
X122856200Y-128711000D01*
X129000000Y-159420000D02*
X122856200Y-153276200D01*
%TO.N,/LCD_SDA*%
X92126100Y-151087600D02*
X95811000Y-154772500D01*
X92126100Y-122735000D02*
X92126100Y-151087600D01*
%TO.N,/LCD_SCL*%
X91573300Y-151135500D02*
X91089800Y-151619000D01*
X91573300Y-118293300D02*
X91573300Y-151135500D01*
X90500000Y-117220000D02*
X91573300Y-118293300D01*
%TO.N,/VBAT_POS*%
X68413000Y-98986300D02*
X68361200Y-98934500D01*
X68413000Y-115739500D02*
X68413000Y-98986300D01*
X67678200Y-116474300D02*
X68413000Y-115739500D01*
%TO.N,Net-(U1-TEMP)*%
X64286900Y-92893700D02*
X64286900Y-88871000D01*
X63413700Y-93766900D02*
X64286900Y-92893700D01*
%TO.N,/ENC_SW*%
X80170100Y-139329900D02*
X77000000Y-142500000D01*
X80170100Y-128711000D02*
X80170100Y-139329900D01*
%TO.N,/ENC_CLK*%
X62500000Y-133489200D02*
X62500000Y-137500000D01*
X63294200Y-132695000D02*
X62500000Y-133489200D01*
X90097100Y-132862900D02*
X90097100Y-133942000D01*
X90500000Y-132460000D02*
X90097100Y-132862900D01*
%TO.N,Net-(U1-PROG)*%
X73221200Y-95843000D02*
X73221200Y-93618100D01*
%TO.N,/BUZZER*%
X89230000Y-108330000D02*
X87960000Y-107060000D01*
X89230000Y-109839200D02*
X89230000Y-108330000D01*
X90260800Y-110870000D02*
X89230000Y-109839200D01*
X90745800Y-110870000D02*
X90260800Y-110870000D01*
X96212700Y-116336900D02*
X90745800Y-110870000D01*
X96212700Y-155555400D02*
X96212700Y-116336900D01*
X96165100Y-155603000D02*
X96212700Y-155555400D01*
%TO.N,Net-(J4-Pin_3)*%
X141717500Y-117702500D02*
X141717500Y-123731000D01*
X146500000Y-112920000D02*
X141717500Y-117702500D01*
%TO.N,Net-(U2-SW)*%
X65241300Y-115763000D02*
X65241300Y-105803000D01*
X65241300Y-102846700D02*
X67348600Y-100739400D01*
X65241300Y-105803000D02*
X65241300Y-102846700D01*
%TO.N,/LED_DATA_5V*%
X133260500Y-132516000D02*
X133260500Y-125204300D01*
X133081500Y-132695000D02*
X133260500Y-132516000D01*
%TO.N,/BTN2*%
X71235800Y-124733600D02*
X69452200Y-126517200D01*
X71235800Y-115763000D02*
X71235800Y-124733600D01*
%TO.N,+3.3V*%
X63258700Y-126751200D02*
X64286900Y-125723000D01*
X63258700Y-130415900D02*
X63258700Y-126751200D01*
X89388700Y-125951300D02*
X90500000Y-124840000D01*
X89388700Y-143125000D02*
X89388700Y-125951300D01*
X90368000Y-144104300D02*
X89388700Y-143125000D01*
X90500000Y-144104300D02*
X90368000Y-144104300D01*
X90500000Y-145160000D02*
X90500000Y-144104300D01*
X64286900Y-131444100D02*
X63258700Y-130415900D01*
X64286900Y-143651000D02*
X64286900Y-131444100D01*
%TO.N,Net-(U2-FB)*%
X67959500Y-111336100D02*
X67959500Y-106799000D01*
X67228400Y-112067200D02*
X67959500Y-111336100D01*
X67228400Y-117589900D02*
X67228400Y-112067200D01*
X67352200Y-117713700D02*
X67228400Y-117589900D01*
%TO.N,+5V*%
X87960000Y-145160000D02*
X87960000Y-142620000D01*
X131152700Y-126084500D02*
X131152700Y-116000000D01*
X132783200Y-127715000D02*
X131152700Y-126084500D01*
X66948500Y-102881800D02*
X68011300Y-101819000D01*
X66948500Y-111193200D02*
X66948500Y-102881800D01*
X83148200Y-137808200D02*
X87960000Y-142620000D01*
X83148200Y-110496200D02*
X83148200Y-137808200D01*
X132679700Y-133587500D02*
X132783200Y-133691000D01*
X132679700Y-127818500D02*
X132679700Y-133587500D01*
X132783200Y-127715000D02*
X132679700Y-127818500D01*
%TO.N,Net-(J1-CC1)*%
X63273600Y-100583400D02*
X63273600Y-95843000D01*
X64470200Y-101780000D02*
X63273600Y-100583400D01*
%TO.N,Net-(J1-CC2)*%
X62239300Y-102880500D02*
X61308800Y-103811000D01*
X62239300Y-98283900D02*
X62239300Y-102880500D01*
X62384100Y-98139100D02*
X62239300Y-98283900D01*
%TD*%
%TA.AperFunction,Conductor*%
%TO.N,GND*%
G36*
X91762150Y-112738154D02*
G01*
X91778390Y-112751825D01*
X95575881Y-116549316D01*
X95609366Y-116610639D01*
X95612200Y-116636997D01*
X95612200Y-153425102D01*
X95592515Y-153492141D01*
X95539711Y-153537896D01*
X95470553Y-153547840D01*
X95406997Y-153518815D01*
X95400519Y-153512783D01*
X92762919Y-150875183D01*
X92729434Y-150813860D01*
X92726600Y-150787502D01*
X92726600Y-122655945D01*
X92726600Y-122655943D01*
X92685677Y-122503216D01*
X92660980Y-122460439D01*
X92606624Y-122366290D01*
X92606618Y-122366282D01*
X92494817Y-122254481D01*
X92494809Y-122254475D01*
X92357890Y-122175426D01*
X92357885Y-122175423D01*
X92265706Y-122150724D01*
X92206046Y-122114358D01*
X92175517Y-122051511D01*
X92173800Y-122030949D01*
X92173800Y-118214245D01*
X92173800Y-118214243D01*
X92132877Y-118061516D01*
X92073469Y-117958617D01*
X92053824Y-117924590D01*
X92053821Y-117924586D01*
X92053820Y-117924584D01*
X91942016Y-117812780D01*
X91942015Y-117812779D01*
X91937685Y-117808449D01*
X91937674Y-117808439D01*
X91757107Y-117627872D01*
X91723622Y-117566549D01*
X91724138Y-117518779D01*
X91722848Y-117518575D01*
X91754500Y-117318736D01*
X91754500Y-117121263D01*
X91723610Y-116926236D01*
X91682591Y-116799994D01*
X91662591Y-116738439D01*
X91572944Y-116562499D01*
X91563366Y-116549316D01*
X91456884Y-116402753D01*
X91317246Y-116263115D01*
X91157503Y-116147057D01*
X91154878Y-116145719D01*
X90987043Y-116060202D01*
X90936250Y-116012230D01*
X90919455Y-115944409D01*
X90941992Y-115878275D01*
X90987046Y-115839235D01*
X91157241Y-115752516D01*
X91192988Y-115726543D01*
X91192988Y-115726541D01*
X90629410Y-115162962D01*
X90692993Y-115145925D01*
X90807007Y-115080099D01*
X90900099Y-114987007D01*
X90965925Y-114872993D01*
X90982962Y-114809409D01*
X91546541Y-115372988D01*
X91546543Y-115372988D01*
X91572516Y-115337241D01*
X91662126Y-115161373D01*
X91723123Y-114973646D01*
X91754000Y-114778697D01*
X91754000Y-114581302D01*
X91723123Y-114386353D01*
X91662126Y-114198626D01*
X91572520Y-114022768D01*
X91572512Y-114022755D01*
X91546542Y-113987010D01*
X91546541Y-113987009D01*
X90982962Y-114550589D01*
X90965925Y-114487007D01*
X90900099Y-114372993D01*
X90807007Y-114279901D01*
X90692993Y-114214075D01*
X90629409Y-114197037D01*
X91192989Y-113633457D01*
X91157236Y-113607481D01*
X90987045Y-113520763D01*
X90936250Y-113472789D01*
X90919455Y-113404968D01*
X90941993Y-113338833D01*
X90987042Y-113299798D01*
X91157501Y-113212944D01*
X91205283Y-113178228D01*
X91317246Y-113096884D01*
X91317248Y-113096881D01*
X91317252Y-113096879D01*
X91456879Y-112957252D01*
X91456881Y-112957248D01*
X91456884Y-112957246D01*
X91572941Y-112797505D01*
X91572944Y-112797501D01*
X91580223Y-112783214D01*
X91628194Y-112732418D01*
X91696014Y-112715620D01*
X91762150Y-112738154D01*
G37*
%TD.AperFunction*%
%TA.AperFunction,Conductor*%
G36*
X89006541Y-122992988D02*
G01*
X89006543Y-122992988D01*
X89032516Y-122957241D01*
X89119235Y-122787046D01*
X89167210Y-122736250D01*
X89235031Y-122719455D01*
X89301165Y-122741992D01*
X89340202Y-122787042D01*
X89424423Y-122952334D01*
X89427058Y-122957505D01*
X89543115Y-123117246D01*
X89682753Y-123256884D01*
X89806158Y-123346541D01*
X89842499Y-123372944D01*
X90012404Y-123459516D01*
X90063199Y-123507490D01*
X90079994Y-123575311D01*
X90057456Y-123641446D01*
X90012404Y-123680483D01*
X89855321Y-123760522D01*
X89842495Y-123767058D01*
X89682753Y-123883115D01*
X89543115Y-124022753D01*
X89427058Y-124182495D01*
X89427056Y-124182499D01*
X89351136Y-124331500D01*
X89340485Y-124352403D01*
X89292510Y-124403199D01*
X89224689Y-124419994D01*
X89158554Y-124397456D01*
X89119515Y-124352403D01*
X89032944Y-124182499D01*
X88972800Y-124099717D01*
X88916884Y-124022753D01*
X88777246Y-123883115D01*
X88617505Y-123767058D01*
X88612334Y-123764423D01*
X88447043Y-123680202D01*
X88396250Y-123632230D01*
X88379455Y-123564409D01*
X88401992Y-123498275D01*
X88447046Y-123459235D01*
X88617241Y-123372516D01*
X88652988Y-123346543D01*
X88652988Y-123346541D01*
X88089410Y-122782962D01*
X88152993Y-122765925D01*
X88267007Y-122700099D01*
X88360099Y-122607007D01*
X88425925Y-122492993D01*
X88442962Y-122429409D01*
X89006541Y-122992988D01*
G37*
%TD.AperFunction*%
%TA.AperFunction,Conductor*%
G36*
X89301446Y-120202542D02*
G01*
X89340482Y-120247593D01*
X89423804Y-120411119D01*
X89427058Y-120417505D01*
X89543115Y-120577246D01*
X89682753Y-120716884D01*
X89832234Y-120825486D01*
X89842499Y-120832944D01*
X90012404Y-120919516D01*
X90063199Y-120967490D01*
X90079994Y-121035311D01*
X90057456Y-121101446D01*
X90012404Y-121140483D01*
X89879192Y-121208360D01*
X89842495Y-121227058D01*
X89682753Y-121343115D01*
X89543115Y-121482753D01*
X89427058Y-121642495D01*
X89427056Y-121642499D01*
X89340203Y-121812954D01*
X89292230Y-121863749D01*
X89224409Y-121880544D01*
X89158274Y-121858006D01*
X89119235Y-121812953D01*
X89032520Y-121642768D01*
X89032512Y-121642755D01*
X89006542Y-121607010D01*
X89006541Y-121607009D01*
X88442962Y-122170589D01*
X88425925Y-122107007D01*
X88360099Y-121992993D01*
X88267007Y-121899901D01*
X88152993Y-121834075D01*
X88089409Y-121817037D01*
X88652989Y-121253457D01*
X88617236Y-121227481D01*
X88447045Y-121140763D01*
X88396250Y-121092789D01*
X88379455Y-121024968D01*
X88401993Y-120958833D01*
X88447042Y-120919798D01*
X88617501Y-120832944D01*
X88665283Y-120798228D01*
X88777246Y-120716884D01*
X88777248Y-120716881D01*
X88777252Y-120716879D01*
X88916879Y-120577252D01*
X88916881Y-120577248D01*
X88916884Y-120577246D01*
X89032941Y-120417505D01*
X89032942Y-120417504D01*
X89032944Y-120417501D01*
X89119517Y-120247593D01*
X89167490Y-120196800D01*
X89235311Y-120180005D01*
X89301446Y-120202542D01*
G37*
%TD.AperFunction*%
%TA.AperFunction,Conductor*%
G36*
X90034075Y-114872993D02*
G01*
X90099901Y-114987007D01*
X90192993Y-115080099D01*
X90307007Y-115145925D01*
X90370590Y-115162962D01*
X89807009Y-115726541D01*
X89807010Y-115726542D01*
X89842755Y-115752512D01*
X89842768Y-115752520D01*
X90012953Y-115839235D01*
X90063749Y-115887210D01*
X90080544Y-115955031D01*
X90058006Y-116021166D01*
X90012954Y-116060203D01*
X89872619Y-116131709D01*
X89842497Y-116147057D01*
X89682753Y-116263115D01*
X89543115Y-116402753D01*
X89427058Y-116562495D01*
X89427056Y-116562499D01*
X89343788Y-116725921D01*
X89340485Y-116732403D01*
X89292510Y-116783199D01*
X89224689Y-116799994D01*
X89158554Y-116777456D01*
X89119515Y-116732403D01*
X89116213Y-116725922D01*
X89032944Y-116562499D01*
X89023366Y-116549316D01*
X88916884Y-116402753D01*
X88777246Y-116263115D01*
X88617503Y-116147057D01*
X88587381Y-116131709D01*
X88447593Y-116060482D01*
X88396800Y-116012510D01*
X88380005Y-115944689D01*
X88402542Y-115878554D01*
X88447593Y-115839517D01*
X88617501Y-115752944D01*
X88712471Y-115683945D01*
X88777246Y-115636884D01*
X88777248Y-115636881D01*
X88777252Y-115636879D01*
X88916879Y-115497252D01*
X88916881Y-115497248D01*
X88916884Y-115497246D01*
X89032943Y-115337502D01*
X89036300Y-115330914D01*
X89119797Y-115167043D01*
X89167768Y-115116250D01*
X89235589Y-115099455D01*
X89301724Y-115121992D01*
X89340763Y-115167045D01*
X89427481Y-115337236D01*
X89453457Y-115372988D01*
X89453457Y-115372989D01*
X90017037Y-114809409D01*
X90034075Y-114872993D01*
G37*
%TD.AperFunction*%
%TA.AperFunction,Conductor*%
G36*
X89301446Y-112582542D02*
G01*
X89340482Y-112627593D01*
X89396817Y-112738154D01*
X89427058Y-112797505D01*
X89543115Y-112957246D01*
X89682753Y-113096884D01*
X89842494Y-113212941D01*
X89842496Y-113212942D01*
X89842499Y-113212944D01*
X90012956Y-113299797D01*
X90063749Y-113347768D01*
X90080544Y-113415589D01*
X90058007Y-113481724D01*
X90012954Y-113520763D01*
X89842767Y-113607479D01*
X89842760Y-113607483D01*
X89807010Y-113633456D01*
X89807010Y-113633457D01*
X90370591Y-114197037D01*
X90307007Y-114214075D01*
X90192993Y-114279901D01*
X90099901Y-114372993D01*
X90034075Y-114487007D01*
X90017037Y-114550590D01*
X89453457Y-113987010D01*
X89453456Y-113987010D01*
X89427483Y-114022760D01*
X89427479Y-114022767D01*
X89340763Y-114192954D01*
X89292788Y-114243749D01*
X89224967Y-114260544D01*
X89158833Y-114238006D01*
X89119798Y-114192957D01*
X89032944Y-114022499D01*
X89032942Y-114022496D01*
X89032941Y-114022494D01*
X88916884Y-113862753D01*
X88777246Y-113723115D01*
X88617505Y-113607058D01*
X88611119Y-113603804D01*
X88447593Y-113520482D01*
X88396800Y-113472510D01*
X88380005Y-113404689D01*
X88402542Y-113338554D01*
X88447593Y-113299517D01*
X88617501Y-113212944D01*
X88637912Y-113198114D01*
X88777246Y-113096884D01*
X88777248Y-113096881D01*
X88777252Y-113096879D01*
X88916879Y-112957252D01*
X88916881Y-112957248D01*
X88916884Y-112957246D01*
X89032941Y-112797505D01*
X89032942Y-112797504D01*
X89032944Y-112797501D01*
X89119517Y-112627593D01*
X89167490Y-112576800D01*
X89235311Y-112560005D01*
X89301446Y-112582542D01*
G37*
%TD.AperFunction*%
%TA.AperFunction,Conductor*%
G36*
X88605158Y-109891604D02*
G01*
X88633942Y-109936717D01*
X88635828Y-109941877D01*
X88670423Y-110070985D01*
X88699360Y-110121104D01*
X88704742Y-110130427D01*
X88704743Y-110130428D01*
X88749479Y-110207914D01*
X88749481Y-110207917D01*
X88868349Y-110326785D01*
X88868355Y-110326790D01*
X89616036Y-111074471D01*
X89649521Y-111135794D01*
X89644537Y-111205486D01*
X89616036Y-111249833D01*
X89543119Y-111322749D01*
X89543115Y-111322753D01*
X89427058Y-111482495D01*
X89427056Y-111482499D01*
X89365783Y-111602754D01*
X89340485Y-111652403D01*
X89292510Y-111703199D01*
X89224689Y-111719994D01*
X89158554Y-111697456D01*
X89119515Y-111652403D01*
X89032944Y-111482499D01*
X88991162Y-111424990D01*
X88916884Y-111322753D01*
X88777246Y-111183115D01*
X88617505Y-111067058D01*
X88612334Y-111064423D01*
X88447043Y-110980202D01*
X88396250Y-110932230D01*
X88379455Y-110864409D01*
X88401992Y-110798275D01*
X88447046Y-110759235D01*
X88617241Y-110672516D01*
X88652988Y-110646543D01*
X88652988Y-110646541D01*
X88089410Y-110082962D01*
X88152993Y-110065925D01*
X88267007Y-110000099D01*
X88360099Y-109907007D01*
X88425925Y-109792993D01*
X88442962Y-109729408D01*
X88605158Y-109891604D01*
G37*
%TD.AperFunction*%
%TA.AperFunction,Conductor*%
G36*
X89006541Y-105212988D02*
G01*
X89006543Y-105212988D01*
X89032516Y-105177241D01*
X89119235Y-105007046D01*
X89167210Y-104956250D01*
X89235031Y-104939455D01*
X89301165Y-104961992D01*
X89340202Y-105007042D01*
X89424423Y-105172334D01*
X89427058Y-105177505D01*
X89543115Y-105337246D01*
X89682753Y-105476884D01*
X89806158Y-105566541D01*
X89842499Y-105592944D01*
X90012404Y-105679516D01*
X90063199Y-105727490D01*
X90079994Y-105795311D01*
X90057456Y-105861446D01*
X90012404Y-105900483D01*
X89855321Y-105980522D01*
X89842495Y-105987058D01*
X89682753Y-106103115D01*
X89543115Y-106242753D01*
X89427058Y-106402495D01*
X89340485Y-106572403D01*
X89292510Y-106623199D01*
X89224689Y-106639994D01*
X89158554Y-106617456D01*
X89119515Y-106572403D01*
X89032944Y-106402499D01*
X89002259Y-106360264D01*
X88916884Y-106242753D01*
X88777246Y-106103115D01*
X88617505Y-105987058D01*
X88612334Y-105984423D01*
X88447043Y-105900202D01*
X88396250Y-105852230D01*
X88379455Y-105784409D01*
X88401992Y-105718275D01*
X88447046Y-105679235D01*
X88617241Y-105592516D01*
X88652988Y-105566543D01*
X88652988Y-105566541D01*
X88089410Y-105002962D01*
X88152993Y-104985925D01*
X88267007Y-104920099D01*
X88360099Y-104827007D01*
X88425925Y-104712993D01*
X88442962Y-104649409D01*
X89006541Y-105212988D01*
G37*
%TD.AperFunction*%
%TA.AperFunction,Conductor*%
G36*
X89301446Y-102422542D02*
G01*
X89340482Y-102467593D01*
X89407895Y-102599895D01*
X89427058Y-102637505D01*
X89543115Y-102797246D01*
X89682753Y-102936884D01*
X89831883Y-103045231D01*
X89842499Y-103052944D01*
X90012404Y-103139516D01*
X90063199Y-103187490D01*
X90079994Y-103255311D01*
X90057456Y-103321446D01*
X90012404Y-103360483D01*
X89855321Y-103440522D01*
X89842495Y-103447058D01*
X89682753Y-103563115D01*
X89543115Y-103702753D01*
X89427058Y-103862495D01*
X89427056Y-103862499D01*
X89340203Y-104032954D01*
X89292230Y-104083749D01*
X89224409Y-104100544D01*
X89158274Y-104078006D01*
X89119235Y-104032953D01*
X89032520Y-103862768D01*
X89032512Y-103862755D01*
X89006542Y-103827010D01*
X89006541Y-103827009D01*
X88442962Y-104390589D01*
X88425925Y-104327007D01*
X88360099Y-104212993D01*
X88267007Y-104119901D01*
X88152993Y-104054075D01*
X88089409Y-104037037D01*
X88652989Y-103473457D01*
X88617236Y-103447481D01*
X88447045Y-103360763D01*
X88396250Y-103312789D01*
X88379455Y-103244968D01*
X88401993Y-103178833D01*
X88447042Y-103139798D01*
X88617501Y-103052944D01*
X88744249Y-102960857D01*
X88777246Y-102936884D01*
X88777248Y-102936881D01*
X88777252Y-102936879D01*
X88916879Y-102797252D01*
X88916881Y-102797248D01*
X88916884Y-102797246D01*
X89032941Y-102637505D01*
X89032942Y-102637504D01*
X89032944Y-102637501D01*
X89119517Y-102467593D01*
X89167490Y-102416800D01*
X89235311Y-102400005D01*
X89301446Y-102422542D01*
G37*
%TD.AperFunction*%
%TA.AperFunction,Conductor*%
G36*
X90034075Y-97092993D02*
G01*
X90099901Y-97207007D01*
X90192993Y-97300099D01*
X90307007Y-97365925D01*
X90370590Y-97382962D01*
X89807009Y-97946541D01*
X89807010Y-97946542D01*
X89842755Y-97972512D01*
X89842768Y-97972520D01*
X90012953Y-98059235D01*
X90063749Y-98107210D01*
X90080544Y-98175031D01*
X90058006Y-98241166D01*
X90012954Y-98280203D01*
X89851189Y-98362627D01*
X89842495Y-98367058D01*
X89682753Y-98483115D01*
X89543115Y-98622753D01*
X89427058Y-98782495D01*
X89340485Y-98952403D01*
X89292510Y-99003199D01*
X89224689Y-99019994D01*
X89158554Y-98997456D01*
X89119515Y-98952403D01*
X89032944Y-98782499D01*
X89012611Y-98754513D01*
X88916884Y-98622753D01*
X88777246Y-98483115D01*
X88617505Y-98367058D01*
X88609456Y-98362957D01*
X88447593Y-98280482D01*
X88396800Y-98232510D01*
X88380005Y-98164689D01*
X88402542Y-98098554D01*
X88447593Y-98059517D01*
X88617501Y-97972944D01*
X88697000Y-97915185D01*
X88777246Y-97856884D01*
X88777248Y-97856881D01*
X88777252Y-97856879D01*
X88916879Y-97717252D01*
X88916881Y-97717248D01*
X88916884Y-97717246D01*
X89032943Y-97557502D01*
X89033079Y-97557236D01*
X89119797Y-97387043D01*
X89167768Y-97336250D01*
X89235589Y-97319455D01*
X89301724Y-97341992D01*
X89340763Y-97387045D01*
X89427481Y-97557236D01*
X89453457Y-97592988D01*
X89453457Y-97592989D01*
X90017037Y-97029409D01*
X90034075Y-97092993D01*
G37*
%TD.AperFunction*%
%TA.AperFunction,Conductor*%
G36*
X63650081Y-140796527D02*
G01*
X63683566Y-140857850D01*
X63686400Y-140884208D01*
X63686400Y-141265011D01*
X63682216Y-141279259D01*
X63683047Y-141290087D01*
X63674243Y-141306409D01*
X63666715Y-141332050D01*
X63654888Y-141342297D01*
X63649881Y-141351583D01*
X63634114Y-141360298D01*
X63613911Y-141377805D01*
X63598413Y-141380033D01*
X63588732Y-141385385D01*
X63569885Y-141384135D01*
X63544753Y-141387749D01*
X63529483Y-141381456D01*
X63519015Y-141380762D01*
X63498082Y-141368515D01*
X63488445Y-141364544D01*
X63481152Y-141359125D01*
X63477510Y-141355483D01*
X63420687Y-141314198D01*
X63420191Y-141313830D01*
X63399510Y-141286408D01*
X63378595Y-141259284D01*
X63378483Y-141258528D01*
X63378120Y-141258046D01*
X63377816Y-141254000D01*
X63373902Y-141227455D01*
X62629409Y-140482962D01*
X62692993Y-140465925D01*
X62807007Y-140400099D01*
X62900099Y-140307007D01*
X62965925Y-140192993D01*
X62982962Y-140129408D01*
X63650081Y-140796527D01*
G37*
%TD.AperFunction*%
%TA.AperFunction,Conductor*%
G36*
X149689258Y-83820185D02*
G01*
X149735013Y-83872989D01*
X149746219Y-83924500D01*
X149746219Y-169520890D01*
X149726534Y-169587929D01*
X149673730Y-169633684D01*
X149622219Y-169644890D01*
X78623105Y-169644890D01*
X78622488Y-169644888D01*
X49623383Y-169500613D01*
X49556442Y-169480596D01*
X49510951Y-169427565D01*
X49500000Y-169376615D01*
X49500000Y-160452135D01*
X100499500Y-160452135D01*
X100499500Y-162547870D01*
X100499501Y-162547876D01*
X100505908Y-162607483D01*
X100556202Y-162742328D01*
X100556206Y-162742335D01*
X100642452Y-162857544D01*
X100642455Y-162857547D01*
X100757664Y-162943793D01*
X100757671Y-162943797D01*
X100892517Y-162994091D01*
X100892516Y-162994091D01*
X100899444Y-162994835D01*
X100952127Y-163000500D01*
X103047872Y-163000499D01*
X103107483Y-162994091D01*
X103242331Y-162943796D01*
X103357546Y-162857546D01*
X103443796Y-162742331D01*
X103494091Y-162607483D01*
X103500500Y-162547873D01*
X103500499Y-161381947D01*
X105500000Y-161381947D01*
X105500000Y-161618052D01*
X105536934Y-161851247D01*
X105609897Y-162075802D01*
X105717087Y-162286174D01*
X105777338Y-162369104D01*
X105777340Y-162369105D01*
X106517037Y-161629408D01*
X106534075Y-161692993D01*
X106599901Y-161807007D01*
X106692993Y-161900099D01*
X106807007Y-161965925D01*
X106870590Y-161982962D01*
X106130893Y-162722658D01*
X106213828Y-162782914D01*
X106424197Y-162890102D01*
X106648752Y-162963065D01*
X106648751Y-162963065D01*
X106881948Y-163000000D01*
X107118052Y-163000000D01*
X107351247Y-162963065D01*
X107575802Y-162890102D01*
X107786163Y-162782918D01*
X107786169Y-162782914D01*
X107869104Y-162722658D01*
X107869105Y-162722658D01*
X107129408Y-161982962D01*
X107192993Y-161965925D01*
X107307007Y-161900099D01*
X107400099Y-161807007D01*
X107465925Y-161692993D01*
X107482962Y-161629409D01*
X108222658Y-162369105D01*
X108222658Y-162369104D01*
X108282914Y-162286169D01*
X108282918Y-162286163D01*
X108390102Y-162075802D01*
X108463065Y-161851247D01*
X108500000Y-161618052D01*
X108500000Y-161381947D01*
X108463065Y-161148752D01*
X108390102Y-160924197D01*
X108282914Y-160713828D01*
X108222658Y-160630894D01*
X108222658Y-160630893D01*
X107482962Y-161370590D01*
X107465925Y-161307007D01*
X107400099Y-161192993D01*
X107307007Y-161099901D01*
X107192993Y-161034075D01*
X107129409Y-161017037D01*
X107869105Y-160277340D01*
X107869104Y-160277338D01*
X107786174Y-160217087D01*
X107575802Y-160109897D01*
X107351247Y-160036934D01*
X107351248Y-160036934D01*
X107118052Y-160000000D01*
X106881948Y-160000000D01*
X106648752Y-160036934D01*
X106424197Y-160109897D01*
X106213830Y-160217084D01*
X106130894Y-160277340D01*
X106870591Y-161017037D01*
X106807007Y-161034075D01*
X106692993Y-161099901D01*
X106599901Y-161192993D01*
X106534075Y-161307007D01*
X106517037Y-161370591D01*
X105777340Y-160630894D01*
X105717084Y-160713830D01*
X105609897Y-160924197D01*
X105536934Y-161148752D01*
X105500000Y-161381947D01*
X103500499Y-161381947D01*
X103500499Y-160452128D01*
X103494091Y-160392517D01*
X103494090Y-160392514D01*
X103484922Y-160367931D01*
X103443797Y-160257671D01*
X103443793Y-160257664D01*
X103357547Y-160142455D01*
X103357544Y-160142452D01*
X103242335Y-160056206D01*
X103242328Y-160056202D01*
X103107482Y-160005908D01*
X103107483Y-160005908D01*
X103047883Y-159999501D01*
X103047881Y-159999500D01*
X103047873Y-159999500D01*
X103047864Y-159999500D01*
X100952129Y-159999500D01*
X100952123Y-159999501D01*
X100892516Y-160005908D01*
X100757671Y-160056202D01*
X100757664Y-160056206D01*
X100642455Y-160142452D01*
X100642452Y-160142455D01*
X100556206Y-160257664D01*
X100556202Y-160257671D01*
X100505908Y-160392517D01*
X100499717Y-160450109D01*
X100499501Y-160452123D01*
X100499500Y-160452135D01*
X49500000Y-160452135D01*
X49500000Y-157339054D01*
X121159498Y-157339054D01*
X121159499Y-157339057D01*
X121200423Y-157491785D01*
X121215433Y-157517782D01*
X121255867Y-157587816D01*
X121279479Y-157628715D01*
X121398349Y-157747585D01*
X121398355Y-157747590D01*
X127666241Y-164015476D01*
X127699726Y-164076799D01*
X127696492Y-164141473D01*
X127682753Y-164183757D01*
X127649500Y-164393713D01*
X127649500Y-164606286D01*
X127682753Y-164816239D01*
X127748444Y-165018414D01*
X127844951Y-165207820D01*
X127969890Y-165379786D01*
X128120213Y-165530109D01*
X128292179Y-165655048D01*
X128292181Y-165655049D01*
X128292184Y-165655051D01*
X128481588Y-165751557D01*
X128683757Y-165817246D01*
X128893713Y-165850500D01*
X128893714Y-165850500D01*
X129106286Y-165850500D01*
X129106287Y-165850500D01*
X129316243Y-165817246D01*
X129518412Y-165751557D01*
X129707816Y-165655051D01*
X129729789Y-165639086D01*
X129879786Y-165530109D01*
X129879788Y-165530106D01*
X129879792Y-165530104D01*
X130030104Y-165379792D01*
X130030106Y-165379788D01*
X130030109Y-165379786D01*
X130155048Y-165207820D01*
X130155047Y-165207820D01*
X130155051Y-165207816D01*
X130251557Y-165018412D01*
X130317246Y-164816243D01*
X130350500Y-164606287D01*
X130350500Y-164393713D01*
X130317246Y-164183757D01*
X130251557Y-163981588D01*
X130155051Y-163792184D01*
X130155049Y-163792181D01*
X130155048Y-163792179D01*
X130030109Y-163620213D01*
X129879786Y-163469890D01*
X129707820Y-163344951D01*
X129707115Y-163344591D01*
X129699054Y-163340485D01*
X129648259Y-163292512D01*
X129631463Y-163224692D01*
X129653999Y-163158556D01*
X129699054Y-163119515D01*
X129707816Y-163115051D01*
X129729789Y-163099086D01*
X129879786Y-162990109D01*
X129879788Y-162990106D01*
X129879792Y-162990104D01*
X130030104Y-162839792D01*
X130030106Y-162839788D01*
X130030109Y-162839786D01*
X130155048Y-162667820D01*
X130155047Y-162667820D01*
X130155051Y-162667816D01*
X130251557Y-162478412D01*
X130317246Y-162276243D01*
X130350500Y-162066287D01*
X130350500Y-161853713D01*
X130317246Y-161643757D01*
X130251557Y-161441588D01*
X130155051Y-161252184D01*
X130155049Y-161252181D01*
X130155048Y-161252179D01*
X130030109Y-161080213D01*
X129879786Y-160929890D01*
X129707820Y-160804951D01*
X129707115Y-160804591D01*
X129699054Y-160800485D01*
X129648259Y-160752512D01*
X129631463Y-160684692D01*
X129653999Y-160618556D01*
X129699054Y-160579515D01*
X129707816Y-160575051D01*
X129876997Y-160452135D01*
X129879786Y-160450109D01*
X129879788Y-160450106D01*
X129879792Y-160450104D01*
X130030104Y-160299792D01*
X130030106Y-160299788D01*
X130030109Y-160299786D01*
X130155048Y-160127820D01*
X130155047Y-160127820D01*
X130155051Y-160127816D01*
X130251557Y-159938412D01*
X130317246Y-159736243D01*
X130350500Y-159526287D01*
X130350500Y-159313713D01*
X130317246Y-159103757D01*
X130251557Y-158901588D01*
X130155051Y-158712184D01*
X130155049Y-158712181D01*
X130155048Y-158712179D01*
X130030109Y-158540213D01*
X129879786Y-158389890D01*
X129707820Y-158264951D01*
X129707115Y-158264591D01*
X129699054Y-158260485D01*
X129648259Y-158212512D01*
X129631463Y-158144692D01*
X129653999Y-158078556D01*
X129699054Y-158039515D01*
X129707816Y-158035051D01*
X129729789Y-158019086D01*
X129879786Y-157910109D01*
X129879788Y-157910106D01*
X129879792Y-157910104D01*
X130030104Y-157759792D01*
X130030106Y-157759788D01*
X130030109Y-157759786D01*
X130155048Y-157587820D01*
X130155047Y-157587820D01*
X130155051Y-157587816D01*
X130251557Y-157398412D01*
X130317246Y-157196243D01*
X130350500Y-156986287D01*
X130350500Y-156773713D01*
X130317246Y-156563757D01*
X130251557Y-156361588D01*
X130155051Y-156172184D01*
X130155049Y-156172181D01*
X130155048Y-156172179D01*
X130030109Y-156000213D01*
X129879786Y-155849890D01*
X129707820Y-155724951D01*
X129707115Y-155724591D01*
X129699054Y-155720485D01*
X129648259Y-155672512D01*
X129631463Y-155604692D01*
X129653999Y-155538556D01*
X129699054Y-155499515D01*
X129707816Y-155495051D01*
X129780312Y-155442380D01*
X129879786Y-155370109D01*
X129879788Y-155370106D01*
X129879792Y-155370104D01*
X130030104Y-155219792D01*
X130030106Y-155219788D01*
X130030109Y-155219786D01*
X130155048Y-155047820D01*
X130155047Y-155047820D01*
X130155051Y-155047816D01*
X130251557Y-154858412D01*
X130317246Y-154656243D01*
X130350500Y-154446287D01*
X130350500Y-154233713D01*
X130317246Y-154023757D01*
X130251557Y-153821588D01*
X130155051Y-153632184D01*
X130155049Y-153632181D01*
X130155048Y-153632179D01*
X130030109Y-153460213D01*
X129879786Y-153309890D01*
X129707817Y-153184949D01*
X129698504Y-153180204D01*
X129647707Y-153132230D01*
X129630912Y-153064409D01*
X129653449Y-152998274D01*
X129698507Y-152959232D01*
X129707555Y-152954622D01*
X129761716Y-152915270D01*
X129761717Y-152915270D01*
X129129408Y-152282962D01*
X129192993Y-152265925D01*
X129307007Y-152200099D01*
X129400099Y-152107007D01*
X129465925Y-151992993D01*
X129482962Y-151929408D01*
X130115270Y-152561717D01*
X130115270Y-152561716D01*
X130154622Y-152507554D01*
X130251095Y-152318217D01*
X130316757Y-152116130D01*
X130316757Y-152116127D01*
X130350000Y-151906246D01*
X130350000Y-151693753D01*
X130316757Y-151483872D01*
X130316757Y-151483869D01*
X130251095Y-151281782D01*
X130154624Y-151092449D01*
X130115270Y-151038282D01*
X130115269Y-151038282D01*
X129482962Y-151670590D01*
X129465925Y-151607007D01*
X129400099Y-151492993D01*
X129307007Y-151399901D01*
X129192993Y-151334075D01*
X129129409Y-151317037D01*
X129799627Y-150646818D01*
X129860950Y-150613333D01*
X129887307Y-150610499D01*
X129897872Y-150610499D01*
X129957483Y-150604091D01*
X130092331Y-150553796D01*
X130207546Y-150467546D01*
X130293796Y-150352331D01*
X130344091Y-150217483D01*
X130350500Y-150157873D01*
X130350499Y-148362128D01*
X130344091Y-148302517D01*
X130342314Y-148297753D01*
X130293797Y-148167671D01*
X130293793Y-148167664D01*
X130207547Y-148052455D01*
X130207544Y-148052452D01*
X130092335Y-147966206D01*
X130092328Y-147966202D01*
X129957482Y-147915908D01*
X129957483Y-147915908D01*
X129897883Y-147909501D01*
X129897881Y-147909500D01*
X129897873Y-147909500D01*
X129897864Y-147909500D01*
X128102129Y-147909500D01*
X128102123Y-147909501D01*
X128042516Y-147915908D01*
X127907671Y-147966202D01*
X127907664Y-147966206D01*
X127792455Y-148052452D01*
X127792452Y-148052455D01*
X127706206Y-148167664D01*
X127706202Y-148167671D01*
X127655908Y-148302517D01*
X127651760Y-148341103D01*
X127649501Y-148362123D01*
X127649500Y-148362135D01*
X127649500Y-150157870D01*
X127649501Y-150157876D01*
X127655908Y-150217483D01*
X127706202Y-150352328D01*
X127706206Y-150352335D01*
X127792452Y-150467544D01*
X127792455Y-150467547D01*
X127907664Y-150553793D01*
X127907671Y-150553797D01*
X127952618Y-150570561D01*
X128042517Y-150604091D01*
X128102127Y-150610500D01*
X128112685Y-150610499D01*
X128179723Y-150630179D01*
X128200372Y-150646818D01*
X128870591Y-151317037D01*
X128807007Y-151334075D01*
X128692993Y-151399901D01*
X128599901Y-151492993D01*
X128534075Y-151607007D01*
X128517037Y-151670591D01*
X127884728Y-151038282D01*
X127884727Y-151038282D01*
X127845380Y-151092439D01*
X127748904Y-151281782D01*
X127683242Y-151483869D01*
X127683242Y-151483872D01*
X127650000Y-151693753D01*
X127650000Y-151906246D01*
X127683242Y-152116127D01*
X127683242Y-152116130D01*
X127748904Y-152318217D01*
X127845375Y-152507550D01*
X127884728Y-152561716D01*
X128517037Y-151929408D01*
X128534075Y-151992993D01*
X128599901Y-152107007D01*
X128692993Y-152200099D01*
X128807007Y-152265925D01*
X128870590Y-152282962D01*
X128238282Y-152915269D01*
X128238282Y-152915270D01*
X128292452Y-152954626D01*
X128292451Y-152954626D01*
X128301495Y-152959234D01*
X128352292Y-153007208D01*
X128369087Y-153075029D01*
X128346550Y-153141164D01*
X128301499Y-153180202D01*
X128292182Y-153184949D01*
X128120213Y-153309890D01*
X127969890Y-153460213D01*
X127844951Y-153632179D01*
X127748444Y-153821585D01*
X127682753Y-154023760D01*
X127668044Y-154116629D01*
X127649500Y-154233713D01*
X127649500Y-154446287D01*
X127682754Y-154656243D01*
X127741694Y-154837642D01*
X127748444Y-154858414D01*
X127844951Y-155047820D01*
X127969890Y-155219786D01*
X128120213Y-155370109D01*
X128292182Y-155495050D01*
X128300946Y-155499516D01*
X128351742Y-155547491D01*
X128368536Y-155615312D01*
X128345998Y-155681447D01*
X128300946Y-155720484D01*
X128292182Y-155724949D01*
X128120213Y-155849890D01*
X127969890Y-156000213D01*
X127844951Y-156172179D01*
X127748444Y-156361585D01*
X127682753Y-156563760D01*
X127649500Y-156773713D01*
X127649500Y-156920903D01*
X127629815Y-156987942D01*
X127577011Y-157033697D01*
X127507853Y-157043641D01*
X127444297Y-157014616D01*
X127437819Y-157008584D01*
X123493019Y-153063784D01*
X123459534Y-153002461D01*
X123456700Y-152976103D01*
X123456700Y-128631945D01*
X123456700Y-128631943D01*
X123415777Y-128479216D01*
X123400607Y-128452941D01*
X123336724Y-128342290D01*
X123336718Y-128342282D01*
X123224917Y-128230481D01*
X123224909Y-128230475D01*
X123087990Y-128151426D01*
X123087986Y-128151424D01*
X123087984Y-128151423D01*
X122935257Y-128110500D01*
X122886200Y-128110500D01*
X122819161Y-128090815D01*
X122773406Y-128038011D01*
X122762200Y-127986500D01*
X122762200Y-123651945D01*
X122762200Y-123651943D01*
X122721277Y-123499216D01*
X122661732Y-123396080D01*
X122642224Y-123362290D01*
X122642218Y-123362282D01*
X122530417Y-123250481D01*
X122530412Y-123250477D01*
X122422500Y-123188174D01*
X122374284Y-123137607D01*
X122360500Y-123080787D01*
X122360500Y-122112396D01*
X122377111Y-122050399D01*
X122401495Y-122008165D01*
X122423077Y-121970785D01*
X122464000Y-121818057D01*
X122464000Y-121659943D01*
X122423077Y-121507215D01*
X122368894Y-121413368D01*
X122344020Y-121370284D01*
X122232216Y-121258480D01*
X122145404Y-121208360D01*
X122145404Y-121208359D01*
X122145402Y-121208359D01*
X122095285Y-121179423D01*
X122095282Y-121179422D01*
X122016713Y-121158370D01*
X121942557Y-121138500D01*
X121784443Y-121138500D01*
X121631715Y-121179423D01*
X121631714Y-121179423D01*
X121631712Y-121179424D01*
X121631709Y-121179425D01*
X121581596Y-121208359D01*
X121581595Y-121208360D01*
X121549209Y-121227058D01*
X121494785Y-121258479D01*
X121494782Y-121258481D01*
X121279481Y-121473782D01*
X121279479Y-121473785D01*
X121229361Y-121560594D01*
X121229359Y-121560596D01*
X121200425Y-121610709D01*
X121200424Y-121610710D01*
X121200423Y-121610715D01*
X121159499Y-121763443D01*
X121159499Y-121921557D01*
X121159499Y-121921559D01*
X121159500Y-121931558D01*
X121159500Y-157173330D01*
X121159499Y-157173348D01*
X121159499Y-157339054D01*
X121159498Y-157339054D01*
X49500000Y-157339054D01*
X49500000Y-152666746D01*
X50487000Y-152666746D01*
X50487000Y-152883253D01*
X50520870Y-153097098D01*
X50587772Y-153303006D01*
X50587773Y-153303009D01*
X50652385Y-153429815D01*
X50686067Y-153495919D01*
X50813328Y-153671078D01*
X50966422Y-153824172D01*
X51141581Y-153951433D01*
X51193955Y-153978119D01*
X51334490Y-154049726D01*
X51334493Y-154049727D01*
X51437447Y-154083178D01*
X51540403Y-154116630D01*
X51754246Y-154150500D01*
X51754247Y-154150500D01*
X51970753Y-154150500D01*
X51970754Y-154150500D01*
X52184597Y-154116630D01*
X52390509Y-154049726D01*
X52583419Y-153951433D01*
X52605113Y-153935670D01*
X52670919Y-153912190D01*
X52738973Y-153928015D01*
X52787669Y-153978119D01*
X52802000Y-154035988D01*
X52802000Y-154147026D01*
X52840178Y-154388072D01*
X52915597Y-154620187D01*
X53026396Y-154837642D01*
X53169839Y-155035076D01*
X53169843Y-155035081D01*
X53342418Y-155207656D01*
X53342423Y-155207660D01*
X53473511Y-155302900D01*
X53539861Y-155351106D01*
X53757315Y-155461904D01*
X53989424Y-155537321D01*
X54230473Y-155575500D01*
X54230474Y-155575500D01*
X54474526Y-155575500D01*
X54474527Y-155575500D01*
X54715576Y-155537321D01*
X54947685Y-155461904D01*
X55165139Y-155351106D01*
X55362583Y-155207655D01*
X55535155Y-155035083D01*
X55678606Y-154837639D01*
X55789404Y-154620185D01*
X55864821Y-154388076D01*
X55903000Y-154147027D01*
X55903000Y-153902973D01*
X55864821Y-153661924D01*
X55789404Y-153429815D01*
X55678606Y-153212361D01*
X55544272Y-153027465D01*
X55535160Y-153014923D01*
X55535156Y-153014918D01*
X55362581Y-152842343D01*
X55362576Y-152842339D01*
X55165142Y-152698896D01*
X55165141Y-152698895D01*
X55165139Y-152698894D01*
X54947685Y-152588096D01*
X54715576Y-152512679D01*
X54715574Y-152512678D01*
X54715572Y-152512678D01*
X54547269Y-152486021D01*
X54474527Y-152474500D01*
X54230473Y-152474500D01*
X54174593Y-152483350D01*
X53989427Y-152512678D01*
X53757312Y-152588097D01*
X53539856Y-152698896D01*
X53434885Y-152775162D01*
X53369078Y-152798642D01*
X53301025Y-152782816D01*
X53252330Y-152732710D01*
X53238000Y-152674844D01*
X53238000Y-152666746D01*
X53225543Y-152588096D01*
X53204130Y-152452903D01*
X53170678Y-152349947D01*
X53137227Y-152246993D01*
X53137226Y-152246990D01*
X53038932Y-152054080D01*
X52911672Y-151878922D01*
X52758578Y-151725828D01*
X52583419Y-151598567D01*
X52390509Y-151500273D01*
X52390506Y-151500272D01*
X52184598Y-151433370D01*
X52077675Y-151416435D01*
X51970754Y-151399500D01*
X51754246Y-151399500D01*
X51682965Y-151410790D01*
X51540401Y-151433370D01*
X51334493Y-151500272D01*
X51334490Y-151500273D01*
X51141580Y-151598567D01*
X51063220Y-151655500D01*
X50966422Y-151725828D01*
X50966420Y-151725830D01*
X50966419Y-151725830D01*
X50813330Y-151878919D01*
X50813330Y-151878920D01*
X50813328Y-151878922D01*
X50793476Y-151906246D01*
X50686067Y-152054080D01*
X50587773Y-152246990D01*
X50587772Y-152246993D01*
X50520870Y-152452901D01*
X50487000Y-152666746D01*
X49500000Y-152666746D01*
X49500000Y-148166779D01*
X50487500Y-148166779D01*
X50487500Y-148383220D01*
X50521357Y-148596981D01*
X50588235Y-148802814D01*
X50588236Y-148802817D01*
X50686496Y-148995660D01*
X50729329Y-149054615D01*
X50729330Y-149054616D01*
X51383619Y-148400326D01*
X51401234Y-148466063D01*
X51466402Y-148578937D01*
X51558563Y-148671098D01*
X51671437Y-148736266D01*
X51737172Y-148753880D01*
X51082882Y-149408168D01*
X51141842Y-149451005D01*
X51334682Y-149549263D01*
X51334685Y-149549264D01*
X51540518Y-149616142D01*
X51754280Y-149650000D01*
X51970720Y-149650000D01*
X52184481Y-149616142D01*
X52390314Y-149549264D01*
X52390317Y-149549263D01*
X52583156Y-149451006D01*
X52642115Y-149408168D01*
X52642116Y-149408168D01*
X51987827Y-148753880D01*
X52053563Y-148736266D01*
X52166437Y-148671098D01*
X52258598Y-148578937D01*
X52323766Y-148466063D01*
X52341380Y-148400326D01*
X52995668Y-149054616D01*
X52995668Y-149054615D01*
X53038506Y-148995656D01*
X53136763Y-148802817D01*
X53136764Y-148802814D01*
X53203642Y-148596981D01*
X53237500Y-148383220D01*
X53237500Y-148364792D01*
X53257185Y-148297753D01*
X53309989Y-148251998D01*
X53379147Y-148242054D01*
X53434385Y-148264474D01*
X53524541Y-148329975D01*
X53539861Y-148341106D01*
X53757315Y-148451904D01*
X53989424Y-148527321D01*
X54230473Y-148565500D01*
X54230474Y-148565500D01*
X54474526Y-148565500D01*
X54474527Y-148565500D01*
X54715576Y-148527321D01*
X54947685Y-148451904D01*
X55165139Y-148341106D01*
X55362583Y-148197655D01*
X55535155Y-148025083D01*
X55678606Y-147827639D01*
X55789404Y-147610185D01*
X55864821Y-147378076D01*
X55903000Y-147137027D01*
X55903000Y-146892973D01*
X55864821Y-146651924D01*
X55789404Y-146419815D01*
X55678606Y-146202361D01*
X55547191Y-146021483D01*
X55535160Y-146004923D01*
X55535156Y-146004918D01*
X55362581Y-145832343D01*
X55362576Y-145832339D01*
X55165142Y-145688896D01*
X55165141Y-145688895D01*
X55165139Y-145688894D01*
X54947685Y-145578096D01*
X54715576Y-145502679D01*
X54715574Y-145502678D01*
X54715572Y-145502678D01*
X54547269Y-145476021D01*
X54474527Y-145464500D01*
X54230473Y-145464500D01*
X54174593Y-145473350D01*
X53989427Y-145502678D01*
X53757312Y-145578097D01*
X53539857Y-145688896D01*
X53342423Y-145832339D01*
X53342418Y-145832343D01*
X53169843Y-146004918D01*
X53169839Y-146004923D01*
X53026396Y-146202357D01*
X52915597Y-146419812D01*
X52840178Y-146651927D01*
X52802000Y-146892973D01*
X52802000Y-147014628D01*
X52782315Y-147081667D01*
X52729511Y-147127422D01*
X52660353Y-147137366D01*
X52605116Y-147114947D01*
X52583160Y-147098995D01*
X52390317Y-147000736D01*
X52390314Y-147000735D01*
X52184481Y-146933857D01*
X51970720Y-146900000D01*
X51754280Y-146900000D01*
X51540518Y-146933857D01*
X51334685Y-147000735D01*
X51334682Y-147000736D01*
X51141846Y-147098992D01*
X51082883Y-147141830D01*
X51737173Y-147796119D01*
X51671437Y-147813734D01*
X51558563Y-147878902D01*
X51466402Y-147971063D01*
X51401234Y-148083937D01*
X51383619Y-148149672D01*
X50729330Y-147495383D01*
X50686492Y-147554346D01*
X50588236Y-147747182D01*
X50588235Y-147747185D01*
X50521357Y-147953018D01*
X50487500Y-148166779D01*
X49500000Y-148166779D01*
X49500000Y-142882443D01*
X59715599Y-142882443D01*
X59715599Y-143040557D01*
X59715600Y-143040560D01*
X59715600Y-150702057D01*
X59752258Y-150838864D01*
X59756523Y-150854783D01*
X59756526Y-150854790D01*
X59835575Y-150991709D01*
X59835579Y-150991714D01*
X59835580Y-150991716D01*
X59947384Y-151103520D01*
X59947386Y-151103521D01*
X59947390Y-151103524D01*
X60007937Y-151138480D01*
X60084316Y-151182577D01*
X60237043Y-151223500D01*
X60237045Y-151223500D01*
X60395155Y-151223500D01*
X60395157Y-151223500D01*
X60547884Y-151182577D01*
X60684816Y-151103520D01*
X60796620Y-150991716D01*
X60875677Y-150854784D01*
X60916600Y-150702057D01*
X60916600Y-144552135D01*
X67899500Y-144552135D01*
X67899500Y-146647870D01*
X67899501Y-146647876D01*
X67905908Y-146707483D01*
X67956202Y-146842328D01*
X67956206Y-146842335D01*
X68042452Y-146957544D01*
X68042455Y-146957547D01*
X68157664Y-147043793D01*
X68157671Y-147043797D01*
X68292517Y-147094091D01*
X68292516Y-147094091D01*
X68299444Y-147094835D01*
X68352127Y-147100500D01*
X71647872Y-147100499D01*
X71707483Y-147094091D01*
X71842331Y-147043796D01*
X71957546Y-146957546D01*
X72043796Y-146842331D01*
X72094091Y-146707483D01*
X72100500Y-146647873D01*
X72100499Y-144552128D01*
X72094091Y-144492517D01*
X72091775Y-144486308D01*
X72043797Y-144357671D01*
X72043793Y-144357664D01*
X71957547Y-144242455D01*
X71957544Y-144242452D01*
X71842335Y-144156206D01*
X71842328Y-144156202D01*
X71707482Y-144105908D01*
X71707483Y-144105908D01*
X71647883Y-144099501D01*
X71647881Y-144099500D01*
X71647873Y-144099500D01*
X71647864Y-144099500D01*
X68352129Y-144099500D01*
X68352123Y-144099501D01*
X68292516Y-144105908D01*
X68157671Y-144156202D01*
X68157664Y-144156206D01*
X68042455Y-144242452D01*
X68042452Y-144242455D01*
X67956206Y-144357664D01*
X67956202Y-144357671D01*
X67905908Y-144492517D01*
X67899501Y-144552116D01*
X67899501Y-144552123D01*
X67899500Y-144552135D01*
X60916600Y-144552135D01*
X60916600Y-143261596D01*
X60936285Y-143194557D01*
X60952915Y-143173919D01*
X60968974Y-143157860D01*
X61030296Y-143124376D01*
X61099988Y-143129360D01*
X61155921Y-143171232D01*
X61167139Y-143189248D01*
X61216655Y-143286431D01*
X61258365Y-143343839D01*
X61355483Y-143477510D01*
X61522490Y-143644517D01*
X61713567Y-143783343D01*
X61740993Y-143797317D01*
X61924003Y-143890566D01*
X61924005Y-143890566D01*
X61924008Y-143890568D01*
X62044412Y-143929689D01*
X62148631Y-143963553D01*
X62381903Y-144000500D01*
X62381908Y-144000500D01*
X62618097Y-144000500D01*
X62851368Y-143963553D01*
X63075992Y-143890568D01*
X63286433Y-143783343D01*
X63477510Y-143644517D01*
X63477524Y-143644502D01*
X63481214Y-143641353D01*
X63482616Y-143642995D01*
X63536042Y-143613823D01*
X63605734Y-143618807D01*
X63661667Y-143660679D01*
X63684575Y-143722097D01*
X63685339Y-143721997D01*
X63685776Y-143725317D01*
X63686084Y-143726143D01*
X63686158Y-143728218D01*
X63686400Y-143730056D01*
X63727323Y-143882783D01*
X63727326Y-143882790D01*
X63806375Y-144019709D01*
X63806379Y-144019714D01*
X63806380Y-144019716D01*
X63918184Y-144131520D01*
X63918186Y-144131521D01*
X63918190Y-144131524D01*
X64042191Y-144203115D01*
X64055116Y-144210577D01*
X64207843Y-144251500D01*
X64207845Y-144251500D01*
X64365955Y-144251500D01*
X64365957Y-144251500D01*
X64518684Y-144210577D01*
X64655616Y-144131520D01*
X64767420Y-144019716D01*
X64846477Y-143882784D01*
X64887400Y-143730057D01*
X64887400Y-142618095D01*
X75499499Y-142618095D01*
X75536446Y-142851368D01*
X75609433Y-143075996D01*
X75677832Y-143210235D01*
X75716657Y-143286433D01*
X75855483Y-143477510D01*
X76022490Y-143644517D01*
X76213567Y-143783343D01*
X76240993Y-143797317D01*
X76424003Y-143890566D01*
X76424005Y-143890566D01*
X76424008Y-143890568D01*
X76544412Y-143929689D01*
X76648631Y-143963553D01*
X76881903Y-144000500D01*
X76881908Y-144000500D01*
X77118097Y-144000500D01*
X77351368Y-143963553D01*
X77575992Y-143890568D01*
X77786433Y-143783343D01*
X77977510Y-143644517D01*
X78144517Y-143477510D01*
X78283343Y-143286433D01*
X78390568Y-143075992D01*
X78463553Y-142851368D01*
X78484560Y-142718736D01*
X78500500Y-142618095D01*
X78500500Y-142381902D01*
X78475868Y-142226390D01*
X78463553Y-142148632D01*
X78422547Y-142022433D01*
X78420553Y-141952593D01*
X78452796Y-141896437D01*
X80528606Y-139820628D01*
X80528611Y-139820624D01*
X80538814Y-139810420D01*
X80538816Y-139810420D01*
X80650620Y-139698616D01*
X80729677Y-139561684D01*
X80761688Y-139442218D01*
X80770600Y-139408958D01*
X80770600Y-139250843D01*
X80770600Y-137887254D01*
X82547698Y-137887254D01*
X82547699Y-137887257D01*
X82588623Y-138039985D01*
X82599935Y-138059577D01*
X82667679Y-138176914D01*
X82667681Y-138176917D01*
X82786549Y-138295785D01*
X82786555Y-138295790D01*
X86702892Y-142212127D01*
X86736377Y-142273450D01*
X86735873Y-142321222D01*
X86737152Y-142321425D01*
X86705500Y-142521263D01*
X86705500Y-142718736D01*
X86736389Y-142913763D01*
X86780837Y-143050558D01*
X86797409Y-143101561D01*
X86852782Y-143210235D01*
X86887058Y-143277504D01*
X87003115Y-143437246D01*
X87003121Y-143437252D01*
X87142748Y-143576879D01*
X87302499Y-143692944D01*
X87302503Y-143692946D01*
X87306441Y-143695807D01*
X87305399Y-143697241D01*
X87347159Y-143743390D01*
X87359500Y-143797317D01*
X87359500Y-143982682D01*
X87339815Y-144049721D01*
X87305675Y-144083139D01*
X87306440Y-144084192D01*
X87142753Y-144203115D01*
X87003115Y-144342753D01*
X86887058Y-144502495D01*
X86797408Y-144678441D01*
X86736389Y-144866236D01*
X86705500Y-145061263D01*
X86705500Y-145258736D01*
X86736389Y-145453763D01*
X86776788Y-145578096D01*
X86797409Y-145641561D01*
X86821527Y-145688894D01*
X86887058Y-145817504D01*
X87003115Y-145977246D01*
X87142753Y-146116884D01*
X87292234Y-146225486D01*
X87302499Y-146232944D01*
X87478439Y-146322591D01*
X87603637Y-146363270D01*
X87666236Y-146383610D01*
X87861264Y-146414500D01*
X87861269Y-146414500D01*
X88058736Y-146414500D01*
X88253763Y-146383610D01*
X88441561Y-146322591D01*
X88617501Y-146232944D01*
X88722955Y-146156328D01*
X88777246Y-146116884D01*
X88777248Y-146116881D01*
X88777252Y-146116879D01*
X88916879Y-145977252D01*
X89021183Y-145833688D01*
X89076510Y-145791023D01*
X89146124Y-145785043D01*
X89207919Y-145817649D01*
X89242277Y-145878487D01*
X89245500Y-145906572D01*
X89245500Y-145961869D01*
X89245501Y-145961876D01*
X89251908Y-146021483D01*
X89302202Y-146156328D01*
X89302206Y-146156335D01*
X89388452Y-146271544D01*
X89388455Y-146271547D01*
X89503664Y-146357793D01*
X89503671Y-146357797D01*
X89638517Y-146408091D01*
X89638516Y-146408091D01*
X89645444Y-146408835D01*
X89698127Y-146414500D01*
X90848800Y-146414499D01*
X90915839Y-146434184D01*
X90961594Y-146486987D01*
X90972800Y-146538499D01*
X90972800Y-149353468D01*
X90953115Y-149420507D01*
X90900311Y-149466262D01*
X90831153Y-149476206D01*
X90767597Y-149447181D01*
X90738315Y-149409763D01*
X90704487Y-149343374D01*
X90620252Y-149178053D01*
X90601038Y-149151607D01*
X90469867Y-148971064D01*
X90469863Y-148971059D01*
X90288940Y-148790136D01*
X90288935Y-148790132D01*
X90081950Y-148639750D01*
X90081949Y-148639749D01*
X90081947Y-148639748D01*
X90008910Y-148602533D01*
X89853975Y-148523589D01*
X89853972Y-148523588D01*
X89610640Y-148444526D01*
X89484284Y-148424513D01*
X89357930Y-148404500D01*
X89102070Y-148404500D01*
X89017833Y-148417842D01*
X88849359Y-148444526D01*
X88606027Y-148523588D01*
X88606024Y-148523589D01*
X88378049Y-148639750D01*
X88171064Y-148790132D01*
X88171059Y-148790136D01*
X87990136Y-148971059D01*
X87990132Y-148971064D01*
X87839750Y-149178049D01*
X87723589Y-149406024D01*
X87723588Y-149406027D01*
X87644526Y-149649359D01*
X87604500Y-149902070D01*
X87604500Y-150157930D01*
X87624513Y-150284284D01*
X87644526Y-150410640D01*
X87723588Y-150653972D01*
X87723589Y-150653975D01*
X87839750Y-150881950D01*
X87990132Y-151088935D01*
X87990136Y-151088940D01*
X88171059Y-151269863D01*
X88171064Y-151269867D01*
X88332576Y-151387211D01*
X88378053Y-151420252D01*
X88502908Y-151483869D01*
X88606024Y-151536410D01*
X88606027Y-151536411D01*
X88727693Y-151575942D01*
X88849361Y-151615474D01*
X89102070Y-151655500D01*
X89102071Y-151655500D01*
X89357929Y-151655500D01*
X89357930Y-151655500D01*
X89610639Y-151615474D01*
X89853975Y-151536410D01*
X90081947Y-151420252D01*
X90270150Y-151283515D01*
X90288934Y-151269868D01*
X90288934Y-151269867D01*
X90288942Y-151269862D01*
X90354125Y-151204678D01*
X90415444Y-151171196D01*
X90485136Y-151176180D01*
X90541070Y-151218051D01*
X90565487Y-151283515D01*
X90550636Y-151351788D01*
X90549190Y-151354362D01*
X90530224Y-151387211D01*
X90530223Y-151387215D01*
X90489299Y-151539943D01*
X90489299Y-151539945D01*
X90489299Y-151698054D01*
X90489298Y-151698054D01*
X90530224Y-151850787D01*
X90546467Y-151878920D01*
X90546468Y-151878922D01*
X90609277Y-151987712D01*
X90609281Y-151987717D01*
X90721084Y-152099520D01*
X90807895Y-152149639D01*
X90807897Y-152149641D01*
X90845951Y-152171611D01*
X90858015Y-152178577D01*
X91010743Y-152219501D01*
X91010746Y-152219501D01*
X91168854Y-152219501D01*
X91168857Y-152219501D01*
X91321585Y-152178577D01*
X91371704Y-152149639D01*
X91458516Y-152099520D01*
X91570320Y-151987716D01*
X91570320Y-151987714D01*
X91580528Y-151977507D01*
X91580530Y-151977504D01*
X91785968Y-151772066D01*
X91847291Y-151738581D01*
X91916983Y-151743565D01*
X91961330Y-151772066D01*
X95442284Y-155253020D01*
X95442285Y-155253021D01*
X95442287Y-155253022D01*
X95528679Y-155302900D01*
X95576894Y-155353466D01*
X95590118Y-155422073D01*
X95586454Y-155442380D01*
X95564599Y-155523943D01*
X95564599Y-155682054D01*
X95564598Y-155682054D01*
X95605523Y-155834785D01*
X95634458Y-155884900D01*
X95634459Y-155884904D01*
X95634460Y-155884904D01*
X95684580Y-155971716D01*
X95796384Y-156083520D01*
X95850870Y-156114977D01*
X95850869Y-156114977D01*
X95850872Y-156114978D01*
X95933309Y-156162574D01*
X95933310Y-156162575D01*
X95933312Y-156162575D01*
X95933315Y-156162577D01*
X96086043Y-156203501D01*
X96086046Y-156203501D01*
X96244154Y-156203501D01*
X96244157Y-156203501D01*
X96396885Y-156162577D01*
X96479330Y-156114977D01*
X96533816Y-156083520D01*
X96645620Y-155971716D01*
X96693220Y-155924116D01*
X96772277Y-155787184D01*
X96788953Y-155724949D01*
X96813201Y-155634457D01*
X96813201Y-155476342D01*
X96813201Y-155468747D01*
X96813200Y-155468729D01*
X96813200Y-149902070D01*
X110604500Y-149902070D01*
X110604500Y-150157930D01*
X110624513Y-150284284D01*
X110644526Y-150410640D01*
X110723588Y-150653972D01*
X110723589Y-150653975D01*
X110839750Y-150881950D01*
X110990132Y-151088935D01*
X110990136Y-151088940D01*
X111171059Y-151269863D01*
X111171064Y-151269867D01*
X111332576Y-151387211D01*
X111378053Y-151420252D01*
X111502908Y-151483869D01*
X111606024Y-151536410D01*
X111606027Y-151536411D01*
X111727693Y-151575942D01*
X111849361Y-151615474D01*
X112102070Y-151655500D01*
X112102071Y-151655500D01*
X112357929Y-151655500D01*
X112357930Y-151655500D01*
X112610639Y-151615474D01*
X112853975Y-151536410D01*
X113081947Y-151420252D01*
X113288942Y-151269862D01*
X113469862Y-151088942D01*
X113620252Y-150881947D01*
X113736410Y-150653975D01*
X113815474Y-150410639D01*
X113855500Y-150157930D01*
X113855500Y-149902070D01*
X113815474Y-149649361D01*
X113751025Y-149451005D01*
X113736411Y-149406027D01*
X113736410Y-149406024D01*
X113696185Y-149327080D01*
X113620252Y-149178053D01*
X113601038Y-149151607D01*
X113469867Y-148971064D01*
X113469863Y-148971059D01*
X113288940Y-148790136D01*
X113288935Y-148790132D01*
X113081950Y-148639750D01*
X113081949Y-148639749D01*
X113081947Y-148639748D01*
X113008910Y-148602533D01*
X112853975Y-148523589D01*
X112853972Y-148523588D01*
X112610640Y-148444526D01*
X112484284Y-148424513D01*
X112357930Y-148404500D01*
X112102070Y-148404500D01*
X112017833Y-148417842D01*
X111849359Y-148444526D01*
X111606027Y-148523588D01*
X111606024Y-148523589D01*
X111378049Y-148639750D01*
X111171064Y-148790132D01*
X111171059Y-148790136D01*
X110990136Y-148971059D01*
X110990132Y-148971064D01*
X110839750Y-149178049D01*
X110723589Y-149406024D01*
X110723588Y-149406027D01*
X110644526Y-149649359D01*
X110604500Y-149902070D01*
X96813200Y-149902070D01*
X96813200Y-122460438D01*
X102699500Y-122460438D01*
X102699500Y-123039562D01*
X102713152Y-123090513D01*
X102719979Y-123115990D01*
X102719982Y-123115995D01*
X102759535Y-123184504D01*
X102759539Y-123184509D01*
X102759540Y-123184511D01*
X102815489Y-123240460D01*
X102815491Y-123240461D01*
X102815495Y-123240464D01*
X102843936Y-123256884D01*
X102884011Y-123280021D01*
X102960438Y-123300500D01*
X102960440Y-123300500D01*
X103539560Y-123300500D01*
X103539562Y-123300500D01*
X103615989Y-123280021D01*
X103684511Y-123240460D01*
X103740460Y-123184511D01*
X103780021Y-123115989D01*
X103800500Y-123039562D01*
X103800500Y-122460438D01*
X103780021Y-122384011D01*
X103769790Y-122366290D01*
X103740464Y-122315495D01*
X103740458Y-122315487D01*
X103684512Y-122259541D01*
X103684504Y-122259535D01*
X103615995Y-122219982D01*
X103615990Y-122219979D01*
X103590513Y-122213152D01*
X103539562Y-122199500D01*
X103039562Y-122199500D01*
X102960438Y-122199500D01*
X102922224Y-122209739D01*
X102884009Y-122219979D01*
X102884004Y-122219982D01*
X102815495Y-122259535D01*
X102815487Y-122259541D01*
X102759541Y-122315487D01*
X102759535Y-122315495D01*
X102719982Y-122384004D01*
X102719979Y-122384009D01*
X102709624Y-122422655D01*
X102699500Y-122460438D01*
X96813200Y-122460438D01*
X96813200Y-116257845D01*
X96813200Y-116257843D01*
X96783515Y-116147056D01*
X96772277Y-116105115D01*
X96743339Y-116054995D01*
X96693220Y-115968184D01*
X96622718Y-115897682D01*
X126352700Y-115897682D01*
X126352700Y-116102317D01*
X126384709Y-116304417D01*
X126447944Y-116499031D01*
X126540841Y-116681350D01*
X126540847Y-116681359D01*
X126573223Y-116725921D01*
X126573224Y-116725922D01*
X127252700Y-116046446D01*
X127252700Y-116052661D01*
X127279959Y-116154394D01*
X127332620Y-116245606D01*
X127407094Y-116320080D01*
X127498306Y-116372741D01*
X127600039Y-116400000D01*
X127606253Y-116400000D01*
X126926776Y-117079474D01*
X126971350Y-117111859D01*
X127153668Y-117204755D01*
X127348282Y-117267990D01*
X127550383Y-117300000D01*
X127755017Y-117300000D01*
X127957117Y-117267990D01*
X128151731Y-117204755D01*
X128334049Y-117111859D01*
X128378621Y-117079474D01*
X127699147Y-116400000D01*
X127705361Y-116400000D01*
X127807094Y-116372741D01*
X127898306Y-116320080D01*
X127972780Y-116245606D01*
X128025441Y-116154394D01*
X128052700Y-116052661D01*
X128052700Y-116046447D01*
X128732174Y-116725921D01*
X128764559Y-116681349D01*
X128857455Y-116499031D01*
X128920690Y-116304417D01*
X128952700Y-116102317D01*
X128952700Y-115897682D01*
X128920690Y-115695582D01*
X128857454Y-115500965D01*
X128833081Y-115453130D01*
X128833080Y-115453129D01*
X128806001Y-115399983D01*
X129852200Y-115399983D01*
X129852200Y-116600001D01*
X129852201Y-116600018D01*
X129862700Y-116702796D01*
X129862701Y-116702799D01*
X129894909Y-116799994D01*
X129917886Y-116869334D01*
X130009988Y-117018656D01*
X130134044Y-117142712D01*
X130283366Y-117234814D01*
X130449903Y-117289999D01*
X130449909Y-117289999D01*
X130454148Y-117290907D01*
X130515584Y-117324185D01*
X130549276Y-117385394D01*
X130552200Y-117412162D01*
X130552200Y-125997830D01*
X130552199Y-125997848D01*
X130552199Y-126163554D01*
X130552198Y-126163554D01*
X130590651Y-126307058D01*
X130593123Y-126316285D01*
X130597285Y-126323494D01*
X130597287Y-126323501D01*
X130597289Y-126323501D01*
X130672175Y-126453209D01*
X130672181Y-126453217D01*
X130791049Y-126572085D01*
X130791055Y-126572090D01*
X132042881Y-127823916D01*
X132076366Y-127885239D01*
X132079200Y-127911597D01*
X132079200Y-133500830D01*
X132079199Y-133500848D01*
X132079199Y-133666554D01*
X132079198Y-133666554D01*
X132079199Y-133666557D01*
X132112087Y-133789296D01*
X132120124Y-133819287D01*
X132130586Y-133837407D01*
X132130587Y-133837409D01*
X132199177Y-133956212D01*
X132199181Y-133956217D01*
X132414484Y-134171520D01*
X132501295Y-134221639D01*
X132501297Y-134221641D01*
X132539351Y-134243611D01*
X132551415Y-134250577D01*
X132704143Y-134291500D01*
X132704145Y-134291500D01*
X132862255Y-134291500D01*
X132862257Y-134291500D01*
X133014985Y-134250577D01*
X133065104Y-134221639D01*
X133151916Y-134171520D01*
X133263720Y-134059716D01*
X133340311Y-133927056D01*
X133342777Y-133922785D01*
X133383700Y-133770057D01*
X133383700Y-133611943D01*
X133342777Y-133459215D01*
X133308792Y-133400352D01*
X133292320Y-133332454D01*
X133315172Y-133266427D01*
X133354180Y-133230966D01*
X133375280Y-133218784D01*
X133450216Y-133175520D01*
X133562020Y-133063716D01*
X133562020Y-133063714D01*
X133572224Y-133053511D01*
X133572228Y-133053506D01*
X133619006Y-133006728D01*
X133619011Y-133006724D01*
X133629214Y-132996520D01*
X133629216Y-132996520D01*
X133741020Y-132884716D01*
X133804908Y-132774058D01*
X133820077Y-132747785D01*
X133861000Y-132595058D01*
X133861000Y-132436943D01*
X133861000Y-125125243D01*
X133820077Y-124972516D01*
X133800574Y-124938736D01*
X133741024Y-124835590D01*
X133741018Y-124835582D01*
X133629217Y-124723781D01*
X133629209Y-124723775D01*
X133492290Y-124644726D01*
X133492286Y-124644724D01*
X133492284Y-124644723D01*
X133339557Y-124603800D01*
X133181443Y-124603800D01*
X133028716Y-124644723D01*
X133028709Y-124644726D01*
X132891790Y-124723775D01*
X132891782Y-124723781D01*
X132779981Y-124835582D01*
X132779975Y-124835590D01*
X132700926Y-124972509D01*
X132700923Y-124972516D01*
X132660000Y-125125243D01*
X132660000Y-126443203D01*
X132640315Y-126510242D01*
X132587511Y-126555997D01*
X132518353Y-126565941D01*
X132454797Y-126536916D01*
X132448319Y-126530884D01*
X131789519Y-125872084D01*
X131756034Y-125810761D01*
X131753200Y-125784403D01*
X131753200Y-117623443D01*
X141116999Y-117623443D01*
X141116999Y-117781557D01*
X141117000Y-117781560D01*
X141117000Y-123810057D01*
X141136578Y-123883121D01*
X141157923Y-123962783D01*
X141157926Y-123962790D01*
X141236975Y-124099709D01*
X141236979Y-124099714D01*
X141236980Y-124099716D01*
X141348784Y-124211520D01*
X141348786Y-124211521D01*
X141348790Y-124211524D01*
X141485709Y-124290573D01*
X141485716Y-124290577D01*
X141638443Y-124331500D01*
X141638445Y-124331500D01*
X141796555Y-124331500D01*
X141796557Y-124331500D01*
X141949284Y-124290577D01*
X142086216Y-124211520D01*
X142198020Y-124099716D01*
X142277077Y-123962784D01*
X142318000Y-123810057D01*
X142318000Y-118002596D01*
X142337685Y-117935557D01*
X142354314Y-117914920D01*
X144938321Y-115330912D01*
X144999642Y-115297429D01*
X145069334Y-115302413D01*
X145125267Y-115344285D01*
X145149684Y-115409749D01*
X145150000Y-115418595D01*
X145150000Y-115566246D01*
X145183242Y-115776127D01*
X145183242Y-115776130D01*
X145248904Y-115978217D01*
X145345375Y-116167550D01*
X145384728Y-116221716D01*
X146017037Y-115589408D01*
X146034075Y-115652993D01*
X146099901Y-115767007D01*
X146192993Y-115860099D01*
X146307007Y-115925925D01*
X146370590Y-115942962D01*
X145700370Y-116613181D01*
X145639047Y-116646666D01*
X145612698Y-116649500D01*
X145602134Y-116649500D01*
X145602123Y-116649501D01*
X145542516Y-116655908D01*
X145407671Y-116706202D01*
X145407664Y-116706206D01*
X145292455Y-116792452D01*
X145292452Y-116792455D01*
X145206206Y-116907664D01*
X145206202Y-116907671D01*
X145155908Y-117042517D01*
X145149501Y-117102116D01*
X145149501Y-117102123D01*
X145149500Y-117102135D01*
X145149500Y-118897870D01*
X145149501Y-118897876D01*
X145155908Y-118957483D01*
X145206202Y-119092328D01*
X145206206Y-119092335D01*
X145292452Y-119207544D01*
X145292455Y-119207547D01*
X145407664Y-119293793D01*
X145407671Y-119293797D01*
X145542517Y-119344091D01*
X145542516Y-119344091D01*
X145549444Y-119344835D01*
X145602127Y-119350500D01*
X147397872Y-119350499D01*
X147457483Y-119344091D01*
X147592331Y-119293796D01*
X147707546Y-119207546D01*
X147793796Y-119092331D01*
X147844091Y-118957483D01*
X147850500Y-118897873D01*
X147850499Y-117102128D01*
X147844091Y-117042517D01*
X147842228Y-117037523D01*
X147793797Y-116907671D01*
X147793793Y-116907664D01*
X147707547Y-116792455D01*
X147707544Y-116792452D01*
X147592335Y-116706206D01*
X147592328Y-116706202D01*
X147457482Y-116655908D01*
X147457483Y-116655908D01*
X147397883Y-116649501D01*
X147397881Y-116649500D01*
X147397873Y-116649500D01*
X147397865Y-116649500D01*
X147387309Y-116649500D01*
X147320270Y-116629815D01*
X147299628Y-116613181D01*
X146629408Y-115942962D01*
X146692993Y-115925925D01*
X146807007Y-115860099D01*
X146900099Y-115767007D01*
X146965925Y-115652993D01*
X146982962Y-115589408D01*
X147615270Y-116221717D01*
X147615270Y-116221716D01*
X147654622Y-116167554D01*
X147751095Y-115978217D01*
X147816757Y-115776130D01*
X147816757Y-115776127D01*
X147850000Y-115566246D01*
X147850000Y-115353753D01*
X147816757Y-115143872D01*
X147816757Y-115143869D01*
X147751095Y-114941782D01*
X147654624Y-114752449D01*
X147615270Y-114698282D01*
X147615269Y-114698282D01*
X146982962Y-115330590D01*
X146965925Y-115267007D01*
X146900099Y-115152993D01*
X146807007Y-115059901D01*
X146692993Y-114994075D01*
X146629408Y-114977037D01*
X147261716Y-114344728D01*
X147207547Y-114305373D01*
X147207547Y-114305372D01*
X147198500Y-114300763D01*
X147147706Y-114252788D01*
X147130912Y-114184966D01*
X147153451Y-114118832D01*
X147198508Y-114079793D01*
X147207816Y-114075051D01*
X147328995Y-113987010D01*
X147379786Y-113950109D01*
X147379788Y-113950106D01*
X147379792Y-113950104D01*
X147530104Y-113799792D01*
X147530106Y-113799788D01*
X147530109Y-113799786D01*
X147655048Y-113627820D01*
X147655047Y-113627820D01*
X147655051Y-113627816D01*
X147751557Y-113438412D01*
X147817246Y-113236243D01*
X147850500Y-113026287D01*
X147850500Y-112813713D01*
X147817246Y-112603757D01*
X147751557Y-112401588D01*
X147655051Y-112212184D01*
X147655049Y-112212181D01*
X147655048Y-112212179D01*
X147530109Y-112040213D01*
X147379786Y-111889890D01*
X147207820Y-111764951D01*
X147018414Y-111668444D01*
X147018413Y-111668443D01*
X147018412Y-111668443D01*
X146816243Y-111602754D01*
X146816241Y-111602753D01*
X146816240Y-111602753D01*
X146654957Y-111577208D01*
X146606287Y-111569500D01*
X146393713Y-111569500D01*
X146345042Y-111577208D01*
X146183760Y-111602753D01*
X145981585Y-111668444D01*
X145792179Y-111764951D01*
X145620213Y-111889890D01*
X145469890Y-112040213D01*
X145344951Y-112212179D01*
X145248444Y-112401585D01*
X145182753Y-112603760D01*
X145149500Y-112813713D01*
X145149500Y-113026286D01*
X145182754Y-113236244D01*
X145182754Y-113236247D01*
X145196491Y-113278523D01*
X145198486Y-113348364D01*
X145166241Y-113404522D01*
X143252120Y-115318644D01*
X141348786Y-117221978D01*
X141348784Y-117221980D01*
X141302774Y-117267990D01*
X141236981Y-117333782D01*
X141236980Y-117333784D01*
X141222933Y-117358115D01*
X141157923Y-117470715D01*
X141116999Y-117623443D01*
X131753200Y-117623443D01*
X131753200Y-117412162D01*
X131772885Y-117345123D01*
X131825689Y-117299368D01*
X131851252Y-117290907D01*
X131855488Y-117289999D01*
X131855497Y-117289999D01*
X132022034Y-117234814D01*
X132171356Y-117142712D01*
X132295412Y-117018656D01*
X132387514Y-116869334D01*
X132442699Y-116702797D01*
X132453200Y-116600009D01*
X132453199Y-115399992D01*
X132447508Y-115344285D01*
X132442699Y-115297203D01*
X132442698Y-115297200D01*
X132411623Y-115203423D01*
X132387514Y-115130666D01*
X132295412Y-114981344D01*
X132171356Y-114857288D01*
X132022034Y-114765186D01*
X131855497Y-114710001D01*
X131855495Y-114710000D01*
X131752710Y-114699500D01*
X130552698Y-114699500D01*
X130552681Y-114699501D01*
X130449903Y-114710000D01*
X130449900Y-114710001D01*
X130283368Y-114765185D01*
X130283363Y-114765187D01*
X130134042Y-114857289D01*
X130009989Y-114981342D01*
X129917887Y-115130663D01*
X129917885Y-115130668D01*
X129901538Y-115180000D01*
X129862701Y-115297203D01*
X129862701Y-115297204D01*
X129862700Y-115297204D01*
X129852200Y-115399983D01*
X128806001Y-115399983D01*
X128764559Y-115318650D01*
X128732174Y-115274077D01*
X128732174Y-115274076D01*
X128052700Y-115953551D01*
X128052700Y-115947339D01*
X128025441Y-115845606D01*
X127972780Y-115754394D01*
X127898306Y-115679920D01*
X127807094Y-115627259D01*
X127705361Y-115600000D01*
X127699146Y-115600000D01*
X128378622Y-114920524D01*
X128378621Y-114920523D01*
X128334059Y-114888147D01*
X128334050Y-114888141D01*
X128151731Y-114795244D01*
X127957117Y-114732009D01*
X127755017Y-114700000D01*
X127550383Y-114700000D01*
X127348282Y-114732009D01*
X127153668Y-114795244D01*
X126971344Y-114888143D01*
X126926777Y-114920523D01*
X126926777Y-114920524D01*
X127606254Y-115600000D01*
X127600039Y-115600000D01*
X127498306Y-115627259D01*
X127407094Y-115679920D01*
X127332620Y-115754394D01*
X127279959Y-115845606D01*
X127252700Y-115947339D01*
X127252700Y-115953553D01*
X126573224Y-115274077D01*
X126573223Y-115274077D01*
X126540843Y-115318644D01*
X126447944Y-115500968D01*
X126384709Y-115695582D01*
X126352700Y-115897682D01*
X96622718Y-115897682D01*
X96581416Y-115856380D01*
X96577085Y-115852049D01*
X96577074Y-115852039D01*
X91387264Y-110662229D01*
X91353779Y-110600906D01*
X91358763Y-110531214D01*
X91387264Y-110486867D01*
X91456879Y-110417252D01*
X91456881Y-110417248D01*
X91456884Y-110417246D01*
X91522603Y-110326790D01*
X91572944Y-110257501D01*
X91662591Y-110081561D01*
X91723610Y-109893763D01*
X91723952Y-109891604D01*
X91754500Y-109698736D01*
X91754500Y-109501263D01*
X91723610Y-109306236D01*
X91667671Y-109134075D01*
X91662591Y-109118439D01*
X91572944Y-108942499D01*
X91547160Y-108907010D01*
X91456884Y-108782753D01*
X91317246Y-108643115D01*
X91157505Y-108527058D01*
X91151119Y-108523804D01*
X90987593Y-108440482D01*
X90936800Y-108392510D01*
X90920005Y-108324689D01*
X90942542Y-108258554D01*
X90987593Y-108219517D01*
X91157501Y-108132944D01*
X91205302Y-108098215D01*
X91317246Y-108016884D01*
X91317248Y-108016881D01*
X91317252Y-108016879D01*
X91456879Y-107877252D01*
X91456881Y-107877248D01*
X91456884Y-107877246D01*
X91507779Y-107807192D01*
X91572944Y-107717501D01*
X91662591Y-107541561D01*
X91723610Y-107353763D01*
X91754500Y-107158736D01*
X91754500Y-106961263D01*
X91723610Y-106766236D01*
X91675268Y-106617456D01*
X91662591Y-106578439D01*
X91572944Y-106402499D01*
X91542259Y-106360264D01*
X91456884Y-106242753D01*
X91317246Y-106103115D01*
X91157505Y-105987058D01*
X91151119Y-105983804D01*
X90987593Y-105900482D01*
X90936800Y-105852510D01*
X90920005Y-105784689D01*
X90942542Y-105718554D01*
X90987593Y-105679517D01*
X91157501Y-105592944D01*
X91193842Y-105566541D01*
X91317246Y-105476884D01*
X91317248Y-105476881D01*
X91317252Y-105476879D01*
X91456879Y-105337252D01*
X91456881Y-105337248D01*
X91456884Y-105337246D01*
X91507779Y-105267192D01*
X91572944Y-105177501D01*
X91662591Y-105001561D01*
X91723610Y-104813763D01*
X91723629Y-104813646D01*
X91754500Y-104618736D01*
X91754500Y-104421263D01*
X91723610Y-104226236D01*
X91667671Y-104054075D01*
X91662591Y-104038439D01*
X91572944Y-103862499D01*
X91547159Y-103827009D01*
X91456884Y-103702753D01*
X91317246Y-103563115D01*
X91157505Y-103447058D01*
X91148132Y-103442282D01*
X90987593Y-103360482D01*
X90936800Y-103312510D01*
X90920005Y-103244689D01*
X90942542Y-103178554D01*
X90987593Y-103139517D01*
X91157501Y-103052944D01*
X91177912Y-103038114D01*
X91317246Y-102936884D01*
X91317248Y-102936881D01*
X91317252Y-102936879D01*
X91456879Y-102797252D01*
X91456881Y-102797248D01*
X91456884Y-102797246D01*
X91550725Y-102668083D01*
X91572944Y-102637501D01*
X91662591Y-102461561D01*
X91723610Y-102273763D01*
X91725707Y-102260521D01*
X91754500Y-102078736D01*
X91754500Y-101881263D01*
X91723610Y-101686236D01*
X91675268Y-101537456D01*
X91662591Y-101498439D01*
X91572944Y-101322499D01*
X91556220Y-101299480D01*
X91456884Y-101162753D01*
X91317246Y-101023115D01*
X91157505Y-100907058D01*
X91151119Y-100903804D01*
X90987593Y-100820482D01*
X90936800Y-100772510D01*
X90920005Y-100704689D01*
X90942542Y-100638554D01*
X90987593Y-100599517D01*
X91157501Y-100512944D01*
X91254171Y-100442710D01*
X91317246Y-100396884D01*
X91317248Y-100396881D01*
X91317252Y-100396879D01*
X91456879Y-100257252D01*
X91456881Y-100257248D01*
X91456884Y-100257246D01*
X91523105Y-100166099D01*
X91572944Y-100097501D01*
X91662591Y-99921561D01*
X91723610Y-99733763D01*
X91731633Y-99683107D01*
X91754500Y-99538736D01*
X91754500Y-99341263D01*
X91729769Y-99185124D01*
X91723610Y-99146237D01*
X91722401Y-99142516D01*
X91720008Y-99135149D01*
X91708582Y-99099983D01*
X125674500Y-99099983D01*
X125674500Y-99900001D01*
X125674501Y-99900019D01*
X125685000Y-100002796D01*
X125685001Y-100002799D01*
X125740185Y-100169331D01*
X125740187Y-100169336D01*
X125746656Y-100179824D01*
X125832288Y-100318656D01*
X125956344Y-100442712D01*
X126105666Y-100534814D01*
X126272203Y-100589999D01*
X126374991Y-100600500D01*
X127725008Y-100600499D01*
X127827797Y-100589999D01*
X127994334Y-100534814D01*
X128143656Y-100442712D01*
X128267712Y-100318656D01*
X128359814Y-100169334D01*
X128414999Y-100002797D01*
X128425500Y-99900009D01*
X128425499Y-99099992D01*
X128415611Y-99003199D01*
X128414999Y-98997203D01*
X128414998Y-98997200D01*
X128405277Y-98967863D01*
X128359814Y-98830666D01*
X128267712Y-98681344D01*
X128143656Y-98557288D01*
X128143655Y-98557287D01*
X128079019Y-98517420D01*
X128032294Y-98465472D01*
X128021071Y-98396510D01*
X128048914Y-98332428D01*
X128056434Y-98324199D01*
X128164035Y-98216598D01*
X128265804Y-98076524D01*
X128344408Y-97922255D01*
X128397914Y-97757584D01*
X128399115Y-97750000D01*
X127330330Y-97750000D01*
X127350075Y-97730255D01*
X127399444Y-97644745D01*
X127425000Y-97549370D01*
X127425000Y-97450630D01*
X127399444Y-97355255D01*
X127350075Y-97269745D01*
X127330330Y-97250000D01*
X128399115Y-97250000D01*
X128399115Y-97249999D01*
X128397914Y-97242415D01*
X128344408Y-97077744D01*
X128265804Y-96923475D01*
X128164032Y-96783397D01*
X128041602Y-96660967D01*
X127901524Y-96559195D01*
X127747257Y-96480591D01*
X127582584Y-96427085D01*
X127411571Y-96400000D01*
X127300000Y-96400000D01*
X127300000Y-97219670D01*
X127280255Y-97199925D01*
X127194745Y-97150556D01*
X127099370Y-97125000D01*
X127000630Y-97125000D01*
X126905255Y-97150556D01*
X126819745Y-97199925D01*
X126800000Y-97219670D01*
X126800000Y-96400000D01*
X126688429Y-96400000D01*
X126517415Y-96427085D01*
X126352742Y-96480591D01*
X126198475Y-96559195D01*
X126058397Y-96660967D01*
X125935967Y-96783397D01*
X125834195Y-96923475D01*
X125755591Y-97077744D01*
X125702085Y-97242415D01*
X125700884Y-97249999D01*
X125700885Y-97250000D01*
X126769670Y-97250000D01*
X126749925Y-97269745D01*
X126700556Y-97355255D01*
X126675000Y-97450630D01*
X126675000Y-97549370D01*
X126700556Y-97644745D01*
X126749925Y-97730255D01*
X126769670Y-97750000D01*
X125700885Y-97750000D01*
X125702085Y-97757584D01*
X125755591Y-97922255D01*
X125834195Y-98076524D01*
X125935967Y-98216602D01*
X126043565Y-98324200D01*
X126077050Y-98385523D01*
X126072066Y-98455215D01*
X126030194Y-98511148D01*
X126020981Y-98517420D01*
X125956342Y-98557289D01*
X125832289Y-98681342D01*
X125740187Y-98830663D01*
X125740185Y-98830668D01*
X125731975Y-98855444D01*
X125685001Y-98997203D01*
X125685001Y-98997204D01*
X125685000Y-98997204D01*
X125674500Y-99099983D01*
X91708582Y-99099983D01*
X91682591Y-99019994D01*
X91662591Y-98958439D01*
X91572944Y-98782499D01*
X91552611Y-98754513D01*
X91456884Y-98622753D01*
X91317246Y-98483115D01*
X91157505Y-98367058D01*
X91149456Y-98362957D01*
X90987043Y-98280202D01*
X90936250Y-98232230D01*
X90919455Y-98164409D01*
X90941992Y-98098275D01*
X90987046Y-98059235D01*
X91157241Y-97972516D01*
X91192988Y-97946543D01*
X91192988Y-97946541D01*
X90629410Y-97382962D01*
X90692993Y-97365925D01*
X90807007Y-97300099D01*
X90900099Y-97207007D01*
X90965925Y-97092993D01*
X90982962Y-97029409D01*
X91546541Y-97592988D01*
X91546543Y-97592988D01*
X91572516Y-97557241D01*
X91662126Y-97381373D01*
X91705220Y-97248746D01*
X91723122Y-97193646D01*
X91754000Y-96998697D01*
X91754000Y-96801302D01*
X91723123Y-96606353D01*
X91662126Y-96418626D01*
X91572520Y-96242768D01*
X91572512Y-96242755D01*
X91546542Y-96207010D01*
X91546541Y-96207009D01*
X90982962Y-96770589D01*
X90965925Y-96707007D01*
X90900099Y-96592993D01*
X90807007Y-96499901D01*
X90692993Y-96434075D01*
X90629409Y-96417037D01*
X91192989Y-95853457D01*
X91157239Y-95827483D01*
X90981373Y-95737873D01*
X90793646Y-95676876D01*
X90598697Y-95646000D01*
X90401303Y-95646000D01*
X90206353Y-95676876D01*
X90018626Y-95737873D01*
X89842762Y-95827482D01*
X89842760Y-95827483D01*
X89807010Y-95853456D01*
X89807010Y-95853457D01*
X90370591Y-96417037D01*
X90307007Y-96434075D01*
X90192993Y-96499901D01*
X90099901Y-96592993D01*
X90034075Y-96707007D01*
X90017037Y-96770590D01*
X89453457Y-96207010D01*
X89453456Y-96207010D01*
X89427483Y-96242760D01*
X89427479Y-96242767D01*
X89340763Y-96412954D01*
X89292788Y-96463749D01*
X89224967Y-96480544D01*
X89158833Y-96458006D01*
X89119798Y-96412957D01*
X89032944Y-96242499D01*
X89032942Y-96242496D01*
X89032941Y-96242494D01*
X88916884Y-96082753D01*
X88777246Y-95943115D01*
X88617504Y-95827058D01*
X88617503Y-95827057D01*
X88617501Y-95827056D01*
X88441561Y-95737409D01*
X88441558Y-95737408D01*
X88253763Y-95676389D01*
X88058736Y-95645500D01*
X88058731Y-95645500D01*
X87861269Y-95645500D01*
X87861264Y-95645500D01*
X87666236Y-95676389D01*
X87478441Y-95737408D01*
X87302495Y-95827058D01*
X87142753Y-95943115D01*
X87003115Y-96082753D01*
X86887058Y-96242495D01*
X86797408Y-96418441D01*
X86736389Y-96606236D01*
X86705500Y-96801263D01*
X86705500Y-96998736D01*
X86736389Y-97193763D01*
X86797348Y-97381373D01*
X86797409Y-97381561D01*
X86886921Y-97557236D01*
X86887058Y-97557504D01*
X87003115Y-97717246D01*
X87142753Y-97856884D01*
X87266158Y-97946541D01*
X87302499Y-97972944D01*
X87472404Y-98059516D01*
X87523199Y-98107490D01*
X87539994Y-98175311D01*
X87517456Y-98241446D01*
X87472404Y-98280483D01*
X87315321Y-98360522D01*
X87302495Y-98367058D01*
X87142753Y-98483115D01*
X87003115Y-98622753D01*
X86887058Y-98782495D01*
X86797408Y-98958441D01*
X86736389Y-99146236D01*
X86705500Y-99341263D01*
X86705500Y-99538736D01*
X86736389Y-99733763D01*
X86797408Y-99921558D01*
X86797409Y-99921561D01*
X86887056Y-100097501D01*
X86887058Y-100097504D01*
X87003115Y-100257246D01*
X87142753Y-100396884D01*
X87292234Y-100505486D01*
X87302499Y-100512944D01*
X87472404Y-100599516D01*
X87523199Y-100647490D01*
X87539994Y-100715311D01*
X87517456Y-100781446D01*
X87472404Y-100820483D01*
X87315321Y-100900522D01*
X87302495Y-100907058D01*
X87142753Y-101023115D01*
X87003115Y-101162753D01*
X86887058Y-101322495D01*
X86887056Y-101322499D01*
X86821946Y-101450284D01*
X86797408Y-101498441D01*
X86736389Y-101686236D01*
X86705500Y-101881263D01*
X86705500Y-102078736D01*
X86736389Y-102273763D01*
X86782865Y-102416800D01*
X86797409Y-102461561D01*
X86875548Y-102614915D01*
X86887058Y-102637504D01*
X87003115Y-102797246D01*
X87142753Y-102936884D01*
X87302494Y-103052941D01*
X87302496Y-103052942D01*
X87302499Y-103052944D01*
X87472956Y-103139797D01*
X87523749Y-103187768D01*
X87540544Y-103255589D01*
X87518007Y-103321724D01*
X87472954Y-103360763D01*
X87302767Y-103447479D01*
X87302760Y-103447483D01*
X87267010Y-103473456D01*
X87267010Y-103473457D01*
X87830591Y-104037037D01*
X87767007Y-104054075D01*
X87652993Y-104119901D01*
X87559901Y-104212993D01*
X87494075Y-104327007D01*
X87477037Y-104390590D01*
X86913457Y-103827010D01*
X86913456Y-103827010D01*
X86887483Y-103862760D01*
X86887482Y-103862762D01*
X86797873Y-104038626D01*
X86736876Y-104226353D01*
X86706000Y-104421302D01*
X86706000Y-104618697D01*
X86736876Y-104813646D01*
X86797873Y-105001373D01*
X86887483Y-105177239D01*
X86913457Y-105212988D01*
X86913457Y-105212989D01*
X87477037Y-104649408D01*
X87494075Y-104712993D01*
X87559901Y-104827007D01*
X87652993Y-104920099D01*
X87767007Y-104985925D01*
X87830590Y-105002962D01*
X87267009Y-105566541D01*
X87267010Y-105566542D01*
X87302755Y-105592512D01*
X87302768Y-105592520D01*
X87472953Y-105679235D01*
X87523749Y-105727210D01*
X87540544Y-105795031D01*
X87518006Y-105861166D01*
X87472954Y-105900203D01*
X87311189Y-105982627D01*
X87302495Y-105987058D01*
X87142753Y-106103115D01*
X87003115Y-106242753D01*
X86887058Y-106402495D01*
X86797408Y-106578441D01*
X86736389Y-106766236D01*
X86705500Y-106961263D01*
X86705500Y-107158736D01*
X86736389Y-107353763D01*
X86797408Y-107541558D01*
X86797409Y-107541561D01*
X86887056Y-107717501D01*
X86887058Y-107717504D01*
X87003115Y-107877246D01*
X87142753Y-108016884D01*
X87302494Y-108132941D01*
X87302496Y-108132942D01*
X87302499Y-108132944D01*
X87472956Y-108219797D01*
X87523749Y-108267768D01*
X87540544Y-108335589D01*
X87518007Y-108401724D01*
X87472954Y-108440763D01*
X87302767Y-108527479D01*
X87302760Y-108527483D01*
X87267010Y-108553456D01*
X87267010Y-108553457D01*
X87830591Y-109117037D01*
X87767007Y-109134075D01*
X87652993Y-109199901D01*
X87559901Y-109292993D01*
X87494075Y-109407007D01*
X87477037Y-109470590D01*
X86913457Y-108907010D01*
X86913456Y-108907010D01*
X86887483Y-108942760D01*
X86887482Y-108942762D01*
X86797873Y-109118626D01*
X86736876Y-109306353D01*
X86706000Y-109501302D01*
X86706000Y-109698697D01*
X86736876Y-109893646D01*
X86797873Y-110081373D01*
X86887483Y-110257239D01*
X86913457Y-110292988D01*
X86913457Y-110292989D01*
X87477037Y-109729408D01*
X87494075Y-109792993D01*
X87559901Y-109907007D01*
X87652993Y-110000099D01*
X87767007Y-110065925D01*
X87830590Y-110082962D01*
X87267009Y-110646541D01*
X87267010Y-110646542D01*
X87302755Y-110672512D01*
X87302768Y-110672520D01*
X87472953Y-110759235D01*
X87523749Y-110807210D01*
X87540544Y-110875031D01*
X87518006Y-110941166D01*
X87472954Y-110980203D01*
X87311189Y-111062627D01*
X87302495Y-111067058D01*
X87142753Y-111183115D01*
X87003115Y-111322753D01*
X86887058Y-111482495D01*
X86797408Y-111658441D01*
X86736389Y-111846236D01*
X86705500Y-112041263D01*
X86705500Y-112238736D01*
X86736389Y-112433763D01*
X86777408Y-112560005D01*
X86797409Y-112621561D01*
X86887056Y-112797501D01*
X86887058Y-112797504D01*
X87003115Y-112957246D01*
X87142753Y-113096884D01*
X87292234Y-113205486D01*
X87302499Y-113212944D01*
X87472404Y-113299516D01*
X87523199Y-113347490D01*
X87539994Y-113415311D01*
X87517456Y-113481446D01*
X87472404Y-113520483D01*
X87315321Y-113600522D01*
X87302495Y-113607058D01*
X87142753Y-113723115D01*
X87003115Y-113862753D01*
X86887058Y-114022495D01*
X86797408Y-114198441D01*
X86736389Y-114386236D01*
X86705500Y-114581263D01*
X86705500Y-114778736D01*
X86736389Y-114973763D01*
X86794625Y-115152993D01*
X86797409Y-115161561D01*
X86883700Y-115330914D01*
X86887058Y-115337504D01*
X87003115Y-115497246D01*
X87142753Y-115636884D01*
X87223546Y-115695582D01*
X87302499Y-115752944D01*
X87472404Y-115839516D01*
X87523199Y-115887490D01*
X87539994Y-115955311D01*
X87517456Y-116021446D01*
X87472404Y-116060483D01*
X87384816Y-116105113D01*
X87302497Y-116147057D01*
X87142753Y-116263115D01*
X87003115Y-116402753D01*
X86887058Y-116562495D01*
X86797408Y-116738441D01*
X86736389Y-116926236D01*
X86705500Y-117121263D01*
X86705500Y-117318736D01*
X86736389Y-117513763D01*
X86788298Y-117673521D01*
X86797409Y-117701561D01*
X86887056Y-117877501D01*
X86887058Y-117877504D01*
X87003115Y-118037246D01*
X87142753Y-118176884D01*
X87275424Y-118273273D01*
X87302499Y-118292944D01*
X87472404Y-118379516D01*
X87523199Y-118427490D01*
X87539994Y-118495311D01*
X87517456Y-118561446D01*
X87472404Y-118600483D01*
X87315321Y-118680522D01*
X87302495Y-118687058D01*
X87142753Y-118803115D01*
X87003115Y-118942753D01*
X86887058Y-119102495D01*
X86797408Y-119278441D01*
X86736389Y-119466236D01*
X86705500Y-119661263D01*
X86705500Y-119858736D01*
X86736389Y-120053763D01*
X86777408Y-120180005D01*
X86797409Y-120241561D01*
X86887056Y-120417501D01*
X86887058Y-120417504D01*
X87003115Y-120577246D01*
X87142753Y-120716884D01*
X87302494Y-120832941D01*
X87302496Y-120832942D01*
X87302499Y-120832944D01*
X87472956Y-120919797D01*
X87523749Y-120967768D01*
X87540544Y-121035589D01*
X87518007Y-121101724D01*
X87472954Y-121140763D01*
X87302767Y-121227479D01*
X87302760Y-121227483D01*
X87267010Y-121253456D01*
X87267010Y-121253457D01*
X87830591Y-121817037D01*
X87767007Y-121834075D01*
X87652993Y-121899901D01*
X87559901Y-121992993D01*
X87494075Y-122107007D01*
X87477037Y-122170590D01*
X86913457Y-121607010D01*
X86913456Y-121607010D01*
X86887483Y-121642760D01*
X86887482Y-121642762D01*
X86797873Y-121818626D01*
X86736876Y-122006353D01*
X86706000Y-122201302D01*
X86706000Y-122398697D01*
X86736876Y-122593646D01*
X86797873Y-122781373D01*
X86887483Y-122957239D01*
X86913457Y-122992988D01*
X86913457Y-122992989D01*
X87477037Y-122429408D01*
X87494075Y-122492993D01*
X87559901Y-122607007D01*
X87652993Y-122700099D01*
X87767007Y-122765925D01*
X87830590Y-122782962D01*
X87267009Y-123346541D01*
X87267010Y-123346542D01*
X87302755Y-123372512D01*
X87302768Y-123372520D01*
X87472953Y-123459235D01*
X87523749Y-123507210D01*
X87540544Y-123575031D01*
X87518006Y-123641166D01*
X87472954Y-123680203D01*
X87311189Y-123762627D01*
X87302495Y-123767058D01*
X87142753Y-123883115D01*
X87003115Y-124022753D01*
X86887058Y-124182495D01*
X86797408Y-124358441D01*
X86736389Y-124546236D01*
X86705500Y-124741263D01*
X86705500Y-124938736D01*
X86736389Y-125133763D01*
X86771714Y-125242480D01*
X86797409Y-125321561D01*
X86883854Y-125491216D01*
X86887058Y-125497504D01*
X87003115Y-125657246D01*
X87142753Y-125796884D01*
X87246478Y-125872243D01*
X87302499Y-125912944D01*
X87472404Y-125999516D01*
X87523199Y-126047490D01*
X87539994Y-126115311D01*
X87517456Y-126181446D01*
X87472404Y-126220483D01*
X87315321Y-126300522D01*
X87302495Y-126307058D01*
X87142753Y-126423115D01*
X87003115Y-126562753D01*
X86887058Y-126722495D01*
X86797408Y-126898441D01*
X86736389Y-127086236D01*
X86705500Y-127281263D01*
X86705500Y-127478736D01*
X86736389Y-127673763D01*
X86785177Y-127823916D01*
X86797409Y-127861561D01*
X86879817Y-128023293D01*
X86887058Y-128037504D01*
X87003115Y-128197246D01*
X87142753Y-128336884D01*
X87302494Y-128452941D01*
X87302496Y-128452942D01*
X87302499Y-128452944D01*
X87472956Y-128539797D01*
X87523749Y-128587768D01*
X87540544Y-128655589D01*
X87518007Y-128721724D01*
X87472954Y-128760763D01*
X87302767Y-128847479D01*
X87302760Y-128847483D01*
X87267010Y-128873456D01*
X87267010Y-128873457D01*
X87830590Y-129437037D01*
X87767007Y-129454075D01*
X87652993Y-129519901D01*
X87559901Y-129612993D01*
X87494075Y-129727007D01*
X87477037Y-129790590D01*
X86913457Y-129227010D01*
X86913456Y-129227010D01*
X86887483Y-129262760D01*
X86887482Y-129262762D01*
X86797873Y-129438626D01*
X86736876Y-129626353D01*
X86706000Y-129821302D01*
X86706000Y-130018697D01*
X86736876Y-130213646D01*
X86797873Y-130401373D01*
X86887483Y-130577239D01*
X86913457Y-130612988D01*
X86913457Y-130612989D01*
X87477037Y-130049408D01*
X87494075Y-130112993D01*
X87559901Y-130227007D01*
X87652993Y-130320099D01*
X87767007Y-130385925D01*
X87830589Y-130402962D01*
X87267009Y-130966541D01*
X87267010Y-130966542D01*
X87302755Y-130992512D01*
X87302768Y-130992520D01*
X87472953Y-131079235D01*
X87523749Y-131127210D01*
X87540544Y-131195031D01*
X87518006Y-131261166D01*
X87472954Y-131300203D01*
X87311189Y-131382627D01*
X87302495Y-131387058D01*
X87142753Y-131503115D01*
X87003115Y-131642753D01*
X86887058Y-131802495D01*
X86797408Y-131978441D01*
X86736389Y-132166236D01*
X86705500Y-132361263D01*
X86705500Y-132558736D01*
X86736389Y-132753763D01*
X86785825Y-132905909D01*
X86797409Y-132941561D01*
X86887056Y-133117501D01*
X86887058Y-133117504D01*
X87003115Y-133277246D01*
X87142753Y-133416884D01*
X87268776Y-133508443D01*
X87302499Y-133532944D01*
X87472404Y-133619516D01*
X87523199Y-133667490D01*
X87539994Y-133735311D01*
X87517456Y-133801446D01*
X87472404Y-133840483D01*
X87315321Y-133920522D01*
X87302495Y-133927058D01*
X87142753Y-134043115D01*
X87003115Y-134182753D01*
X86887058Y-134342495D01*
X86797408Y-134518441D01*
X86736389Y-134706236D01*
X86705500Y-134901263D01*
X86705500Y-135098736D01*
X86736389Y-135293763D01*
X86797408Y-135481558D01*
X86797409Y-135481561D01*
X86887056Y-135657501D01*
X86887058Y-135657504D01*
X87003115Y-135817246D01*
X87142753Y-135956884D01*
X87250745Y-136035343D01*
X87302499Y-136072944D01*
X87472404Y-136159516D01*
X87523199Y-136207490D01*
X87539994Y-136275311D01*
X87517456Y-136341446D01*
X87472404Y-136380483D01*
X87315321Y-136460522D01*
X87302495Y-136467058D01*
X87142753Y-136583115D01*
X87003115Y-136722753D01*
X86887058Y-136882495D01*
X86797408Y-137058441D01*
X86736389Y-137246236D01*
X86705500Y-137441263D01*
X86705500Y-137638736D01*
X86736389Y-137833763D01*
X86779332Y-137965925D01*
X86797409Y-138021561D01*
X86876568Y-138176917D01*
X86887058Y-138197504D01*
X87003115Y-138357246D01*
X87142753Y-138496884D01*
X87302494Y-138612941D01*
X87302496Y-138612942D01*
X87302499Y-138612944D01*
X87472956Y-138699797D01*
X87523749Y-138747768D01*
X87540544Y-138815589D01*
X87518007Y-138881724D01*
X87472954Y-138920763D01*
X87302767Y-139007479D01*
X87302760Y-139007483D01*
X87267010Y-139033456D01*
X87267010Y-139033457D01*
X87830590Y-139597037D01*
X87767007Y-139614075D01*
X87652993Y-139679901D01*
X87559901Y-139772993D01*
X87494075Y-139887007D01*
X87477037Y-139950590D01*
X86913457Y-139387010D01*
X86913456Y-139387010D01*
X86887483Y-139422760D01*
X86887482Y-139422762D01*
X86797873Y-139598626D01*
X86736876Y-139786353D01*
X86706000Y-139981302D01*
X86706000Y-140178694D01*
X86709921Y-140203455D01*
X86700964Y-140272748D01*
X86655967Y-140326199D01*
X86589215Y-140346837D01*
X86521901Y-140328110D01*
X86499766Y-140310531D01*
X83785019Y-137595784D01*
X83751534Y-137534461D01*
X83748700Y-137508103D01*
X83748700Y-110417145D01*
X83748700Y-110417143D01*
X83707777Y-110264416D01*
X83630420Y-110130428D01*
X83628724Y-110127490D01*
X83628718Y-110127482D01*
X83516917Y-110015681D01*
X83516909Y-110015675D01*
X83379990Y-109936626D01*
X83379986Y-109936624D01*
X83379984Y-109936623D01*
X83227257Y-109895700D01*
X83069143Y-109895700D01*
X82916416Y-109936623D01*
X82916409Y-109936626D01*
X82779490Y-110015675D01*
X82779482Y-110015681D01*
X82667681Y-110127482D01*
X82667675Y-110127490D01*
X82588626Y-110264409D01*
X82588623Y-110264416D01*
X82547700Y-110417143D01*
X82547700Y-137729139D01*
X82547699Y-137729143D01*
X82547699Y-137887254D01*
X82547698Y-137887254D01*
X80770600Y-137887254D01*
X80770600Y-128631943D01*
X80729677Y-128479216D01*
X80714507Y-128452941D01*
X80650624Y-128342290D01*
X80650618Y-128342282D01*
X80538817Y-128230481D01*
X80538809Y-128230475D01*
X80401890Y-128151426D01*
X80401886Y-128151424D01*
X80401884Y-128151423D01*
X80249157Y-128110500D01*
X80091043Y-128110500D01*
X79938316Y-128151423D01*
X79938309Y-128151426D01*
X79801390Y-128230475D01*
X79801382Y-128230481D01*
X79689581Y-128342282D01*
X79689575Y-128342290D01*
X79610526Y-128479209D01*
X79610523Y-128479216D01*
X79569600Y-128631943D01*
X79569600Y-139029802D01*
X79549915Y-139096841D01*
X79533281Y-139117483D01*
X77603563Y-141047200D01*
X77542240Y-141080685D01*
X77477564Y-141077450D01*
X77351370Y-141036447D01*
X77118097Y-140999500D01*
X77118092Y-140999500D01*
X76881908Y-140999500D01*
X76881903Y-140999500D01*
X76648631Y-141036446D01*
X76424003Y-141109433D01*
X76213566Y-141216657D01*
X76127403Y-141279259D01*
X76022490Y-141355483D01*
X76022488Y-141355485D01*
X76022487Y-141355485D01*
X75855485Y-141522487D01*
X75855485Y-141522488D01*
X75855483Y-141522490D01*
X75837635Y-141547056D01*
X75716657Y-141713566D01*
X75609433Y-141924003D01*
X75536446Y-142148631D01*
X75499500Y-142381902D01*
X75499500Y-142618093D01*
X75499499Y-142618095D01*
X64887400Y-142618095D01*
X64887400Y-137381947D01*
X75500000Y-137381947D01*
X75500000Y-137618052D01*
X75536934Y-137851247D01*
X75609897Y-138075802D01*
X75717087Y-138286174D01*
X75777338Y-138369104D01*
X75777340Y-138369105D01*
X76517037Y-137629408D01*
X76534075Y-137692993D01*
X76599901Y-137807007D01*
X76692993Y-137900099D01*
X76807007Y-137965925D01*
X76870590Y-137982962D01*
X76130893Y-138722658D01*
X76213828Y-138782914D01*
X76424197Y-138890102D01*
X76648752Y-138963065D01*
X76648751Y-138963065D01*
X76881948Y-139000000D01*
X77118052Y-139000000D01*
X77351247Y-138963065D01*
X77575802Y-138890102D01*
X77786163Y-138782918D01*
X77786169Y-138782914D01*
X77869104Y-138722658D01*
X77869105Y-138722658D01*
X77129408Y-137982962D01*
X77192993Y-137965925D01*
X77307007Y-137900099D01*
X77400099Y-137807007D01*
X77465925Y-137692993D01*
X77482962Y-137629409D01*
X78222658Y-138369105D01*
X78222658Y-138369104D01*
X78282914Y-138286169D01*
X78282918Y-138286163D01*
X78390102Y-138075802D01*
X78463065Y-137851247D01*
X78500000Y-137618052D01*
X78500000Y-137381947D01*
X78463065Y-137148752D01*
X78390102Y-136924197D01*
X78282914Y-136713828D01*
X78222658Y-136630894D01*
X78222658Y-136630893D01*
X77482962Y-137370590D01*
X77465925Y-137307007D01*
X77400099Y-137192993D01*
X77307007Y-137099901D01*
X77192993Y-137034075D01*
X77129409Y-137017037D01*
X77869105Y-136277340D01*
X77869104Y-136277338D01*
X77786174Y-136217087D01*
X77575802Y-136109897D01*
X77351247Y-136036934D01*
X77351248Y-136036934D01*
X77118052Y-136000000D01*
X76881948Y-136000000D01*
X76648752Y-136036934D01*
X76424197Y-136109897D01*
X76213830Y-136217084D01*
X76130894Y-136277340D01*
X76870591Y-137017037D01*
X76807007Y-137034075D01*
X76692993Y-137099901D01*
X76599901Y-137192993D01*
X76534075Y-137307007D01*
X76517037Y-137370591D01*
X75777340Y-136630894D01*
X75717084Y-136713830D01*
X75609897Y-136924197D01*
X75536934Y-137148752D01*
X75500000Y-137381947D01*
X64887400Y-137381947D01*
X64887400Y-133352135D01*
X67899500Y-133352135D01*
X67899500Y-135447870D01*
X67899501Y-135447876D01*
X67905908Y-135507483D01*
X67956202Y-135642328D01*
X67956206Y-135642335D01*
X68042452Y-135757544D01*
X68042455Y-135757547D01*
X68157664Y-135843793D01*
X68157671Y-135843797D01*
X68292517Y-135894091D01*
X68292516Y-135894091D01*
X68299444Y-135894835D01*
X68352127Y-135900500D01*
X71647872Y-135900499D01*
X71707483Y-135894091D01*
X71842331Y-135843796D01*
X71957546Y-135757546D01*
X72043796Y-135642331D01*
X72094091Y-135507483D01*
X72100500Y-135447873D01*
X72100499Y-133352128D01*
X72094091Y-133292517D01*
X72088395Y-133277246D01*
X72043797Y-133157671D01*
X72043793Y-133157664D01*
X71957547Y-133042455D01*
X71957544Y-133042452D01*
X71842335Y-132956206D01*
X71842328Y-132956202D01*
X71707482Y-132905908D01*
X71707483Y-132905908D01*
X71647883Y-132899501D01*
X71647881Y-132899500D01*
X71647873Y-132899500D01*
X71647864Y-132899500D01*
X68352129Y-132899500D01*
X68352123Y-132899501D01*
X68292516Y-132905908D01*
X68157671Y-132956202D01*
X68157664Y-132956206D01*
X68042455Y-133042452D01*
X68042452Y-133042455D01*
X67956206Y-133157664D01*
X67956202Y-133157671D01*
X67905908Y-133292517D01*
X67899501Y-133352116D01*
X67899501Y-133352123D01*
X67899500Y-133352135D01*
X64887400Y-133352135D01*
X64887400Y-131365043D01*
X64846477Y-131212316D01*
X64806810Y-131143610D01*
X64767424Y-131075390D01*
X64767421Y-131075386D01*
X64767420Y-131075384D01*
X64655616Y-130963580D01*
X64655615Y-130963579D01*
X64651285Y-130959249D01*
X64651274Y-130959239D01*
X63895519Y-130203484D01*
X63862034Y-130142161D01*
X63859200Y-130115803D01*
X63859200Y-127051296D01*
X63878885Y-126984257D01*
X63895515Y-126963619D01*
X64262880Y-126596254D01*
X68851698Y-126596254D01*
X68892623Y-126748985D01*
X68921558Y-126799100D01*
X68921559Y-126799104D01*
X68921560Y-126799104D01*
X68965782Y-126875701D01*
X68971679Y-126885914D01*
X68971681Y-126885917D01*
X69083484Y-126997720D01*
X69170295Y-127047839D01*
X69170297Y-127047841D01*
X69204079Y-127067345D01*
X69220415Y-127076777D01*
X69373143Y-127117701D01*
X69373146Y-127117701D01*
X69531254Y-127117701D01*
X69531257Y-127117701D01*
X69683985Y-127076777D01*
X69734104Y-127047839D01*
X69820916Y-126997720D01*
X69932720Y-126885916D01*
X69932720Y-126885914D01*
X69942928Y-126875707D01*
X69942930Y-126875704D01*
X71604513Y-125214121D01*
X71604516Y-125214120D01*
X71716320Y-125102316D01*
X71766439Y-125015504D01*
X71795377Y-124965385D01*
X71836300Y-124812658D01*
X71836300Y-124654543D01*
X71836300Y-115683943D01*
X71795377Y-115531216D01*
X71792265Y-115525826D01*
X71716324Y-115394290D01*
X71716318Y-115394282D01*
X71604517Y-115282481D01*
X71604509Y-115282475D01*
X71467590Y-115203426D01*
X71467586Y-115203424D01*
X71467584Y-115203423D01*
X71314857Y-115162500D01*
X71156743Y-115162500D01*
X71004016Y-115203423D01*
X71004009Y-115203426D01*
X70867090Y-115282475D01*
X70867082Y-115282481D01*
X70755281Y-115394282D01*
X70755275Y-115394290D01*
X70676226Y-115531209D01*
X70676223Y-115531216D01*
X70635300Y-115683943D01*
X70635300Y-124433502D01*
X70615615Y-124500541D01*
X70598981Y-124521183D01*
X68971681Y-126148482D01*
X68971679Y-126148485D01*
X68946620Y-126191889D01*
X68923286Y-126232307D01*
X68921561Y-126235294D01*
X68921559Y-126235296D01*
X68892625Y-126285409D01*
X68892624Y-126285410D01*
X68884352Y-126316282D01*
X68851699Y-126438143D01*
X68851699Y-126438145D01*
X68851699Y-126596254D01*
X68851698Y-126596254D01*
X64262880Y-126596254D01*
X64645406Y-126213727D01*
X64645411Y-126213724D01*
X64655614Y-126203520D01*
X64655616Y-126203520D01*
X64767420Y-126091716D01*
X64846477Y-125954784D01*
X64887400Y-125802057D01*
X64887400Y-125643943D01*
X64846477Y-125491216D01*
X64803397Y-125416598D01*
X64767424Y-125354290D01*
X64767418Y-125354282D01*
X64655617Y-125242481D01*
X64655609Y-125242475D01*
X64518690Y-125163426D01*
X64518686Y-125163424D01*
X64518684Y-125163423D01*
X64365957Y-125122500D01*
X64207842Y-125122500D01*
X64207841Y-125122500D01*
X64173003Y-125131834D01*
X64173004Y-125131835D01*
X64055114Y-125163423D01*
X64055109Y-125163426D01*
X63918190Y-125242475D01*
X63918182Y-125242481D01*
X62778179Y-126382484D01*
X62758159Y-126417161D01*
X62749697Y-126431819D01*
X62699123Y-126519415D01*
X62658199Y-126672143D01*
X62658199Y-126672145D01*
X62658199Y-126840246D01*
X62658200Y-126840259D01*
X62658200Y-128023293D01*
X62638515Y-128090332D01*
X62585711Y-128136087D01*
X62516553Y-128146031D01*
X62502107Y-128143068D01*
X62380558Y-128110499D01*
X62222443Y-128110499D01*
X62069715Y-128151423D01*
X62069713Y-128151423D01*
X62069713Y-128151424D01*
X61932781Y-128230482D01*
X60675681Y-129487582D01*
X60675679Y-129487585D01*
X60625561Y-129574394D01*
X60625559Y-129574396D01*
X60596625Y-129624509D01*
X60596624Y-129624510D01*
X60588309Y-129655542D01*
X60555699Y-129777243D01*
X60555699Y-129777245D01*
X60555699Y-129945346D01*
X60555700Y-129945359D01*
X60555700Y-141821302D01*
X60536015Y-141888341D01*
X60519381Y-141908983D01*
X59949755Y-142478608D01*
X59949746Y-142478617D01*
X59947386Y-142480978D01*
X59947384Y-142480980D01*
X59835580Y-142592784D01*
X59820969Y-142618092D01*
X59814502Y-142629292D01*
X59814501Y-142629294D01*
X59762862Y-142718736D01*
X59756523Y-142729715D01*
X59715599Y-142882443D01*
X49500000Y-142882443D01*
X49500000Y-126891779D01*
X50487500Y-126891779D01*
X50487500Y-127108220D01*
X50521357Y-127321981D01*
X50588235Y-127527814D01*
X50588236Y-127527817D01*
X50686496Y-127720660D01*
X50729329Y-127779615D01*
X50729330Y-127779616D01*
X51383619Y-127125326D01*
X51401234Y-127191063D01*
X51466402Y-127303937D01*
X51558563Y-127396098D01*
X51671437Y-127461266D01*
X51737172Y-127478880D01*
X51082882Y-128133168D01*
X51141842Y-128176005D01*
X51334682Y-128274263D01*
X51334685Y-128274264D01*
X51540518Y-128341142D01*
X51754280Y-128375000D01*
X51970720Y-128375000D01*
X52184481Y-128341142D01*
X52390314Y-128274264D01*
X52390317Y-128274263D01*
X52583157Y-128176005D01*
X52605114Y-128160053D01*
X52670920Y-128136573D01*
X52738974Y-128152398D01*
X52787669Y-128202503D01*
X52802000Y-128260371D01*
X52802000Y-128372026D01*
X52838679Y-128603610D01*
X52840179Y-128613076D01*
X52891916Y-128772307D01*
X52915597Y-128845187D01*
X53026396Y-129062642D01*
X53169839Y-129260076D01*
X53169843Y-129260081D01*
X53342418Y-129432656D01*
X53342423Y-129432660D01*
X53439097Y-129502897D01*
X53539861Y-129576106D01*
X53757315Y-129686904D01*
X53989424Y-129762321D01*
X54230473Y-129800500D01*
X54230474Y-129800500D01*
X54474526Y-129800500D01*
X54474527Y-129800500D01*
X54715576Y-129762321D01*
X54947685Y-129686904D01*
X55165139Y-129576106D01*
X55362583Y-129432655D01*
X55535155Y-129260083D01*
X55678606Y-129062639D01*
X55789404Y-128845185D01*
X55864821Y-128613076D01*
X55903000Y-128372027D01*
X55903000Y-128127973D01*
X55864821Y-127886924D01*
X55789404Y-127654815D01*
X55678606Y-127437361D01*
X55594778Y-127321981D01*
X55535160Y-127239923D01*
X55535156Y-127239918D01*
X55362581Y-127067343D01*
X55362576Y-127067339D01*
X55165142Y-126923896D01*
X55165141Y-126923895D01*
X55165139Y-126923894D01*
X54947685Y-126813096D01*
X54715576Y-126737679D01*
X54715574Y-126737678D01*
X54715572Y-126737678D01*
X54547269Y-126711021D01*
X54474527Y-126699500D01*
X54230473Y-126699500D01*
X54174593Y-126708350D01*
X53989427Y-126737678D01*
X53757312Y-126813097D01*
X53539861Y-126923893D01*
X53434385Y-127000526D01*
X53368578Y-127024005D01*
X53300524Y-127008179D01*
X53251830Y-126958073D01*
X53237500Y-126900207D01*
X53237500Y-126891779D01*
X53203642Y-126678018D01*
X53136764Y-126472185D01*
X53136763Y-126472182D01*
X53038505Y-126279342D01*
X52995668Y-126220383D01*
X52995668Y-126220382D01*
X52341380Y-126874672D01*
X52323766Y-126808937D01*
X52258598Y-126696063D01*
X52166437Y-126603902D01*
X52053563Y-126538734D01*
X51987826Y-126521119D01*
X52642116Y-125866830D01*
X52642115Y-125866829D01*
X52583160Y-125823996D01*
X52390317Y-125725736D01*
X52390314Y-125725735D01*
X52184481Y-125658857D01*
X51970720Y-125625000D01*
X51754280Y-125625000D01*
X51540518Y-125658857D01*
X51334685Y-125725735D01*
X51334682Y-125725736D01*
X51141846Y-125823992D01*
X51082883Y-125866830D01*
X51737173Y-126521119D01*
X51671437Y-126538734D01*
X51558563Y-126603902D01*
X51466402Y-126696063D01*
X51401234Y-126808937D01*
X51383619Y-126874672D01*
X50729330Y-126220383D01*
X50686492Y-126279346D01*
X50588236Y-126472182D01*
X50588235Y-126472185D01*
X50521357Y-126678018D01*
X50487500Y-126891779D01*
X49500000Y-126891779D01*
X49500000Y-122391746D01*
X50487000Y-122391746D01*
X50487000Y-122608253D01*
X50520870Y-122822098D01*
X50587772Y-123028006D01*
X50587773Y-123028009D01*
X50686067Y-123220919D01*
X50813328Y-123396078D01*
X50966422Y-123549172D01*
X51141581Y-123676433D01*
X51236197Y-123724642D01*
X51334490Y-123774726D01*
X51334493Y-123774727D01*
X51437447Y-123808178D01*
X51540403Y-123841630D01*
X51754246Y-123875500D01*
X51754247Y-123875500D01*
X51970753Y-123875500D01*
X51970754Y-123875500D01*
X52184597Y-123841630D01*
X52390509Y-123774726D01*
X52583419Y-123676433D01*
X52758578Y-123549172D01*
X52911672Y-123396078D01*
X53038933Y-123220919D01*
X53137226Y-123028009D01*
X53204130Y-122822097D01*
X53238000Y-122608254D01*
X53238000Y-122590155D01*
X53257685Y-122523116D01*
X53310489Y-122477361D01*
X53379647Y-122467417D01*
X53434885Y-122489837D01*
X53539861Y-122566106D01*
X53757315Y-122676904D01*
X53989424Y-122752321D01*
X54230473Y-122790500D01*
X54230474Y-122790500D01*
X54474526Y-122790500D01*
X54474527Y-122790500D01*
X54715576Y-122752321D01*
X54947685Y-122676904D01*
X55165139Y-122566106D01*
X55362583Y-122422655D01*
X55535155Y-122250083D01*
X55678606Y-122052639D01*
X55789404Y-121835185D01*
X55864821Y-121603076D01*
X55903000Y-121362027D01*
X55903000Y-121117973D01*
X55864821Y-120876924D01*
X55789404Y-120644815D01*
X55678606Y-120427361D01*
X55543613Y-120241558D01*
X55535160Y-120229923D01*
X55535156Y-120229918D01*
X55362581Y-120057343D01*
X55362576Y-120057339D01*
X55165142Y-119913896D01*
X55165141Y-119913895D01*
X55165139Y-119913894D01*
X54947685Y-119803096D01*
X54715576Y-119727679D01*
X54715574Y-119727678D01*
X54715572Y-119727678D01*
X54547269Y-119701021D01*
X54474527Y-119689500D01*
X54230473Y-119689500D01*
X54174593Y-119698350D01*
X53989427Y-119727678D01*
X53757312Y-119803097D01*
X53539857Y-119913896D01*
X53342423Y-120057339D01*
X53342418Y-120057343D01*
X53169843Y-120229918D01*
X53169839Y-120229923D01*
X53026396Y-120427357D01*
X52915597Y-120644812D01*
X52840178Y-120876927D01*
X52802000Y-121117973D01*
X52802000Y-121239011D01*
X52782315Y-121306050D01*
X52729511Y-121351805D01*
X52660353Y-121361749D01*
X52605116Y-121339330D01*
X52583421Y-121323568D01*
X52390509Y-121225273D01*
X52390506Y-121225272D01*
X52184598Y-121158370D01*
X52073433Y-121140763D01*
X51970754Y-121124500D01*
X51754246Y-121124500D01*
X51690718Y-121134562D01*
X51540401Y-121158370D01*
X51334493Y-121225272D01*
X51334490Y-121225273D01*
X51141580Y-121323567D01*
X51041645Y-121396174D01*
X50966422Y-121450828D01*
X50966420Y-121450830D01*
X50966419Y-121450830D01*
X50813330Y-121603919D01*
X50813330Y-121603920D01*
X50813328Y-121603922D01*
X50785109Y-121642762D01*
X50686067Y-121779080D01*
X50587773Y-121971990D01*
X50587772Y-121971993D01*
X50520870Y-122177901D01*
X50487000Y-122391746D01*
X49500000Y-122391746D01*
X49500000Y-100718543D01*
X54849499Y-100718543D01*
X54887947Y-100911829D01*
X54887950Y-100911839D01*
X54963364Y-101093907D01*
X54963371Y-101093920D01*
X55072860Y-101257781D01*
X55072863Y-101257785D01*
X55212214Y-101397136D01*
X55212218Y-101397139D01*
X55376079Y-101506628D01*
X55376092Y-101506635D01*
X55504914Y-101559994D01*
X55558165Y-101582051D01*
X55558169Y-101582051D01*
X55558170Y-101582052D01*
X55751456Y-101620500D01*
X55751459Y-101620500D01*
X56548543Y-101620500D01*
X56678582Y-101594632D01*
X56741835Y-101582051D01*
X56923914Y-101506632D01*
X57087782Y-101397139D01*
X57227139Y-101257782D01*
X57336632Y-101093914D01*
X57412051Y-100911835D01*
X57439765Y-100772510D01*
X57450500Y-100718543D01*
X58779499Y-100718543D01*
X58817947Y-100911829D01*
X58817950Y-100911839D01*
X58893364Y-101093907D01*
X58893371Y-101093920D01*
X59002860Y-101257781D01*
X59002863Y-101257785D01*
X59142214Y-101397136D01*
X59142218Y-101397139D01*
X59306079Y-101506628D01*
X59306092Y-101506635D01*
X59434914Y-101559994D01*
X59488165Y-101582051D01*
X59488169Y-101582051D01*
X59488170Y-101582052D01*
X59681456Y-101620500D01*
X59681459Y-101620500D01*
X60978543Y-101620500D01*
X61108582Y-101594632D01*
X61171835Y-101582051D01*
X61353914Y-101506632D01*
X61445909Y-101445163D01*
X61512586Y-101424285D01*
X61579966Y-101442769D01*
X61626657Y-101494748D01*
X61638800Y-101548265D01*
X61638800Y-102580402D01*
X61619115Y-102647441D01*
X61602481Y-102668083D01*
X60828281Y-103442282D01*
X60828277Y-103442287D01*
X60783700Y-103519499D01*
X60783700Y-103519500D01*
X60749223Y-103579214D01*
X60749223Y-103579215D01*
X60708299Y-103731943D01*
X60708299Y-103731945D01*
X60708299Y-103890054D01*
X60708298Y-103890054D01*
X60749222Y-104042782D01*
X60749224Y-104042788D01*
X60751130Y-104046088D01*
X60751131Y-104046090D01*
X60828277Y-104179712D01*
X60828281Y-104179717D01*
X60940084Y-104291520D01*
X61026895Y-104341639D01*
X61026897Y-104341641D01*
X61064951Y-104363611D01*
X61077015Y-104370577D01*
X61229743Y-104411501D01*
X61229746Y-104411501D01*
X61387854Y-104411501D01*
X61387857Y-104411501D01*
X61540585Y-104370577D01*
X61590704Y-104341639D01*
X61677516Y-104291520D01*
X61789320Y-104179716D01*
X61789320Y-104179714D01*
X61799528Y-104169507D01*
X61799529Y-104169504D01*
X62719820Y-103249216D01*
X62798877Y-103112284D01*
X62839801Y-102959557D01*
X62839801Y-102801442D01*
X62839801Y-102793847D01*
X62839800Y-102793829D01*
X62839800Y-101298197D01*
X62859485Y-101231158D01*
X62912289Y-101185403D01*
X62981447Y-101175459D01*
X63045003Y-101204484D01*
X63051481Y-101210516D01*
X63985339Y-102144374D01*
X63985349Y-102144385D01*
X63989679Y-102148715D01*
X63989680Y-102148716D01*
X64101484Y-102260520D01*
X64101486Y-102260521D01*
X64101487Y-102260522D01*
X64169032Y-102299518D01*
X64169034Y-102299520D01*
X64238411Y-102339575D01*
X64238412Y-102339576D01*
X64238414Y-102339576D01*
X64238415Y-102339577D01*
X64391143Y-102380501D01*
X64391146Y-102380501D01*
X64549255Y-102380501D01*
X64549257Y-102380501D01*
X64576910Y-102373091D01*
X64646760Y-102374752D01*
X64704623Y-102413914D01*
X64732128Y-102478142D01*
X64720542Y-102547045D01*
X64716397Y-102554856D01*
X64710665Y-102564786D01*
X64710659Y-102564796D01*
X64681725Y-102614909D01*
X64681724Y-102614910D01*
X64672318Y-102650015D01*
X64640799Y-102767643D01*
X64640799Y-102767645D01*
X64640799Y-102935746D01*
X64640800Y-102935759D01*
X64640800Y-105723943D01*
X64640800Y-115842057D01*
X64675427Y-115971285D01*
X64681723Y-115994783D01*
X64681726Y-115994790D01*
X64760775Y-116131709D01*
X64760779Y-116131714D01*
X64760780Y-116131716D01*
X64872584Y-116243520D01*
X64872586Y-116243521D01*
X64872590Y-116243524D01*
X65005191Y-116320080D01*
X65009516Y-116322577D01*
X65162243Y-116363500D01*
X65162245Y-116363500D01*
X65320355Y-116363500D01*
X65320357Y-116363500D01*
X65473084Y-116322577D01*
X65610016Y-116243520D01*
X65721820Y-116131716D01*
X65800877Y-115994784D01*
X65841800Y-115842057D01*
X65841800Y-105723943D01*
X65841800Y-103146796D01*
X65861485Y-103079757D01*
X65878114Y-103059120D01*
X66136319Y-102800914D01*
X66197641Y-102767431D01*
X66267333Y-102772415D01*
X66323266Y-102814287D01*
X66347683Y-102879751D01*
X66347999Y-102888595D01*
X66347999Y-102960857D01*
X66348000Y-102960860D01*
X66348000Y-111272257D01*
X66361531Y-111322753D01*
X66388923Y-111424983D01*
X66388926Y-111424990D01*
X66467975Y-111561909D01*
X66467979Y-111561914D01*
X66467980Y-111561916D01*
X66579784Y-111673720D01*
X66612013Y-111692327D01*
X66660229Y-111742894D01*
X66673453Y-111811501D01*
X66669789Y-111831808D01*
X66627899Y-111988143D01*
X66627899Y-112156246D01*
X66627900Y-112156259D01*
X66627900Y-117503230D01*
X66627899Y-117503248D01*
X66627899Y-117668954D01*
X66627898Y-117668954D01*
X66666436Y-117812780D01*
X66668823Y-117821685D01*
X66689664Y-117857782D01*
X66747880Y-117958616D01*
X66859684Y-118070420D01*
X66859685Y-118070420D01*
X66983484Y-118194220D01*
X66983488Y-118194223D01*
X67120409Y-118273273D01*
X67120412Y-118273275D01*
X67120416Y-118273277D01*
X67273143Y-118314201D01*
X67273145Y-118314201D01*
X67431256Y-118314201D01*
X67431258Y-118314201D01*
X67583985Y-118273277D01*
X67720916Y-118194220D01*
X67832720Y-118082416D01*
X67911777Y-117945485D01*
X67952701Y-117792758D01*
X67952701Y-117634643D01*
X67911777Y-117481916D01*
X67845512Y-117367140D01*
X67828900Y-117305141D01*
X67828900Y-117150317D01*
X67848585Y-117083278D01*
X67901389Y-117037523D01*
X67905456Y-117035752D01*
X67909973Y-117033880D01*
X67909985Y-117033877D01*
X67969527Y-116999500D01*
X68046916Y-116954820D01*
X68158720Y-116843016D01*
X68158720Y-116843014D01*
X68168924Y-116832811D01*
X68168928Y-116832806D01*
X68771506Y-116230228D01*
X68771511Y-116230224D01*
X68781714Y-116220020D01*
X68781716Y-116220020D01*
X68893520Y-116108216D01*
X68958082Y-115996390D01*
X68972577Y-115971285D01*
X69013500Y-115818557D01*
X69013500Y-115660443D01*
X69013500Y-98907243D01*
X68999621Y-98855443D01*
X68972577Y-98754515D01*
X68940339Y-98698677D01*
X68893520Y-98617584D01*
X68781716Y-98505780D01*
X68729916Y-98453980D01*
X68729914Y-98453979D01*
X68729909Y-98453975D01*
X68611825Y-98385800D01*
X68611825Y-98385799D01*
X68611820Y-98385798D01*
X68605247Y-98382003D01*
X68592986Y-98374923D01*
X68548328Y-98362957D01*
X68440257Y-98333999D01*
X68282143Y-98333999D01*
X68174072Y-98362957D01*
X68129414Y-98374923D01*
X68114559Y-98383500D01*
X68110580Y-98385798D01*
X68110578Y-98385799D01*
X68110575Y-98385800D01*
X67992490Y-98453975D01*
X67992482Y-98453981D01*
X67880681Y-98565782D01*
X67880679Y-98565785D01*
X67850775Y-98617582D01*
X67850774Y-98617584D01*
X67801623Y-98702714D01*
X67787743Y-98754515D01*
X67765740Y-98836632D01*
X67760699Y-98855444D01*
X67760699Y-99013554D01*
X67760698Y-99013554D01*
X67801623Y-99166284D01*
X67803060Y-99169753D01*
X67812500Y-99217209D01*
X67812500Y-100099060D01*
X67792815Y-100166099D01*
X67740011Y-100211854D01*
X67670853Y-100221798D01*
X67626502Y-100206448D01*
X67580388Y-100179825D01*
X67580386Y-100179824D01*
X67580384Y-100179823D01*
X67427657Y-100138900D01*
X67269542Y-100138900D01*
X67116815Y-100179823D01*
X67116814Y-100179823D01*
X67116812Y-100179824D01*
X67116809Y-100179825D01*
X67066696Y-100208759D01*
X67066695Y-100208760D01*
X67023289Y-100233820D01*
X66979885Y-100258879D01*
X66979882Y-100258881D01*
X66868078Y-100370686D01*
X65282152Y-101956611D01*
X65220829Y-101990096D01*
X65151137Y-101985112D01*
X65095204Y-101943240D01*
X65070787Y-101877776D01*
X65071103Y-101867185D01*
X65070701Y-101867185D01*
X65070701Y-101700945D01*
X65070701Y-101700943D01*
X65029777Y-101548215D01*
X64973236Y-101450284D01*
X64950720Y-101411284D01*
X64838916Y-101299480D01*
X64838913Y-101299478D01*
X63910419Y-100370984D01*
X63876934Y-100309661D01*
X63874100Y-100283303D01*
X63874100Y-97677577D01*
X66175975Y-97677577D01*
X66281236Y-97721178D01*
X66281240Y-97721179D01*
X66426126Y-97749999D01*
X66426129Y-97750000D01*
X66573871Y-97750000D01*
X66573873Y-97749999D01*
X66718760Y-97721179D01*
X66718775Y-97721175D01*
X66824024Y-97677578D01*
X66824024Y-97677577D01*
X67575975Y-97677577D01*
X67681236Y-97721178D01*
X67681240Y-97721179D01*
X67826126Y-97749999D01*
X67826129Y-97750000D01*
X67973871Y-97750000D01*
X67973873Y-97749999D01*
X68118760Y-97721179D01*
X68118775Y-97721175D01*
X68224024Y-97677578D01*
X68224024Y-97677577D01*
X67900001Y-97353554D01*
X67900000Y-97353554D01*
X67575975Y-97677577D01*
X66824024Y-97677577D01*
X66500001Y-97353554D01*
X66500000Y-97353554D01*
X66175975Y-97677577D01*
X63874100Y-97677577D01*
X63874100Y-96926126D01*
X65750000Y-96926126D01*
X65750000Y-97073873D01*
X65778820Y-97218759D01*
X65778822Y-97218767D01*
X65822421Y-97324024D01*
X66146446Y-97000000D01*
X66146446Y-96999999D01*
X66126556Y-96980109D01*
X66400000Y-96980109D01*
X66400000Y-97019891D01*
X66415224Y-97056645D01*
X66443355Y-97084776D01*
X66480109Y-97100000D01*
X66519891Y-97100000D01*
X66556645Y-97084776D01*
X66584776Y-97056645D01*
X66600000Y-97019891D01*
X66600000Y-96999999D01*
X66853554Y-96999999D01*
X66853554Y-97000001D01*
X67177929Y-97324376D01*
X67222069Y-97324376D01*
X67546446Y-97000000D01*
X67526555Y-96980109D01*
X67800000Y-96980109D01*
X67800000Y-97019891D01*
X67815224Y-97056645D01*
X67843355Y-97084776D01*
X67880109Y-97100000D01*
X67919891Y-97100000D01*
X67956645Y-97084776D01*
X67984776Y-97056645D01*
X68000000Y-97019891D01*
X68000000Y-96999999D01*
X68253554Y-96999999D01*
X68253554Y-97000001D01*
X68577577Y-97324024D01*
X68577578Y-97324024D01*
X68621175Y-97218775D01*
X68621179Y-97218760D01*
X68649999Y-97073873D01*
X68650000Y-97073871D01*
X68650000Y-96926128D01*
X68649999Y-96926126D01*
X68621179Y-96781240D01*
X68621178Y-96781236D01*
X68577577Y-96675975D01*
X68253554Y-96999999D01*
X68000000Y-96999999D01*
X68000000Y-96980109D01*
X67984776Y-96943355D01*
X67956645Y-96915224D01*
X67919891Y-96900000D01*
X67880109Y-96900000D01*
X67843355Y-96915224D01*
X67815224Y-96943355D01*
X67800000Y-96980109D01*
X67526555Y-96980109D01*
X67222068Y-96675622D01*
X67177930Y-96675622D01*
X66853554Y-96999999D01*
X66600000Y-96999999D01*
X66600000Y-96980109D01*
X66584776Y-96943355D01*
X66556645Y-96915224D01*
X66519891Y-96900000D01*
X66480109Y-96900000D01*
X66443355Y-96915224D01*
X66415224Y-96943355D01*
X66400000Y-96980109D01*
X66126556Y-96980109D01*
X65822421Y-96675974D01*
X65822420Y-96675974D01*
X65778823Y-96781228D01*
X65778820Y-96781240D01*
X65750000Y-96926126D01*
X63874100Y-96926126D01*
X63874100Y-96400000D01*
X66253554Y-96400000D01*
X66500000Y-96646446D01*
X66746446Y-96400000D01*
X67653554Y-96400000D01*
X67900000Y-96646446D01*
X68146446Y-96400000D01*
X67900000Y-96153554D01*
X67653554Y-96400000D01*
X66746446Y-96400000D01*
X66500000Y-96153554D01*
X66253554Y-96400000D01*
X63874100Y-96400000D01*
X63874100Y-95763945D01*
X63874100Y-95763943D01*
X63863967Y-95726126D01*
X65750000Y-95726126D01*
X65750000Y-95873873D01*
X65778820Y-96018759D01*
X65778822Y-96018767D01*
X65822421Y-96124024D01*
X66146446Y-95800000D01*
X66146446Y-95799999D01*
X66126556Y-95780109D01*
X66400000Y-95780109D01*
X66400000Y-95819891D01*
X66415224Y-95856645D01*
X66443355Y-95884776D01*
X66480109Y-95900000D01*
X66519891Y-95900000D01*
X66556645Y-95884776D01*
X66584776Y-95856645D01*
X66600000Y-95819891D01*
X66600000Y-95799999D01*
X66853554Y-95799999D01*
X66853554Y-95800001D01*
X67177929Y-96124376D01*
X67222069Y-96124376D01*
X67546446Y-95800000D01*
X67526555Y-95780109D01*
X67800000Y-95780109D01*
X67800000Y-95819891D01*
X67815224Y-95856645D01*
X67843355Y-95884776D01*
X67880109Y-95900000D01*
X67919891Y-95900000D01*
X67956645Y-95884776D01*
X67984776Y-95856645D01*
X68000000Y-95819891D01*
X68000000Y-95799999D01*
X68253554Y-95799999D01*
X68253554Y-95800001D01*
X68577577Y-96124024D01*
X68577578Y-96124024D01*
X68621175Y-96018775D01*
X68621179Y-96018760D01*
X68649999Y-95873873D01*
X68650000Y-95873871D01*
X68650000Y-95726128D01*
X68649999Y-95726126D01*
X68621179Y-95581240D01*
X68621178Y-95581236D01*
X68577577Y-95475975D01*
X68253554Y-95799999D01*
X68000000Y-95799999D01*
X68000000Y-95780109D01*
X67984776Y-95743355D01*
X67956645Y-95715224D01*
X67919891Y-95700000D01*
X67880109Y-95700000D01*
X67843355Y-95715224D01*
X67815224Y-95743355D01*
X67800000Y-95780109D01*
X67526555Y-95780109D01*
X67222068Y-95475622D01*
X67177930Y-95475622D01*
X66853554Y-95799999D01*
X66600000Y-95799999D01*
X66600000Y-95780109D01*
X66584776Y-95743355D01*
X66556645Y-95715224D01*
X66519891Y-95700000D01*
X66480109Y-95700000D01*
X66443355Y-95715224D01*
X66415224Y-95743355D01*
X66400000Y-95780109D01*
X66126556Y-95780109D01*
X65822421Y-95475974D01*
X65822420Y-95475974D01*
X65778823Y-95581228D01*
X65778820Y-95581240D01*
X65750000Y-95726126D01*
X63863967Y-95726126D01*
X63833177Y-95611216D01*
X63815864Y-95581228D01*
X63754124Y-95474290D01*
X63754118Y-95474282D01*
X63642317Y-95362481D01*
X63642309Y-95362475D01*
X63505390Y-95283426D01*
X63505386Y-95283424D01*
X63505384Y-95283423D01*
X63352657Y-95242500D01*
X63194543Y-95242500D01*
X63041816Y-95283423D01*
X63041809Y-95283426D01*
X62904890Y-95362475D01*
X62904882Y-95362481D01*
X62793081Y-95474282D01*
X62793075Y-95474290D01*
X62714026Y-95611209D01*
X62714023Y-95611216D01*
X62673100Y-95763943D01*
X62673100Y-97433254D01*
X62653415Y-97500293D01*
X62600611Y-97546048D01*
X62531453Y-97555992D01*
X62517007Y-97553029D01*
X62463157Y-97538600D01*
X62305043Y-97538600D01*
X62152315Y-97579523D01*
X62152314Y-97579523D01*
X62152312Y-97579524D01*
X62152309Y-97579525D01*
X62102196Y-97608459D01*
X62102195Y-97608460D01*
X62058789Y-97633520D01*
X62015385Y-97658579D01*
X62015382Y-97658581D01*
X61758781Y-97915182D01*
X61758779Y-97915185D01*
X61725434Y-97972942D01*
X61725433Y-97972944D01*
X61679723Y-98052114D01*
X61666081Y-98103024D01*
X61638799Y-98204843D01*
X61638799Y-98204845D01*
X61638799Y-98372946D01*
X61638800Y-98372959D01*
X61638800Y-99691734D01*
X61619115Y-99758773D01*
X61566311Y-99804528D01*
X61497153Y-99814472D01*
X61445910Y-99794836D01*
X61353925Y-99733374D01*
X61353907Y-99733364D01*
X61171839Y-99657950D01*
X61171829Y-99657947D01*
X60978543Y-99619500D01*
X60978541Y-99619500D01*
X60431333Y-99619500D01*
X60364294Y-99599815D01*
X60318539Y-99547011D01*
X60308595Y-99477853D01*
X60323947Y-99433499D01*
X60336278Y-99412140D01*
X60336277Y-99412140D01*
X60336281Y-99412135D01*
X60375500Y-99265766D01*
X60375500Y-99114234D01*
X60336281Y-98967865D01*
X60330839Y-98958440D01*
X60326129Y-98950281D01*
X60260515Y-98836635D01*
X60153365Y-98729485D01*
X60069983Y-98681344D01*
X60022136Y-98653719D01*
X59948950Y-98634109D01*
X59875766Y-98614500D01*
X59724234Y-98614500D01*
X59577863Y-98653719D01*
X59446635Y-98729485D01*
X59446632Y-98729487D01*
X59339487Y-98836632D01*
X59339485Y-98836635D01*
X59263719Y-98967863D01*
X59224500Y-99114234D01*
X59224500Y-99265765D01*
X59263719Y-99412136D01*
X59301602Y-99477750D01*
X59339485Y-99543365D01*
X59339488Y-99543368D01*
X59344188Y-99549493D01*
X59369383Y-99614662D01*
X59355346Y-99683107D01*
X59310510Y-99729023D01*
X59311151Y-99729983D01*
X59306612Y-99733015D01*
X59306533Y-99733097D01*
X59306296Y-99733226D01*
X59142218Y-99842860D01*
X59142214Y-99842863D01*
X59002863Y-99982214D01*
X59002860Y-99982218D01*
X58893371Y-100146079D01*
X58893364Y-100146092D01*
X58817950Y-100328160D01*
X58817947Y-100328170D01*
X58779500Y-100521456D01*
X58779500Y-100521459D01*
X58779500Y-100718541D01*
X58779500Y-100718543D01*
X58779499Y-100718543D01*
X57450500Y-100718543D01*
X57450500Y-100521456D01*
X57412052Y-100328170D01*
X57412051Y-100328169D01*
X57412051Y-100328165D01*
X57408112Y-100318656D01*
X57336635Y-100146092D01*
X57336628Y-100146079D01*
X57227139Y-99982218D01*
X57227136Y-99982214D01*
X57087785Y-99842863D01*
X57087781Y-99842860D01*
X56923920Y-99733371D01*
X56923907Y-99733364D01*
X56741839Y-99657950D01*
X56741829Y-99657947D01*
X56548543Y-99619500D01*
X56548541Y-99619500D01*
X55751459Y-99619500D01*
X55751457Y-99619500D01*
X55558170Y-99657947D01*
X55558160Y-99657950D01*
X55376092Y-99733364D01*
X55376079Y-99733371D01*
X55212218Y-99842860D01*
X55212214Y-99842863D01*
X55072863Y-99982214D01*
X55072860Y-99982218D01*
X54963371Y-100146079D01*
X54963364Y-100146092D01*
X54887950Y-100328160D01*
X54887947Y-100328170D01*
X54849500Y-100521456D01*
X54849500Y-100521459D01*
X54849500Y-100718541D01*
X54849500Y-100718543D01*
X54849499Y-100718543D01*
X49500000Y-100718543D01*
X49500000Y-95200000D01*
X66253554Y-95200000D01*
X66500000Y-95446446D01*
X66746446Y-95200000D01*
X67653554Y-95200000D01*
X67900000Y-95446446D01*
X68146446Y-95200000D01*
X67900000Y-94953554D01*
X67653554Y-95200000D01*
X66746446Y-95200000D01*
X66500000Y-94953554D01*
X66253554Y-95200000D01*
X49500000Y-95200000D01*
X49500000Y-94526126D01*
X65750000Y-94526126D01*
X65750000Y-94673873D01*
X65778820Y-94818759D01*
X65778822Y-94818767D01*
X65822421Y-94924024D01*
X66146446Y-94600000D01*
X66146446Y-94599999D01*
X66126556Y-94580109D01*
X66400000Y-94580109D01*
X66400000Y-94619891D01*
X66415224Y-94656645D01*
X66443355Y-94684776D01*
X66480109Y-94700000D01*
X66519891Y-94700000D01*
X66556645Y-94684776D01*
X66584776Y-94656645D01*
X66600000Y-94619891D01*
X66600000Y-94599999D01*
X66853554Y-94599999D01*
X66853554Y-94600001D01*
X67177929Y-94924376D01*
X67222069Y-94924376D01*
X67546446Y-94600000D01*
X67526555Y-94580109D01*
X67800000Y-94580109D01*
X67800000Y-94619891D01*
X67815224Y-94656645D01*
X67843355Y-94684776D01*
X67880109Y-94700000D01*
X67919891Y-94700000D01*
X67956645Y-94684776D01*
X67984776Y-94656645D01*
X68000000Y-94619891D01*
X68000000Y-94599999D01*
X68253554Y-94599999D01*
X68253554Y-94600001D01*
X68577577Y-94924024D01*
X68577578Y-94924024D01*
X68621175Y-94818775D01*
X68621179Y-94818760D01*
X68649999Y-94673873D01*
X68650000Y-94673871D01*
X68650000Y-94526128D01*
X68649999Y-94526126D01*
X68621179Y-94381240D01*
X68621178Y-94381236D01*
X68577577Y-94275975D01*
X68253554Y-94599999D01*
X68000000Y-94599999D01*
X68000000Y-94580109D01*
X67984776Y-94543355D01*
X67956645Y-94515224D01*
X67919891Y-94500000D01*
X67880109Y-94500000D01*
X67843355Y-94515224D01*
X67815224Y-94543355D01*
X67800000Y-94580109D01*
X67526555Y-94580109D01*
X67222068Y-94275622D01*
X67177930Y-94275622D01*
X66853554Y-94599999D01*
X66600000Y-94599999D01*
X66600000Y-94580109D01*
X66584776Y-94543355D01*
X66556645Y-94515224D01*
X66519891Y-94500000D01*
X66480109Y-94500000D01*
X66443355Y-94515224D01*
X66415224Y-94543355D01*
X66400000Y-94580109D01*
X66126556Y-94580109D01*
X65822421Y-94275974D01*
X65822420Y-94275974D01*
X65778823Y-94381228D01*
X65778820Y-94381240D01*
X65750000Y-94526126D01*
X49500000Y-94526126D01*
X49500000Y-92078543D01*
X54849499Y-92078543D01*
X54887947Y-92271829D01*
X54887950Y-92271839D01*
X54963364Y-92453907D01*
X54963371Y-92453920D01*
X55072860Y-92617781D01*
X55072863Y-92617785D01*
X55212214Y-92757136D01*
X55212218Y-92757139D01*
X55376079Y-92866628D01*
X55376092Y-92866635D01*
X55541480Y-92935140D01*
X55558165Y-92942051D01*
X55558169Y-92942051D01*
X55558170Y-92942052D01*
X55751456Y-92980500D01*
X55751459Y-92980500D01*
X56548543Y-92980500D01*
X56704462Y-92949485D01*
X56741835Y-92942051D01*
X56923914Y-92866632D01*
X57087782Y-92757139D01*
X57227139Y-92617782D01*
X57336632Y-92453914D01*
X57412051Y-92271835D01*
X57424632Y-92208582D01*
X57450500Y-92078543D01*
X58779499Y-92078543D01*
X58817947Y-92271829D01*
X58817950Y-92271839D01*
X58893364Y-92453907D01*
X58893371Y-92453920D01*
X59002860Y-92617781D01*
X59002863Y-92617785D01*
X59142214Y-92757136D01*
X59142218Y-92757139D01*
X59311151Y-92870017D01*
X59310180Y-92871470D01*
X59354109Y-92914619D01*
X59369571Y-92982757D01*
X59345741Y-93048437D01*
X59344190Y-93050502D01*
X59339489Y-93056627D01*
X59263719Y-93187863D01*
X59224500Y-93334234D01*
X59224500Y-93485765D01*
X59263719Y-93632136D01*
X59295882Y-93687843D01*
X59339485Y-93763365D01*
X59446635Y-93870515D01*
X59577865Y-93946281D01*
X59724234Y-93985500D01*
X59724236Y-93985500D01*
X59875764Y-93985500D01*
X59875766Y-93985500D01*
X60022135Y-93946281D01*
X60153365Y-93870515D01*
X60177926Y-93845954D01*
X62813198Y-93845954D01*
X62854123Y-93998685D01*
X62883058Y-94048800D01*
X62883059Y-94048804D01*
X62883060Y-94048804D01*
X62927282Y-94125401D01*
X62933179Y-94135614D01*
X62933181Y-94135617D01*
X63044984Y-94247420D01*
X63131795Y-94297539D01*
X63131797Y-94297541D01*
X63169851Y-94319511D01*
X63181915Y-94326477D01*
X63334643Y-94367401D01*
X63334646Y-94367401D01*
X63492754Y-94367401D01*
X63492757Y-94367401D01*
X63645485Y-94326477D01*
X63695604Y-94297539D01*
X63782416Y-94247420D01*
X63894220Y-94135616D01*
X63894220Y-94135614D01*
X63904428Y-94125407D01*
X63904430Y-94125404D01*
X64107414Y-93922420D01*
X66175974Y-93922420D01*
X66175974Y-93922421D01*
X66500000Y-94246446D01*
X66500001Y-94246446D01*
X66824024Y-93922421D01*
X66824022Y-93922420D01*
X67575974Y-93922420D01*
X67575974Y-93922421D01*
X67900000Y-94246446D01*
X67900001Y-94246446D01*
X68224024Y-93922421D01*
X68118767Y-93878822D01*
X68118759Y-93878820D01*
X67973872Y-93850000D01*
X67826128Y-93850000D01*
X67681240Y-93878820D01*
X67681228Y-93878823D01*
X67575974Y-93922420D01*
X66824022Y-93922420D01*
X66718767Y-93878822D01*
X66718759Y-93878820D01*
X66573872Y-93850000D01*
X66426128Y-93850000D01*
X66281240Y-93878820D01*
X66281228Y-93878823D01*
X66175974Y-93922420D01*
X64107414Y-93922420D01*
X64490791Y-93539043D01*
X72620700Y-93539043D01*
X72620700Y-95922057D01*
X72646616Y-96018775D01*
X72661623Y-96074783D01*
X72661626Y-96074790D01*
X72740675Y-96211709D01*
X72740679Y-96211714D01*
X72740680Y-96211716D01*
X72852484Y-96323520D01*
X72852486Y-96323521D01*
X72852490Y-96323524D01*
X72984952Y-96400000D01*
X72989416Y-96402577D01*
X73142143Y-96443500D01*
X73142145Y-96443500D01*
X73300255Y-96443500D01*
X73300257Y-96443500D01*
X73452984Y-96402577D01*
X73589916Y-96323520D01*
X73701720Y-96211716D01*
X73780777Y-96074784D01*
X73821700Y-95922057D01*
X73821700Y-93539043D01*
X73780777Y-93386316D01*
X73773794Y-93374221D01*
X73701724Y-93249390D01*
X73701718Y-93249382D01*
X73589917Y-93137581D01*
X73589909Y-93137575D01*
X73452990Y-93058526D01*
X73452986Y-93058524D01*
X73452984Y-93058523D01*
X73300257Y-93017600D01*
X73142143Y-93017600D01*
X72989416Y-93058523D01*
X72989409Y-93058526D01*
X72852490Y-93137575D01*
X72852482Y-93137581D01*
X72740681Y-93249382D01*
X72740675Y-93249390D01*
X72661626Y-93386309D01*
X72661623Y-93386316D01*
X72620700Y-93539043D01*
X64490791Y-93539043D01*
X64645406Y-93384428D01*
X64645411Y-93384424D01*
X64655614Y-93374220D01*
X64655616Y-93374220D01*
X64767420Y-93262416D01*
X64822854Y-93166400D01*
X64846477Y-93125485D01*
X64887400Y-92972758D01*
X64887400Y-92814643D01*
X64887400Y-91902070D01*
X87604500Y-91902070D01*
X87604500Y-92157929D01*
X87644526Y-92410640D01*
X87723588Y-92653972D01*
X87723589Y-92653975D01*
X87776153Y-92757136D01*
X87833669Y-92870017D01*
X87839750Y-92881950D01*
X87990132Y-93088935D01*
X87990136Y-93088940D01*
X88171059Y-93269863D01*
X88171064Y-93269867D01*
X88314695Y-93374220D01*
X88378053Y-93420252D01*
X88505116Y-93484994D01*
X88606024Y-93536410D01*
X88606027Y-93536411D01*
X88727693Y-93575942D01*
X88849361Y-93615474D01*
X89102070Y-93655500D01*
X89102071Y-93655500D01*
X89357929Y-93655500D01*
X89357930Y-93655500D01*
X89610639Y-93615474D01*
X89853975Y-93536410D01*
X90081947Y-93420252D01*
X90288942Y-93269862D01*
X90469862Y-93088942D01*
X90620252Y-92881947D01*
X90736410Y-92653975D01*
X90815474Y-92410639D01*
X90855500Y-92157930D01*
X90855500Y-91902070D01*
X110604500Y-91902070D01*
X110604500Y-92157929D01*
X110644526Y-92410640D01*
X110723588Y-92653972D01*
X110723589Y-92653975D01*
X110776153Y-92757136D01*
X110833669Y-92870017D01*
X110839750Y-92881950D01*
X110990132Y-93088935D01*
X110990136Y-93088940D01*
X111171059Y-93269863D01*
X111171064Y-93269867D01*
X111314695Y-93374220D01*
X111378053Y-93420252D01*
X111505116Y-93484994D01*
X111606024Y-93536410D01*
X111606027Y-93536411D01*
X111727693Y-93575942D01*
X111849361Y-93615474D01*
X112102070Y-93655500D01*
X112102071Y-93655500D01*
X112357929Y-93655500D01*
X112357930Y-93655500D01*
X112610639Y-93615474D01*
X112853975Y-93536410D01*
X113081947Y-93420252D01*
X113288942Y-93269862D01*
X113469862Y-93088942D01*
X113620252Y-92881947D01*
X113736410Y-92653975D01*
X113815474Y-92410639D01*
X113855500Y-92157930D01*
X113855500Y-91902070D01*
X113815474Y-91649361D01*
X113775942Y-91527693D01*
X113736411Y-91406027D01*
X113736410Y-91406024D01*
X113632892Y-91202861D01*
X113620252Y-91178053D01*
X113503931Y-91017950D01*
X113469867Y-90971064D01*
X113469863Y-90971059D01*
X113288940Y-90790136D01*
X113288935Y-90790132D01*
X113081950Y-90639750D01*
X113081949Y-90639749D01*
X113081947Y-90639748D01*
X113008910Y-90602533D01*
X112853975Y-90523589D01*
X112853972Y-90523588D01*
X112610640Y-90444526D01*
X112484284Y-90424513D01*
X112357930Y-90404500D01*
X112102070Y-90404500D01*
X112017833Y-90417842D01*
X111849359Y-90444526D01*
X111606027Y-90523588D01*
X111606024Y-90523589D01*
X111378049Y-90639750D01*
X111171064Y-90790132D01*
X111171059Y-90790136D01*
X110990136Y-90971059D01*
X110990132Y-90971064D01*
X110839750Y-91178049D01*
X110723589Y-91406024D01*
X110723588Y-91406027D01*
X110644526Y-91649359D01*
X110604500Y-91902070D01*
X90855500Y-91902070D01*
X90815474Y-91649361D01*
X90775942Y-91527693D01*
X90736411Y-91406027D01*
X90736410Y-91406024D01*
X90632892Y-91202861D01*
X90620252Y-91178053D01*
X90503931Y-91017950D01*
X90469867Y-90971064D01*
X90469863Y-90971059D01*
X90288940Y-90790136D01*
X90288935Y-90790132D01*
X90081950Y-90639750D01*
X90081949Y-90639749D01*
X90081947Y-90639748D01*
X90008910Y-90602533D01*
X89853975Y-90523589D01*
X89853972Y-90523588D01*
X89610640Y-90444526D01*
X89484284Y-90424513D01*
X89357930Y-90404500D01*
X89102070Y-90404500D01*
X89017833Y-90417842D01*
X88849359Y-90444526D01*
X88606027Y-90523588D01*
X88606024Y-90523589D01*
X88378049Y-90639750D01*
X88171064Y-90790132D01*
X88171059Y-90790136D01*
X87990136Y-90971059D01*
X87990132Y-90971064D01*
X87839750Y-91178049D01*
X87723589Y-91406024D01*
X87723588Y-91406027D01*
X87644526Y-91649359D01*
X87604500Y-91902070D01*
X64887400Y-91902070D01*
X64887400Y-88791943D01*
X64846477Y-88639216D01*
X64846473Y-88639209D01*
X64767424Y-88502290D01*
X64767418Y-88502282D01*
X64655617Y-88390481D01*
X64655609Y-88390475D01*
X64518690Y-88311426D01*
X64518686Y-88311424D01*
X64518684Y-88311423D01*
X64365957Y-88270500D01*
X64207843Y-88270500D01*
X64055116Y-88311423D01*
X64055109Y-88311426D01*
X63918190Y-88390475D01*
X63918182Y-88390481D01*
X63806381Y-88502282D01*
X63806375Y-88502290D01*
X63727326Y-88639209D01*
X63727323Y-88639216D01*
X63686400Y-88791943D01*
X63686400Y-92593602D01*
X63666715Y-92660641D01*
X63650081Y-92681283D01*
X62933181Y-93398182D01*
X62933179Y-93398185D01*
X62883061Y-93484994D01*
X62883059Y-93484996D01*
X62854125Y-93535109D01*
X62854124Y-93535110D01*
X62853070Y-93539043D01*
X62813199Y-93687843D01*
X62813199Y-93687845D01*
X62813199Y-93845954D01*
X62813198Y-93845954D01*
X60177926Y-93845954D01*
X60260515Y-93763365D01*
X60336281Y-93632135D01*
X60375500Y-93485766D01*
X60375500Y-93334234D01*
X60336281Y-93187865D01*
X60336278Y-93187859D01*
X60323947Y-93166501D01*
X60307473Y-93098602D01*
X60330325Y-93032574D01*
X60385245Y-92989383D01*
X60431333Y-92980500D01*
X60978543Y-92980500D01*
X61134462Y-92949485D01*
X61171835Y-92942051D01*
X61353914Y-92866632D01*
X61517782Y-92757139D01*
X61657139Y-92617782D01*
X61766632Y-92453914D01*
X61842051Y-92271835D01*
X61854632Y-92208582D01*
X61880500Y-92078543D01*
X61880500Y-91881456D01*
X61842052Y-91688170D01*
X61842051Y-91688169D01*
X61842051Y-91688165D01*
X61825977Y-91649359D01*
X61766635Y-91506092D01*
X61766628Y-91506079D01*
X61657139Y-91342218D01*
X61657136Y-91342214D01*
X61517785Y-91202863D01*
X61517781Y-91202860D01*
X61353920Y-91093371D01*
X61353907Y-91093364D01*
X61171839Y-91017950D01*
X61171829Y-91017947D01*
X60978543Y-90979500D01*
X60978541Y-90979500D01*
X59681459Y-90979500D01*
X59681457Y-90979500D01*
X59488170Y-91017947D01*
X59488160Y-91017950D01*
X59306092Y-91093364D01*
X59306079Y-91093371D01*
X59142218Y-91202860D01*
X59142214Y-91202863D01*
X59002863Y-91342214D01*
X59002860Y-91342218D01*
X58893371Y-91506079D01*
X58893364Y-91506092D01*
X58817950Y-91688160D01*
X58817947Y-91688170D01*
X58779500Y-91881456D01*
X58779500Y-91881459D01*
X58779500Y-92078541D01*
X58779500Y-92078543D01*
X58779499Y-92078543D01*
X57450500Y-92078543D01*
X57450500Y-91881456D01*
X57412052Y-91688170D01*
X57412051Y-91688169D01*
X57412051Y-91688165D01*
X57395977Y-91649359D01*
X57336635Y-91506092D01*
X57336628Y-91506079D01*
X57227139Y-91342218D01*
X57227136Y-91342214D01*
X57087785Y-91202863D01*
X57087781Y-91202860D01*
X56923920Y-91093371D01*
X56923907Y-91093364D01*
X56741839Y-91017950D01*
X56741829Y-91017947D01*
X56548543Y-90979500D01*
X56548541Y-90979500D01*
X55751459Y-90979500D01*
X55751457Y-90979500D01*
X55558170Y-91017947D01*
X55558160Y-91017950D01*
X55376092Y-91093364D01*
X55376079Y-91093371D01*
X55212218Y-91202860D01*
X55212214Y-91202863D01*
X55072863Y-91342214D01*
X55072860Y-91342218D01*
X54963371Y-91506079D01*
X54963364Y-91506092D01*
X54887950Y-91688160D01*
X54887947Y-91688170D01*
X54849500Y-91881456D01*
X54849500Y-91881459D01*
X54849500Y-92078541D01*
X54849500Y-92078543D01*
X54849499Y-92078543D01*
X49500000Y-92078543D01*
X49500000Y-83924500D01*
X49519685Y-83857461D01*
X49572489Y-83811706D01*
X49624000Y-83800500D01*
X149622219Y-83800500D01*
X149689258Y-83820185D01*
G37*
%TD.AperFunction*%
%TD*%
M02*
