%TF.GenerationSoftware,KiCad,Pcbnew,10.0.0*%
%TF.CreationDate,2026-04-14T22:47:33+04:00*%
%TF.ProjectId,project,70726f6a-6563-4742-9e6b-696361645f70,rev?*%
%TF.SameCoordinates,Original*%
%TF.FileFunction,Copper,L2,Bot*%
%TF.FilePolarity,Positive*%
%FSLAX46Y46*%
G04 Gerber Fmt 4.6, Leading zero omitted, Abs format (unit mm)*
G04 Created by KiCad (PCBNEW 10.0.0) date 2026-04-14 22:47:33*
%MOMM*%
%LPD*%
G01*
G04 APERTURE LIST*
G04 Aperture macros list*
%AMRoundRect*
0 Rectangle with rounded corners*
0 $1 Rounding radius*
0 $2 $3 $4 $5 $6 $7 $8 $9 X,Y pos of 4 corners*
0 Add a 4 corners polygon primitive as box body*
4,1,4,$2,$3,$4,$5,$6,$7,$8,$9,$2,$3,0*
0 Add four circle primitives for the rounded corners*
1,1,$1+$1,$2,$3*
1,1,$1+$1,$4,$5*
1,1,$1+$1,$6,$7*
1,1,$1+$1,$8,$9*
0 Add four rect primitives between the rounded corners*
20,1,$1+$1,$2,$3,$4,$5,0*
20,1,$1+$1,$4,$5,$6,$7,0*
20,1,$1+$1,$6,$7,$8,$9,0*
20,1,$1+$1,$8,$9,$2,$3,0*%
G04 Aperture macros list end*
%TA.AperFunction,ComponentPad*%
%ADD10R,2.000000X2.000000*%
%TD*%
%TA.AperFunction,ComponentPad*%
%ADD11C,2.000000*%
%TD*%
%TA.AperFunction,ComponentPad*%
%ADD12RoundRect,0.250000X0.550000X0.550000X-0.550000X0.550000X-0.550000X-0.550000X0.550000X-0.550000X0*%
%TD*%
%TA.AperFunction,ComponentPad*%
%ADD13C,1.600000*%
%TD*%
%TA.AperFunction,ComponentPad*%
%ADD14R,1.700000X1.700000*%
%TD*%
%TA.AperFunction,ComponentPad*%
%ADD15C,1.700000*%
%TD*%
%TA.AperFunction,ComponentPad*%
%ADD16R,3.200000X2.000000*%
%TD*%
%TA.AperFunction,ComponentPad*%
%ADD17RoundRect,0.250000X0.625000X-0.350000X0.625000X0.350000X-0.625000X0.350000X-0.625000X-0.350000X0*%
%TD*%
%TA.AperFunction,ComponentPad*%
%ADD18O,1.750000X1.200000*%
%TD*%
%TA.AperFunction,HeatsinkPad*%
%ADD19C,0.500000*%
%TD*%
%TA.AperFunction,HeatsinkPad*%
%ADD20R,1.900000X2.900000*%
%TD*%
%TA.AperFunction,ComponentPad*%
%ADD21R,1.508000X1.508000*%
%TD*%
%TA.AperFunction,ComponentPad*%
%ADD22C,1.508000*%
%TD*%
%TA.AperFunction,ComponentPad*%
%ADD23C,2.100000*%
%TD*%
%TA.AperFunction,ComponentPad*%
%ADD24C,1.750000*%
%TD*%
%TA.AperFunction,ComponentPad*%
%ADD25O,2.100000X1.000000*%
%TD*%
%TA.AperFunction,ComponentPad*%
%ADD26O,1.600000X1.000000*%
%TD*%
%TA.AperFunction,ViaPad*%
%ADD27C,0.200000*%
%TD*%
%TA.AperFunction,Conductor*%
%ADD28C,0.200000*%
%TD*%
G04 APERTURE END LIST*
D10*
%TO.P,BZ1,1,+_1*%
%TO.N,Net-(BZ1-+)*%
X102000000Y-161500000D03*
D11*
%TO.P,BZ1,2,-_2*%
%TO.N,GND*%
X107000000Y-161500000D03*
%TD*%
D12*
%TO.P,C4,1*%
%TO.N,+5V*%
X131152700Y-116000000D03*
D13*
%TO.P,C4,2*%
%TO.N,GND*%
X127652700Y-116000000D03*
%TD*%
D14*
%TO.P,J4,1,Pin_1_1*%
%TO.N,+5V*%
X146500000Y-118000000D03*
D15*
%TO.P,J4,2,Pin_2_2*%
%TO.N,GND*%
X146500000Y-115460000D03*
%TO.P,J4,3,Pin_3_3*%
%TO.N,Net-(J4-Pin_3)*%
X146500000Y-112920000D03*
%TD*%
D10*
%TO.P,SW1,A,A_A*%
%TO.N,/ENC_CLK*%
X62500000Y-137500000D03*
D11*
%TO.P,SW1,B,B_B*%
%TO.N,/ENC_DT*%
X62500000Y-142500000D03*
%TO.P,SW1,C,C_C*%
%TO.N,GND*%
X62500000Y-140000000D03*
D16*
%TO.P,SW1,MP*%
%TO.N,N/C*%
X70000000Y-134400000D03*
X70000000Y-145600000D03*
D11*
%TO.P,SW1,S1,S1_S1*%
%TO.N,/ENC_SW*%
X77000000Y-142500000D03*
%TO.P,SW1,S2,S2_S2*%
%TO.N,GND*%
X77000000Y-137500000D03*
%TD*%
D17*
%TO.P,J2,1,Pin_1_1*%
%TO.N,/VBAT_POS*%
X143500000Y-96500000D03*
D18*
%TO.P,J2,2,Pin_2_2*%
%TO.N,GND*%
X143500000Y-94500000D03*
%TD*%
D19*
%TO.P,U1,9,EPAD_9*%
%TO.N,GND*%
X66500000Y-94600000D03*
X66500000Y-95800000D03*
X66500000Y-97000000D03*
D20*
X67200000Y-95800000D03*
D19*
X67900000Y-94600000D03*
X67900000Y-95800000D03*
X67900000Y-97000000D03*
%TD*%
D14*
%TO.P,J3,1,Pin_1_1*%
%TO.N,+3.3V*%
X146000000Y-150500000D03*
D15*
%TO.P,J3,2,Pin_2_2*%
%TO.N,GND*%
X146000000Y-153040000D03*
%TO.P,J3,3,Pin_3_3*%
%TO.N,/LCD_SCL*%
X146000000Y-155580000D03*
%TO.P,J3,4,Pin_4_4*%
%TO.N,/LCD_SDA*%
X146000000Y-158120000D03*
%TO.P,J3,5,Pin_5_5*%
%TO.N,/LCD_RST*%
X146000000Y-160660000D03*
%TO.P,J3,6,Pin_6_6*%
%TO.N,/LCD_DC*%
X146000000Y-163200000D03*
%TO.P,J3,7,Pin_7_7*%
%TO.N,/LCD_CS*%
X146000000Y-165740000D03*
%TD*%
D21*
%TO.P,A1,1,3V3[1]_1*%
%TO.N,+3.3V*%
X90500000Y-145160000D03*
D22*
%TO.P,A1,2,5V[1]_2*%
%TO.N,+5V*%
X87960000Y-145160000D03*
%TO.P,A1,3,GPIO2/SDA_3*%
%TO.N,unconnected-(A1-GPIO2{slash}SDA-Pad3)*%
X90500000Y-142620000D03*
%TO.P,A1,4,5V[2]_4*%
%TO.N,+5V*%
X87960000Y-142620000D03*
%TO.P,A1,5,GPIO3/SCL_5*%
%TO.N,unconnected-(A1-GPIO3{slash}SCL-Pad5)*%
X90500000Y-140080000D03*
%TO.P,A1,6,GND[8]_6*%
%TO.N,GND*%
X87960000Y-140080000D03*
%TO.P,A1,7,GPIO4/GPCKL0_7*%
%TO.N,unconnected-(A1-GPIO4{slash}GPCKL0-Pad7)*%
X90500000Y-137540000D03*
%TO.P,A1,8,TXD0/GPIO14_8*%
%TO.N,unconnected-(A1-TXD0{slash}GPIO14-Pad8)*%
X87960000Y-137540000D03*
%TO.P,A1,9,GND[1]_9*%
%TO.N,GND*%
X90500000Y-135000000D03*
%TO.P,A1,10,RXD0/GPIO15_10*%
%TO.N,unconnected-(A1-RXD0{slash}GPIO15-Pad10)*%
X87960000Y-135000000D03*
%TO.P,A1,11,GPIO17/GEN0_11*%
%TO.N,/ENC_CLK*%
X90500000Y-132460000D03*
%TO.P,A1,12,GPIO18_12*%
%TO.N,/LED_DATA*%
X87960000Y-132460000D03*
%TO.P,A1,13,GPIO27/GEN2_13*%
%TO.N,/ENC_DT*%
X90500000Y-129920000D03*
%TO.P,A1,14,GND[4]_14*%
%TO.N,GND*%
X87960000Y-129920000D03*
%TO.P,A1,15,GPIO22/GEN3_15*%
%TO.N,/ENC_SW*%
X90500000Y-127380000D03*
%TO.P,A1,16,GEN4/GPIO23_16*%
%TO.N,/BTN1*%
X87960000Y-127380000D03*
%TO.P,A1,17,3V3[2]_17*%
%TO.N,+3.3V*%
X90500000Y-124840000D03*
%TO.P,A1,18,GEN5/GPIO24_18*%
%TO.N,/LCD_RST*%
X87960000Y-124840000D03*
%TO.P,A1,19,GPIO10/MOSI_19*%
%TO.N,/LCD_SDA*%
X90500000Y-122300000D03*
%TO.P,A1,20,GND[5]_20*%
%TO.N,GND*%
X87960000Y-122300000D03*
%TO.P,A1,21,GPIO9/MISO_21*%
%TO.N,unconnected-(A1-GPIO9{slash}MISO-Pad21)*%
X90500000Y-119760000D03*
%TO.P,A1,22,GEN/6GPIO25_22*%
%TO.N,/LCD_DC*%
X87960000Y-119760000D03*
%TO.P,A1,23,GPIO11/SCLK_23*%
%TO.N,/LCD_SCL*%
X90500000Y-117220000D03*
%TO.P,A1,24,~{CE0}/GPIO8_24*%
%TO.N,/LCD_CS*%
X87960000Y-117220000D03*
%TO.P,A1,25,GND[2]_25*%
%TO.N,GND*%
X90500000Y-114680000D03*
%TO.P,A1,26,~{CE1}/~{GPIO7}_26*%
%TO.N,unconnected-(A1-~{CE1}{slash}~{GPIO7}-Pad26)*%
X87960000Y-114680000D03*
%TO.P,A1,27,ID_SD_27*%
%TO.N,unconnected-(A1-ID_SD-Pad27)*%
X90500000Y-112140000D03*
%TO.P,A1,28,ID_SC_28*%
%TO.N,unconnected-(A1-ID_SC-Pad28)*%
X87960000Y-112140000D03*
%TO.P,A1,29,GPIO5_29*%
%TO.N,/BTN2*%
X90500000Y-109600000D03*
%TO.P,A1,30,GND[6]_30*%
%TO.N,GND*%
X87960000Y-109600000D03*
%TO.P,A1,31,GPIO6_31*%
%TO.N,unconnected-(A1-GPIO6-Pad31)*%
X90500000Y-107060000D03*
%TO.P,A1,32,GPIO12_32*%
%TO.N,/BUZZER*%
X87960000Y-107060000D03*
%TO.P,A1,33,GPIO13_33*%
%TO.N,unconnected-(A1-GPIO13-Pad33)*%
X90500000Y-104520000D03*
%TO.P,A1,34,GND[7]_34*%
%TO.N,GND*%
X87960000Y-104520000D03*
%TO.P,A1,35,GPIO19_35*%
%TO.N,unconnected-(A1-GPIO19-Pad35)*%
X90500000Y-101980000D03*
%TO.P,A1,36,GPIO16_36*%
%TO.N,unconnected-(A1-GPIO16-Pad36)*%
X87960000Y-101980000D03*
%TO.P,A1,37,GPIO26_37*%
%TO.N,unconnected-(A1-GPIO26-Pad37)*%
X90500000Y-99440000D03*
%TO.P,A1,38,GPIO20_38*%
%TO.N,unconnected-(A1-GPIO20-Pad38)*%
X87960000Y-99440000D03*
%TO.P,A1,39,GND[3]_39*%
%TO.N,GND*%
X90500000Y-96900000D03*
%TO.P,A1,40,GPIO21_40*%
%TO.N,unconnected-(A1-GPIO21-Pad40)*%
X87960000Y-96900000D03*
%TD*%
D23*
%TO.P,SW2,*%
%TO.N,*%
X54352500Y-154025000D03*
X54352500Y-147015000D03*
D24*
%TO.P,SW2,1,1_1*%
%TO.N,/BTN1*%
X51862500Y-152775000D03*
%TO.P,SW2,2,2_2*%
%TO.N,GND*%
X51862500Y-148275000D03*
%TD*%
D23*
%TO.P,SW3,*%
%TO.N,*%
X54352500Y-128250000D03*
X54352500Y-121240000D03*
D24*
%TO.P,SW3,1,1_1*%
%TO.N,GND*%
X51862500Y-127000000D03*
%TO.P,SW3,2,2_2*%
%TO.N,/BTN2*%
X51862500Y-122500000D03*
%TD*%
D25*
%TO.P,J1,SH,SHIELD_SH*%
%TO.N,unconnected-(J1-SHIELD-PadSH)*%
X56130000Y-89180000D03*
D26*
%TO.N,unconnected-(J1-SHIELD-PadSH)_2*%
X51950000Y-89180000D03*
D25*
%TO.N,unconnected-(J1-SHIELD-PadSH)_1*%
X56130000Y-97820000D03*
D26*
%TO.N,unconnected-(J1-SHIELD-PadSH)_3*%
X51950000Y-97820000D03*
%TD*%
D27*
%TO.N,Net-(J1-CC2)*%
X61308800Y-103811000D03*
X59323400Y-95843000D03*
%TO.N,GND*%
X74213900Y-111871000D03*
X72228500Y-126719000D03*
X136755000Y-144647000D03*
X129642000Y-135683000D03*
X58330700Y-89867000D03*
X59323400Y-106799000D03*
X64286900Y-95800000D03*
X58330700Y-96840100D03*
X63258700Y-102815000D03*
X138739000Y-127715000D03*
X65241300Y-116759000D03*
X82155500Y-99827000D03*
X76338100Y-96839000D03*
X129642000Y-127715000D03*
%TO.N,Net-(J1-CC1)*%
X61197100Y-92412000D03*
X64470200Y-101780000D03*
%TO.N,+5V*%
X132783000Y-127715000D03*
X66948500Y-111193000D03*
X68011300Y-101819000D03*
X132783000Y-133691000D03*
X83148200Y-110496000D03*
%TO.N,Net-(U2-FB)*%
X67352200Y-117714000D03*
X67959500Y-106799000D03*
%TO.N,+3.3V*%
X64286900Y-125723000D03*
X64286900Y-143651000D03*
X63258700Y-130416000D03*
%TO.N,/BTN2*%
X69452200Y-126517000D03*
X71235800Y-115763000D03*
%TO.N,/LED_DATA_5V*%
X133082000Y-132695000D03*
X133260000Y-125204000D03*
%TO.N,Net-(U2-SW)*%
X65241300Y-105803000D03*
X65241300Y-115763000D03*
X67348600Y-100739000D03*
%TO.N,Net-(J4-Pin_3)*%
X141718000Y-123731000D03*
%TO.N,/BUZZER*%
X96165100Y-155603000D03*
%TO.N,Net-(U1-PROG)*%
X73221200Y-93618100D03*
X73221200Y-95843000D03*
%TO.N,/ENC_CLK*%
X63294200Y-132695000D03*
X90097100Y-133942000D03*
%TO.N,/ENC_SW*%
X80170100Y-128711000D03*
%TO.N,Net-(U1-TEMP)*%
X63413700Y-93766900D03*
X64286900Y-88871000D03*
%TO.N,/VBAT_POS*%
X68361200Y-98934500D03*
X67678200Y-116474000D03*
%TO.N,/LCD_SCL*%
X91089800Y-151619000D03*
%TO.N,/LCD_SDA*%
X95811000Y-154772000D03*
X92126100Y-122735000D03*
%TO.N,/LCD_RST*%
X122856000Y-128711000D03*
%TO.N,/LCD_DC*%
X122162000Y-123731000D03*
%TO.N,/LCD_CS*%
X121864000Y-121739000D03*
%TO.N,/BTN1*%
X60316100Y-150623000D03*
X61156200Y-142121000D03*
X62301500Y-128711000D03*
%TD*%
%TO.N,Net-(J1-CC2)*%
D28*
X62239300Y-98816900D02*
X59323400Y-95901000D01*
X59323400Y-95901000D02*
X59323400Y-95843000D01*
X62239300Y-98816900D02*
X62239300Y-102880000D01*
X62239300Y-102880000D02*
X61308800Y-103811000D01*
%TO.N,GND*%
X63800000Y-151000000D02*
X63000000Y-151000000D01*
X82155500Y-99827000D02*
X81173000Y-99827000D01*
X62641000Y-99550000D02*
X62641000Y-102197000D01*
X63800000Y-141300000D02*
X63800000Y-151000000D01*
X64500000Y-97129828D02*
X64870172Y-97500000D01*
X62500000Y-140000000D02*
X63800000Y-141300000D01*
X62641000Y-99550000D02*
X62641000Y-100516045D01*
X87960000Y-109600000D02*
X89014000Y-110654000D01*
X89014000Y-110654000D02*
X89014000Y-113194000D01*
X86848500Y-104520000D02*
X87960000Y-104520000D01*
X64870172Y-101945753D02*
X64870172Y-97500000D01*
X64635945Y-102179980D02*
X64870172Y-101945753D01*
X81173000Y-99827000D02*
X81000000Y-100000000D01*
X64500000Y-96500000D02*
X64500000Y-97129828D01*
X62641000Y-100516045D02*
X64304935Y-102179980D01*
X62641000Y-102197000D02*
X63258700Y-102815000D01*
X82155500Y-99827000D02*
X86848500Y-104520000D01*
X64304935Y-102179980D02*
X64635945Y-102179980D01*
X89014000Y-113194000D02*
X90500000Y-114680000D01*
%TO.N,Net-(J1-CC1)*%
X61197100Y-93766500D02*
X63273600Y-95843000D01*
X61197100Y-92412000D02*
X61197100Y-93766500D01*
X64470200Y-101780000D02*
X63273600Y-100583000D01*
X63273600Y-100583000D02*
X63273600Y-95843000D01*
%TO.N,+5V*%
X131153000Y-126084000D02*
X131153000Y-120502000D01*
X131153000Y-120502000D02*
X131152700Y-120501700D01*
X83148200Y-110496000D02*
X83148200Y-137808000D01*
X66948500Y-102882000D02*
X68011300Y-101819000D01*
X132783000Y-127715000D02*
X132680000Y-127818000D01*
X132783000Y-127715000D02*
X131153000Y-126084000D01*
X131153000Y-120502000D02*
X131153000Y-116000000D01*
X132680000Y-133588000D02*
X132783000Y-133691000D01*
X66948500Y-111193000D02*
X66948500Y-102882000D01*
X87960000Y-145160000D02*
X87960000Y-142620000D01*
X131152700Y-120501700D02*
X131152700Y-116000000D01*
X132680000Y-127818000D02*
X132680000Y-133588000D01*
X83148200Y-137808000D02*
X87960000Y-142620000D01*
%TO.N,Net-(U2-FB)*%
X67228400Y-117590000D02*
X67228400Y-112067000D01*
X67352200Y-117714000D02*
X67228400Y-117590000D01*
X67228400Y-112067000D02*
X67959500Y-111336000D01*
X67959500Y-111336000D02*
X67959500Y-106799000D01*
%TO.N,+3.3V*%
X90500000Y-145160000D02*
X90500000Y-144104000D01*
X90500000Y-144104000D02*
X90368000Y-144104000D01*
X89388700Y-125951000D02*
X90500000Y-124840000D01*
X90368000Y-144104000D02*
X89388700Y-143125000D01*
X64286900Y-143651000D02*
X64286900Y-131444000D01*
X64286900Y-131444000D02*
X63258700Y-130416000D01*
X89388700Y-143125000D02*
X89388700Y-125951000D01*
X63258700Y-130416000D02*
X63258700Y-126751000D01*
X63258700Y-126751000D02*
X64286900Y-125723000D01*
%TO.N,/BTN2*%
X71235800Y-124734000D02*
X69452200Y-126517000D01*
X71235800Y-115763000D02*
X71235800Y-124734000D01*
%TO.N,/LED_DATA_5V*%
X133260000Y-132516000D02*
X133260000Y-125204000D01*
X133082000Y-132695000D02*
X133260000Y-132516000D01*
%TO.N,Net-(U2-SW)*%
X65241300Y-105803000D02*
X65241300Y-102847000D01*
X65241300Y-102847000D02*
X67348600Y-100739000D01*
X65241300Y-115763000D02*
X65241300Y-105803000D01*
%TO.N,Net-(J4-Pin_3)*%
X146500000Y-112920000D02*
X141718000Y-117702000D01*
X141718000Y-117702000D02*
X141718000Y-123731000D01*
%TO.N,/BUZZER*%
X89230000Y-109839000D02*
X89230000Y-108330000D01*
X89230000Y-108330000D02*
X87960000Y-107060000D01*
X96212700Y-155555000D02*
X96212700Y-116337000D01*
X96165100Y-155603000D02*
X96212700Y-155555000D01*
X90260800Y-110870000D02*
X89230000Y-109839000D01*
X96212700Y-116337000D02*
X90745800Y-110870000D01*
X90745800Y-110870000D02*
X90260800Y-110870000D01*
%TO.N,Net-(U1-PROG)*%
X73221200Y-95843000D02*
X73221200Y-93618100D01*
%TO.N,/ENC_CLK*%
X62500000Y-133489000D02*
X62500000Y-137500000D01*
X63294200Y-132695000D02*
X62500000Y-133489000D01*
X90097100Y-132863000D02*
X90097100Y-133942000D01*
X90500000Y-132460000D02*
X90097100Y-132863000D01*
%TO.N,/ENC_SW*%
X80170100Y-128711000D02*
X80170100Y-139330000D01*
X80170100Y-139330000D02*
X77000000Y-142500000D01*
%TO.N,Net-(U1-TEMP)*%
X63413700Y-93766900D02*
X64286900Y-92893700D01*
X64286900Y-92893700D02*
X64286900Y-88871000D01*
%TO.N,/VBAT_POS*%
X67678200Y-116474000D02*
X68413000Y-115740000D01*
X68413000Y-115740000D02*
X68413000Y-98986300D01*
X68413000Y-98986300D02*
X68361200Y-98934500D01*
%TO.N,/LCD_SCL*%
X91573300Y-151136000D02*
X91089800Y-151619000D01*
X91573300Y-118293000D02*
X91573300Y-151136000D01*
X90500000Y-117220000D02*
X91573300Y-118293000D01*
%TO.N,/LCD_SDA*%
X92126100Y-151088000D02*
X95811000Y-154772000D01*
X92126100Y-122735000D02*
X92126100Y-151088000D01*
%TO.N,/LCD_RST*%
X146000000Y-160660000D02*
X130240000Y-160660000D01*
X130240000Y-160660000D02*
X122856000Y-153276000D01*
X122856000Y-153276000D02*
X122856000Y-128711000D01*
%TO.N,/LCD_DC*%
X130240000Y-163200000D02*
X122162000Y-155122000D01*
X146000000Y-163200000D02*
X130240000Y-163200000D01*
X122162000Y-155122000D02*
X122162000Y-123731000D01*
%TO.N,/LCD_CS*%
X121760000Y-121842000D02*
X121760000Y-157260000D01*
X121864000Y-121739000D02*
X121760000Y-121842000D01*
X121760000Y-157260000D02*
X130240000Y-165740000D01*
X130240000Y-165740000D02*
X146000000Y-165740000D01*
%TO.N,/BTN1*%
X62301500Y-128711000D02*
X61156200Y-129856000D01*
X61156200Y-142121000D02*
X60316100Y-142962000D01*
X60316100Y-142962000D02*
X60316100Y-150623000D01*
X61156200Y-129856000D02*
X61156200Y-142121000D01*
%TD*%
%TA.AperFunction,Conductor*%
%TO.N,GND*%
G36*
X91762142Y-112738173D02*
G01*
X91778382Y-112751844D01*
X94000144Y-114973646D01*
X95429225Y-116402753D01*
X95575882Y-116549412D01*
X95609366Y-116610735D01*
X95612200Y-116637092D01*
X95612200Y-153424805D01*
X95592515Y-153491844D01*
X95539711Y-153537599D01*
X95470553Y-153547543D01*
X95406997Y-153518518D01*
X95400529Y-153512497D01*
X92762929Y-150875542D01*
X92729437Y-150814223D01*
X92726600Y-150787850D01*
X92726600Y-122655945D01*
X92726600Y-122655943D01*
X92685677Y-122503216D01*
X92660980Y-122460439D01*
X92606624Y-122366290D01*
X92606618Y-122366282D01*
X92494817Y-122254481D01*
X92494809Y-122254475D01*
X92357890Y-122175426D01*
X92357885Y-122175423D01*
X92265706Y-122150724D01*
X92206046Y-122114358D01*
X92175517Y-122051511D01*
X92173800Y-122030949D01*
X92173800Y-118372014D01*
X92173811Y-118371973D01*
X92173800Y-118291835D01*
X92173800Y-118213943D01*
X92173798Y-118213938D01*
X92173789Y-118213865D01*
X92173789Y-118213858D01*
X92153365Y-118137679D01*
X92132877Y-118061216D01*
X92132876Y-118061214D01*
X92132868Y-118061184D01*
X92132862Y-118061168D01*
X92094385Y-117994544D01*
X92094387Y-117994542D01*
X92094377Y-117994531D01*
X92053820Y-117924284D01*
X92053816Y-117924280D01*
X92053771Y-117924221D01*
X92053769Y-117924219D01*
X92053768Y-117924217D01*
X92000061Y-117870525D01*
X91942016Y-117812480D01*
X91941980Y-117812459D01*
X91936415Y-117806895D01*
X91936407Y-117806888D01*
X91757164Y-117627696D01*
X91723671Y-117566377D01*
X91724186Y-117518787D01*
X91722848Y-117518575D01*
X91754500Y-117318736D01*
X91754500Y-117121263D01*
X91723610Y-116926236D01*
X91682591Y-116799994D01*
X91662591Y-116738439D01*
X91572944Y-116562499D01*
X91563436Y-116549412D01*
X91456884Y-116402753D01*
X91317246Y-116263115D01*
X91157505Y-116147058D01*
X91127381Y-116131709D01*
X90987043Y-116060202D01*
X90936250Y-116012230D01*
X90919455Y-115944409D01*
X90941992Y-115878275D01*
X90987046Y-115839235D01*
X91157241Y-115752516D01*
X91192988Y-115726543D01*
X91192988Y-115726541D01*
X90629410Y-115162962D01*
X90692993Y-115145925D01*
X90807007Y-115080099D01*
X90900099Y-114987007D01*
X90965925Y-114872993D01*
X90982962Y-114809409D01*
X91546541Y-115372988D01*
X91546543Y-115372988D01*
X91572516Y-115337241D01*
X91662126Y-115161373D01*
X91723123Y-114973646D01*
X91754000Y-114778697D01*
X91754000Y-114581302D01*
X91723123Y-114386353D01*
X91662126Y-114198626D01*
X91572520Y-114022768D01*
X91572512Y-114022755D01*
X91546542Y-113987010D01*
X91546541Y-113987009D01*
X90982962Y-114550589D01*
X90965925Y-114487007D01*
X90900099Y-114372993D01*
X90807007Y-114279901D01*
X90692993Y-114214075D01*
X90629409Y-114197037D01*
X91192989Y-113633457D01*
X91157236Y-113607481D01*
X90987045Y-113520763D01*
X90936250Y-113472789D01*
X90919455Y-113404968D01*
X90941993Y-113338833D01*
X90987042Y-113299798D01*
X91157501Y-113212944D01*
X91205283Y-113178228D01*
X91317246Y-113096884D01*
X91317248Y-113096881D01*
X91317252Y-113096879D01*
X91456879Y-112957252D01*
X91456881Y-112957248D01*
X91456884Y-112957246D01*
X91572941Y-112797505D01*
X91572942Y-112797504D01*
X91572944Y-112797501D01*
X91580215Y-112783230D01*
X91628186Y-112732435D01*
X91696006Y-112715638D01*
X91762142Y-112738173D01*
G37*
%TD.AperFunction*%
%TA.AperFunction,Conductor*%
G36*
X89006541Y-122992988D02*
G01*
X89006543Y-122992988D01*
X89032516Y-122957241D01*
X89119235Y-122787046D01*
X89167210Y-122736250D01*
X89235031Y-122719455D01*
X89301165Y-122741992D01*
X89340202Y-122787042D01*
X89424423Y-122952334D01*
X89427058Y-122957505D01*
X89543115Y-123117246D01*
X89682753Y-123256884D01*
X89806158Y-123346541D01*
X89842499Y-123372944D01*
X90012404Y-123459516D01*
X90063199Y-123507490D01*
X90079994Y-123575311D01*
X90057456Y-123641446D01*
X90012404Y-123680483D01*
X89855321Y-123760522D01*
X89842495Y-123767058D01*
X89682753Y-123883115D01*
X89543115Y-124022753D01*
X89427058Y-124182495D01*
X89427056Y-124182499D01*
X89351136Y-124331500D01*
X89340485Y-124352403D01*
X89292510Y-124403199D01*
X89224689Y-124419994D01*
X89158554Y-124397456D01*
X89119515Y-124352403D01*
X89032944Y-124182499D01*
X88972800Y-124099717D01*
X88916884Y-124022753D01*
X88777246Y-123883115D01*
X88617505Y-123767058D01*
X88612334Y-123764423D01*
X88447043Y-123680202D01*
X88396250Y-123632230D01*
X88379455Y-123564409D01*
X88401992Y-123498275D01*
X88447046Y-123459235D01*
X88617241Y-123372516D01*
X88652988Y-123346543D01*
X88652988Y-123346541D01*
X88089410Y-122782962D01*
X88152993Y-122765925D01*
X88267007Y-122700099D01*
X88360099Y-122607007D01*
X88425925Y-122492993D01*
X88442962Y-122429409D01*
X89006541Y-122992988D01*
G37*
%TD.AperFunction*%
%TA.AperFunction,Conductor*%
G36*
X89301446Y-120202542D02*
G01*
X89340482Y-120247593D01*
X89423804Y-120411119D01*
X89427058Y-120417505D01*
X89543115Y-120577246D01*
X89682753Y-120716884D01*
X89832234Y-120825486D01*
X89842499Y-120832944D01*
X90012404Y-120919516D01*
X90063199Y-120967490D01*
X90079994Y-121035311D01*
X90057456Y-121101446D01*
X90012404Y-121140483D01*
X89933779Y-121180546D01*
X89842495Y-121227058D01*
X89682753Y-121343115D01*
X89543115Y-121482753D01*
X89427058Y-121642495D01*
X89427056Y-121642499D01*
X89340203Y-121812954D01*
X89292230Y-121863749D01*
X89224409Y-121880544D01*
X89158274Y-121858006D01*
X89119235Y-121812953D01*
X89032520Y-121642768D01*
X89032512Y-121642755D01*
X89006542Y-121607010D01*
X89006541Y-121607009D01*
X88442962Y-122170589D01*
X88425925Y-122107007D01*
X88360099Y-121992993D01*
X88267007Y-121899901D01*
X88152993Y-121834075D01*
X88089409Y-121817037D01*
X88652989Y-121253457D01*
X88617236Y-121227481D01*
X88447045Y-121140763D01*
X88396250Y-121092789D01*
X88379455Y-121024968D01*
X88401993Y-120958833D01*
X88447042Y-120919798D01*
X88617501Y-120832944D01*
X88665283Y-120798228D01*
X88777246Y-120716884D01*
X88777248Y-120716881D01*
X88777252Y-120716879D01*
X88916879Y-120577252D01*
X88916881Y-120577248D01*
X88916884Y-120577246D01*
X89032941Y-120417505D01*
X89032942Y-120417504D01*
X89032944Y-120417501D01*
X89119517Y-120247593D01*
X89167490Y-120196800D01*
X89235311Y-120180005D01*
X89301446Y-120202542D01*
G37*
%TD.AperFunction*%
%TA.AperFunction,Conductor*%
G36*
X90034075Y-114872993D02*
G01*
X90099901Y-114987007D01*
X90192993Y-115080099D01*
X90307007Y-115145925D01*
X90370590Y-115162962D01*
X89807009Y-115726541D01*
X89807010Y-115726542D01*
X89842755Y-115752512D01*
X89842768Y-115752520D01*
X90012953Y-115839235D01*
X90063749Y-115887210D01*
X90080544Y-115955031D01*
X90058006Y-116021166D01*
X90012954Y-116060203D01*
X89872619Y-116131709D01*
X89842495Y-116147058D01*
X89682753Y-116263115D01*
X89543115Y-116402753D01*
X89427058Y-116562495D01*
X89427056Y-116562499D01*
X89343788Y-116725921D01*
X89340485Y-116732403D01*
X89292510Y-116783199D01*
X89224689Y-116799994D01*
X89158554Y-116777456D01*
X89119515Y-116732403D01*
X89116213Y-116725922D01*
X89032944Y-116562499D01*
X89023436Y-116549412D01*
X88916884Y-116402753D01*
X88777246Y-116263115D01*
X88617505Y-116147058D01*
X88587381Y-116131709D01*
X88447593Y-116060482D01*
X88396800Y-116012510D01*
X88380005Y-115944689D01*
X88402542Y-115878554D01*
X88447593Y-115839517D01*
X88617501Y-115752944D01*
X88712471Y-115683945D01*
X88777246Y-115636884D01*
X88777248Y-115636881D01*
X88777252Y-115636879D01*
X88916879Y-115497252D01*
X88916881Y-115497248D01*
X88916884Y-115497246D01*
X89032943Y-115337502D01*
X89036300Y-115330914D01*
X89119797Y-115167043D01*
X89167768Y-115116250D01*
X89235589Y-115099455D01*
X89301724Y-115121992D01*
X89340763Y-115167045D01*
X89427481Y-115337236D01*
X89453457Y-115372988D01*
X89453457Y-115372989D01*
X90017037Y-114809409D01*
X90034075Y-114872993D01*
G37*
%TD.AperFunction*%
%TA.AperFunction,Conductor*%
G36*
X89301446Y-112582542D02*
G01*
X89340482Y-112627593D01*
X89419786Y-112783233D01*
X89427058Y-112797505D01*
X89543115Y-112957246D01*
X89682753Y-113096884D01*
X89842494Y-113212941D01*
X89842496Y-113212942D01*
X89842499Y-113212944D01*
X90012956Y-113299797D01*
X90063749Y-113347768D01*
X90080544Y-113415589D01*
X90058007Y-113481724D01*
X90012954Y-113520763D01*
X89842767Y-113607479D01*
X89842760Y-113607483D01*
X89807010Y-113633456D01*
X89807010Y-113633457D01*
X90370591Y-114197037D01*
X90307007Y-114214075D01*
X90192993Y-114279901D01*
X90099901Y-114372993D01*
X90034075Y-114487007D01*
X90017037Y-114550590D01*
X89453457Y-113987010D01*
X89453456Y-113987010D01*
X89427483Y-114022760D01*
X89427479Y-114022767D01*
X89340763Y-114192954D01*
X89292788Y-114243749D01*
X89224967Y-114260544D01*
X89158833Y-114238006D01*
X89119798Y-114192957D01*
X89032944Y-114022499D01*
X89032942Y-114022496D01*
X89032941Y-114022494D01*
X88916884Y-113862753D01*
X88777246Y-113723115D01*
X88617505Y-113607058D01*
X88611119Y-113603804D01*
X88447593Y-113520482D01*
X88396800Y-113472510D01*
X88380005Y-113404689D01*
X88402542Y-113338554D01*
X88447593Y-113299517D01*
X88617501Y-113212944D01*
X88637912Y-113198114D01*
X88777246Y-113096884D01*
X88777248Y-113096881D01*
X88777252Y-113096879D01*
X88916879Y-112957252D01*
X88916881Y-112957248D01*
X88916884Y-112957246D01*
X89032941Y-112797505D01*
X89032942Y-112797504D01*
X89032944Y-112797501D01*
X89119517Y-112627593D01*
X89167490Y-112576800D01*
X89235311Y-112560005D01*
X89301446Y-112582542D01*
G37*
%TD.AperFunction*%
%TA.AperFunction,Conductor*%
G36*
X88605232Y-109891678D02*
G01*
X88637326Y-109947265D01*
X88649957Y-109994404D01*
X88649958Y-109994417D01*
X88649960Y-109994417D01*
X88670400Y-110070730D01*
X88670407Y-110070746D01*
X88670421Y-110070782D01*
X88712965Y-110144470D01*
X88712970Y-110144479D01*
X88749443Y-110207666D01*
X88749476Y-110207709D01*
X88749480Y-110207716D01*
X88811198Y-110269434D01*
X88811203Y-110269444D01*
X88811206Y-110269442D01*
X89473865Y-110932230D01*
X89616065Y-111074457D01*
X89649544Y-111135784D01*
X89644553Y-111205475D01*
X89616057Y-111249810D01*
X89543119Y-111322749D01*
X89543115Y-111322753D01*
X89427058Y-111482495D01*
X89427056Y-111482499D01*
X89365783Y-111602754D01*
X89340485Y-111652403D01*
X89292510Y-111703199D01*
X89224689Y-111719994D01*
X89158554Y-111697456D01*
X89119515Y-111652403D01*
X89032944Y-111482499D01*
X89025486Y-111472234D01*
X88916884Y-111322753D01*
X88777246Y-111183115D01*
X88617505Y-111067058D01*
X88612334Y-111064423D01*
X88447043Y-110980202D01*
X88396250Y-110932230D01*
X88379455Y-110864409D01*
X88401992Y-110798275D01*
X88447046Y-110759235D01*
X88617241Y-110672516D01*
X88652988Y-110646543D01*
X88652988Y-110646541D01*
X88089410Y-110082962D01*
X88152993Y-110065925D01*
X88267007Y-110000099D01*
X88360099Y-109907007D01*
X88425925Y-109792993D01*
X88442962Y-109729408D01*
X88605232Y-109891678D01*
G37*
%TD.AperFunction*%
%TA.AperFunction,Conductor*%
G36*
X89006541Y-105212988D02*
G01*
X89006543Y-105212988D01*
X89032516Y-105177241D01*
X89119235Y-105007046D01*
X89167210Y-104956250D01*
X89235031Y-104939455D01*
X89301165Y-104961992D01*
X89340202Y-105007042D01*
X89424423Y-105172334D01*
X89427058Y-105177505D01*
X89543115Y-105337246D01*
X89682753Y-105476884D01*
X89806158Y-105566541D01*
X89842499Y-105592944D01*
X90012404Y-105679516D01*
X90063199Y-105727490D01*
X90079994Y-105795311D01*
X90057456Y-105861446D01*
X90012404Y-105900483D01*
X89855321Y-105980522D01*
X89842495Y-105987058D01*
X89682753Y-106103115D01*
X89543115Y-106242753D01*
X89427058Y-106402495D01*
X89340485Y-106572403D01*
X89292510Y-106623199D01*
X89224689Y-106639994D01*
X89158554Y-106617456D01*
X89119515Y-106572403D01*
X89032944Y-106402499D01*
X89002259Y-106360264D01*
X88916884Y-106242753D01*
X88777246Y-106103115D01*
X88617505Y-105987058D01*
X88612334Y-105984423D01*
X88447043Y-105900202D01*
X88396250Y-105852230D01*
X88379455Y-105784409D01*
X88401992Y-105718275D01*
X88447046Y-105679235D01*
X88617241Y-105592516D01*
X88652988Y-105566543D01*
X88652988Y-105566541D01*
X88089410Y-105002962D01*
X88152993Y-104985925D01*
X88267007Y-104920099D01*
X88360099Y-104827007D01*
X88425925Y-104712993D01*
X88442962Y-104649409D01*
X89006541Y-105212988D01*
G37*
%TD.AperFunction*%
%TA.AperFunction,Conductor*%
G36*
X89301446Y-102422542D02*
G01*
X89340482Y-102467593D01*
X89397765Y-102580015D01*
X89427058Y-102637505D01*
X89543115Y-102797246D01*
X89682753Y-102936884D01*
X89815893Y-103033614D01*
X89842499Y-103052944D01*
X90012404Y-103139516D01*
X90063199Y-103187490D01*
X90079994Y-103255311D01*
X90057456Y-103321446D01*
X90012404Y-103360483D01*
X89855321Y-103440522D01*
X89842495Y-103447058D01*
X89682753Y-103563115D01*
X89543115Y-103702753D01*
X89427058Y-103862495D01*
X89427056Y-103862499D01*
X89340203Y-104032954D01*
X89292230Y-104083749D01*
X89224409Y-104100544D01*
X89158274Y-104078006D01*
X89119235Y-104032953D01*
X89032520Y-103862768D01*
X89032512Y-103862755D01*
X89006542Y-103827010D01*
X89006541Y-103827009D01*
X88442962Y-104390589D01*
X88425925Y-104327007D01*
X88360099Y-104212993D01*
X88267007Y-104119901D01*
X88152993Y-104054075D01*
X88089409Y-104037037D01*
X88652989Y-103473457D01*
X88617236Y-103447481D01*
X88447045Y-103360763D01*
X88396250Y-103312789D01*
X88379455Y-103244968D01*
X88401993Y-103178833D01*
X88447042Y-103139798D01*
X88617501Y-103052944D01*
X88665283Y-103018228D01*
X88777246Y-102936884D01*
X88777248Y-102936881D01*
X88777252Y-102936879D01*
X88916879Y-102797252D01*
X88916881Y-102797248D01*
X88916884Y-102797246D01*
X89032941Y-102637505D01*
X89032942Y-102637504D01*
X89032944Y-102637501D01*
X89119517Y-102467593D01*
X89167490Y-102416800D01*
X89235311Y-102400005D01*
X89301446Y-102422542D01*
G37*
%TD.AperFunction*%
%TA.AperFunction,Conductor*%
G36*
X90034075Y-97092993D02*
G01*
X90099901Y-97207007D01*
X90192993Y-97300099D01*
X90307007Y-97365925D01*
X90370590Y-97382962D01*
X89807009Y-97946541D01*
X89807010Y-97946542D01*
X89842755Y-97972512D01*
X89842768Y-97972520D01*
X90012953Y-98059235D01*
X90063749Y-98107210D01*
X90080544Y-98175031D01*
X90058006Y-98241166D01*
X90012954Y-98280203D01*
X89851189Y-98362627D01*
X89842495Y-98367058D01*
X89682753Y-98483115D01*
X89543115Y-98622753D01*
X89427058Y-98782495D01*
X89340485Y-98952403D01*
X89292510Y-99003199D01*
X89224689Y-99019994D01*
X89158554Y-98997456D01*
X89119515Y-98952403D01*
X89032944Y-98782499D01*
X89012611Y-98754513D01*
X88916884Y-98622753D01*
X88777246Y-98483115D01*
X88617505Y-98367058D01*
X88611119Y-98363804D01*
X88447593Y-98280482D01*
X88396800Y-98232510D01*
X88380005Y-98164689D01*
X88402542Y-98098554D01*
X88447593Y-98059517D01*
X88617501Y-97972944D01*
X88692381Y-97918541D01*
X88777246Y-97856884D01*
X88777248Y-97856881D01*
X88777252Y-97856879D01*
X88916879Y-97717252D01*
X88916881Y-97717248D01*
X88916884Y-97717246D01*
X89032943Y-97557502D01*
X89033079Y-97557236D01*
X89119797Y-97387043D01*
X89167768Y-97336250D01*
X89235589Y-97319455D01*
X89301724Y-97341992D01*
X89340763Y-97387045D01*
X89427481Y-97557236D01*
X89453457Y-97592988D01*
X89453457Y-97592989D01*
X90017037Y-97029409D01*
X90034075Y-97092993D01*
G37*
%TD.AperFunction*%
%TA.AperFunction,Conductor*%
G36*
X63650081Y-140796527D02*
G01*
X63683566Y-140857850D01*
X63686400Y-140884208D01*
X63686400Y-141265011D01*
X63666715Y-141332050D01*
X63613911Y-141377805D01*
X63544753Y-141387749D01*
X63481197Y-141358724D01*
X63480009Y-141357618D01*
X63477511Y-141355484D01*
X63421260Y-141314615D01*
X63378595Y-141259284D01*
X63373902Y-141227455D01*
X62629409Y-140482962D01*
X62692993Y-140465925D01*
X62807007Y-140400099D01*
X62900099Y-140307007D01*
X62965925Y-140192993D01*
X62982962Y-140129408D01*
X63650081Y-140796527D01*
G37*
%TD.AperFunction*%
%TA.AperFunction,Conductor*%
G36*
X149689258Y-83820185D02*
G01*
X149735013Y-83872989D01*
X149746219Y-83924500D01*
X149746219Y-169520890D01*
X149726534Y-169587929D01*
X149673730Y-169633684D01*
X149622219Y-169644890D01*
X78623105Y-169644890D01*
X78622488Y-169644888D01*
X49623383Y-169500613D01*
X49556442Y-169480596D01*
X49510951Y-169427565D01*
X49500000Y-169376615D01*
X49500000Y-160452135D01*
X100499500Y-160452135D01*
X100499500Y-162547870D01*
X100499501Y-162547876D01*
X100505908Y-162607483D01*
X100556202Y-162742328D01*
X100556206Y-162742335D01*
X100642452Y-162857544D01*
X100642455Y-162857547D01*
X100757664Y-162943793D01*
X100757671Y-162943797D01*
X100892517Y-162994091D01*
X100892516Y-162994091D01*
X100899444Y-162994835D01*
X100952127Y-163000500D01*
X103047872Y-163000499D01*
X103107483Y-162994091D01*
X103242331Y-162943796D01*
X103357546Y-162857546D01*
X103443796Y-162742331D01*
X103494091Y-162607483D01*
X103500500Y-162547873D01*
X103500499Y-161381947D01*
X105500000Y-161381947D01*
X105500000Y-161618052D01*
X105536934Y-161851247D01*
X105609897Y-162075802D01*
X105717087Y-162286174D01*
X105777338Y-162369104D01*
X105777340Y-162369105D01*
X106517037Y-161629408D01*
X106534075Y-161692993D01*
X106599901Y-161807007D01*
X106692993Y-161900099D01*
X106807007Y-161965925D01*
X106870590Y-161982962D01*
X106130893Y-162722658D01*
X106213828Y-162782914D01*
X106424197Y-162890102D01*
X106648752Y-162963065D01*
X106648751Y-162963065D01*
X106881948Y-163000000D01*
X107118052Y-163000000D01*
X107351247Y-162963065D01*
X107575802Y-162890102D01*
X107786163Y-162782918D01*
X107786169Y-162782914D01*
X107869104Y-162722658D01*
X107869105Y-162722658D01*
X107129408Y-161982962D01*
X107192993Y-161965925D01*
X107307007Y-161900099D01*
X107400099Y-161807007D01*
X107465925Y-161692993D01*
X107482962Y-161629409D01*
X108222658Y-162369105D01*
X108222658Y-162369104D01*
X108282914Y-162286169D01*
X108282918Y-162286163D01*
X108390102Y-162075802D01*
X108463065Y-161851247D01*
X108500000Y-161618052D01*
X108500000Y-161381947D01*
X108463065Y-161148752D01*
X108390102Y-160924197D01*
X108282914Y-160713828D01*
X108222658Y-160630894D01*
X108222658Y-160630893D01*
X107482962Y-161370590D01*
X107465925Y-161307007D01*
X107400099Y-161192993D01*
X107307007Y-161099901D01*
X107192993Y-161034075D01*
X107129409Y-161017037D01*
X107869105Y-160277340D01*
X107869104Y-160277338D01*
X107786174Y-160217087D01*
X107575802Y-160109897D01*
X107351247Y-160036934D01*
X107351248Y-160036934D01*
X107118052Y-160000000D01*
X106881948Y-160000000D01*
X106648752Y-160036934D01*
X106424197Y-160109897D01*
X106213830Y-160217084D01*
X106130894Y-160277340D01*
X106870591Y-161017037D01*
X106807007Y-161034075D01*
X106692993Y-161099901D01*
X106599901Y-161192993D01*
X106534075Y-161307007D01*
X106517037Y-161370591D01*
X105777340Y-160630894D01*
X105717084Y-160713830D01*
X105609897Y-160924197D01*
X105536934Y-161148752D01*
X105500000Y-161381947D01*
X103500499Y-161381947D01*
X103500499Y-160452128D01*
X103494091Y-160392517D01*
X103494090Y-160392514D01*
X103484922Y-160367931D01*
X103443797Y-160257671D01*
X103443793Y-160257664D01*
X103357547Y-160142455D01*
X103357544Y-160142452D01*
X103242335Y-160056206D01*
X103242328Y-160056202D01*
X103107482Y-160005908D01*
X103107483Y-160005908D01*
X103047883Y-159999501D01*
X103047881Y-159999500D01*
X103047873Y-159999500D01*
X103047864Y-159999500D01*
X100952129Y-159999500D01*
X100952123Y-159999501D01*
X100892516Y-160005908D01*
X100757671Y-160056202D01*
X100757664Y-160056206D01*
X100642455Y-160142452D01*
X100642452Y-160142455D01*
X100556206Y-160257664D01*
X100556202Y-160257671D01*
X100505908Y-160392517D01*
X100499501Y-160452116D01*
X100499501Y-160452123D01*
X100499500Y-160452135D01*
X49500000Y-160452135D01*
X49500000Y-152666746D01*
X50487000Y-152666746D01*
X50487000Y-152883253D01*
X50520870Y-153097098D01*
X50587772Y-153303006D01*
X50587773Y-153303009D01*
X50652385Y-153429815D01*
X50686067Y-153495919D01*
X50813328Y-153671078D01*
X50966422Y-153824172D01*
X51141581Y-153951433D01*
X51193955Y-153978119D01*
X51334490Y-154049726D01*
X51334493Y-154049727D01*
X51437447Y-154083178D01*
X51540403Y-154116630D01*
X51754246Y-154150500D01*
X51754247Y-154150500D01*
X51970753Y-154150500D01*
X51970754Y-154150500D01*
X52184597Y-154116630D01*
X52390509Y-154049726D01*
X52583419Y-153951433D01*
X52605113Y-153935670D01*
X52670919Y-153912190D01*
X52738973Y-153928015D01*
X52787669Y-153978119D01*
X52802000Y-154035988D01*
X52802000Y-154147027D01*
X52840179Y-154388076D01*
X52915596Y-154620185D01*
X53018376Y-154821903D01*
X53026396Y-154837642D01*
X53169839Y-155035076D01*
X53169843Y-155035081D01*
X53342418Y-155207656D01*
X53342423Y-155207660D01*
X53472887Y-155302447D01*
X53539861Y-155351106D01*
X53757315Y-155461904D01*
X53989424Y-155537321D01*
X54230473Y-155575500D01*
X54230474Y-155575500D01*
X54474526Y-155575500D01*
X54474527Y-155575500D01*
X54715576Y-155537321D01*
X54947685Y-155461904D01*
X55165139Y-155351106D01*
X55362583Y-155207655D01*
X55535155Y-155035083D01*
X55678606Y-154837639D01*
X55789404Y-154620185D01*
X55864821Y-154388076D01*
X55903000Y-154147027D01*
X55903000Y-153902973D01*
X55864821Y-153661924D01*
X55789404Y-153429815D01*
X55678606Y-153212361D01*
X55553379Y-153040000D01*
X55535160Y-153014923D01*
X55535156Y-153014918D01*
X55362581Y-152842343D01*
X55362576Y-152842339D01*
X55165142Y-152698896D01*
X55165141Y-152698895D01*
X55165139Y-152698894D01*
X54947685Y-152588096D01*
X54715576Y-152512679D01*
X54715574Y-152512678D01*
X54715572Y-152512678D01*
X54547269Y-152486021D01*
X54474527Y-152474500D01*
X54230473Y-152474500D01*
X54174593Y-152483350D01*
X53989427Y-152512678D01*
X53757312Y-152588097D01*
X53539856Y-152698896D01*
X53434885Y-152775162D01*
X53369078Y-152798642D01*
X53301025Y-152782816D01*
X53252330Y-152732710D01*
X53238000Y-152674844D01*
X53238000Y-152666746D01*
X53217925Y-152540000D01*
X53204130Y-152452903D01*
X53137226Y-152246991D01*
X53137226Y-152246990D01*
X53081984Y-152138573D01*
X53038933Y-152054081D01*
X52911672Y-151878922D01*
X52758578Y-151725828D01*
X52583419Y-151598567D01*
X52520889Y-151566706D01*
X52390509Y-151500273D01*
X52390506Y-151500272D01*
X52184598Y-151433370D01*
X52077675Y-151416435D01*
X51970754Y-151399500D01*
X51754246Y-151399500D01*
X51682965Y-151410790D01*
X51540401Y-151433370D01*
X51334493Y-151500272D01*
X51334490Y-151500273D01*
X51141580Y-151598567D01*
X51041645Y-151671174D01*
X50966422Y-151725828D01*
X50966420Y-151725830D01*
X50966419Y-151725830D01*
X50813330Y-151878919D01*
X50813330Y-151878920D01*
X50813328Y-151878922D01*
X50783906Y-151919418D01*
X50686067Y-152054080D01*
X50587773Y-152246990D01*
X50587772Y-152246993D01*
X50520870Y-152452901D01*
X50487000Y-152666746D01*
X49500000Y-152666746D01*
X49500000Y-148166779D01*
X50487500Y-148166779D01*
X50487500Y-148383220D01*
X50521357Y-148596981D01*
X50588235Y-148802814D01*
X50588236Y-148802817D01*
X50686496Y-148995660D01*
X50729329Y-149054615D01*
X50729330Y-149054616D01*
X51383619Y-148400326D01*
X51401234Y-148466063D01*
X51466402Y-148578937D01*
X51558563Y-148671098D01*
X51671437Y-148736266D01*
X51737172Y-148753880D01*
X51082882Y-149408168D01*
X51141842Y-149451005D01*
X51334682Y-149549263D01*
X51334685Y-149549264D01*
X51540518Y-149616142D01*
X51754280Y-149650000D01*
X51970720Y-149650000D01*
X52184481Y-149616142D01*
X52390314Y-149549264D01*
X52390317Y-149549263D01*
X52583156Y-149451006D01*
X52642115Y-149408168D01*
X52642116Y-149408168D01*
X51987827Y-148753880D01*
X52053563Y-148736266D01*
X52166437Y-148671098D01*
X52258598Y-148578937D01*
X52323766Y-148466063D01*
X52341380Y-148400326D01*
X52995668Y-149054616D01*
X52995668Y-149054615D01*
X53038506Y-148995656D01*
X53136763Y-148802817D01*
X53136764Y-148802814D01*
X53203642Y-148596981D01*
X53237500Y-148383220D01*
X53237500Y-148364792D01*
X53257185Y-148297753D01*
X53309989Y-148251998D01*
X53379147Y-148242054D01*
X53434385Y-148264474D01*
X53524541Y-148329975D01*
X53539861Y-148341106D01*
X53757315Y-148451904D01*
X53989424Y-148527321D01*
X54230473Y-148565500D01*
X54230474Y-148565500D01*
X54474526Y-148565500D01*
X54474527Y-148565500D01*
X54715576Y-148527321D01*
X54947685Y-148451904D01*
X55165139Y-148341106D01*
X55362583Y-148197655D01*
X55535155Y-148025083D01*
X55678606Y-147827639D01*
X55789404Y-147610185D01*
X55864821Y-147378076D01*
X55903000Y-147137027D01*
X55903000Y-146892973D01*
X55864821Y-146651924D01*
X55789404Y-146419815D01*
X55678606Y-146202361D01*
X55547191Y-146021483D01*
X55535160Y-146004923D01*
X55535156Y-146004918D01*
X55362581Y-145832343D01*
X55362576Y-145832339D01*
X55165142Y-145688896D01*
X55165141Y-145688895D01*
X55165139Y-145688894D01*
X54947685Y-145578096D01*
X54715576Y-145502679D01*
X54715574Y-145502678D01*
X54715572Y-145502678D01*
X54547269Y-145476021D01*
X54474527Y-145464500D01*
X54230473Y-145464500D01*
X54174593Y-145473350D01*
X53989427Y-145502678D01*
X53757312Y-145578097D01*
X53539857Y-145688896D01*
X53342423Y-145832339D01*
X53342418Y-145832343D01*
X53169843Y-146004918D01*
X53169839Y-146004923D01*
X53026396Y-146202357D01*
X52915597Y-146419812D01*
X52840178Y-146651927D01*
X52802000Y-146892973D01*
X52802000Y-147014628D01*
X52782315Y-147081667D01*
X52729511Y-147127422D01*
X52660353Y-147137366D01*
X52605116Y-147114947D01*
X52583160Y-147098995D01*
X52390317Y-147000736D01*
X52390314Y-147000735D01*
X52184481Y-146933857D01*
X51970720Y-146900000D01*
X51754280Y-146900000D01*
X51540518Y-146933857D01*
X51334685Y-147000735D01*
X51334682Y-147000736D01*
X51141846Y-147098992D01*
X51082883Y-147141830D01*
X51737173Y-147796119D01*
X51671437Y-147813734D01*
X51558563Y-147878902D01*
X51466402Y-147971063D01*
X51401234Y-148083937D01*
X51383619Y-148149672D01*
X50729330Y-147495383D01*
X50686492Y-147554346D01*
X50588236Y-147747182D01*
X50588235Y-147747185D01*
X50521357Y-147953018D01*
X50487500Y-148166779D01*
X49500000Y-148166779D01*
X49500000Y-142883264D01*
X59715557Y-142883264D01*
X59715600Y-142963251D01*
X59715600Y-150702057D01*
X59751405Y-150835681D01*
X59756523Y-150854783D01*
X59756526Y-150854790D01*
X59835575Y-150991709D01*
X59835579Y-150991714D01*
X59835580Y-150991716D01*
X59947384Y-151103520D01*
X59947386Y-151103521D01*
X59947390Y-151103524D01*
X60007937Y-151138480D01*
X60084316Y-151182577D01*
X60237043Y-151223500D01*
X60237045Y-151223500D01*
X60395155Y-151223500D01*
X60395157Y-151223500D01*
X60547884Y-151182577D01*
X60684816Y-151103520D01*
X60796620Y-150991716D01*
X60875677Y-150854784D01*
X60916600Y-150702057D01*
X60916600Y-144552135D01*
X67899500Y-144552135D01*
X67899500Y-146647870D01*
X67899501Y-146647876D01*
X67905908Y-146707483D01*
X67956202Y-146842328D01*
X67956206Y-146842335D01*
X68042452Y-146957544D01*
X68042455Y-146957547D01*
X68157664Y-147043793D01*
X68157671Y-147043797D01*
X68292517Y-147094091D01*
X68292516Y-147094091D01*
X68299444Y-147094835D01*
X68352127Y-147100500D01*
X71647872Y-147100499D01*
X71707483Y-147094091D01*
X71842331Y-147043796D01*
X71957546Y-146957546D01*
X72043796Y-146842331D01*
X72094091Y-146707483D01*
X72100500Y-146647873D01*
X72100499Y-144552128D01*
X72094091Y-144492517D01*
X72091775Y-144486308D01*
X72043797Y-144357671D01*
X72043793Y-144357664D01*
X71957547Y-144242455D01*
X71957544Y-144242452D01*
X71842335Y-144156206D01*
X71842328Y-144156202D01*
X71707482Y-144105908D01*
X71707483Y-144105908D01*
X71647883Y-144099501D01*
X71647881Y-144099500D01*
X71647873Y-144099500D01*
X71647864Y-144099500D01*
X68352129Y-144099500D01*
X68352123Y-144099501D01*
X68292516Y-144105908D01*
X68157671Y-144156202D01*
X68157664Y-144156206D01*
X68042455Y-144242452D01*
X68042452Y-144242455D01*
X67956206Y-144357664D01*
X67956202Y-144357671D01*
X67905908Y-144492517D01*
X67899501Y-144552116D01*
X67899501Y-144552123D01*
X67899500Y-144552135D01*
X60916600Y-144552135D01*
X60916600Y-143261869D01*
X60936285Y-143194830D01*
X60952870Y-143174237D01*
X60955758Y-143171346D01*
X60969011Y-143158078D01*
X61030313Y-143124560D01*
X61100008Y-143129506D01*
X61155965Y-143171346D01*
X61167223Y-143189416D01*
X61212107Y-143277504D01*
X61216657Y-143286433D01*
X61355483Y-143477510D01*
X61522490Y-143644517D01*
X61713567Y-143783343D01*
X61740993Y-143797317D01*
X61924003Y-143890566D01*
X61924005Y-143890566D01*
X61924008Y-143890568D01*
X62044412Y-143929689D01*
X62148631Y-143963553D01*
X62381903Y-144000500D01*
X62381908Y-144000500D01*
X62618097Y-144000500D01*
X62851368Y-143963553D01*
X63075992Y-143890568D01*
X63286433Y-143783343D01*
X63477510Y-143644517D01*
X63477524Y-143644502D01*
X63481214Y-143641353D01*
X63482616Y-143642995D01*
X63536042Y-143613823D01*
X63605734Y-143618807D01*
X63661667Y-143660679D01*
X63684575Y-143722097D01*
X63685339Y-143721997D01*
X63685776Y-143725317D01*
X63686084Y-143726143D01*
X63686158Y-143728218D01*
X63686400Y-143730056D01*
X63727323Y-143882783D01*
X63727326Y-143882790D01*
X63806375Y-144019709D01*
X63806379Y-144019714D01*
X63806380Y-144019716D01*
X63918184Y-144131520D01*
X63918186Y-144131521D01*
X63918190Y-144131524D01*
X64042191Y-144203115D01*
X64055116Y-144210577D01*
X64207843Y-144251500D01*
X64207845Y-144251500D01*
X64365955Y-144251500D01*
X64365957Y-144251500D01*
X64518684Y-144210577D01*
X64655616Y-144131520D01*
X64767420Y-144019716D01*
X64846477Y-143882784D01*
X64887400Y-143730057D01*
X64887400Y-142381902D01*
X75499500Y-142381902D01*
X75499500Y-142618097D01*
X75536446Y-142851368D01*
X75609433Y-143075996D01*
X75704141Y-143261869D01*
X75716657Y-143286433D01*
X75855483Y-143477510D01*
X76022490Y-143644517D01*
X76213567Y-143783343D01*
X76240993Y-143797317D01*
X76424003Y-143890566D01*
X76424005Y-143890566D01*
X76424008Y-143890568D01*
X76544412Y-143929689D01*
X76648631Y-143963553D01*
X76881903Y-144000500D01*
X76881908Y-144000500D01*
X77118097Y-144000500D01*
X77351368Y-143963553D01*
X77575992Y-143890568D01*
X77786433Y-143783343D01*
X77977510Y-143644517D01*
X78144517Y-143477510D01*
X78283343Y-143286433D01*
X78390568Y-143075992D01*
X78463553Y-142851368D01*
X78500500Y-142618097D01*
X78500500Y-142381902D01*
X78463553Y-142148631D01*
X78422557Y-142022460D01*
X78420562Y-141952618D01*
X78452807Y-141896459D01*
X80538809Y-139810523D01*
X80538816Y-139810520D01*
X80619057Y-139730278D01*
X80645786Y-139703550D01*
X80649266Y-139700437D01*
X80650129Y-139699506D01*
X80650611Y-139698725D01*
X80650614Y-139698723D01*
X80650615Y-139698720D01*
X80650620Y-139698716D01*
X80650657Y-139698651D01*
X80651612Y-139697107D01*
X80651613Y-139697105D01*
X80651615Y-139697103D01*
X80655710Y-139690476D01*
X80656884Y-139687865D01*
X80699696Y-139613712D01*
X80699697Y-139613712D01*
X80729205Y-139562604D01*
X80729667Y-139561819D01*
X80729675Y-139561785D01*
X80729677Y-139561784D01*
X80749566Y-139487557D01*
X80770599Y-139409067D01*
X80770599Y-139409062D01*
X80770600Y-139409059D01*
X80770600Y-139356362D01*
X80770602Y-139250952D01*
X80770600Y-139250947D01*
X80770601Y-139243367D01*
X80770600Y-139243333D01*
X80770600Y-137887064D01*
X82547698Y-137887064D01*
X82547702Y-137887095D01*
X82547949Y-137887987D01*
X82562916Y-137943846D01*
X82588618Y-138039773D01*
X82588621Y-138039779D01*
X82588623Y-138039784D01*
X82623677Y-138100500D01*
X82623843Y-138100788D01*
X82623849Y-138100798D01*
X82667677Y-138176713D01*
X82667680Y-138176716D01*
X82739725Y-138248761D01*
X86702901Y-142212103D01*
X86736385Y-142273425D01*
X86735876Y-142321223D01*
X86737152Y-142321426D01*
X86705500Y-142521263D01*
X86705500Y-142718736D01*
X86736389Y-142913763D01*
X86789101Y-143075992D01*
X86797409Y-143101561D01*
X86879091Y-143261869D01*
X86887058Y-143277504D01*
X87003115Y-143437246D01*
X87003121Y-143437252D01*
X87142748Y-143576879D01*
X87302499Y-143692944D01*
X87302503Y-143692946D01*
X87306441Y-143695807D01*
X87305399Y-143697241D01*
X87347159Y-143743390D01*
X87359500Y-143797317D01*
X87359500Y-143982682D01*
X87339815Y-144049721D01*
X87305675Y-144083139D01*
X87306440Y-144084192D01*
X87142753Y-144203115D01*
X87003115Y-144342753D01*
X86887058Y-144502495D01*
X86797408Y-144678441D01*
X86736389Y-144866236D01*
X86705500Y-145061263D01*
X86705500Y-145258736D01*
X86736389Y-145453763D01*
X86776788Y-145578096D01*
X86797409Y-145641561D01*
X86821527Y-145688894D01*
X86887058Y-145817504D01*
X87003115Y-145977246D01*
X87142753Y-146116884D01*
X87292234Y-146225486D01*
X87302499Y-146232944D01*
X87478439Y-146322591D01*
X87603637Y-146363270D01*
X87666236Y-146383610D01*
X87861264Y-146414500D01*
X87861269Y-146414500D01*
X88058736Y-146414500D01*
X88253763Y-146383610D01*
X88441561Y-146322591D01*
X88617501Y-146232944D01*
X88722955Y-146156328D01*
X88777246Y-146116884D01*
X88777248Y-146116881D01*
X88777252Y-146116879D01*
X88916879Y-145977252D01*
X89021183Y-145833688D01*
X89076510Y-145791023D01*
X89146124Y-145785043D01*
X89207919Y-145817649D01*
X89242277Y-145878487D01*
X89245500Y-145906572D01*
X89245500Y-145961869D01*
X89245501Y-145961876D01*
X89251908Y-146021483D01*
X89302202Y-146156328D01*
X89302206Y-146156335D01*
X89388452Y-146271544D01*
X89388455Y-146271547D01*
X89503664Y-146357793D01*
X89503671Y-146357797D01*
X89638517Y-146408091D01*
X89638516Y-146408091D01*
X89645444Y-146408835D01*
X89698127Y-146414500D01*
X90848800Y-146414499D01*
X90915839Y-146434184D01*
X90961594Y-146486987D01*
X90972800Y-146538499D01*
X90972800Y-149512457D01*
X90953115Y-149579496D01*
X90900311Y-149625251D01*
X90831153Y-149635195D01*
X90767597Y-149606170D01*
X90730869Y-149550775D01*
X90728186Y-149542517D01*
X90690073Y-149425218D01*
X90577489Y-149204258D01*
X90431724Y-149003630D01*
X90256370Y-148828276D01*
X90055742Y-148682511D01*
X89834782Y-148569927D01*
X89598931Y-148493294D01*
X89598929Y-148493293D01*
X89598927Y-148493293D01*
X89354000Y-148454500D01*
X89353995Y-148454500D01*
X89106005Y-148454500D01*
X89106000Y-148454500D01*
X88861072Y-148493293D01*
X88625215Y-148569928D01*
X88404257Y-148682511D01*
X88289792Y-148765675D01*
X88203630Y-148828276D01*
X88203628Y-148828278D01*
X88203627Y-148828278D01*
X88028278Y-149003627D01*
X88028278Y-149003628D01*
X88028276Y-149003630D01*
X87965675Y-149089792D01*
X87882511Y-149204257D01*
X87769928Y-149425215D01*
X87693293Y-149661072D01*
X87654500Y-149905999D01*
X87654500Y-150154000D01*
X87693293Y-150398927D01*
X87693294Y-150398931D01*
X87769927Y-150634782D01*
X87882511Y-150855742D01*
X88028276Y-151056370D01*
X88203630Y-151231724D01*
X88404258Y-151377489D01*
X88625218Y-151490073D01*
X88861069Y-151566706D01*
X88952920Y-151581253D01*
X89106000Y-151605500D01*
X89106005Y-151605500D01*
X89354000Y-151605500D01*
X89490070Y-151583947D01*
X89598931Y-151566706D01*
X89834782Y-151490073D01*
X90055742Y-151377489D01*
X90256370Y-151231724D01*
X90431724Y-151056370D01*
X90577489Y-150855742D01*
X90690073Y-150634782D01*
X90730869Y-150509222D01*
X90770306Y-150451548D01*
X90834665Y-150424350D01*
X90903511Y-150436265D01*
X90954987Y-150483509D01*
X90972800Y-150547542D01*
X90972800Y-150835681D01*
X90953115Y-150902720D01*
X90936436Y-150923408D01*
X90726905Y-151132721D01*
X90721220Y-151138400D01*
X90721084Y-151138480D01*
X90664561Y-151195002D01*
X90664558Y-151195003D01*
X90609462Y-151250044D01*
X90609283Y-151250277D01*
X90569775Y-151318707D01*
X90569745Y-151318759D01*
X90530342Y-151386926D01*
X90530225Y-151387206D01*
X90510188Y-151461988D01*
X90510171Y-151462051D01*
X90489339Y-151539634D01*
X90489300Y-151539926D01*
X90489300Y-151617776D01*
X90489259Y-151697753D01*
X90489298Y-151698049D01*
X90509560Y-151773671D01*
X90509576Y-151773731D01*
X90530102Y-151850496D01*
X90530218Y-151850775D01*
X90530222Y-151850783D01*
X90530223Y-151850784D01*
X90569855Y-151919430D01*
X90609090Y-151987467D01*
X90609199Y-151987576D01*
X90609280Y-151987716D01*
X90665926Y-152044362D01*
X90720836Y-152099329D01*
X90720971Y-152099407D01*
X90721084Y-152099520D01*
X90789560Y-152139054D01*
X90789559Y-152139054D01*
X90790315Y-152139490D01*
X90857726Y-152178457D01*
X90857879Y-152178498D01*
X90858016Y-152178577D01*
X90858029Y-152178580D01*
X90858030Y-152178581D01*
X90933154Y-152198710D01*
X91010432Y-152219460D01*
X91010438Y-152219460D01*
X91010460Y-152219463D01*
X91010605Y-152219463D01*
X91010743Y-152219500D01*
X91088512Y-152219500D01*
X91088553Y-152219500D01*
X91168547Y-152219541D01*
X91168558Y-152219538D01*
X91168848Y-152219500D01*
X91168857Y-152219500D01*
X91244407Y-152199256D01*
X91244469Y-152199240D01*
X91274296Y-152191263D01*
X91321295Y-152178697D01*
X91321432Y-152178617D01*
X91321584Y-152178577D01*
X91390230Y-152138944D01*
X91458267Y-152099710D01*
X91458269Y-152099707D01*
X91458482Y-152099545D01*
X91458508Y-152099524D01*
X91458516Y-152099520D01*
X91515244Y-152042790D01*
X91515302Y-152042758D01*
X91515290Y-152042746D01*
X91785985Y-151772330D01*
X91847325Y-151738876D01*
X91917014Y-151743897D01*
X91961290Y-151772362D01*
X95380973Y-155191209D01*
X95442284Y-155252520D01*
X95442319Y-155252540D01*
X95442343Y-155252564D01*
X95475906Y-155271936D01*
X95506541Y-155289619D01*
X95506540Y-155289619D01*
X95506544Y-155289620D01*
X95528767Y-155302451D01*
X95576980Y-155353013D01*
X95590205Y-155421620D01*
X95586674Y-155441429D01*
X95584739Y-155448773D01*
X95584606Y-155449272D01*
X95564598Y-155523945D01*
X95564406Y-155525401D01*
X95564384Y-155525578D01*
X95564273Y-155526415D01*
X95564479Y-155575500D01*
X95564600Y-155604318D01*
X95564600Y-155682057D01*
X95564930Y-155683291D01*
X95564936Y-155684569D01*
X95564937Y-155684576D01*
X95564938Y-155684578D01*
X95565404Y-155686287D01*
X95585385Y-155759631D01*
X95605523Y-155834784D01*
X95606157Y-155835881D01*
X95606494Y-155837118D01*
X95645420Y-155903893D01*
X95645679Y-155904340D01*
X95684577Y-155971712D01*
X95685282Y-155972631D01*
X95685370Y-155972746D01*
X95686093Y-155973688D01*
X95686127Y-155973722D01*
X95686128Y-155973723D01*
X95741242Y-156028378D01*
X95794836Y-156081972D01*
X95796386Y-156083522D01*
X95797507Y-156084382D01*
X95798361Y-156085037D01*
X95865759Y-156123574D01*
X95865760Y-156123575D01*
X95865964Y-156123692D01*
X95933316Y-156162577D01*
X95934545Y-156162906D01*
X95935656Y-156163541D01*
X95935658Y-156163541D01*
X95935659Y-156163542D01*
X96010972Y-156183385D01*
X96086043Y-156203500D01*
X96087319Y-156203500D01*
X96088556Y-156203826D01*
X96166179Y-156203501D01*
X96166180Y-156203501D01*
X96166419Y-156203500D01*
X96244157Y-156203500D01*
X96245389Y-156203169D01*
X96246608Y-156203164D01*
X96246669Y-156203164D01*
X96321731Y-156182714D01*
X96396884Y-156162577D01*
X96396899Y-156162567D01*
X96398434Y-156161932D01*
X96398435Y-156161931D01*
X96398454Y-156161924D01*
X96399214Y-156161608D01*
X96466338Y-156122479D01*
X96466342Y-156122476D01*
X96466397Y-156122443D01*
X96533816Y-156083520D01*
X96534713Y-156082621D01*
X96535816Y-156081979D01*
X96590348Y-156026988D01*
X96590434Y-156026901D01*
X96590468Y-156026867D01*
X96645620Y-155971716D01*
X96646109Y-155970867D01*
X96652420Y-155964516D01*
X96652485Y-155964479D01*
X96652703Y-155964232D01*
X96693220Y-155923716D01*
X96693221Y-155923713D01*
X96693233Y-155923702D01*
X96693622Y-155923193D01*
X96693884Y-155922850D01*
X96694737Y-155921736D01*
X96694754Y-155921705D01*
X96694758Y-155921702D01*
X96733357Y-155854195D01*
X96772277Y-155786784D01*
X96772604Y-155785561D01*
X96773240Y-155784449D01*
X96792996Y-155709464D01*
X96793129Y-155708962D01*
X96813200Y-155634057D01*
X96813200Y-155634043D01*
X96813386Y-155632634D01*
X96813526Y-155631570D01*
X96813201Y-155553919D01*
X96813200Y-155553400D01*
X96813200Y-149905999D01*
X110654500Y-149905999D01*
X110654500Y-150154000D01*
X110693293Y-150398927D01*
X110693294Y-150398931D01*
X110769927Y-150634782D01*
X110882511Y-150855742D01*
X111028276Y-151056370D01*
X111203630Y-151231724D01*
X111404258Y-151377489D01*
X111625218Y-151490073D01*
X111861069Y-151566706D01*
X111952920Y-151581253D01*
X112106000Y-151605500D01*
X112106005Y-151605500D01*
X112354000Y-151605500D01*
X112490070Y-151583947D01*
X112598931Y-151566706D01*
X112834782Y-151490073D01*
X113055742Y-151377489D01*
X113256370Y-151231724D01*
X113431724Y-151056370D01*
X113577489Y-150855742D01*
X113690073Y-150634782D01*
X113766706Y-150398931D01*
X113783947Y-150290070D01*
X113805500Y-150154000D01*
X113805500Y-149905999D01*
X113766706Y-149661072D01*
X113766706Y-149661069D01*
X113690073Y-149425218D01*
X113577489Y-149204258D01*
X113431724Y-149003630D01*
X113256370Y-148828276D01*
X113055742Y-148682511D01*
X112834782Y-148569927D01*
X112598931Y-148493294D01*
X112598929Y-148493293D01*
X112598927Y-148493293D01*
X112354000Y-148454500D01*
X112353995Y-148454500D01*
X112106005Y-148454500D01*
X112106000Y-148454500D01*
X111861072Y-148493293D01*
X111625215Y-148569928D01*
X111404257Y-148682511D01*
X111289792Y-148765675D01*
X111203630Y-148828276D01*
X111203628Y-148828278D01*
X111203627Y-148828278D01*
X111028278Y-149003627D01*
X111028278Y-149003628D01*
X111028276Y-149003630D01*
X110965675Y-149089792D01*
X110882511Y-149204257D01*
X110769928Y-149425215D01*
X110693293Y-149661072D01*
X110654500Y-149905999D01*
X96813200Y-149905999D01*
X96813200Y-122460438D01*
X102699500Y-122460438D01*
X102699500Y-123039562D01*
X102710500Y-123080614D01*
X102719979Y-123115990D01*
X102719982Y-123115995D01*
X102759535Y-123184504D01*
X102759539Y-123184509D01*
X102759540Y-123184511D01*
X102815489Y-123240460D01*
X102815491Y-123240461D01*
X102815495Y-123240464D01*
X102843936Y-123256884D01*
X102884011Y-123280021D01*
X102960438Y-123300500D01*
X102960440Y-123300500D01*
X103539560Y-123300500D01*
X103539562Y-123300500D01*
X103615989Y-123280021D01*
X103684511Y-123240460D01*
X103740460Y-123184511D01*
X103780021Y-123115989D01*
X103800500Y-123039562D01*
X103800500Y-122460438D01*
X103780021Y-122384011D01*
X103769790Y-122366290D01*
X103740464Y-122315495D01*
X103740458Y-122315487D01*
X103684512Y-122259541D01*
X103684504Y-122259535D01*
X103615995Y-122219982D01*
X103615990Y-122219979D01*
X103590513Y-122213152D01*
X103539562Y-122199500D01*
X103039562Y-122199500D01*
X102960438Y-122199500D01*
X102922224Y-122209739D01*
X102884009Y-122219979D01*
X102884004Y-122219982D01*
X102815495Y-122259535D01*
X102815487Y-122259541D01*
X102759541Y-122315487D01*
X102759535Y-122315495D01*
X102719982Y-122384004D01*
X102719979Y-122384009D01*
X102709624Y-122422655D01*
X102699500Y-122460438D01*
X96813200Y-122460438D01*
X96813200Y-121922659D01*
X121159103Y-121922659D01*
X121159500Y-121928943D01*
X121159500Y-157173330D01*
X121159499Y-157173348D01*
X121159499Y-157339054D01*
X121159498Y-157339054D01*
X121200423Y-157491785D01*
X121229358Y-157541900D01*
X121229359Y-157541904D01*
X121229360Y-157541904D01*
X121279479Y-157628714D01*
X121279481Y-157628717D01*
X121398349Y-157747585D01*
X121398355Y-157747590D01*
X129755139Y-166104374D01*
X129755149Y-166104385D01*
X129759479Y-166108715D01*
X129759480Y-166108716D01*
X129871284Y-166220520D01*
X129936917Y-166258412D01*
X129958095Y-166270639D01*
X129958097Y-166270641D01*
X129996151Y-166292611D01*
X130008215Y-166299577D01*
X130160943Y-166340501D01*
X130160946Y-166340501D01*
X130326653Y-166340501D01*
X130326669Y-166340500D01*
X144714281Y-166340500D01*
X144781320Y-166360185D01*
X144824765Y-166408205D01*
X144844947Y-166447814D01*
X144844948Y-166447815D01*
X144969890Y-166619786D01*
X145120213Y-166770109D01*
X145292179Y-166895048D01*
X145292181Y-166895049D01*
X145292184Y-166895051D01*
X145481588Y-166991557D01*
X145683757Y-167057246D01*
X145893713Y-167090500D01*
X145893714Y-167090500D01*
X146106286Y-167090500D01*
X146106287Y-167090500D01*
X146316243Y-167057246D01*
X146518412Y-166991557D01*
X146707816Y-166895051D01*
X146729789Y-166879086D01*
X146879786Y-166770109D01*
X146879788Y-166770106D01*
X146879792Y-166770104D01*
X147030104Y-166619792D01*
X147030106Y-166619788D01*
X147030109Y-166619786D01*
X147155048Y-166447820D01*
X147155047Y-166447820D01*
X147155051Y-166447816D01*
X147251557Y-166258412D01*
X147317246Y-166056243D01*
X147350500Y-165846287D01*
X147350500Y-165633713D01*
X147317246Y-165423757D01*
X147251557Y-165221588D01*
X147155051Y-165032184D01*
X147155049Y-165032181D01*
X147155048Y-165032179D01*
X147030109Y-164860213D01*
X146879786Y-164709890D01*
X146707820Y-164584951D01*
X146707115Y-164584591D01*
X146699054Y-164580485D01*
X146648259Y-164532512D01*
X146631463Y-164464692D01*
X146653999Y-164398556D01*
X146699054Y-164359515D01*
X146707816Y-164355051D01*
X146729789Y-164339086D01*
X146879786Y-164230109D01*
X146879788Y-164230106D01*
X146879792Y-164230104D01*
X147030104Y-164079792D01*
X147030106Y-164079788D01*
X147030109Y-164079786D01*
X147155048Y-163907820D01*
X147155047Y-163907820D01*
X147155051Y-163907816D01*
X147251557Y-163718412D01*
X147317246Y-163516243D01*
X147350500Y-163306287D01*
X147350500Y-163093713D01*
X147317246Y-162883757D01*
X147251557Y-162681588D01*
X147155051Y-162492184D01*
X147155049Y-162492181D01*
X147155048Y-162492179D01*
X147030109Y-162320213D01*
X146879786Y-162169890D01*
X146707820Y-162044951D01*
X146707115Y-162044591D01*
X146699054Y-162040485D01*
X146648259Y-161992512D01*
X146631463Y-161924692D01*
X146653999Y-161858556D01*
X146699054Y-161819515D01*
X146707816Y-161815051D01*
X146875816Y-161692993D01*
X146879786Y-161690109D01*
X146879788Y-161690106D01*
X146879792Y-161690104D01*
X147030104Y-161539792D01*
X147030106Y-161539788D01*
X147030109Y-161539786D01*
X147155048Y-161367820D01*
X147155047Y-161367820D01*
X147155051Y-161367816D01*
X147251557Y-161178412D01*
X147317246Y-160976243D01*
X147350500Y-160766287D01*
X147350500Y-160553713D01*
X147317246Y-160343757D01*
X147251557Y-160141588D01*
X147155051Y-159952184D01*
X147155049Y-159952181D01*
X147155048Y-159952179D01*
X147030109Y-159780213D01*
X146879786Y-159629890D01*
X146707820Y-159504951D01*
X146707115Y-159504591D01*
X146699054Y-159500485D01*
X146648259Y-159452512D01*
X146631463Y-159384692D01*
X146653999Y-159318556D01*
X146699054Y-159279515D01*
X146707816Y-159275051D01*
X146729789Y-159259086D01*
X146879786Y-159150109D01*
X146879788Y-159150106D01*
X146879792Y-159150104D01*
X147030104Y-158999792D01*
X147030106Y-158999788D01*
X147030109Y-158999786D01*
X147155048Y-158827820D01*
X147155047Y-158827820D01*
X147155051Y-158827816D01*
X147251557Y-158638412D01*
X147317246Y-158436243D01*
X147350500Y-158226287D01*
X147350500Y-158013713D01*
X147317246Y-157803757D01*
X147251557Y-157601588D01*
X147155051Y-157412184D01*
X147155049Y-157412181D01*
X147155048Y-157412179D01*
X147030109Y-157240213D01*
X146879786Y-157089890D01*
X146707820Y-156964951D01*
X146707115Y-156964591D01*
X146699054Y-156960485D01*
X146648259Y-156912512D01*
X146631463Y-156844692D01*
X146653999Y-156778556D01*
X146699054Y-156739515D01*
X146707816Y-156735051D01*
X146729789Y-156719086D01*
X146879786Y-156610109D01*
X146879788Y-156610106D01*
X146879792Y-156610104D01*
X147030104Y-156459792D01*
X147030106Y-156459788D01*
X147030109Y-156459786D01*
X147155048Y-156287820D01*
X147155047Y-156287820D01*
X147155051Y-156287816D01*
X147251557Y-156098412D01*
X147317246Y-155896243D01*
X147350500Y-155686287D01*
X147350500Y-155473713D01*
X147317246Y-155263757D01*
X147251557Y-155061588D01*
X147155051Y-154872184D01*
X147155049Y-154872181D01*
X147155048Y-154872179D01*
X147030109Y-154700213D01*
X146879786Y-154549890D01*
X146707817Y-154424949D01*
X146698504Y-154420204D01*
X146647707Y-154372230D01*
X146630912Y-154304409D01*
X146653449Y-154238274D01*
X146698507Y-154199232D01*
X146707555Y-154194622D01*
X146761716Y-154155270D01*
X146761717Y-154155270D01*
X146129408Y-153522962D01*
X146192993Y-153505925D01*
X146307007Y-153440099D01*
X146400099Y-153347007D01*
X146465925Y-153232993D01*
X146482962Y-153169408D01*
X147115270Y-153801717D01*
X147115270Y-153801716D01*
X147154622Y-153747554D01*
X147251095Y-153558217D01*
X147316757Y-153356130D01*
X147316757Y-153356127D01*
X147350000Y-153146246D01*
X147350000Y-152933753D01*
X147316757Y-152723872D01*
X147316757Y-152723869D01*
X147251095Y-152521782D01*
X147154624Y-152332449D01*
X147115270Y-152278282D01*
X147115269Y-152278282D01*
X146482962Y-152910590D01*
X146465925Y-152847007D01*
X146400099Y-152732993D01*
X146307007Y-152639901D01*
X146192993Y-152574075D01*
X146129409Y-152557037D01*
X146799627Y-151886818D01*
X146860950Y-151853333D01*
X146887307Y-151850499D01*
X146897872Y-151850499D01*
X146957483Y-151844091D01*
X147092331Y-151793796D01*
X147207546Y-151707546D01*
X147293796Y-151592331D01*
X147344091Y-151457483D01*
X147350500Y-151397873D01*
X147350499Y-149602128D01*
X147344091Y-149542517D01*
X147332879Y-149512457D01*
X147293797Y-149407671D01*
X147293793Y-149407664D01*
X147207547Y-149292455D01*
X147207544Y-149292452D01*
X147092335Y-149206206D01*
X147092328Y-149206202D01*
X146957482Y-149155908D01*
X146957483Y-149155908D01*
X146897883Y-149149501D01*
X146897881Y-149149500D01*
X146897873Y-149149500D01*
X146897864Y-149149500D01*
X145102129Y-149149500D01*
X145102123Y-149149501D01*
X145042516Y-149155908D01*
X144907671Y-149206202D01*
X144907664Y-149206206D01*
X144792455Y-149292452D01*
X144792452Y-149292455D01*
X144706206Y-149407664D01*
X144706202Y-149407671D01*
X144655908Y-149542517D01*
X144651933Y-149579496D01*
X144649501Y-149602123D01*
X144649500Y-149602135D01*
X144649500Y-151397870D01*
X144649501Y-151397876D01*
X144655908Y-151457483D01*
X144706202Y-151592328D01*
X144706206Y-151592335D01*
X144792452Y-151707544D01*
X144792455Y-151707547D01*
X144907664Y-151793793D01*
X144907671Y-151793797D01*
X144952618Y-151810561D01*
X145042517Y-151844091D01*
X145102127Y-151850500D01*
X145112685Y-151850499D01*
X145179723Y-151870179D01*
X145200372Y-151886818D01*
X145870591Y-152557037D01*
X145807007Y-152574075D01*
X145692993Y-152639901D01*
X145599901Y-152732993D01*
X145534075Y-152847007D01*
X145517037Y-152910590D01*
X144884728Y-152278282D01*
X144884727Y-152278282D01*
X144845380Y-152332439D01*
X144748904Y-152521782D01*
X144683242Y-152723869D01*
X144683242Y-152723872D01*
X144650000Y-152933753D01*
X144650000Y-153146246D01*
X144683242Y-153356127D01*
X144683242Y-153356130D01*
X144748904Y-153558217D01*
X144845375Y-153747550D01*
X144884728Y-153801716D01*
X145517037Y-153169408D01*
X145534075Y-153232993D01*
X145599901Y-153347007D01*
X145692993Y-153440099D01*
X145807007Y-153505925D01*
X145870590Y-153522962D01*
X145238282Y-154155269D01*
X145238282Y-154155270D01*
X145292452Y-154194626D01*
X145292451Y-154194626D01*
X145301495Y-154199234D01*
X145352292Y-154247208D01*
X145369087Y-154315029D01*
X145346550Y-154381164D01*
X145301499Y-154420202D01*
X145292182Y-154424949D01*
X145120213Y-154549890D01*
X144969890Y-154700213D01*
X144844951Y-154872179D01*
X144748444Y-155061585D01*
X144682753Y-155263760D01*
X144668919Y-155351106D01*
X144649500Y-155473713D01*
X144649500Y-155686287D01*
X144682754Y-155896243D01*
X144744097Y-156085037D01*
X144748444Y-156098414D01*
X144844951Y-156287820D01*
X144969890Y-156459786D01*
X145120213Y-156610109D01*
X145292182Y-156735050D01*
X145300946Y-156739516D01*
X145351742Y-156787491D01*
X145368536Y-156855312D01*
X145345998Y-156921447D01*
X145300946Y-156960484D01*
X145292182Y-156964949D01*
X145120213Y-157089890D01*
X144969890Y-157240213D01*
X144844951Y-157412179D01*
X144748444Y-157601585D01*
X144682753Y-157803760D01*
X144649500Y-158013713D01*
X144649500Y-158226286D01*
X144682753Y-158436239D01*
X144748444Y-158638414D01*
X144844951Y-158827820D01*
X144969890Y-158999786D01*
X145120213Y-159150109D01*
X145292182Y-159275050D01*
X145300946Y-159279516D01*
X145351742Y-159327491D01*
X145368536Y-159395312D01*
X145345998Y-159461447D01*
X145300946Y-159500484D01*
X145292182Y-159504949D01*
X145120213Y-159629890D01*
X144969890Y-159780213D01*
X144844948Y-159952184D01*
X144844947Y-159952185D01*
X144824765Y-159991795D01*
X144776791Y-160042591D01*
X144714281Y-160059500D01*
X130540097Y-160059500D01*
X130473058Y-160039815D01*
X130452416Y-160023181D01*
X123492819Y-153063584D01*
X123459334Y-153002261D01*
X123456500Y-152975903D01*
X123456500Y-128631945D01*
X123456500Y-128631943D01*
X123415577Y-128479216D01*
X123400407Y-128452941D01*
X123336524Y-128342290D01*
X123336518Y-128342282D01*
X123224717Y-128230481D01*
X123224709Y-128230475D01*
X123087790Y-128151426D01*
X123087786Y-128151424D01*
X123087784Y-128151423D01*
X122935057Y-128110500D01*
X122886500Y-128110500D01*
X122819461Y-128090815D01*
X122773706Y-128038011D01*
X122762500Y-127986500D01*
X122762500Y-123651945D01*
X122762500Y-123651943D01*
X122721577Y-123499216D01*
X122662032Y-123396080D01*
X122642524Y-123362290D01*
X122642518Y-123362282D01*
X122530717Y-123250481D01*
X122530712Y-123250477D01*
X122422500Y-123188001D01*
X122374284Y-123137434D01*
X122360500Y-123080614D01*
X122360500Y-122113262D01*
X122377108Y-122051269D01*
X122383309Y-122040530D01*
X122422451Y-121973485D01*
X122422451Y-121973481D01*
X122422468Y-121973454D01*
X122422863Y-121972503D01*
X122423102Y-121971931D01*
X122423565Y-121970827D01*
X122430098Y-121946446D01*
X122443629Y-121895946D01*
X122464112Y-121820957D01*
X122464112Y-121820945D01*
X122464329Y-121819358D01*
X122464329Y-121819355D01*
X122464333Y-121819333D01*
X122464500Y-121818110D01*
X122464500Y-121741049D01*
X122464501Y-121740450D01*
X122464768Y-121685147D01*
X122464876Y-121662844D01*
X122464873Y-121662833D01*
X122464686Y-121661351D01*
X122464686Y-121661348D01*
X122464685Y-121661338D01*
X122464515Y-121660003D01*
X122464500Y-121659947D01*
X122464500Y-121659943D01*
X122444519Y-121585373D01*
X122444367Y-121584799D01*
X122432662Y-121540258D01*
X122424690Y-121509921D01*
X122424683Y-121509909D01*
X122424040Y-121508333D01*
X122424039Y-121508332D01*
X122423601Y-121507259D01*
X122423577Y-121507218D01*
X122423577Y-121507216D01*
X122384752Y-121439969D01*
X122346295Y-121372610D01*
X122345264Y-121371570D01*
X122344526Y-121370290D01*
X122317351Y-121343115D01*
X122289583Y-121315347D01*
X122235033Y-121260267D01*
X122233759Y-121259523D01*
X122232716Y-121258480D01*
X122165765Y-121219826D01*
X122165296Y-121219553D01*
X122098480Y-121180546D01*
X122097046Y-121179943D01*
X122096925Y-121179893D01*
X122095844Y-121179439D01*
X122021140Y-121159421D01*
X122020563Y-121159265D01*
X121945961Y-121138888D01*
X121944385Y-121138673D01*
X121944383Y-121138672D01*
X121944380Y-121138672D01*
X121943123Y-121138500D01*
X121943057Y-121138500D01*
X121866052Y-121138500D01*
X121865453Y-121138499D01*
X121787845Y-121138124D01*
X121787844Y-121138124D01*
X121787839Y-121138124D01*
X121786239Y-121138327D01*
X121786238Y-121138326D01*
X121785001Y-121138483D01*
X121710403Y-121158472D01*
X121709826Y-121158625D01*
X121634915Y-121178311D01*
X121633349Y-121178950D01*
X121633319Y-121178963D01*
X121632270Y-121179391D01*
X121565253Y-121218082D01*
X121564809Y-121218338D01*
X121497610Y-121256705D01*
X121496563Y-121257741D01*
X121495646Y-121258270D01*
X121495282Y-121258481D01*
X121440543Y-121313220D01*
X121440119Y-121313641D01*
X121399198Y-121354168D01*
X121394456Y-121358308D01*
X121336581Y-121416182D01*
X121336159Y-121416602D01*
X121281263Y-121470970D01*
X121280128Y-121472435D01*
X121280125Y-121472436D01*
X121279510Y-121473230D01*
X121240811Y-121540258D01*
X121240645Y-121540548D01*
X121201550Y-121607515D01*
X121201161Y-121608936D01*
X121200423Y-121610216D01*
X121200420Y-121610226D01*
X121200417Y-121610232D01*
X121180391Y-121684968D01*
X121180392Y-121684969D01*
X121180309Y-121685276D01*
X121159888Y-121760043D01*
X121159880Y-121761521D01*
X121159500Y-121762943D01*
X121159500Y-121762959D01*
X121159500Y-121840055D01*
X121159499Y-121840653D01*
X121159103Y-121922659D01*
X96813200Y-121922659D01*
X96813200Y-116304417D01*
X96813201Y-116257948D01*
X96803493Y-116221717D01*
X96803172Y-116220519D01*
X96779378Y-116131717D01*
X96773215Y-116108716D01*
X96772279Y-116105221D01*
X96772277Y-116105218D01*
X96772277Y-116105216D01*
X96772275Y-116105213D01*
X96772161Y-116104786D01*
X96770291Y-116101775D01*
X96693222Y-115968286D01*
X96622618Y-115897682D01*
X126352700Y-115897682D01*
X126352700Y-116102317D01*
X126384709Y-116304417D01*
X126447944Y-116499031D01*
X126540841Y-116681350D01*
X126540847Y-116681359D01*
X126573223Y-116725921D01*
X126573224Y-116725922D01*
X127252700Y-116046446D01*
X127252700Y-116052661D01*
X127279959Y-116154394D01*
X127332620Y-116245606D01*
X127407094Y-116320080D01*
X127498306Y-116372741D01*
X127600039Y-116400000D01*
X127606253Y-116400000D01*
X126926776Y-117079474D01*
X126971350Y-117111859D01*
X127153668Y-117204755D01*
X127348282Y-117267990D01*
X127550383Y-117300000D01*
X127755017Y-117300000D01*
X127957117Y-117267990D01*
X128151731Y-117204755D01*
X128334049Y-117111859D01*
X128378621Y-117079474D01*
X127699147Y-116400000D01*
X127705361Y-116400000D01*
X127807094Y-116372741D01*
X127898306Y-116320080D01*
X127972780Y-116245606D01*
X128025441Y-116154394D01*
X128052700Y-116052661D01*
X128052700Y-116046447D01*
X128732174Y-116725921D01*
X128764559Y-116681349D01*
X128857455Y-116499031D01*
X128920690Y-116304417D01*
X128952700Y-116102317D01*
X128952700Y-115897682D01*
X128920690Y-115695582D01*
X128857454Y-115500965D01*
X128833081Y-115453130D01*
X128833080Y-115453129D01*
X128806001Y-115399983D01*
X129852200Y-115399983D01*
X129852200Y-116600001D01*
X129852201Y-116600018D01*
X129862700Y-116702796D01*
X129862701Y-116702799D01*
X129894909Y-116799994D01*
X129917886Y-116869334D01*
X130009988Y-117018656D01*
X130134044Y-117142712D01*
X130283366Y-117234814D01*
X130449903Y-117289999D01*
X130449909Y-117289999D01*
X130454148Y-117290907D01*
X130515584Y-117324185D01*
X130549276Y-117385394D01*
X130552200Y-117412162D01*
X130552200Y-120422639D01*
X130552199Y-120422643D01*
X130552199Y-120580757D01*
X130552484Y-120581821D01*
X130552500Y-120590961D01*
X130552488Y-120590999D01*
X130552500Y-120591172D01*
X130552500Y-126082241D01*
X130552475Y-126161041D01*
X130552475Y-126161043D01*
X130552475Y-126162873D01*
X130552500Y-126162966D01*
X130552500Y-126163057D01*
X130572550Y-126237887D01*
X130572628Y-126238177D01*
X130593353Y-126315618D01*
X130593421Y-126315781D01*
X130633285Y-126384828D01*
X130633286Y-126384828D01*
X130633289Y-126384834D01*
X130672368Y-126452569D01*
X130672432Y-126452633D01*
X130672480Y-126452716D01*
X130729448Y-126509684D01*
X132043208Y-127824249D01*
X132076674Y-127885581D01*
X132079500Y-127911902D01*
X132079500Y-133501330D01*
X132079499Y-133501348D01*
X132079499Y-133667054D01*
X132079498Y-133667054D01*
X132094251Y-133722111D01*
X132120423Y-133819785D01*
X132132374Y-133840485D01*
X132145339Y-133862939D01*
X132145340Y-133862943D01*
X132145341Y-133862943D01*
X132199479Y-133956714D01*
X132199481Y-133956717D01*
X132414284Y-134171520D01*
X132501095Y-134221639D01*
X132501097Y-134221641D01*
X132539151Y-134243611D01*
X132551215Y-134250577D01*
X132703943Y-134291501D01*
X132703946Y-134291501D01*
X132862054Y-134291501D01*
X132862057Y-134291501D01*
X133014785Y-134250577D01*
X133064904Y-134221639D01*
X133151716Y-134171520D01*
X133263520Y-134059716D01*
X133340111Y-133927056D01*
X133342577Y-133922785D01*
X133383501Y-133770057D01*
X133383501Y-133611943D01*
X133342577Y-133459215D01*
X133308813Y-133400735D01*
X133292341Y-133332837D01*
X133315193Y-133266810D01*
X133353894Y-133231527D01*
X133382857Y-133214697D01*
X133450716Y-133175520D01*
X133450718Y-133175517D01*
X133450721Y-133175516D01*
X133451186Y-133175158D01*
X133451406Y-133174989D01*
X133452050Y-133174494D01*
X133452057Y-133174486D01*
X133452060Y-133174485D01*
X133507073Y-133119162D01*
X133562520Y-133063716D01*
X133562522Y-133063711D01*
X133566764Y-133059470D01*
X133569182Y-133056703D01*
X133685111Y-132940124D01*
X133740520Y-132884716D01*
X133740934Y-132883997D01*
X133741523Y-132883405D01*
X133741543Y-132883379D01*
X133741547Y-132883371D01*
X133741550Y-132883369D01*
X133780297Y-132815819D01*
X133780427Y-132815594D01*
X133793795Y-132792437D01*
X133819577Y-132747784D01*
X133819580Y-132747770D01*
X133820053Y-132746632D01*
X133820053Y-132746630D01*
X133820058Y-132746621D01*
X133820223Y-132746222D01*
X133840213Y-132670772D01*
X133840213Y-132670770D01*
X133840302Y-132670435D01*
X133860500Y-132595057D01*
X133860500Y-132594205D01*
X133860720Y-132593375D01*
X133860500Y-132514853D01*
X133860500Y-125124943D01*
X133819577Y-124972216D01*
X133815754Y-124965594D01*
X133740524Y-124835290D01*
X133740518Y-124835282D01*
X133628717Y-124723481D01*
X133628709Y-124723475D01*
X133491790Y-124644426D01*
X133491786Y-124644424D01*
X133491784Y-124644423D01*
X133339057Y-124603500D01*
X133180943Y-124603500D01*
X133028216Y-124644423D01*
X133028209Y-124644426D01*
X132891290Y-124723475D01*
X132891282Y-124723481D01*
X132779481Y-124835282D01*
X132779475Y-124835290D01*
X132700426Y-124972209D01*
X132700423Y-124972216D01*
X132659500Y-125124943D01*
X132659500Y-126442436D01*
X132639815Y-126509475D01*
X132587011Y-126555230D01*
X132517853Y-126565174D01*
X132454297Y-126536149D01*
X132447792Y-126530090D01*
X131789792Y-125871687D01*
X131756326Y-125810354D01*
X131753500Y-125784033D01*
X131753500Y-117622943D01*
X141117499Y-117622943D01*
X141117499Y-117781057D01*
X141117500Y-117781060D01*
X141117500Y-123810057D01*
X141137078Y-123883121D01*
X141158423Y-123962783D01*
X141158426Y-123962790D01*
X141237475Y-124099709D01*
X141237479Y-124099714D01*
X141237480Y-124099716D01*
X141349284Y-124211520D01*
X141349286Y-124211521D01*
X141349290Y-124211524D01*
X141486209Y-124290573D01*
X141486216Y-124290577D01*
X141638943Y-124331500D01*
X141638945Y-124331500D01*
X141797055Y-124331500D01*
X141797057Y-124331500D01*
X141949784Y-124290577D01*
X142086716Y-124211520D01*
X142198520Y-124099716D01*
X142277577Y-123962784D01*
X142318500Y-123810057D01*
X142318500Y-118002096D01*
X142338185Y-117935057D01*
X142354814Y-117914420D01*
X144938321Y-115330912D01*
X144999642Y-115297429D01*
X145069334Y-115302413D01*
X145125267Y-115344285D01*
X145149684Y-115409749D01*
X145150000Y-115418595D01*
X145150000Y-115566246D01*
X145183242Y-115776127D01*
X145183242Y-115776130D01*
X145248904Y-115978217D01*
X145345375Y-116167550D01*
X145384728Y-116221716D01*
X146017037Y-115589408D01*
X146034075Y-115652993D01*
X146099901Y-115767007D01*
X146192993Y-115860099D01*
X146307007Y-115925925D01*
X146370590Y-115942962D01*
X145700370Y-116613181D01*
X145639047Y-116646666D01*
X145612698Y-116649500D01*
X145602134Y-116649500D01*
X145602123Y-116649501D01*
X145542516Y-116655908D01*
X145407671Y-116706202D01*
X145407664Y-116706206D01*
X145292455Y-116792452D01*
X145292452Y-116792455D01*
X145206206Y-116907664D01*
X145206202Y-116907671D01*
X145155908Y-117042517D01*
X145149501Y-117102116D01*
X145149501Y-117102123D01*
X145149500Y-117102135D01*
X145149500Y-118897870D01*
X145149501Y-118897876D01*
X145155908Y-118957483D01*
X145206202Y-119092328D01*
X145206206Y-119092335D01*
X145292452Y-119207544D01*
X145292455Y-119207547D01*
X145407664Y-119293793D01*
X145407671Y-119293797D01*
X145542517Y-119344091D01*
X145542516Y-119344091D01*
X145549444Y-119344835D01*
X145602127Y-119350500D01*
X147397872Y-119350499D01*
X147457483Y-119344091D01*
X147592331Y-119293796D01*
X147707546Y-119207546D01*
X147793796Y-119092331D01*
X147844091Y-118957483D01*
X147850500Y-118897873D01*
X147850499Y-117102128D01*
X147844091Y-117042517D01*
X147842120Y-117037233D01*
X147793797Y-116907671D01*
X147793793Y-116907664D01*
X147707547Y-116792455D01*
X147707544Y-116792452D01*
X147592335Y-116706206D01*
X147592328Y-116706202D01*
X147457482Y-116655908D01*
X147457483Y-116655908D01*
X147397883Y-116649501D01*
X147397881Y-116649500D01*
X147397873Y-116649500D01*
X147397865Y-116649500D01*
X147387309Y-116649500D01*
X147320270Y-116629815D01*
X147299628Y-116613181D01*
X146629408Y-115942962D01*
X146692993Y-115925925D01*
X146807007Y-115860099D01*
X146900099Y-115767007D01*
X146965925Y-115652993D01*
X146982962Y-115589408D01*
X147615270Y-116221717D01*
X147615270Y-116221716D01*
X147654622Y-116167554D01*
X147751095Y-115978217D01*
X147816757Y-115776130D01*
X147816757Y-115776127D01*
X147850000Y-115566246D01*
X147850000Y-115353753D01*
X147816757Y-115143872D01*
X147816757Y-115143869D01*
X147751095Y-114941782D01*
X147654624Y-114752449D01*
X147615270Y-114698282D01*
X147615269Y-114698282D01*
X146982962Y-115330590D01*
X146965925Y-115267007D01*
X146900099Y-115152993D01*
X146807007Y-115059901D01*
X146692993Y-114994075D01*
X146629408Y-114977037D01*
X147261716Y-114344728D01*
X147207547Y-114305373D01*
X147207547Y-114305372D01*
X147198500Y-114300763D01*
X147147706Y-114252788D01*
X147130912Y-114184966D01*
X147153451Y-114118832D01*
X147198508Y-114079793D01*
X147207816Y-114075051D01*
X147328995Y-113987010D01*
X147379786Y-113950109D01*
X147379788Y-113950106D01*
X147379792Y-113950104D01*
X147530104Y-113799792D01*
X147530106Y-113799788D01*
X147530109Y-113799786D01*
X147655048Y-113627820D01*
X147655047Y-113627820D01*
X147655051Y-113627816D01*
X147751557Y-113438412D01*
X147817246Y-113236243D01*
X147850500Y-113026287D01*
X147850500Y-112813713D01*
X147817246Y-112603757D01*
X147751557Y-112401588D01*
X147655051Y-112212184D01*
X147655049Y-112212181D01*
X147655048Y-112212179D01*
X147530109Y-112040213D01*
X147379786Y-111889890D01*
X147207820Y-111764951D01*
X147018414Y-111668444D01*
X147018413Y-111668443D01*
X147018412Y-111668443D01*
X146816243Y-111602754D01*
X146816241Y-111602753D01*
X146816240Y-111602753D01*
X146654957Y-111577208D01*
X146606287Y-111569500D01*
X146393713Y-111569500D01*
X146345042Y-111577208D01*
X146183760Y-111602753D01*
X145981585Y-111668444D01*
X145792179Y-111764951D01*
X145620213Y-111889890D01*
X145469890Y-112040213D01*
X145344951Y-112212179D01*
X145248444Y-112401585D01*
X145182753Y-112603760D01*
X145149500Y-112813713D01*
X145149500Y-113026286D01*
X145182754Y-113236244D01*
X145182754Y-113236247D01*
X145196491Y-113278523D01*
X145198486Y-113348364D01*
X145166241Y-113404522D01*
X141349286Y-117221478D01*
X141237481Y-117333282D01*
X141237479Y-117333285D01*
X141230552Y-117345284D01*
X141190889Y-117413984D01*
X141187361Y-117420094D01*
X141187359Y-117420096D01*
X141158425Y-117470209D01*
X141158424Y-117470210D01*
X141158423Y-117470215D01*
X141117499Y-117622943D01*
X131753500Y-117622943D01*
X131753500Y-117412098D01*
X131773185Y-117345059D01*
X131825989Y-117299304D01*
X131851550Y-117290844D01*
X131855495Y-117289999D01*
X131855497Y-117289999D01*
X132022034Y-117234814D01*
X132171356Y-117142712D01*
X132295412Y-117018656D01*
X132387514Y-116869334D01*
X132442699Y-116702797D01*
X132453200Y-116600009D01*
X132453199Y-115399992D01*
X132447508Y-115344285D01*
X132442699Y-115297203D01*
X132442698Y-115297200D01*
X132411623Y-115203423D01*
X132387514Y-115130666D01*
X132295412Y-114981344D01*
X132171356Y-114857288D01*
X132022034Y-114765186D01*
X131855497Y-114710001D01*
X131855495Y-114710000D01*
X131752710Y-114699500D01*
X130552698Y-114699500D01*
X130552681Y-114699501D01*
X130449903Y-114710000D01*
X130449900Y-114710001D01*
X130283368Y-114765185D01*
X130283363Y-114765187D01*
X130134042Y-114857289D01*
X130009989Y-114981342D01*
X129917887Y-115130663D01*
X129917885Y-115130668D01*
X129901538Y-115180000D01*
X129862701Y-115297203D01*
X129862701Y-115297204D01*
X129862700Y-115297204D01*
X129852200Y-115399983D01*
X128806001Y-115399983D01*
X128764559Y-115318650D01*
X128732174Y-115274077D01*
X128732174Y-115274076D01*
X128052700Y-115953551D01*
X128052700Y-115947339D01*
X128025441Y-115845606D01*
X127972780Y-115754394D01*
X127898306Y-115679920D01*
X127807094Y-115627259D01*
X127705361Y-115600000D01*
X127699146Y-115600000D01*
X128378622Y-114920524D01*
X128378621Y-114920523D01*
X128334059Y-114888147D01*
X128334050Y-114888141D01*
X128151731Y-114795244D01*
X127957117Y-114732009D01*
X127755017Y-114700000D01*
X127550383Y-114700000D01*
X127348282Y-114732009D01*
X127153668Y-114795244D01*
X126971344Y-114888143D01*
X126926777Y-114920523D01*
X126926777Y-114920524D01*
X127606254Y-115600000D01*
X127600039Y-115600000D01*
X127498306Y-115627259D01*
X127407094Y-115679920D01*
X127332620Y-115754394D01*
X127279959Y-115845606D01*
X127252700Y-115947339D01*
X127252700Y-115953553D01*
X126573224Y-115274077D01*
X126573223Y-115274077D01*
X126540843Y-115318644D01*
X126447944Y-115500968D01*
X126384709Y-115695582D01*
X126352700Y-115897682D01*
X96622618Y-115897682D01*
X96581415Y-115856479D01*
X95780414Y-115055463D01*
X93301796Y-112576800D01*
X91387260Y-110662229D01*
X91353777Y-110600907D01*
X91358762Y-110531215D01*
X91387262Y-110486869D01*
X91456879Y-110417252D01*
X91456881Y-110417248D01*
X91456884Y-110417246D01*
X91507779Y-110347192D01*
X91572944Y-110257501D01*
X91662591Y-110081561D01*
X91723610Y-109893763D01*
X91733128Y-109833671D01*
X91754500Y-109698736D01*
X91754500Y-109501263D01*
X91723610Y-109306236D01*
X91667671Y-109134075D01*
X91662591Y-109118439D01*
X91572944Y-108942499D01*
X91547160Y-108907010D01*
X91456884Y-108782753D01*
X91317246Y-108643115D01*
X91157505Y-108527058D01*
X91151119Y-108523804D01*
X90987593Y-108440482D01*
X90936800Y-108392510D01*
X90920005Y-108324689D01*
X90942542Y-108258554D01*
X90987593Y-108219517D01*
X91157501Y-108132944D01*
X91205302Y-108098215D01*
X91317246Y-108016884D01*
X91317248Y-108016881D01*
X91317252Y-108016879D01*
X91456879Y-107877252D01*
X91456881Y-107877248D01*
X91456884Y-107877246D01*
X91507779Y-107807192D01*
X91572944Y-107717501D01*
X91662591Y-107541561D01*
X91723610Y-107353763D01*
X91754500Y-107158736D01*
X91754500Y-106961263D01*
X91723610Y-106766236D01*
X91675268Y-106617456D01*
X91662591Y-106578439D01*
X91572944Y-106402499D01*
X91542259Y-106360264D01*
X91456884Y-106242753D01*
X91317246Y-106103115D01*
X91157505Y-105987058D01*
X91151119Y-105983804D01*
X90987593Y-105900482D01*
X90936800Y-105852510D01*
X90920005Y-105784689D01*
X90942542Y-105718554D01*
X90987593Y-105679517D01*
X91157501Y-105592944D01*
X91193842Y-105566541D01*
X91317246Y-105476884D01*
X91317248Y-105476881D01*
X91317252Y-105476879D01*
X91456879Y-105337252D01*
X91456881Y-105337248D01*
X91456884Y-105337246D01*
X91507779Y-105267192D01*
X91572944Y-105177501D01*
X91662591Y-105001561D01*
X91723610Y-104813763D01*
X91723629Y-104813646D01*
X91754500Y-104618736D01*
X91754500Y-104421263D01*
X91723610Y-104226236D01*
X91685694Y-104109543D01*
X91662591Y-104038439D01*
X91572944Y-103862499D01*
X91547159Y-103827009D01*
X91456884Y-103702753D01*
X91317246Y-103563115D01*
X91157505Y-103447058D01*
X91148136Y-103442284D01*
X90987593Y-103360482D01*
X90936800Y-103312510D01*
X90920005Y-103244689D01*
X90942542Y-103178554D01*
X90987593Y-103139517D01*
X91157501Y-103052944D01*
X91184111Y-103033611D01*
X91317246Y-102936884D01*
X91317248Y-102936881D01*
X91317252Y-102936879D01*
X91456879Y-102797252D01*
X91456881Y-102797248D01*
X91456884Y-102797246D01*
X91507779Y-102727192D01*
X91572944Y-102637501D01*
X91662591Y-102461561D01*
X91723610Y-102273763D01*
X91725707Y-102260523D01*
X91754500Y-102078736D01*
X91754500Y-101881263D01*
X91723610Y-101686236D01*
X91682591Y-101559994D01*
X91662591Y-101498439D01*
X91572944Y-101322499D01*
X91565486Y-101312234D01*
X91456884Y-101162753D01*
X91317246Y-101023115D01*
X91157505Y-100907058D01*
X91151119Y-100903804D01*
X90987593Y-100820482D01*
X90936800Y-100772510D01*
X90920005Y-100704689D01*
X90942542Y-100638554D01*
X90987593Y-100599517D01*
X91157501Y-100512944D01*
X91177912Y-100498114D01*
X91317246Y-100396884D01*
X91317248Y-100396881D01*
X91317252Y-100396879D01*
X91456879Y-100257252D01*
X91456881Y-100257248D01*
X91456884Y-100257246D01*
X91513522Y-100179289D01*
X91572944Y-100097501D01*
X91662591Y-99921561D01*
X91723610Y-99733763D01*
X91754500Y-99538736D01*
X91754500Y-99341263D01*
X91723610Y-99146236D01*
X91682591Y-99019994D01*
X91662591Y-98958439D01*
X91572944Y-98782499D01*
X91552611Y-98754513D01*
X91456884Y-98622753D01*
X91317246Y-98483115D01*
X91157505Y-98367058D01*
X91152334Y-98364423D01*
X90987043Y-98280202D01*
X90936250Y-98232230D01*
X90919455Y-98164409D01*
X90941992Y-98098275D01*
X90987046Y-98059235D01*
X91157241Y-97972516D01*
X91192988Y-97946543D01*
X91192988Y-97946541D01*
X90629410Y-97382962D01*
X90692993Y-97365925D01*
X90807007Y-97300099D01*
X90900099Y-97207007D01*
X90965925Y-97092993D01*
X90982962Y-97029409D01*
X91546541Y-97592988D01*
X91546543Y-97592988D01*
X91572516Y-97557241D01*
X91662126Y-97381373D01*
X91723123Y-97193646D01*
X91754000Y-96998697D01*
X91754000Y-96801302D01*
X91723123Y-96606353D01*
X91662126Y-96418626D01*
X91572520Y-96242768D01*
X91572512Y-96242755D01*
X91546542Y-96207010D01*
X91546541Y-96207009D01*
X90982962Y-96770589D01*
X90965925Y-96707007D01*
X90900099Y-96592993D01*
X90807007Y-96499901D01*
X90692993Y-96434075D01*
X90629409Y-96417037D01*
X90946463Y-96099983D01*
X142124500Y-96099983D01*
X142124500Y-96900001D01*
X142124501Y-96900019D01*
X142135000Y-97002796D01*
X142135001Y-97002799D01*
X142158553Y-97073873D01*
X142190186Y-97169334D01*
X142282288Y-97318656D01*
X142406344Y-97442712D01*
X142555666Y-97534814D01*
X142722203Y-97589999D01*
X142824991Y-97600500D01*
X144175008Y-97600499D01*
X144277797Y-97589999D01*
X144444334Y-97534814D01*
X144593656Y-97442712D01*
X144717712Y-97318656D01*
X144809814Y-97169334D01*
X144864999Y-97002797D01*
X144875500Y-96900009D01*
X144875499Y-96099992D01*
X144872163Y-96067338D01*
X144864999Y-95997203D01*
X144864998Y-95997200D01*
X144840098Y-95922057D01*
X144809814Y-95830666D01*
X144717712Y-95681344D01*
X144593656Y-95557288D01*
X144593655Y-95557287D01*
X144529019Y-95517420D01*
X144482294Y-95465472D01*
X144471071Y-95396510D01*
X144498914Y-95332428D01*
X144506434Y-95324199D01*
X144614035Y-95216598D01*
X144715804Y-95076524D01*
X144794408Y-94922255D01*
X144847914Y-94757584D01*
X144849115Y-94750000D01*
X143780330Y-94750000D01*
X143800075Y-94730255D01*
X143849444Y-94644745D01*
X143875000Y-94549370D01*
X143875000Y-94450630D01*
X143849444Y-94355255D01*
X143800075Y-94269745D01*
X143780330Y-94250000D01*
X144849115Y-94250000D01*
X144849115Y-94249999D01*
X144847914Y-94242415D01*
X144794408Y-94077744D01*
X144715804Y-93923475D01*
X144614032Y-93783397D01*
X144491602Y-93660967D01*
X144351524Y-93559195D01*
X144197257Y-93480591D01*
X144032584Y-93427085D01*
X143861571Y-93400000D01*
X143750000Y-93400000D01*
X143750000Y-94219670D01*
X143730255Y-94199925D01*
X143644745Y-94150556D01*
X143549370Y-94125000D01*
X143450630Y-94125000D01*
X143355255Y-94150556D01*
X143269745Y-94199925D01*
X143250000Y-94219670D01*
X143250000Y-93400000D01*
X143138429Y-93400000D01*
X142967415Y-93427085D01*
X142802742Y-93480591D01*
X142648475Y-93559195D01*
X142508397Y-93660967D01*
X142385967Y-93783397D01*
X142284195Y-93923475D01*
X142205591Y-94077744D01*
X142152085Y-94242415D01*
X142150884Y-94249999D01*
X142150885Y-94250000D01*
X143219670Y-94250000D01*
X143199925Y-94269745D01*
X143150556Y-94355255D01*
X143125000Y-94450630D01*
X143125000Y-94549370D01*
X143150556Y-94644745D01*
X143199925Y-94730255D01*
X143219670Y-94750000D01*
X142150885Y-94750000D01*
X142152085Y-94757584D01*
X142205591Y-94922255D01*
X142284195Y-95076524D01*
X142385967Y-95216602D01*
X142493565Y-95324200D01*
X142527050Y-95385523D01*
X142522066Y-95455215D01*
X142480194Y-95511148D01*
X142470981Y-95517420D01*
X142406342Y-95557289D01*
X142282289Y-95681342D01*
X142190187Y-95830663D01*
X142190185Y-95830668D01*
X142172256Y-95884776D01*
X142135001Y-95997203D01*
X142135001Y-95997204D01*
X142135000Y-95997204D01*
X142124500Y-96099983D01*
X90946463Y-96099983D01*
X91192989Y-95853457D01*
X91157239Y-95827483D01*
X90981373Y-95737873D01*
X90793646Y-95676876D01*
X90598697Y-95646000D01*
X90401303Y-95646000D01*
X90206353Y-95676876D01*
X90018626Y-95737873D01*
X89842762Y-95827482D01*
X89842760Y-95827483D01*
X89807010Y-95853456D01*
X89807010Y-95853457D01*
X90370591Y-96417037D01*
X90307007Y-96434075D01*
X90192993Y-96499901D01*
X90099901Y-96592993D01*
X90034075Y-96707007D01*
X90017037Y-96770590D01*
X89453457Y-96207010D01*
X89453456Y-96207010D01*
X89427483Y-96242760D01*
X89427479Y-96242767D01*
X89340763Y-96412954D01*
X89292788Y-96463749D01*
X89224967Y-96480544D01*
X89158833Y-96458006D01*
X89119798Y-96412957D01*
X89032944Y-96242499D01*
X89032942Y-96242496D01*
X89032941Y-96242494D01*
X88916884Y-96082753D01*
X88777246Y-95943115D01*
X88617504Y-95827058D01*
X88617503Y-95827057D01*
X88617501Y-95827056D01*
X88441561Y-95737409D01*
X88441558Y-95737408D01*
X88253763Y-95676389D01*
X88058736Y-95645500D01*
X88058731Y-95645500D01*
X87861269Y-95645500D01*
X87861264Y-95645500D01*
X87666236Y-95676389D01*
X87478441Y-95737408D01*
X87302495Y-95827058D01*
X87142753Y-95943115D01*
X87003115Y-96082753D01*
X86887058Y-96242495D01*
X86797408Y-96418441D01*
X86736389Y-96606236D01*
X86705500Y-96801263D01*
X86705500Y-96998736D01*
X86736389Y-97193763D01*
X86797348Y-97381373D01*
X86797409Y-97381561D01*
X86886921Y-97557236D01*
X86887058Y-97557504D01*
X87003115Y-97717246D01*
X87142753Y-97856884D01*
X87266158Y-97946541D01*
X87302499Y-97972944D01*
X87472404Y-98059516D01*
X87523199Y-98107490D01*
X87539994Y-98175311D01*
X87517456Y-98241446D01*
X87472404Y-98280483D01*
X87315321Y-98360522D01*
X87302495Y-98367058D01*
X87142753Y-98483115D01*
X87003115Y-98622753D01*
X86887058Y-98782495D01*
X86797408Y-98958441D01*
X86736389Y-99146236D01*
X86705500Y-99341263D01*
X86705500Y-99538736D01*
X86736389Y-99733763D01*
X86788298Y-99893521D01*
X86797409Y-99921561D01*
X86887056Y-100097501D01*
X86887058Y-100097504D01*
X87003115Y-100257246D01*
X87142753Y-100396884D01*
X87292234Y-100505486D01*
X87302499Y-100512944D01*
X87472404Y-100599516D01*
X87523199Y-100647490D01*
X87539994Y-100715311D01*
X87517456Y-100781446D01*
X87472404Y-100820483D01*
X87315321Y-100900522D01*
X87302495Y-100907058D01*
X87142753Y-101023115D01*
X87003115Y-101162753D01*
X86887058Y-101322495D01*
X86887056Y-101322499D01*
X86821946Y-101450284D01*
X86797408Y-101498441D01*
X86736389Y-101686236D01*
X86705500Y-101881263D01*
X86705500Y-102078736D01*
X86736389Y-102273763D01*
X86782563Y-102415871D01*
X86797409Y-102461561D01*
X86887056Y-102637501D01*
X86887058Y-102637504D01*
X87003115Y-102797246D01*
X87142753Y-102936884D01*
X87302494Y-103052941D01*
X87302496Y-103052942D01*
X87302499Y-103052944D01*
X87472956Y-103139797D01*
X87523749Y-103187768D01*
X87540544Y-103255589D01*
X87518007Y-103321724D01*
X87472954Y-103360763D01*
X87302767Y-103447479D01*
X87302760Y-103447483D01*
X87267010Y-103473456D01*
X87267010Y-103473457D01*
X87830591Y-104037037D01*
X87767007Y-104054075D01*
X87652993Y-104119901D01*
X87559901Y-104212993D01*
X87494075Y-104327007D01*
X87477037Y-104390590D01*
X86913457Y-103827010D01*
X86913456Y-103827010D01*
X86887483Y-103862760D01*
X86887482Y-103862762D01*
X86797873Y-104038626D01*
X86736876Y-104226353D01*
X86706000Y-104421302D01*
X86706000Y-104618697D01*
X86736876Y-104813646D01*
X86797873Y-105001373D01*
X86887483Y-105177239D01*
X86913457Y-105212988D01*
X86913457Y-105212989D01*
X87477037Y-104649408D01*
X87494075Y-104712993D01*
X87559901Y-104827007D01*
X87652993Y-104920099D01*
X87767007Y-104985925D01*
X87830590Y-105002962D01*
X87267009Y-105566541D01*
X87267010Y-105566542D01*
X87302755Y-105592512D01*
X87302768Y-105592520D01*
X87472953Y-105679235D01*
X87523749Y-105727210D01*
X87540544Y-105795031D01*
X87518006Y-105861166D01*
X87472954Y-105900203D01*
X87311189Y-105982627D01*
X87302495Y-105987058D01*
X87142753Y-106103115D01*
X87003115Y-106242753D01*
X86887058Y-106402495D01*
X86797408Y-106578441D01*
X86736389Y-106766236D01*
X86705500Y-106961263D01*
X86705500Y-107158736D01*
X86736389Y-107353763D01*
X86797408Y-107541558D01*
X86797409Y-107541561D01*
X86887056Y-107717501D01*
X86887058Y-107717504D01*
X87003115Y-107877246D01*
X87142753Y-108016884D01*
X87302494Y-108132941D01*
X87302496Y-108132942D01*
X87302499Y-108132944D01*
X87472956Y-108219797D01*
X87523749Y-108267768D01*
X87540544Y-108335589D01*
X87518007Y-108401724D01*
X87472954Y-108440763D01*
X87302767Y-108527479D01*
X87302760Y-108527483D01*
X87267010Y-108553456D01*
X87267010Y-108553457D01*
X87830591Y-109117037D01*
X87767007Y-109134075D01*
X87652993Y-109199901D01*
X87559901Y-109292993D01*
X87494075Y-109407007D01*
X87477037Y-109470590D01*
X86913457Y-108907010D01*
X86913456Y-108907010D01*
X86887483Y-108942760D01*
X86887482Y-108942762D01*
X86797873Y-109118626D01*
X86736876Y-109306353D01*
X86706000Y-109501302D01*
X86706000Y-109698697D01*
X86736876Y-109893646D01*
X86797873Y-110081373D01*
X86887483Y-110257239D01*
X86913457Y-110292988D01*
X86913457Y-110292989D01*
X87477037Y-109729408D01*
X87494075Y-109792993D01*
X87559901Y-109907007D01*
X87652993Y-110000099D01*
X87767007Y-110065925D01*
X87830590Y-110082962D01*
X87267009Y-110646541D01*
X87267010Y-110646542D01*
X87302755Y-110672512D01*
X87302768Y-110672520D01*
X87472953Y-110759235D01*
X87523749Y-110807210D01*
X87540544Y-110875031D01*
X87518006Y-110941166D01*
X87472954Y-110980203D01*
X87311189Y-111062627D01*
X87302495Y-111067058D01*
X87142753Y-111183115D01*
X87003115Y-111322753D01*
X86887058Y-111482495D01*
X86797408Y-111658441D01*
X86736389Y-111846236D01*
X86705500Y-112041263D01*
X86705500Y-112238736D01*
X86736389Y-112433763D01*
X86777408Y-112560005D01*
X86797409Y-112621561D01*
X86879786Y-112783233D01*
X86887058Y-112797504D01*
X87003115Y-112957246D01*
X87142753Y-113096884D01*
X87292234Y-113205486D01*
X87302499Y-113212944D01*
X87472404Y-113299516D01*
X87523199Y-113347490D01*
X87539994Y-113415311D01*
X87517456Y-113481446D01*
X87472404Y-113520483D01*
X87315321Y-113600522D01*
X87302495Y-113607058D01*
X87142753Y-113723115D01*
X87003115Y-113862753D01*
X86887058Y-114022495D01*
X86797408Y-114198441D01*
X86736389Y-114386236D01*
X86705500Y-114581263D01*
X86705500Y-114778736D01*
X86736389Y-114973763D01*
X86794625Y-115152993D01*
X86797409Y-115161561D01*
X86883700Y-115330914D01*
X86887058Y-115337504D01*
X87003115Y-115497246D01*
X87142753Y-115636884D01*
X87223546Y-115695582D01*
X87302499Y-115752944D01*
X87472404Y-115839516D01*
X87523199Y-115887490D01*
X87539994Y-115955311D01*
X87517456Y-116021446D01*
X87472404Y-116060483D01*
X87332619Y-116131709D01*
X87302495Y-116147058D01*
X87142753Y-116263115D01*
X87003115Y-116402753D01*
X86887058Y-116562495D01*
X86797408Y-116738441D01*
X86736389Y-116926236D01*
X86705500Y-117121263D01*
X86705500Y-117318736D01*
X86736389Y-117513763D01*
X86786768Y-117668812D01*
X86797409Y-117701561D01*
X86882955Y-117869452D01*
X86887058Y-117877504D01*
X87003115Y-118037246D01*
X87142753Y-118176884D01*
X87275586Y-118273391D01*
X87302499Y-118292944D01*
X87472404Y-118379516D01*
X87523199Y-118427490D01*
X87539994Y-118495311D01*
X87517456Y-118561446D01*
X87472404Y-118600483D01*
X87315321Y-118680522D01*
X87302495Y-118687058D01*
X87142753Y-118803115D01*
X87003115Y-118942753D01*
X86887058Y-119102495D01*
X86797408Y-119278441D01*
X86736389Y-119466236D01*
X86705500Y-119661263D01*
X86705500Y-119858736D01*
X86736389Y-120053763D01*
X86777408Y-120180005D01*
X86797409Y-120241561D01*
X86885797Y-120415030D01*
X86887058Y-120417504D01*
X87003115Y-120577246D01*
X87142753Y-120716884D01*
X87302494Y-120832941D01*
X87302496Y-120832942D01*
X87302499Y-120832944D01*
X87472956Y-120919797D01*
X87523749Y-120967768D01*
X87540544Y-121035589D01*
X87518007Y-121101724D01*
X87472954Y-121140763D01*
X87302767Y-121227479D01*
X87302760Y-121227483D01*
X87267010Y-121253456D01*
X87267010Y-121253457D01*
X87830591Y-121817037D01*
X87767007Y-121834075D01*
X87652993Y-121899901D01*
X87559901Y-121992993D01*
X87494075Y-122107007D01*
X87477037Y-122170590D01*
X86913457Y-121607010D01*
X86913456Y-121607010D01*
X86887483Y-121642760D01*
X86887482Y-121642762D01*
X86797873Y-121818626D01*
X86736876Y-122006353D01*
X86706000Y-122201302D01*
X86706000Y-122398697D01*
X86736876Y-122593646D01*
X86797873Y-122781373D01*
X86887483Y-122957239D01*
X86913457Y-122992988D01*
X86913457Y-122992989D01*
X87477037Y-122429408D01*
X87494075Y-122492993D01*
X87559901Y-122607007D01*
X87652993Y-122700099D01*
X87767007Y-122765925D01*
X87830590Y-122782962D01*
X87267009Y-123346541D01*
X87267010Y-123346542D01*
X87302755Y-123372512D01*
X87302768Y-123372520D01*
X87472953Y-123459235D01*
X87523749Y-123507210D01*
X87540544Y-123575031D01*
X87518006Y-123641166D01*
X87472954Y-123680203D01*
X87311189Y-123762627D01*
X87302495Y-123767058D01*
X87142753Y-123883115D01*
X87003115Y-124022753D01*
X86887058Y-124182495D01*
X86797408Y-124358441D01*
X86736389Y-124546236D01*
X86705500Y-124741263D01*
X86705500Y-124938736D01*
X86736389Y-125133763D01*
X86788316Y-125293577D01*
X86797409Y-125321561D01*
X86887056Y-125497501D01*
X86887058Y-125497504D01*
X87003115Y-125657246D01*
X87142753Y-125796884D01*
X87258439Y-125880933D01*
X87302499Y-125912944D01*
X87472404Y-125999516D01*
X87523199Y-126047490D01*
X87539994Y-126115311D01*
X87517456Y-126181446D01*
X87472404Y-126220483D01*
X87345362Y-126285216D01*
X87302495Y-126307058D01*
X87142753Y-126423115D01*
X87003115Y-126562753D01*
X86887058Y-126722495D01*
X86797408Y-126898441D01*
X86736389Y-127086236D01*
X86705500Y-127281263D01*
X86705500Y-127478736D01*
X86736389Y-127673763D01*
X86785285Y-127824248D01*
X86797409Y-127861561D01*
X86879817Y-128023293D01*
X86887058Y-128037504D01*
X87003115Y-128197246D01*
X87142753Y-128336884D01*
X87302494Y-128452941D01*
X87302496Y-128452942D01*
X87302499Y-128452944D01*
X87472956Y-128539797D01*
X87523749Y-128587768D01*
X87540544Y-128655589D01*
X87518007Y-128721724D01*
X87472954Y-128760763D01*
X87302767Y-128847479D01*
X87302760Y-128847483D01*
X87267010Y-128873456D01*
X87267010Y-128873457D01*
X87830590Y-129437037D01*
X87767007Y-129454075D01*
X87652993Y-129519901D01*
X87559901Y-129612993D01*
X87494075Y-129727007D01*
X87477037Y-129790590D01*
X86913457Y-129227010D01*
X86913456Y-129227010D01*
X86887483Y-129262760D01*
X86887482Y-129262762D01*
X86797873Y-129438626D01*
X86736876Y-129626353D01*
X86706000Y-129821302D01*
X86706000Y-130018697D01*
X86736876Y-130213646D01*
X86797873Y-130401373D01*
X86887483Y-130577239D01*
X86913457Y-130612988D01*
X86913457Y-130612989D01*
X87477037Y-130049408D01*
X87494075Y-130112993D01*
X87559901Y-130227007D01*
X87652993Y-130320099D01*
X87767007Y-130385925D01*
X87830589Y-130402962D01*
X87267009Y-130966541D01*
X87267010Y-130966542D01*
X87302755Y-130992512D01*
X87302768Y-130992520D01*
X87472953Y-131079235D01*
X87523749Y-131127210D01*
X87540544Y-131195031D01*
X87518006Y-131261166D01*
X87472954Y-131300203D01*
X87345951Y-131364916D01*
X87302495Y-131387058D01*
X87142753Y-131503115D01*
X87003115Y-131642753D01*
X86887058Y-131802495D01*
X86797408Y-131978441D01*
X86736389Y-132166236D01*
X86705500Y-132361263D01*
X86705500Y-132558736D01*
X86736389Y-132753763D01*
X86785825Y-132905909D01*
X86797409Y-132941561D01*
X86884588Y-133112657D01*
X86887058Y-133117504D01*
X87003115Y-133277246D01*
X87142753Y-133416884D01*
X87269464Y-133508943D01*
X87302499Y-133532944D01*
X87472404Y-133619516D01*
X87523199Y-133667490D01*
X87539994Y-133735311D01*
X87517456Y-133801446D01*
X87472404Y-133840483D01*
X87315321Y-133920522D01*
X87302495Y-133927058D01*
X87142753Y-134043115D01*
X87003115Y-134182753D01*
X86887058Y-134342495D01*
X86797408Y-134518441D01*
X86736389Y-134706236D01*
X86705500Y-134901263D01*
X86705500Y-135098736D01*
X86736389Y-135293763D01*
X86797408Y-135481558D01*
X86797409Y-135481561D01*
X86887056Y-135657501D01*
X86887058Y-135657504D01*
X87003115Y-135817246D01*
X87142753Y-135956884D01*
X87250745Y-136035343D01*
X87302499Y-136072944D01*
X87472404Y-136159516D01*
X87523199Y-136207490D01*
X87539994Y-136275311D01*
X87517456Y-136341446D01*
X87472404Y-136380483D01*
X87315321Y-136460522D01*
X87302495Y-136467058D01*
X87142753Y-136583115D01*
X87003115Y-136722753D01*
X86887058Y-136882495D01*
X86797408Y-137058441D01*
X86736389Y-137246236D01*
X86705500Y-137441263D01*
X86705500Y-137638736D01*
X86736389Y-137833763D01*
X86772158Y-137943846D01*
X86797409Y-138021561D01*
X86887056Y-138197501D01*
X86887058Y-138197504D01*
X87003115Y-138357246D01*
X87142753Y-138496884D01*
X87302494Y-138612941D01*
X87302496Y-138612942D01*
X87302499Y-138612944D01*
X87472956Y-138699797D01*
X87523749Y-138747768D01*
X87540544Y-138815589D01*
X87518007Y-138881724D01*
X87472954Y-138920763D01*
X87302767Y-139007479D01*
X87302760Y-139007483D01*
X87267010Y-139033456D01*
X87267010Y-139033457D01*
X87830590Y-139597037D01*
X87767007Y-139614075D01*
X87652993Y-139679901D01*
X87559901Y-139772993D01*
X87494075Y-139887007D01*
X87477037Y-139950590D01*
X86913457Y-139387010D01*
X86913456Y-139387010D01*
X86887483Y-139422760D01*
X86887482Y-139422762D01*
X86797873Y-139598626D01*
X86736876Y-139786353D01*
X86706000Y-139981302D01*
X86706000Y-140178695D01*
X86709906Y-140203362D01*
X86700949Y-140272655D01*
X86655951Y-140326105D01*
X86589199Y-140346743D01*
X86521886Y-140328016D01*
X86499749Y-140310435D01*
X86392680Y-140203362D01*
X85286298Y-139096933D01*
X83785017Y-137595589D01*
X83751533Y-137534266D01*
X83748700Y-137507910D01*
X83748700Y-110416945D01*
X83748700Y-110416943D01*
X83707777Y-110264216D01*
X83675157Y-110207716D01*
X83628724Y-110127290D01*
X83628718Y-110127282D01*
X83516917Y-110015481D01*
X83516909Y-110015475D01*
X83379990Y-109936426D01*
X83379986Y-109936424D01*
X83379984Y-109936423D01*
X83227257Y-109895500D01*
X83069143Y-109895500D01*
X82916416Y-109936423D01*
X82916409Y-109936426D01*
X82779490Y-110015475D01*
X82779482Y-110015481D01*
X82667681Y-110127282D01*
X82667675Y-110127290D01*
X82588626Y-110264209D01*
X82588623Y-110264216D01*
X82547700Y-110416943D01*
X82547700Y-137781637D01*
X82547698Y-137887064D01*
X80770600Y-137887064D01*
X80770600Y-128631945D01*
X80770600Y-128631943D01*
X80729677Y-128479216D01*
X80714507Y-128452941D01*
X80650624Y-128342290D01*
X80650618Y-128342282D01*
X80538817Y-128230481D01*
X80538809Y-128230475D01*
X80401890Y-128151426D01*
X80401886Y-128151424D01*
X80401884Y-128151423D01*
X80249157Y-128110500D01*
X80091043Y-128110500D01*
X79938316Y-128151423D01*
X79938309Y-128151426D01*
X79801390Y-128230475D01*
X79801382Y-128230481D01*
X79689581Y-128342282D01*
X79689575Y-128342290D01*
X79610526Y-128479209D01*
X79610523Y-128479216D01*
X79569600Y-128631943D01*
X79569600Y-139029894D01*
X79549915Y-139096933D01*
X79533280Y-139117577D01*
X77603585Y-141047209D01*
X77542261Y-141080693D01*
X77477587Y-141077457D01*
X77351369Y-141036447D01*
X77118097Y-140999500D01*
X77118092Y-140999500D01*
X76881908Y-140999500D01*
X76881903Y-140999500D01*
X76648631Y-141036446D01*
X76424003Y-141109433D01*
X76213566Y-141216657D01*
X76104550Y-141295862D01*
X76022490Y-141355483D01*
X76022488Y-141355485D01*
X76022487Y-141355485D01*
X75855485Y-141522487D01*
X75855485Y-141522488D01*
X75855483Y-141522490D01*
X75837635Y-141547056D01*
X75716657Y-141713566D01*
X75609433Y-141924003D01*
X75536446Y-142148631D01*
X75499500Y-142381902D01*
X64887400Y-142381902D01*
X64887400Y-137381947D01*
X75500000Y-137381947D01*
X75500000Y-137618052D01*
X75536934Y-137851247D01*
X75609897Y-138075802D01*
X75717087Y-138286174D01*
X75777338Y-138369104D01*
X75777340Y-138369105D01*
X76517037Y-137629408D01*
X76534075Y-137692993D01*
X76599901Y-137807007D01*
X76692993Y-137900099D01*
X76807007Y-137965925D01*
X76870590Y-137982962D01*
X76130893Y-138722658D01*
X76213828Y-138782914D01*
X76424197Y-138890102D01*
X76648752Y-138963065D01*
X76648751Y-138963065D01*
X76881948Y-139000000D01*
X77118052Y-139000000D01*
X77351247Y-138963065D01*
X77575802Y-138890102D01*
X77786163Y-138782918D01*
X77786169Y-138782914D01*
X77869104Y-138722658D01*
X77869105Y-138722658D01*
X77129408Y-137982962D01*
X77192993Y-137965925D01*
X77307007Y-137900099D01*
X77400099Y-137807007D01*
X77465925Y-137692993D01*
X77482962Y-137629409D01*
X78222658Y-138369105D01*
X78222658Y-138369104D01*
X78282914Y-138286169D01*
X78282918Y-138286163D01*
X78390102Y-138075802D01*
X78463065Y-137851247D01*
X78500000Y-137618052D01*
X78500000Y-137381947D01*
X78463065Y-137148752D01*
X78390102Y-136924197D01*
X78282914Y-136713828D01*
X78222658Y-136630894D01*
X78222658Y-136630893D01*
X77482962Y-137370590D01*
X77465925Y-137307007D01*
X77400099Y-137192993D01*
X77307007Y-137099901D01*
X77192993Y-137034075D01*
X77129409Y-137017037D01*
X77869105Y-136277340D01*
X77869104Y-136277338D01*
X77786174Y-136217087D01*
X77575802Y-136109897D01*
X77351247Y-136036934D01*
X77351248Y-136036934D01*
X77118052Y-136000000D01*
X76881948Y-136000000D01*
X76648752Y-136036934D01*
X76424197Y-136109897D01*
X76213830Y-136217084D01*
X76130894Y-136277340D01*
X76870591Y-137017037D01*
X76807007Y-137034075D01*
X76692993Y-137099901D01*
X76599901Y-137192993D01*
X76534075Y-137307007D01*
X76517037Y-137370591D01*
X75777340Y-136630894D01*
X75717084Y-136713830D01*
X75609897Y-136924197D01*
X75536934Y-137148752D01*
X75500000Y-137381947D01*
X64887400Y-137381947D01*
X64887400Y-133352135D01*
X67899500Y-133352135D01*
X67899500Y-135447870D01*
X67899501Y-135447876D01*
X67905908Y-135507483D01*
X67956202Y-135642328D01*
X67956206Y-135642335D01*
X68042452Y-135757544D01*
X68042455Y-135757547D01*
X68157664Y-135843793D01*
X68157671Y-135843797D01*
X68292517Y-135894091D01*
X68292516Y-135894091D01*
X68299444Y-135894835D01*
X68352127Y-135900500D01*
X71647872Y-135900499D01*
X71707483Y-135894091D01*
X71842331Y-135843796D01*
X71957546Y-135757546D01*
X72043796Y-135642331D01*
X72094091Y-135507483D01*
X72100500Y-135447873D01*
X72100499Y-133352128D01*
X72094091Y-133292517D01*
X72088395Y-133277246D01*
X72043797Y-133157671D01*
X72043793Y-133157664D01*
X71957547Y-133042455D01*
X71957544Y-133042452D01*
X71842335Y-132956206D01*
X71842328Y-132956202D01*
X71707482Y-132905908D01*
X71707483Y-132905908D01*
X71647883Y-132899501D01*
X71647881Y-132899500D01*
X71647873Y-132899500D01*
X71647864Y-132899500D01*
X68352129Y-132899500D01*
X68352123Y-132899501D01*
X68292516Y-132905908D01*
X68157671Y-132956202D01*
X68157664Y-132956206D01*
X68042455Y-133042452D01*
X68042452Y-133042455D01*
X67956206Y-133157664D01*
X67956202Y-133157671D01*
X67905908Y-133292517D01*
X67899501Y-133352116D01*
X67899501Y-133352123D01*
X67899500Y-133352135D01*
X64887400Y-133352135D01*
X64887400Y-131523028D01*
X64887408Y-131522999D01*
X64887400Y-131438671D01*
X64887400Y-131364943D01*
X64887400Y-131364939D01*
X64887393Y-131364890D01*
X64887393Y-131364884D01*
X64866268Y-131286079D01*
X64846477Y-131212216D01*
X64846476Y-131212214D01*
X64846469Y-131212188D01*
X64846462Y-131212176D01*
X64846461Y-131212174D01*
X64846454Y-131212162D01*
X64846454Y-131212161D01*
X64806868Y-131143610D01*
X64767420Y-131075284D01*
X64767417Y-131075281D01*
X64767416Y-131075279D01*
X64767379Y-131075231D01*
X64708637Y-131016501D01*
X64708636Y-131016500D01*
X64655616Y-130963480D01*
X64655592Y-130963466D01*
X64649830Y-130957705D01*
X64649822Y-130957698D01*
X63895527Y-130203549D01*
X63862036Y-130142229D01*
X63859200Y-130115859D01*
X63859200Y-127051139D01*
X63878885Y-126984100D01*
X63895527Y-126963449D01*
X64263087Y-126595961D01*
X68851686Y-126595961D01*
X68851697Y-126596047D01*
X68871368Y-126669460D01*
X68871373Y-126669479D01*
X68892584Y-126748693D01*
X68892620Y-126748779D01*
X68892623Y-126748784D01*
X68932727Y-126818247D01*
X68971619Y-126885635D01*
X68971652Y-126885668D01*
X68971680Y-126885716D01*
X69030452Y-126944488D01*
X69083403Y-126997457D01*
X69083445Y-126997481D01*
X69083484Y-126997520D01*
X69150932Y-127036460D01*
X69152688Y-127037474D01*
X69152686Y-127037477D01*
X69152705Y-127037484D01*
X69220321Y-127076538D01*
X69220327Y-127076539D01*
X69220410Y-127076573D01*
X69220416Y-127076577D01*
X69295248Y-127096628D01*
X69373042Y-127117487D01*
X69373046Y-127117487D01*
X69373142Y-127117500D01*
X69449171Y-127117500D01*
X69531156Y-127117514D01*
X69531208Y-127117500D01*
X69531257Y-127117500D01*
X69604659Y-127097831D01*
X69683891Y-127076616D01*
X69683903Y-127076608D01*
X69683971Y-127076580D01*
X69683984Y-127076577D01*
X69683997Y-127076568D01*
X69684005Y-127076566D01*
X69684116Y-127076501D01*
X69753448Y-127036472D01*
X69753454Y-127036467D01*
X69820835Y-126997581D01*
X69820838Y-126997576D01*
X69820870Y-126997559D01*
X69820887Y-126997546D01*
X69820909Y-126997523D01*
X69820916Y-126997520D01*
X69880252Y-126938183D01*
X69880253Y-126938182D01*
X69880255Y-126938184D01*
X69880264Y-126938170D01*
X71604469Y-125214546D01*
X71604516Y-125214520D01*
X71662781Y-125156254D01*
X71716257Y-125102797D01*
X71716259Y-125102792D01*
X71716284Y-125102768D01*
X71716302Y-125102745D01*
X71716317Y-125102718D01*
X71716320Y-125102716D01*
X71756263Y-125033529D01*
X71756278Y-125033514D01*
X71756274Y-125033512D01*
X71795110Y-124966274D01*
X71795140Y-124966221D01*
X71795338Y-124965879D01*
X71795338Y-124965875D01*
X71795360Y-124965839D01*
X71795373Y-124965790D01*
X71795377Y-124965784D01*
X71815428Y-124890951D01*
X71815429Y-124890949D01*
X71815432Y-124890949D01*
X71815432Y-124890933D01*
X71836287Y-124813158D01*
X71836287Y-124813157D01*
X71836300Y-124813059D01*
X71836300Y-124737029D01*
X71836314Y-124655044D01*
X71836300Y-124654991D01*
X71836300Y-115683943D01*
X71795377Y-115531216D01*
X71792265Y-115525826D01*
X71716324Y-115394290D01*
X71716318Y-115394282D01*
X71604517Y-115282481D01*
X71604509Y-115282475D01*
X71467590Y-115203426D01*
X71467586Y-115203424D01*
X71467584Y-115203423D01*
X71314857Y-115162500D01*
X71156743Y-115162500D01*
X71004016Y-115203423D01*
X71004009Y-115203426D01*
X70867090Y-115282475D01*
X70867082Y-115282481D01*
X70755281Y-115394282D01*
X70755275Y-115394290D01*
X70676226Y-115531209D01*
X70676223Y-115531216D01*
X70635300Y-115683943D01*
X70635300Y-124433830D01*
X70615615Y-124500869D01*
X70598966Y-124521526D01*
X69089150Y-126030833D01*
X69083530Y-126036453D01*
X69083484Y-126036480D01*
X69025464Y-126094500D01*
X69025461Y-126094501D01*
X68971730Y-126148215D01*
X68971683Y-126148276D01*
X68931781Y-126217391D01*
X68931771Y-126217409D01*
X68892659Y-126285124D01*
X68892626Y-126285205D01*
X68892623Y-126285215D01*
X68892623Y-126285216D01*
X68884477Y-126315618D01*
X68872576Y-126360031D01*
X68872571Y-126360049D01*
X68851711Y-126437847D01*
X68851700Y-126437930D01*
X68851700Y-126513991D01*
X68851686Y-126595961D01*
X64263087Y-126595961D01*
X64296306Y-126562748D01*
X64655590Y-126203534D01*
X64655616Y-126203520D01*
X64711150Y-126147985D01*
X64766630Y-126092516D01*
X64767378Y-126091787D01*
X64767417Y-126091718D01*
X64767420Y-126091716D01*
X64807167Y-126022870D01*
X64846454Y-125954839D01*
X64846455Y-125954833D01*
X64846467Y-125954813D01*
X64846473Y-125954790D01*
X64846477Y-125954784D01*
X64866268Y-125880920D01*
X64887393Y-125802116D01*
X64887393Y-125802104D01*
X64887400Y-125802054D01*
X64887400Y-125725735D01*
X64887408Y-125644001D01*
X64887400Y-125643971D01*
X64887400Y-125643943D01*
X64866939Y-125567583D01*
X64846792Y-125492365D01*
X64846518Y-125491287D01*
X64846248Y-125490820D01*
X64803934Y-125417529D01*
X64767455Y-125354331D01*
X64767453Y-125354329D01*
X64767451Y-125354325D01*
X64767418Y-125354282D01*
X64706713Y-125293577D01*
X64655663Y-125242516D01*
X64655636Y-125242500D01*
X64655616Y-125242480D01*
X64586771Y-125202732D01*
X64583182Y-125200660D01*
X64518739Y-125163446D01*
X64518710Y-125163438D01*
X64518684Y-125163423D01*
X64518678Y-125163421D01*
X64518676Y-125163420D01*
X64444831Y-125143634D01*
X64444821Y-125143628D01*
X64444821Y-125143631D01*
X64366013Y-125122506D01*
X64365972Y-125122500D01*
X64365957Y-125122500D01*
X64292229Y-125122500D01*
X64207901Y-125122491D01*
X64207846Y-125122498D01*
X64131571Y-125142935D01*
X64131572Y-125142936D01*
X64131483Y-125142960D01*
X64055170Y-125163401D01*
X64055145Y-125163415D01*
X64055116Y-125163423D01*
X64054945Y-125163521D01*
X64054943Y-125163522D01*
X63981649Y-125205837D01*
X63981280Y-125206050D01*
X63918231Y-125242445D01*
X63918212Y-125242463D01*
X63918184Y-125242480D01*
X63917792Y-125242872D01*
X63856615Y-125304048D01*
X63856608Y-125304055D01*
X62894934Y-126265540D01*
X62890008Y-126270464D01*
X62889984Y-126270480D01*
X62829568Y-126330895D01*
X62829565Y-126330896D01*
X62778207Y-126382245D01*
X62778186Y-126382272D01*
X62754606Y-126423115D01*
X62737516Y-126452716D01*
X62736327Y-126454775D01*
X62736322Y-126454783D01*
X62699140Y-126519169D01*
X62699125Y-126519207D01*
X62679333Y-126593069D01*
X62679331Y-126593079D01*
X62658205Y-126671890D01*
X62658200Y-126671928D01*
X62658200Y-126742230D01*
X62658191Y-126838280D01*
X62658200Y-126838413D01*
X62658200Y-128023293D01*
X62638515Y-128090332D01*
X62585711Y-128136087D01*
X62516553Y-128146031D01*
X62502110Y-128143069D01*
X62465155Y-128133168D01*
X62460579Y-128131941D01*
X62460193Y-128131838D01*
X62380636Y-128110510D01*
X62380594Y-128110509D01*
X62380557Y-128110500D01*
X62379957Y-128110500D01*
X62305344Y-128110500D01*
X62222525Y-128110489D01*
X62222524Y-128110489D01*
X62222522Y-128110489D01*
X62222519Y-128110489D01*
X62222443Y-128110499D01*
X62147313Y-128130630D01*
X62146896Y-128130742D01*
X62069789Y-128151393D01*
X62069755Y-128151412D01*
X62069716Y-128151423D01*
X62069413Y-128151597D01*
X62069412Y-128151598D01*
X61999823Y-128191775D01*
X61999822Y-128191774D01*
X61999091Y-128192197D01*
X61932847Y-128230432D01*
X61932819Y-128230459D01*
X61932784Y-128230480D01*
X61932471Y-128230792D01*
X61932469Y-128230794D01*
X61875531Y-128287732D01*
X60793192Y-129369787D01*
X60793191Y-129369786D01*
X60787512Y-129375463D01*
X60787484Y-129375480D01*
X60730310Y-129432654D01*
X60730309Y-129432655D01*
X60675716Y-129487233D01*
X60675683Y-129487277D01*
X60634732Y-129558208D01*
X60634724Y-129558221D01*
X60596652Y-129624142D01*
X60596624Y-129624209D01*
X60576181Y-129700502D01*
X60576178Y-129700516D01*
X60555709Y-129776865D01*
X60555700Y-129776932D01*
X60555700Y-129852172D01*
X60555688Y-129943012D01*
X60555700Y-129943195D01*
X60555700Y-141821128D01*
X60536015Y-141888167D01*
X60519428Y-141908762D01*
X59891503Y-142537358D01*
X59891428Y-142537435D01*
X59835580Y-142593284D01*
X59835498Y-142593425D01*
X59835383Y-142593541D01*
X59835333Y-142593628D01*
X59795967Y-142661893D01*
X59795892Y-142662025D01*
X59756523Y-142730216D01*
X59756480Y-142730372D01*
X59756399Y-142730515D01*
X59735790Y-142807593D01*
X59735789Y-142807592D01*
X59735390Y-142809084D01*
X59715600Y-142882943D01*
X59715600Y-142883103D01*
X59715557Y-142883264D01*
X49500000Y-142883264D01*
X49500000Y-126891779D01*
X50487500Y-126891779D01*
X50487500Y-127108220D01*
X50521357Y-127321981D01*
X50588235Y-127527814D01*
X50588236Y-127527817D01*
X50686496Y-127720660D01*
X50729329Y-127779615D01*
X50729330Y-127779616D01*
X51383619Y-127125326D01*
X51401234Y-127191063D01*
X51466402Y-127303937D01*
X51558563Y-127396098D01*
X51671437Y-127461266D01*
X51737172Y-127478880D01*
X51082882Y-128133168D01*
X51141842Y-128176005D01*
X51334682Y-128274263D01*
X51334685Y-128274264D01*
X51540518Y-128341142D01*
X51754280Y-128375000D01*
X51970720Y-128375000D01*
X52184481Y-128341142D01*
X52390314Y-128274264D01*
X52390317Y-128274263D01*
X52583157Y-128176005D01*
X52605114Y-128160053D01*
X52670920Y-128136573D01*
X52738974Y-128152398D01*
X52787669Y-128202503D01*
X52802000Y-128260371D01*
X52802000Y-128372026D01*
X52838679Y-128603610D01*
X52840179Y-128613076D01*
X52891916Y-128772307D01*
X52915597Y-128845187D01*
X53026396Y-129062642D01*
X53169839Y-129260076D01*
X53169843Y-129260081D01*
X53342416Y-129432654D01*
X53342423Y-129432660D01*
X53462501Y-129519901D01*
X53539861Y-129576106D01*
X53757315Y-129686904D01*
X53989424Y-129762321D01*
X54230473Y-129800500D01*
X54230474Y-129800500D01*
X54474526Y-129800500D01*
X54474527Y-129800500D01*
X54715576Y-129762321D01*
X54947685Y-129686904D01*
X55165139Y-129576106D01*
X55362583Y-129432655D01*
X55535155Y-129260083D01*
X55678606Y-129062639D01*
X55789404Y-128845185D01*
X55864821Y-128613076D01*
X55903000Y-128372027D01*
X55903000Y-128127973D01*
X55864821Y-127886924D01*
X55789404Y-127654815D01*
X55678606Y-127437361D01*
X55594778Y-127321981D01*
X55535160Y-127239923D01*
X55535156Y-127239918D01*
X55362581Y-127067343D01*
X55362576Y-127067339D01*
X55165142Y-126923896D01*
X55165141Y-126923895D01*
X55165139Y-126923894D01*
X54947685Y-126813096D01*
X54715576Y-126737679D01*
X54715574Y-126737678D01*
X54715572Y-126737678D01*
X54547269Y-126711021D01*
X54474527Y-126699500D01*
X54230473Y-126699500D01*
X54174593Y-126708350D01*
X53989427Y-126737678D01*
X53757312Y-126813097D01*
X53539861Y-126923893D01*
X53434385Y-127000526D01*
X53368578Y-127024005D01*
X53300524Y-127008179D01*
X53251830Y-126958073D01*
X53237500Y-126900207D01*
X53237500Y-126891779D01*
X53203642Y-126678018D01*
X53136764Y-126472185D01*
X53136763Y-126472182D01*
X53038505Y-126279342D01*
X52995668Y-126220383D01*
X52995668Y-126220382D01*
X52341380Y-126874672D01*
X52323766Y-126808937D01*
X52258598Y-126696063D01*
X52166437Y-126603902D01*
X52053563Y-126538734D01*
X51987826Y-126521119D01*
X52642116Y-125866830D01*
X52642115Y-125866829D01*
X52583160Y-125823996D01*
X52390317Y-125725736D01*
X52390314Y-125725735D01*
X52184481Y-125658857D01*
X51970720Y-125625000D01*
X51754280Y-125625000D01*
X51540518Y-125658857D01*
X51334685Y-125725735D01*
X51334682Y-125725736D01*
X51141846Y-125823992D01*
X51082883Y-125866830D01*
X51737173Y-126521119D01*
X51671437Y-126538734D01*
X51558563Y-126603902D01*
X51466402Y-126696063D01*
X51401234Y-126808937D01*
X51383619Y-126874672D01*
X50729330Y-126220383D01*
X50686492Y-126279346D01*
X50588236Y-126472182D01*
X50588235Y-126472185D01*
X50521357Y-126678018D01*
X50487500Y-126891779D01*
X49500000Y-126891779D01*
X49500000Y-122391746D01*
X50487000Y-122391746D01*
X50487000Y-122608253D01*
X50520870Y-122822098D01*
X50587772Y-123028006D01*
X50587773Y-123028009D01*
X50669294Y-123188001D01*
X50686067Y-123220919D01*
X50813328Y-123396078D01*
X50966422Y-123549172D01*
X51141581Y-123676433D01*
X51236197Y-123724642D01*
X51334490Y-123774726D01*
X51334493Y-123774727D01*
X51437447Y-123808178D01*
X51540403Y-123841630D01*
X51754246Y-123875500D01*
X51754247Y-123875500D01*
X51970753Y-123875500D01*
X51970754Y-123875500D01*
X52184597Y-123841630D01*
X52390509Y-123774726D01*
X52583419Y-123676433D01*
X52758578Y-123549172D01*
X52911672Y-123396078D01*
X53038933Y-123220919D01*
X53137226Y-123028009D01*
X53204130Y-122822097D01*
X53238000Y-122608254D01*
X53238000Y-122590155D01*
X53257685Y-122523116D01*
X53310489Y-122477361D01*
X53379647Y-122467417D01*
X53434885Y-122489837D01*
X53539861Y-122566106D01*
X53757315Y-122676904D01*
X53989424Y-122752321D01*
X54230473Y-122790500D01*
X54230474Y-122790500D01*
X54474526Y-122790500D01*
X54474527Y-122790500D01*
X54715576Y-122752321D01*
X54947685Y-122676904D01*
X55165139Y-122566106D01*
X55362583Y-122422655D01*
X55535155Y-122250083D01*
X55678606Y-122052639D01*
X55789404Y-121835185D01*
X55864821Y-121603076D01*
X55903000Y-121362027D01*
X55903000Y-121117973D01*
X55864821Y-120876924D01*
X55789404Y-120644815D01*
X55678606Y-120427361D01*
X55543613Y-120241558D01*
X55535160Y-120229923D01*
X55535156Y-120229918D01*
X55362581Y-120057343D01*
X55362576Y-120057339D01*
X55165142Y-119913896D01*
X55165141Y-119913895D01*
X55165139Y-119913894D01*
X54947685Y-119803096D01*
X54715576Y-119727679D01*
X54715574Y-119727678D01*
X54715572Y-119727678D01*
X54547269Y-119701021D01*
X54474527Y-119689500D01*
X54230473Y-119689500D01*
X54174593Y-119698350D01*
X53989427Y-119727678D01*
X53757312Y-119803097D01*
X53539857Y-119913896D01*
X53342423Y-120057339D01*
X53342418Y-120057343D01*
X53169843Y-120229918D01*
X53169839Y-120229923D01*
X53026396Y-120427357D01*
X52915597Y-120644812D01*
X52840178Y-120876927D01*
X52802000Y-121117973D01*
X52802000Y-121239011D01*
X52782315Y-121306050D01*
X52729511Y-121351805D01*
X52660353Y-121361749D01*
X52605116Y-121339330D01*
X52583421Y-121323568D01*
X52390509Y-121225273D01*
X52390506Y-121225272D01*
X52184598Y-121158370D01*
X52073433Y-121140763D01*
X51970754Y-121124500D01*
X51754246Y-121124500D01*
X51690718Y-121134562D01*
X51540401Y-121158370D01*
X51334493Y-121225272D01*
X51334490Y-121225273D01*
X51141580Y-121323567D01*
X51075520Y-121371563D01*
X50966422Y-121450828D01*
X50966420Y-121450830D01*
X50966419Y-121450830D01*
X50813330Y-121603919D01*
X50813330Y-121603920D01*
X50813328Y-121603922D01*
X50770516Y-121662847D01*
X50686067Y-121779080D01*
X50587773Y-121971990D01*
X50587772Y-121971993D01*
X50520870Y-122177901D01*
X50487000Y-122391746D01*
X49500000Y-122391746D01*
X49500000Y-97918543D01*
X50649499Y-97918543D01*
X50687947Y-98111829D01*
X50687950Y-98111839D01*
X50763364Y-98293907D01*
X50763371Y-98293920D01*
X50872860Y-98457781D01*
X50872863Y-98457785D01*
X51012214Y-98597136D01*
X51012218Y-98597139D01*
X51176079Y-98706628D01*
X51176092Y-98706635D01*
X51358160Y-98782049D01*
X51358165Y-98782051D01*
X51358169Y-98782051D01*
X51358170Y-98782052D01*
X51551456Y-98820500D01*
X51551459Y-98820500D01*
X52348543Y-98820500D01*
X52478582Y-98794632D01*
X52541835Y-98782051D01*
X52723914Y-98706632D01*
X52887782Y-98597139D01*
X53027139Y-98457782D01*
X53136632Y-98293914D01*
X53212051Y-98111835D01*
X53224632Y-98048582D01*
X53250500Y-97918543D01*
X54579499Y-97918543D01*
X54617947Y-98111829D01*
X54617950Y-98111839D01*
X54693364Y-98293907D01*
X54693371Y-98293920D01*
X54802860Y-98457781D01*
X54802863Y-98457785D01*
X54942214Y-98597136D01*
X54942218Y-98597139D01*
X55106079Y-98706628D01*
X55106092Y-98706635D01*
X55288160Y-98782049D01*
X55288165Y-98782051D01*
X55288169Y-98782051D01*
X55288170Y-98782052D01*
X55481456Y-98820500D01*
X55481459Y-98820500D01*
X56778543Y-98820500D01*
X56908582Y-98794632D01*
X56971835Y-98782051D01*
X57153914Y-98706632D01*
X57317782Y-98597139D01*
X57457139Y-98457782D01*
X57566632Y-98293914D01*
X57642051Y-98111835D01*
X57654632Y-98048582D01*
X57680500Y-97918543D01*
X57680500Y-97721456D01*
X57642052Y-97528170D01*
X57642051Y-97528169D01*
X57642051Y-97528165D01*
X57642049Y-97528160D01*
X57566635Y-97346092D01*
X57566628Y-97346079D01*
X57457139Y-97182218D01*
X57457136Y-97182214D01*
X57317785Y-97042863D01*
X57317781Y-97042860D01*
X57153920Y-96933371D01*
X57153907Y-96933364D01*
X56971839Y-96857950D01*
X56971829Y-96857947D01*
X56778543Y-96819500D01*
X56778541Y-96819500D01*
X56173598Y-96819500D01*
X56106559Y-96799815D01*
X56060804Y-96747011D01*
X56050860Y-96677853D01*
X56066211Y-96633501D01*
X56081951Y-96606237D01*
X56089688Y-96592836D01*
X56125500Y-96459183D01*
X56125500Y-96320817D01*
X56089688Y-96187164D01*
X56055096Y-96127249D01*
X56020507Y-96067338D01*
X56020503Y-96067333D01*
X55933224Y-95980054D01*
X58722898Y-95980054D01*
X58763823Y-96132785D01*
X58792758Y-96182900D01*
X58792759Y-96182904D01*
X58792760Y-96182904D01*
X58842879Y-96269714D01*
X58842881Y-96269717D01*
X58961749Y-96388585D01*
X58961755Y-96388590D01*
X61602481Y-99029316D01*
X61635966Y-99090639D01*
X61638800Y-99116997D01*
X61638800Y-102580015D01*
X61619115Y-102647054D01*
X61602505Y-102667673D01*
X60885879Y-103384684D01*
X60885878Y-103384683D01*
X60884898Y-103385664D01*
X60828280Y-103442284D01*
X60828237Y-103442357D01*
X60828182Y-103442413D01*
X60828066Y-103442613D01*
X60828065Y-103442615D01*
X60789557Y-103509353D01*
X60789542Y-103509378D01*
X60749220Y-103579220D01*
X60749164Y-103579351D01*
X60728416Y-103656864D01*
X60728401Y-103656922D01*
X60708300Y-103731943D01*
X60708300Y-103732021D01*
X60708278Y-103732104D01*
X60708300Y-103813000D01*
X60708300Y-103890057D01*
X60708320Y-103890135D01*
X60708321Y-103890219D01*
X60708401Y-103890520D01*
X60708402Y-103890523D01*
X60728734Y-103966319D01*
X60728738Y-103966353D01*
X60728743Y-103966352D01*
X60749224Y-104042789D01*
X60749230Y-104042803D01*
X60749282Y-104042928D01*
X60749285Y-104042934D01*
X60749286Y-104042935D01*
X60782567Y-104100544D01*
X60787746Y-104109507D01*
X60787755Y-104109543D01*
X60787764Y-104109539D01*
X60828280Y-104179716D01*
X60828375Y-104179840D01*
X60882432Y-104233869D01*
X60882431Y-104233869D01*
X60882455Y-104233891D01*
X60940084Y-104291520D01*
X60940157Y-104291562D01*
X60940213Y-104291618D01*
X61007153Y-104330242D01*
X61007729Y-104330574D01*
X61007767Y-104330597D01*
X61077008Y-104370573D01*
X61077011Y-104370574D01*
X61077016Y-104370577D01*
X61077020Y-104370578D01*
X61077162Y-104370636D01*
X61077166Y-104370639D01*
X61154722Y-104391398D01*
X61229743Y-104411500D01*
X61229813Y-104411500D01*
X61229877Y-104411517D01*
X61229893Y-104411519D01*
X61229904Y-104411522D01*
X61310800Y-104411500D01*
X61387857Y-104411500D01*
X61387935Y-104411479D01*
X61388019Y-104411479D01*
X61428913Y-104400509D01*
X61464153Y-104391056D01*
X61464154Y-104391061D01*
X61464181Y-104391048D01*
X61540584Y-104370577D01*
X61540593Y-104370571D01*
X61540719Y-104370517D01*
X61540735Y-104370514D01*
X61587668Y-104343399D01*
X61607340Y-104332035D01*
X61607348Y-104332029D01*
X61677516Y-104291520D01*
X61677519Y-104291517D01*
X61677635Y-104291429D01*
X61677642Y-104291421D01*
X61677645Y-104291420D01*
X61704687Y-104264362D01*
X61731621Y-104237415D01*
X61731625Y-104237419D01*
X61731642Y-104237392D01*
X61789320Y-104179716D01*
X61789320Y-104179715D01*
X61795067Y-104173969D01*
X61795311Y-104173689D01*
X62662220Y-103306315D01*
X62662224Y-103306319D01*
X62662239Y-103306295D01*
X62719820Y-103248716D01*
X62719825Y-103248705D01*
X62719910Y-103248594D01*
X62719918Y-103248587D01*
X62759011Y-103180833D01*
X62798877Y-103111784D01*
X62798877Y-103111780D01*
X62798892Y-103111756D01*
X62798929Y-103111664D01*
X62798934Y-103111641D01*
X62798939Y-103111635D01*
X62819815Y-103033638D01*
X62819830Y-103033614D01*
X62819823Y-103033612D01*
X62823818Y-103018700D01*
X62839800Y-102959057D01*
X62839800Y-102959053D01*
X62839819Y-102958907D01*
X62839822Y-102958896D01*
X62839800Y-102878000D01*
X62839800Y-101297866D01*
X62859485Y-101230827D01*
X62912289Y-101185072D01*
X62981447Y-101175128D01*
X63045003Y-101204153D01*
X63051490Y-101210193D01*
X63920149Y-102079143D01*
X63984038Y-102143053D01*
X63984037Y-102143053D01*
X63989654Y-102148671D01*
X63989680Y-102148716D01*
X64047510Y-102206546D01*
X64047511Y-102206548D01*
X64101399Y-102260453D01*
X64101404Y-102260458D01*
X64101410Y-102260461D01*
X64101474Y-102260510D01*
X64101484Y-102260520D01*
X64149536Y-102288262D01*
X64169036Y-102299521D01*
X64169055Y-102299531D01*
X64238320Y-102339537D01*
X64238414Y-102339576D01*
X64238416Y-102339577D01*
X64313976Y-102359822D01*
X64313995Y-102359834D01*
X64313997Y-102359828D01*
X64391042Y-102380487D01*
X64391055Y-102380487D01*
X64391133Y-102380497D01*
X64391143Y-102380500D01*
X64391151Y-102380500D01*
X64467171Y-102380500D01*
X64549157Y-102380514D01*
X64549209Y-102380500D01*
X64549257Y-102380500D01*
X64578388Y-102372694D01*
X64579622Y-102372391D01*
X64613280Y-102373895D01*
X64646964Y-102374696D01*
X64648078Y-102375449D01*
X64649422Y-102375510D01*
X64676924Y-102394972D01*
X64704827Y-102413857D01*
X64705356Y-102415093D01*
X64706455Y-102415871D01*
X64719065Y-102447105D01*
X64732333Y-102478085D01*
X64732109Y-102479412D01*
X64732613Y-102480659D01*
X64726338Y-102513737D01*
X64720748Y-102546988D01*
X64719632Y-102549089D01*
X64719592Y-102549305D01*
X64719424Y-102549481D01*
X64716599Y-102554806D01*
X64681697Y-102615261D01*
X64660600Y-102694043D01*
X64660586Y-102694100D01*
X64640800Y-102767943D01*
X64640800Y-102767989D01*
X64640786Y-102768042D01*
X64640800Y-102850027D01*
X64640800Y-105723943D01*
X64640800Y-115842057D01*
X64674623Y-115968284D01*
X64681723Y-115994783D01*
X64681726Y-115994790D01*
X64760775Y-116131709D01*
X64760779Y-116131714D01*
X64760780Y-116131716D01*
X64872584Y-116243520D01*
X64872586Y-116243521D01*
X64872590Y-116243524D01*
X65005191Y-116320080D01*
X65009516Y-116322577D01*
X65162243Y-116363500D01*
X65162245Y-116363500D01*
X65320355Y-116363500D01*
X65320357Y-116363500D01*
X65473084Y-116322577D01*
X65610016Y-116243520D01*
X65721820Y-116131716D01*
X65800877Y-115994784D01*
X65841800Y-115842057D01*
X65841800Y-105723943D01*
X65841800Y-103147026D01*
X65861485Y-103079987D01*
X65878100Y-103059363D01*
X66136304Y-102801073D01*
X66197622Y-102767579D01*
X66267314Y-102772552D01*
X66323255Y-102814414D01*
X66347683Y-102879875D01*
X66348000Y-102888741D01*
X66348000Y-111272056D01*
X66388923Y-111424783D01*
X66388926Y-111424790D01*
X66467975Y-111561709D01*
X66467979Y-111561714D01*
X66467980Y-111561716D01*
X66579784Y-111673520D01*
X66612013Y-111692127D01*
X66660229Y-111742694D01*
X66673453Y-111811301D01*
X66669789Y-111831608D01*
X66649147Y-111908646D01*
X66649145Y-111908654D01*
X66627900Y-111987922D01*
X66627900Y-112059781D01*
X66627893Y-112154223D01*
X66627900Y-112154328D01*
X66627900Y-117588783D01*
X66627836Y-117668573D01*
X66627900Y-117668812D01*
X66627900Y-117669057D01*
X66648163Y-117744681D01*
X66648188Y-117744776D01*
X66668636Y-117821334D01*
X66668793Y-117821714D01*
X66668793Y-117821715D01*
X66668818Y-117821778D01*
X66708214Y-117890013D01*
X66708215Y-117890014D01*
X66747583Y-117958328D01*
X66747744Y-117958489D01*
X66747862Y-117958693D01*
X66747879Y-117958715D01*
X66747880Y-117958716D01*
X66803834Y-118014670D01*
X66826379Y-118037252D01*
X66865704Y-118076640D01*
X66866414Y-118077450D01*
X66871679Y-118082715D01*
X66871680Y-118082716D01*
X66927463Y-118138499D01*
X66965781Y-118176879D01*
X66983095Y-118194221D01*
X66983102Y-118194226D01*
X66983479Y-118194515D01*
X66983484Y-118194520D01*
X67051925Y-118234034D01*
X67051995Y-118234108D01*
X67052009Y-118234083D01*
X67119964Y-118273389D01*
X67119966Y-118273389D01*
X67119969Y-118273391D01*
X67120414Y-118273576D01*
X67120416Y-118273577D01*
X67196846Y-118294056D01*
X67272658Y-118314436D01*
X67272904Y-118314436D01*
X67273143Y-118314500D01*
X67273149Y-118314500D01*
X67351715Y-118314500D01*
X67361597Y-118314508D01*
X67430766Y-118314564D01*
X67430766Y-118314563D01*
X67430773Y-118314564D01*
X67430779Y-118314562D01*
X67431251Y-118314501D01*
X67431255Y-118314500D01*
X67431257Y-118314500D01*
X67506881Y-118294236D01*
X67506885Y-118294254D01*
X67506977Y-118294210D01*
X67562157Y-118279472D01*
X67580411Y-118274598D01*
X67580411Y-118274597D01*
X67583533Y-118273764D01*
X67583747Y-118273640D01*
X67583984Y-118273577D01*
X67652214Y-118234184D01*
X67720528Y-118194817D01*
X67720532Y-118194812D01*
X67720687Y-118194695D01*
X67720912Y-118194522D01*
X67720916Y-118194520D01*
X67776784Y-118138651D01*
X67832422Y-118083104D01*
X67832545Y-118082890D01*
X67832720Y-118082716D01*
X67872283Y-118014190D01*
X67911589Y-117946236D01*
X67911590Y-117946229D01*
X67911687Y-117946000D01*
X67911777Y-117945783D01*
X67917537Y-117924285D01*
X67932229Y-117869450D01*
X67932284Y-117869361D01*
X67932256Y-117869354D01*
X67937017Y-117851639D01*
X67952636Y-117793542D01*
X67952636Y-117793538D01*
X67952637Y-117793535D01*
X67952641Y-117793500D01*
X67952641Y-117793275D01*
X67952700Y-117793057D01*
X67952700Y-117714484D01*
X67952764Y-117635427D01*
X67952762Y-117635422D01*
X67952701Y-117634948D01*
X67949484Y-117622943D01*
X67936488Y-117574441D01*
X67932436Y-117559317D01*
X67932410Y-117559221D01*
X67911964Y-117482667D01*
X67911779Y-117482221D01*
X67911777Y-117482218D01*
X67911777Y-117482216D01*
X67872384Y-117413985D01*
X67845462Y-117367267D01*
X67828900Y-117305355D01*
X67828900Y-117150027D01*
X67848585Y-117082988D01*
X67901389Y-117037233D01*
X67905229Y-117035556D01*
X67909676Y-117033704D01*
X67909680Y-117033703D01*
X67909683Y-117033700D01*
X67909705Y-117033692D01*
X67909974Y-117033579D01*
X67909984Y-117033577D01*
X67978708Y-116993899D01*
X68046654Y-116954720D01*
X68046769Y-116954604D01*
X68046916Y-116954520D01*
X68103588Y-116897847D01*
X68781570Y-116220604D01*
X68781716Y-116220520D01*
X68838221Y-116164014D01*
X68893319Y-116108977D01*
X68893324Y-116108967D01*
X68893509Y-116108729D01*
X68893515Y-116108721D01*
X68893520Y-116108716D01*
X68923141Y-116057409D01*
X68932938Y-116040441D01*
X68932972Y-116040382D01*
X68956315Y-116000001D01*
X68972451Y-115972089D01*
X68972494Y-115971926D01*
X68972577Y-115971784D01*
X68992648Y-115896877D01*
X69013458Y-115819384D01*
X69013458Y-115819375D01*
X69013500Y-115819060D01*
X69013500Y-115742165D01*
X69013544Y-115661269D01*
X69013500Y-115661104D01*
X69013500Y-98907243D01*
X68999621Y-98855443D01*
X68972577Y-98754515D01*
X68919660Y-98662861D01*
X68893520Y-98617584D01*
X68781716Y-98505780D01*
X68729916Y-98453980D01*
X68729914Y-98453979D01*
X68729909Y-98453975D01*
X68611825Y-98385800D01*
X68611825Y-98385799D01*
X68611820Y-98385798D01*
X68605247Y-98382003D01*
X68592986Y-98374923D01*
X68554803Y-98364692D01*
X68440257Y-98333999D01*
X68282143Y-98333999D01*
X68167597Y-98364692D01*
X68129414Y-98374923D01*
X68114559Y-98383500D01*
X68110580Y-98385798D01*
X68110578Y-98385799D01*
X68110575Y-98385800D01*
X67992490Y-98453975D01*
X67992482Y-98453981D01*
X67880681Y-98565782D01*
X67880679Y-98565785D01*
X67850775Y-98617582D01*
X67850774Y-98617584D01*
X67801623Y-98702714D01*
X67760699Y-98855444D01*
X67760699Y-99013554D01*
X67760698Y-99013554D01*
X67801623Y-99166284D01*
X67803060Y-99169753D01*
X67812500Y-99217209D01*
X67812500Y-100098660D01*
X67792815Y-100165699D01*
X67740011Y-100211454D01*
X67670853Y-100221398D01*
X67626715Y-100206171D01*
X67626441Y-100206013D01*
X67580384Y-100179423D01*
X67580335Y-100179409D01*
X67580292Y-100179385D01*
X67579943Y-100179291D01*
X67579939Y-100179289D01*
X67505199Y-100159277D01*
X67505181Y-100159266D01*
X67505180Y-100159272D01*
X67466418Y-100148886D01*
X67427657Y-100138500D01*
X67427656Y-100138500D01*
X67427558Y-100138487D01*
X67427557Y-100138487D01*
X67348500Y-100138500D01*
X67269536Y-100138500D01*
X67269449Y-100138510D01*
X67193320Y-100158922D01*
X67193321Y-100158923D01*
X67193132Y-100158974D01*
X67116816Y-100179423D01*
X67116771Y-100179448D01*
X67116722Y-100179462D01*
X67116349Y-100179676D01*
X67116346Y-100179678D01*
X67051488Y-100217139D01*
X67051471Y-100217149D01*
X66979874Y-100258485D01*
X66979816Y-100258529D01*
X66929052Y-100309310D01*
X66925606Y-100312757D01*
X66884712Y-100353652D01*
X66862794Y-100375570D01*
X66862651Y-100375732D01*
X65282153Y-101956754D01*
X65257685Y-101970119D01*
X65246211Y-101980062D01*
X65237080Y-101981374D01*
X65220835Y-101990249D01*
X65190444Y-101988080D01*
X65177053Y-101990006D01*
X65169575Y-101986591D01*
X65151143Y-101985276D01*
X65126788Y-101967051D01*
X65113497Y-101960981D01*
X65108697Y-101953513D01*
X65095202Y-101943414D01*
X65085500Y-101917417D01*
X65075723Y-101902203D01*
X65073153Y-101884329D01*
X65070774Y-101877954D01*
X65070457Y-101868737D01*
X65070481Y-101859922D01*
X65070687Y-101859158D01*
X65070687Y-101859105D01*
X65070700Y-101859057D01*
X65070700Y-101783028D01*
X65070714Y-101701043D01*
X65070711Y-101701032D01*
X65070700Y-101700946D01*
X65070700Y-101700943D01*
X65051243Y-101628329D01*
X65029816Y-101548309D01*
X65029811Y-101548290D01*
X65029787Y-101548234D01*
X65023564Y-101537456D01*
X64989672Y-101478752D01*
X64950781Y-101411365D01*
X64950778Y-101411362D01*
X64950774Y-101411355D01*
X64950720Y-101411284D01*
X64931110Y-101391674D01*
X64891049Y-101351613D01*
X64891040Y-101351597D01*
X64891037Y-101351601D01*
X63910404Y-100370639D01*
X63876929Y-100309310D01*
X63874100Y-100282972D01*
X63874100Y-97677577D01*
X66175975Y-97677577D01*
X66281236Y-97721178D01*
X66281240Y-97721179D01*
X66426126Y-97749999D01*
X66426129Y-97750000D01*
X66573871Y-97750000D01*
X66573873Y-97749999D01*
X66718760Y-97721179D01*
X66718775Y-97721175D01*
X66824024Y-97677578D01*
X66824024Y-97677577D01*
X67575975Y-97677577D01*
X67681236Y-97721178D01*
X67681240Y-97721179D01*
X67826126Y-97749999D01*
X67826129Y-97750000D01*
X67973871Y-97750000D01*
X67973873Y-97749999D01*
X68118760Y-97721179D01*
X68118775Y-97721175D01*
X68224024Y-97677578D01*
X68224024Y-97677577D01*
X67900001Y-97353554D01*
X67900000Y-97353554D01*
X67575975Y-97677577D01*
X66824024Y-97677577D01*
X66500001Y-97353554D01*
X66500000Y-97353554D01*
X66175975Y-97677577D01*
X63874100Y-97677577D01*
X63874100Y-96926126D01*
X65750000Y-96926126D01*
X65750000Y-97073873D01*
X65778820Y-97218759D01*
X65778822Y-97218767D01*
X65822421Y-97324024D01*
X66146446Y-97000000D01*
X66146446Y-96999999D01*
X66126556Y-96980109D01*
X66400000Y-96980109D01*
X66400000Y-97019891D01*
X66415224Y-97056645D01*
X66443355Y-97084776D01*
X66480109Y-97100000D01*
X66519891Y-97100000D01*
X66556645Y-97084776D01*
X66584776Y-97056645D01*
X66600000Y-97019891D01*
X66600000Y-96999999D01*
X66853554Y-96999999D01*
X66853554Y-97000001D01*
X67177929Y-97324376D01*
X67222069Y-97324376D01*
X67546446Y-97000000D01*
X67526555Y-96980109D01*
X67800000Y-96980109D01*
X67800000Y-97019891D01*
X67815224Y-97056645D01*
X67843355Y-97084776D01*
X67880109Y-97100000D01*
X67919891Y-97100000D01*
X67956645Y-97084776D01*
X67984776Y-97056645D01*
X68000000Y-97019891D01*
X68000000Y-96999999D01*
X68253554Y-96999999D01*
X68253554Y-97000001D01*
X68577577Y-97324024D01*
X68577578Y-97324024D01*
X68621175Y-97218775D01*
X68621179Y-97218760D01*
X68649999Y-97073873D01*
X68650000Y-97073871D01*
X68650000Y-96926128D01*
X68649999Y-96926126D01*
X68621179Y-96781240D01*
X68621178Y-96781236D01*
X68577577Y-96675975D01*
X68253554Y-96999999D01*
X68000000Y-96999999D01*
X68000000Y-96980109D01*
X67984776Y-96943355D01*
X67956645Y-96915224D01*
X67919891Y-96900000D01*
X67880109Y-96900000D01*
X67843355Y-96915224D01*
X67815224Y-96943355D01*
X67800000Y-96980109D01*
X67526555Y-96980109D01*
X67222068Y-96675622D01*
X67177930Y-96675622D01*
X66853554Y-96999999D01*
X66600000Y-96999999D01*
X66600000Y-96980109D01*
X66584776Y-96943355D01*
X66556645Y-96915224D01*
X66519891Y-96900000D01*
X66480109Y-96900000D01*
X66443355Y-96915224D01*
X66415224Y-96943355D01*
X66400000Y-96980109D01*
X66126556Y-96980109D01*
X65822421Y-96675974D01*
X65822420Y-96675974D01*
X65778823Y-96781228D01*
X65778820Y-96781240D01*
X65750000Y-96926126D01*
X63874100Y-96926126D01*
X63874100Y-96400000D01*
X66253554Y-96400000D01*
X66500000Y-96646446D01*
X66746446Y-96400000D01*
X67653554Y-96400000D01*
X67900000Y-96646446D01*
X68146446Y-96400000D01*
X67900000Y-96153554D01*
X67653554Y-96400000D01*
X66746446Y-96400000D01*
X66500000Y-96153554D01*
X66253554Y-96400000D01*
X63874100Y-96400000D01*
X63874100Y-95763945D01*
X63874100Y-95763943D01*
X63863967Y-95726126D01*
X65750000Y-95726126D01*
X65750000Y-95873873D01*
X65778820Y-96018759D01*
X65778822Y-96018767D01*
X65822421Y-96124024D01*
X66146446Y-95800000D01*
X66146446Y-95799999D01*
X66126556Y-95780109D01*
X66400000Y-95780109D01*
X66400000Y-95819891D01*
X66415224Y-95856645D01*
X66443355Y-95884776D01*
X66480109Y-95900000D01*
X66519891Y-95900000D01*
X66556645Y-95884776D01*
X66584776Y-95856645D01*
X66600000Y-95819891D01*
X66600000Y-95799999D01*
X66853554Y-95799999D01*
X66853554Y-95800001D01*
X67177929Y-96124376D01*
X67222069Y-96124376D01*
X67546446Y-95800000D01*
X67526555Y-95780109D01*
X67800000Y-95780109D01*
X67800000Y-95819891D01*
X67815224Y-95856645D01*
X67843355Y-95884776D01*
X67880109Y-95900000D01*
X67919891Y-95900000D01*
X67956645Y-95884776D01*
X67984776Y-95856645D01*
X68000000Y-95819891D01*
X68000000Y-95799999D01*
X68253554Y-95799999D01*
X68253554Y-95800001D01*
X68577577Y-96124024D01*
X68577578Y-96124024D01*
X68621175Y-96018775D01*
X68621179Y-96018760D01*
X68649999Y-95873873D01*
X68650000Y-95873871D01*
X68650000Y-95726128D01*
X68649999Y-95726126D01*
X68621179Y-95581240D01*
X68621178Y-95581236D01*
X68577577Y-95475975D01*
X68253554Y-95799999D01*
X68000000Y-95799999D01*
X68000000Y-95780109D01*
X67984776Y-95743355D01*
X67956645Y-95715224D01*
X67919891Y-95700000D01*
X67880109Y-95700000D01*
X67843355Y-95715224D01*
X67815224Y-95743355D01*
X67800000Y-95780109D01*
X67526555Y-95780109D01*
X67222068Y-95475622D01*
X67177930Y-95475622D01*
X66853554Y-95799999D01*
X66600000Y-95799999D01*
X66600000Y-95780109D01*
X66584776Y-95743355D01*
X66556645Y-95715224D01*
X66519891Y-95700000D01*
X66480109Y-95700000D01*
X66443355Y-95715224D01*
X66415224Y-95743355D01*
X66400000Y-95780109D01*
X66126556Y-95780109D01*
X65822421Y-95475974D01*
X65822420Y-95475974D01*
X65778823Y-95581228D01*
X65778820Y-95581240D01*
X65750000Y-95726126D01*
X63863967Y-95726126D01*
X63833177Y-95611216D01*
X63802042Y-95557288D01*
X63754124Y-95474290D01*
X63754121Y-95474286D01*
X63754120Y-95474284D01*
X63642316Y-95362480D01*
X63642315Y-95362479D01*
X63637985Y-95358149D01*
X63637974Y-95358139D01*
X63479835Y-95200000D01*
X66253554Y-95200000D01*
X66500000Y-95446446D01*
X66746446Y-95200000D01*
X67653554Y-95200000D01*
X67900000Y-95446446D01*
X68146446Y-95200000D01*
X67900000Y-94953554D01*
X67653554Y-95200000D01*
X66746446Y-95200000D01*
X66500000Y-94953554D01*
X66253554Y-95200000D01*
X63479835Y-95200000D01*
X62805961Y-94526126D01*
X65750000Y-94526126D01*
X65750000Y-94673873D01*
X65778820Y-94818759D01*
X65778822Y-94818767D01*
X65822421Y-94924024D01*
X66146446Y-94600000D01*
X66146446Y-94599999D01*
X66126556Y-94580109D01*
X66400000Y-94580109D01*
X66400000Y-94619891D01*
X66415224Y-94656645D01*
X66443355Y-94684776D01*
X66480109Y-94700000D01*
X66519891Y-94700000D01*
X66556645Y-94684776D01*
X66584776Y-94656645D01*
X66600000Y-94619891D01*
X66600000Y-94599999D01*
X66853554Y-94599999D01*
X66853554Y-94600001D01*
X67177929Y-94924376D01*
X67222069Y-94924376D01*
X67546446Y-94600000D01*
X67526555Y-94580109D01*
X67800000Y-94580109D01*
X67800000Y-94619891D01*
X67815224Y-94656645D01*
X67843355Y-94684776D01*
X67880109Y-94700000D01*
X67919891Y-94700000D01*
X67956645Y-94684776D01*
X67984776Y-94656645D01*
X68000000Y-94619891D01*
X68000000Y-94599999D01*
X68253554Y-94599999D01*
X68253554Y-94600001D01*
X68577577Y-94924024D01*
X68577578Y-94924024D01*
X68621175Y-94818775D01*
X68621179Y-94818760D01*
X68649999Y-94673873D01*
X68650000Y-94673871D01*
X68650000Y-94526128D01*
X68649999Y-94526126D01*
X68621179Y-94381240D01*
X68621178Y-94381236D01*
X68577577Y-94275975D01*
X68253554Y-94599999D01*
X68000000Y-94599999D01*
X68000000Y-94580109D01*
X67984776Y-94543355D01*
X67956645Y-94515224D01*
X67919891Y-94500000D01*
X67880109Y-94500000D01*
X67843355Y-94515224D01*
X67815224Y-94543355D01*
X67800000Y-94580109D01*
X67526555Y-94580109D01*
X67222068Y-94275622D01*
X67177930Y-94275622D01*
X66853554Y-94599999D01*
X66600000Y-94599999D01*
X66600000Y-94580109D01*
X66584776Y-94543355D01*
X66556645Y-94515224D01*
X66519891Y-94500000D01*
X66480109Y-94500000D01*
X66443355Y-94515224D01*
X66415224Y-94543355D01*
X66400000Y-94580109D01*
X66126556Y-94580109D01*
X65822421Y-94275974D01*
X65822420Y-94275974D01*
X65778823Y-94381228D01*
X65778820Y-94381240D01*
X65750000Y-94526126D01*
X62805961Y-94526126D01*
X62125789Y-93845954D01*
X62813198Y-93845954D01*
X62854123Y-93998685D01*
X62883058Y-94048800D01*
X62883059Y-94048804D01*
X62883060Y-94048804D01*
X62927282Y-94125401D01*
X62933179Y-94135614D01*
X62933181Y-94135617D01*
X63044984Y-94247420D01*
X63131795Y-94297539D01*
X63131797Y-94297541D01*
X63169851Y-94319511D01*
X63181915Y-94326477D01*
X63334643Y-94367401D01*
X63334646Y-94367401D01*
X63492754Y-94367401D01*
X63492757Y-94367401D01*
X63645485Y-94326477D01*
X63695604Y-94297539D01*
X63782416Y-94247420D01*
X63894220Y-94135616D01*
X63894220Y-94135614D01*
X63904428Y-94125407D01*
X63904430Y-94125404D01*
X64107414Y-93922420D01*
X66175974Y-93922420D01*
X66175974Y-93922421D01*
X66500000Y-94246446D01*
X66500001Y-94246446D01*
X66824024Y-93922421D01*
X66824022Y-93922420D01*
X67575974Y-93922420D01*
X67575974Y-93922421D01*
X67900000Y-94246446D01*
X67900001Y-94246446D01*
X68224024Y-93922421D01*
X68118767Y-93878822D01*
X68118759Y-93878820D01*
X67973872Y-93850000D01*
X67826128Y-93850000D01*
X67681240Y-93878820D01*
X67681228Y-93878823D01*
X67575974Y-93922420D01*
X66824022Y-93922420D01*
X66718767Y-93878822D01*
X66718759Y-93878820D01*
X66573872Y-93850000D01*
X66426128Y-93850000D01*
X66281240Y-93878820D01*
X66281228Y-93878823D01*
X66175974Y-93922420D01*
X64107414Y-93922420D01*
X64490791Y-93539043D01*
X72620700Y-93539043D01*
X72620700Y-95922057D01*
X72656434Y-96055416D01*
X72661623Y-96074783D01*
X72661626Y-96074790D01*
X72740675Y-96211709D01*
X72740679Y-96211714D01*
X72740680Y-96211716D01*
X72852484Y-96323520D01*
X72852486Y-96323521D01*
X72852490Y-96323524D01*
X72984952Y-96400000D01*
X72989416Y-96402577D01*
X73142143Y-96443500D01*
X73142145Y-96443500D01*
X73300255Y-96443500D01*
X73300257Y-96443500D01*
X73452984Y-96402577D01*
X73589916Y-96323520D01*
X73701720Y-96211716D01*
X73780777Y-96074784D01*
X73821700Y-95922057D01*
X73821700Y-93539043D01*
X73780777Y-93386316D01*
X73773794Y-93374221D01*
X73701724Y-93249390D01*
X73701718Y-93249382D01*
X73589917Y-93137581D01*
X73589909Y-93137575D01*
X73452990Y-93058526D01*
X73452986Y-93058524D01*
X73452984Y-93058523D01*
X73300257Y-93017600D01*
X73142143Y-93017600D01*
X72989416Y-93058523D01*
X72989409Y-93058526D01*
X72852490Y-93137575D01*
X72852482Y-93137581D01*
X72740681Y-93249382D01*
X72740675Y-93249390D01*
X72661626Y-93386309D01*
X72661623Y-93386316D01*
X72620700Y-93539043D01*
X64490791Y-93539043D01*
X64645406Y-93384428D01*
X64645411Y-93384424D01*
X64655614Y-93374220D01*
X64655616Y-93374220D01*
X64767420Y-93262416D01*
X64785142Y-93231721D01*
X64823086Y-93166000D01*
X64823087Y-93165998D01*
X64846474Y-93125490D01*
X64846473Y-93125490D01*
X64846477Y-93125485D01*
X64887400Y-92972758D01*
X64887400Y-92814643D01*
X64887400Y-91905999D01*
X87654500Y-91905999D01*
X87654500Y-92154000D01*
X87693293Y-92398927D01*
X87693294Y-92398931D01*
X87769927Y-92634782D01*
X87882511Y-92855742D01*
X88028276Y-93056370D01*
X88203630Y-93231724D01*
X88404258Y-93377489D01*
X88625218Y-93490073D01*
X88861069Y-93566706D01*
X88952920Y-93581253D01*
X89106000Y-93605500D01*
X89106005Y-93605500D01*
X89354000Y-93605500D01*
X89490070Y-93583947D01*
X89598931Y-93566706D01*
X89834782Y-93490073D01*
X90055742Y-93377489D01*
X90256370Y-93231724D01*
X90431724Y-93056370D01*
X90577489Y-92855742D01*
X90690073Y-92634782D01*
X90766706Y-92398931D01*
X90783947Y-92290070D01*
X90805500Y-92154000D01*
X90805500Y-91905999D01*
X110654500Y-91905999D01*
X110654500Y-92154000D01*
X110693293Y-92398927D01*
X110693294Y-92398931D01*
X110769927Y-92634782D01*
X110882511Y-92855742D01*
X111028276Y-93056370D01*
X111203630Y-93231724D01*
X111404258Y-93377489D01*
X111625218Y-93490073D01*
X111861069Y-93566706D01*
X111952920Y-93581253D01*
X112106000Y-93605500D01*
X112106005Y-93605500D01*
X112354000Y-93605500D01*
X112490070Y-93583947D01*
X112598931Y-93566706D01*
X112834782Y-93490073D01*
X113055742Y-93377489D01*
X113256370Y-93231724D01*
X113431724Y-93056370D01*
X113577489Y-92855742D01*
X113690073Y-92634782D01*
X113766706Y-92398931D01*
X113783947Y-92290070D01*
X113805500Y-92154000D01*
X113805500Y-91905999D01*
X113766706Y-91661072D01*
X113766706Y-91661069D01*
X113690073Y-91425218D01*
X113577489Y-91204258D01*
X113431724Y-91003630D01*
X113256370Y-90828276D01*
X113055742Y-90682511D01*
X112834782Y-90569927D01*
X112598931Y-90493294D01*
X112598929Y-90493293D01*
X112598927Y-90493293D01*
X112354000Y-90454500D01*
X112353995Y-90454500D01*
X112106005Y-90454500D01*
X112106000Y-90454500D01*
X111861072Y-90493293D01*
X111625215Y-90569928D01*
X111404257Y-90682511D01*
X111289792Y-90765675D01*
X111203630Y-90828276D01*
X111203628Y-90828278D01*
X111203627Y-90828278D01*
X111028278Y-91003627D01*
X111028278Y-91003628D01*
X111028276Y-91003630D01*
X111008749Y-91030507D01*
X110882511Y-91204257D01*
X110769928Y-91425215D01*
X110693293Y-91661072D01*
X110654500Y-91905999D01*
X90805500Y-91905999D01*
X90766706Y-91661072D01*
X90766706Y-91661069D01*
X90690073Y-91425218D01*
X90577489Y-91204258D01*
X90431724Y-91003630D01*
X90256370Y-90828276D01*
X90055742Y-90682511D01*
X89834782Y-90569927D01*
X89598931Y-90493294D01*
X89598929Y-90493293D01*
X89598927Y-90493293D01*
X89354000Y-90454500D01*
X89353995Y-90454500D01*
X89106005Y-90454500D01*
X89106000Y-90454500D01*
X88861072Y-90493293D01*
X88625215Y-90569928D01*
X88404257Y-90682511D01*
X88289792Y-90765675D01*
X88203630Y-90828276D01*
X88203628Y-90828278D01*
X88203627Y-90828278D01*
X88028278Y-91003627D01*
X88028278Y-91003628D01*
X88028276Y-91003630D01*
X88008749Y-91030507D01*
X87882511Y-91204257D01*
X87769928Y-91425215D01*
X87693293Y-91661072D01*
X87654500Y-91905999D01*
X64887400Y-91905999D01*
X64887400Y-88791943D01*
X64846477Y-88639216D01*
X64790476Y-88542218D01*
X64767424Y-88502290D01*
X64767418Y-88502282D01*
X64655617Y-88390481D01*
X64655609Y-88390475D01*
X64518690Y-88311426D01*
X64518686Y-88311424D01*
X64518684Y-88311423D01*
X64365957Y-88270500D01*
X64207843Y-88270500D01*
X64055116Y-88311423D01*
X64055109Y-88311426D01*
X63918190Y-88390475D01*
X63918182Y-88390481D01*
X63806381Y-88502282D01*
X63806375Y-88502290D01*
X63727326Y-88639209D01*
X63727323Y-88639216D01*
X63686400Y-88791943D01*
X63686400Y-92593602D01*
X63666715Y-92660641D01*
X63650081Y-92681283D01*
X62933181Y-93398182D01*
X62933179Y-93398185D01*
X62883061Y-93484994D01*
X62883059Y-93484996D01*
X62854125Y-93535109D01*
X62854124Y-93535110D01*
X62845658Y-93566706D01*
X62813199Y-93687843D01*
X62813199Y-93687845D01*
X62813199Y-93845954D01*
X62813198Y-93845954D01*
X62125789Y-93845954D01*
X61833919Y-93554084D01*
X61800434Y-93492761D01*
X61797600Y-93466403D01*
X61797600Y-92332945D01*
X61797600Y-92332943D01*
X61756677Y-92180216D01*
X61741541Y-92154000D01*
X61677624Y-92043290D01*
X61677618Y-92043282D01*
X61565817Y-91931481D01*
X61565809Y-91931475D01*
X61428890Y-91852426D01*
X61428886Y-91852424D01*
X61428884Y-91852423D01*
X61276157Y-91811500D01*
X61118043Y-91811500D01*
X60965316Y-91852423D01*
X60965309Y-91852426D01*
X60828390Y-91931475D01*
X60828382Y-91931481D01*
X60716581Y-92043282D01*
X60716575Y-92043290D01*
X60637526Y-92180209D01*
X60637523Y-92180216D01*
X60596600Y-92332943D01*
X60596600Y-93679830D01*
X60596599Y-93679848D01*
X60596599Y-93845554D01*
X60596598Y-93845554D01*
X60637523Y-93998285D01*
X60666458Y-94048400D01*
X60666459Y-94048404D01*
X60666460Y-94048404D01*
X60710913Y-94125401D01*
X60716579Y-94135214D01*
X60716581Y-94135217D01*
X60835449Y-94254085D01*
X60835455Y-94254090D01*
X62636781Y-96055416D01*
X62670266Y-96116739D01*
X62673100Y-96143097D01*
X62673100Y-98102103D01*
X62653415Y-98169142D01*
X62600611Y-98214897D01*
X62531453Y-98224841D01*
X62467897Y-98195816D01*
X62461419Y-98189784D01*
X59894692Y-95623057D01*
X59874988Y-95597380D01*
X59803920Y-95474284D01*
X59692116Y-95362480D01*
X59692113Y-95362478D01*
X59692109Y-95362475D01*
X59555190Y-95283426D01*
X59555186Y-95283424D01*
X59555184Y-95283423D01*
X59402457Y-95242500D01*
X59244343Y-95242500D01*
X59091616Y-95283423D01*
X59091609Y-95283426D01*
X58954690Y-95362475D01*
X58954682Y-95362481D01*
X58842881Y-95474282D01*
X58842875Y-95474290D01*
X58763826Y-95611209D01*
X58763824Y-95611214D01*
X58763823Y-95611216D01*
X58722900Y-95763943D01*
X58722900Y-95821939D01*
X58722899Y-95821943D01*
X58722899Y-95980054D01*
X58722898Y-95980054D01*
X55933224Y-95980054D01*
X55922666Y-95969496D01*
X55922661Y-95969492D01*
X55839929Y-95921727D01*
X55839928Y-95921727D01*
X55802836Y-95900312D01*
X55801672Y-95900000D01*
X55669183Y-95864500D01*
X55530817Y-95864500D01*
X55397164Y-95900312D01*
X55397161Y-95900313D01*
X55277338Y-95969492D01*
X55277333Y-95969496D01*
X55179496Y-96067333D01*
X55179492Y-96067338D01*
X55110313Y-96187161D01*
X55110312Y-96187164D01*
X55074500Y-96320817D01*
X55074500Y-96459183D01*
X55085411Y-96499901D01*
X55110312Y-96592835D01*
X55110313Y-96592838D01*
X55179492Y-96712661D01*
X55179496Y-96712666D01*
X55182830Y-96716000D01*
X55216315Y-96777323D01*
X55211331Y-96847015D01*
X55169459Y-96902948D01*
X55142603Y-96918242D01*
X55106085Y-96933368D01*
X55106079Y-96933371D01*
X54942218Y-97042860D01*
X54942214Y-97042863D01*
X54802863Y-97182214D01*
X54802860Y-97182218D01*
X54693371Y-97346079D01*
X54693364Y-97346092D01*
X54617950Y-97528160D01*
X54617947Y-97528170D01*
X54579500Y-97721456D01*
X54579500Y-97721459D01*
X54579500Y-97918541D01*
X54579500Y-97918543D01*
X54579499Y-97918543D01*
X53250500Y-97918543D01*
X53250500Y-97721456D01*
X53212052Y-97528170D01*
X53212051Y-97528169D01*
X53212051Y-97528165D01*
X53212049Y-97528160D01*
X53136635Y-97346092D01*
X53136628Y-97346079D01*
X53027139Y-97182218D01*
X53027136Y-97182214D01*
X52887785Y-97042863D01*
X52887781Y-97042860D01*
X52723920Y-96933371D01*
X52723907Y-96933364D01*
X52541839Y-96857950D01*
X52541829Y-96857947D01*
X52348543Y-96819500D01*
X52348541Y-96819500D01*
X51551459Y-96819500D01*
X51551457Y-96819500D01*
X51358170Y-96857947D01*
X51358160Y-96857950D01*
X51176092Y-96933364D01*
X51176079Y-96933371D01*
X51012218Y-97042860D01*
X51012214Y-97042863D01*
X50872863Y-97182214D01*
X50872860Y-97182218D01*
X50763371Y-97346079D01*
X50763364Y-97346092D01*
X50687950Y-97528160D01*
X50687947Y-97528170D01*
X50649500Y-97721456D01*
X50649500Y-97721459D01*
X50649500Y-97918541D01*
X50649500Y-97918543D01*
X50649499Y-97918543D01*
X49500000Y-97918543D01*
X49500000Y-89278543D01*
X50649499Y-89278543D01*
X50687947Y-89471829D01*
X50687950Y-89471839D01*
X50763364Y-89653907D01*
X50763371Y-89653920D01*
X50872860Y-89817781D01*
X50872863Y-89817785D01*
X51012214Y-89957136D01*
X51012218Y-89957139D01*
X51176079Y-90066628D01*
X51176092Y-90066635D01*
X51318441Y-90125597D01*
X51358165Y-90142051D01*
X51358169Y-90142051D01*
X51358170Y-90142052D01*
X51551456Y-90180500D01*
X51551459Y-90180500D01*
X52348543Y-90180500D01*
X52488772Y-90152606D01*
X52541835Y-90142051D01*
X52723914Y-90066632D01*
X52887782Y-89957139D01*
X53027139Y-89817782D01*
X53136632Y-89653914D01*
X53212051Y-89471835D01*
X53250500Y-89278543D01*
X54579499Y-89278543D01*
X54617947Y-89471829D01*
X54617950Y-89471839D01*
X54693364Y-89653907D01*
X54693371Y-89653920D01*
X54802860Y-89817781D01*
X54802863Y-89817785D01*
X54942214Y-89957136D01*
X54942218Y-89957139D01*
X55106079Y-90066628D01*
X55106086Y-90066632D01*
X55142601Y-90081756D01*
X55197004Y-90125597D01*
X55219070Y-90191891D01*
X55201792Y-90259590D01*
X55182835Y-90283994D01*
X55179498Y-90287330D01*
X55179492Y-90287338D01*
X55110313Y-90407161D01*
X55110312Y-90407164D01*
X55074500Y-90540817D01*
X55074500Y-90679182D01*
X55110312Y-90812835D01*
X55110313Y-90812838D01*
X55179492Y-90932661D01*
X55179494Y-90932664D01*
X55179495Y-90932665D01*
X55277335Y-91030505D01*
X55397164Y-91099688D01*
X55530817Y-91135500D01*
X55530819Y-91135500D01*
X55669181Y-91135500D01*
X55669183Y-91135500D01*
X55802836Y-91099688D01*
X55922665Y-91030505D01*
X56020505Y-90932665D01*
X56089688Y-90812836D01*
X56125500Y-90679183D01*
X56125500Y-90540817D01*
X56089688Y-90407164D01*
X56089684Y-90407157D01*
X56066211Y-90366499D01*
X56049738Y-90298599D01*
X56072591Y-90232572D01*
X56127512Y-90189382D01*
X56173598Y-90180500D01*
X56778543Y-90180500D01*
X56918772Y-90152606D01*
X56971835Y-90142051D01*
X57153914Y-90066632D01*
X57317782Y-89957139D01*
X57457139Y-89817782D01*
X57566632Y-89653914D01*
X57642051Y-89471835D01*
X57680500Y-89278541D01*
X57680500Y-89081459D01*
X57680500Y-89081456D01*
X57642052Y-88888170D01*
X57642051Y-88888169D01*
X57642051Y-88888165D01*
X57602195Y-88791943D01*
X57566635Y-88706092D01*
X57566628Y-88706079D01*
X57457139Y-88542218D01*
X57457136Y-88542214D01*
X57317785Y-88402863D01*
X57317781Y-88402860D01*
X57153920Y-88293371D01*
X57153907Y-88293364D01*
X56971839Y-88217950D01*
X56971829Y-88217947D01*
X56778543Y-88179500D01*
X56778541Y-88179500D01*
X55481459Y-88179500D01*
X55481457Y-88179500D01*
X55288170Y-88217947D01*
X55288160Y-88217950D01*
X55106092Y-88293364D01*
X55106079Y-88293371D01*
X54942218Y-88402860D01*
X54942214Y-88402863D01*
X54802863Y-88542214D01*
X54802860Y-88542218D01*
X54693371Y-88706079D01*
X54693364Y-88706092D01*
X54617950Y-88888160D01*
X54617947Y-88888170D01*
X54579500Y-89081456D01*
X54579500Y-89081459D01*
X54579500Y-89278541D01*
X54579500Y-89278543D01*
X54579499Y-89278543D01*
X53250500Y-89278543D01*
X53250500Y-89278541D01*
X53250500Y-89081459D01*
X53250500Y-89081456D01*
X53212052Y-88888170D01*
X53212051Y-88888169D01*
X53212051Y-88888165D01*
X53172195Y-88791943D01*
X53136635Y-88706092D01*
X53136628Y-88706079D01*
X53027139Y-88542218D01*
X53027136Y-88542214D01*
X52887785Y-88402863D01*
X52887781Y-88402860D01*
X52723920Y-88293371D01*
X52723907Y-88293364D01*
X52541839Y-88217950D01*
X52541829Y-88217947D01*
X52348543Y-88179500D01*
X52348541Y-88179500D01*
X51551459Y-88179500D01*
X51551457Y-88179500D01*
X51358170Y-88217947D01*
X51358160Y-88217950D01*
X51176092Y-88293364D01*
X51176079Y-88293371D01*
X51012218Y-88402860D01*
X51012214Y-88402863D01*
X50872863Y-88542214D01*
X50872860Y-88542218D01*
X50763371Y-88706079D01*
X50763364Y-88706092D01*
X50687950Y-88888160D01*
X50687947Y-88888170D01*
X50649500Y-89081456D01*
X50649500Y-89081459D01*
X50649500Y-89278541D01*
X50649500Y-89278543D01*
X50649499Y-89278543D01*
X49500000Y-89278543D01*
X49500000Y-83924500D01*
X49519685Y-83857461D01*
X49572489Y-83811706D01*
X49624000Y-83800500D01*
X149622219Y-83800500D01*
X149689258Y-83820185D01*
G37*
%TD.AperFunction*%
%TD*%
M02*
