M48
; DRILL file KiCad 10.0.0 date 2026-04-14T22:47:29
; FORMAT={-:-/ absolute / metric / decimal}
; #@! TF.CreationDate,2026-04-14T22:47:29+04:00
; #@! TF.GenerationSoftware,Kicad,Pcbnew,10.0.0
; #@! TF.FileFunction,Plated,1,2,PTH
FMAT,2
METRIC
; #@! TA.AperFunction,Plated,PTH,ViaDrill
T1C0.200
; #@! TA.AperFunction,Plated,PTH,ComponentDrill
T2C0.200
; #@! TA.AperFunction,Plated,PTH,ComponentDrill
T3C0.600
; #@! TA.AperFunction,Plated,PTH,ComponentDrill
T4C0.750
; #@! TA.AperFunction,Plated,PTH,ComponentDrill
T5C0.800
; #@! TA.AperFunction,Plated,PTH,ComponentDrill
T6C0.990
; #@! TA.AperFunction,Plated,PTH,ComponentDrill
T7C1.000
; #@! TA.AperFunction,Plated,PTH,ComponentDrill
T8C1.300
; #@! TA.AperFunction,Plated,PTH,ComponentDrill
T9C1.500
%
G90
G05
T1
X58.331Y-89.867
X58.331Y-96.84
X59.323Y-95.843
X59.323Y-106.799
X60.316Y-150.623
X61.156Y-142.121
X61.197Y-92.412
X61.309Y-103.811
X62.301Y-128.711
X63.259Y-102.815
X63.259Y-130.416
X63.294Y-132.695
X63.414Y-93.767
X64.287Y-88.871
X64.287Y-95.8
X64.287Y-125.723
X64.287Y-143.651
X64.47Y-101.78
X65.241Y-105.803
X65.241Y-115.763
X65.241Y-116.759
X66.948Y-111.193
X67.349Y-100.739
X67.352Y-117.714
X67.678Y-116.474
X67.959Y-106.799
X68.011Y-101.819
X68.361Y-98.934
X69.452Y-126.517
X71.236Y-115.763
X72.228Y-126.719
X73.221Y-93.618
X73.221Y-95.843
X74.214Y-111.871
X76.338Y-96.839
X80.17Y-128.711
X82.155Y-99.827
X83.148Y-110.496
X90.097Y-133.942
X91.09Y-151.619
X92.126Y-122.735
X95.811Y-154.772
X96.165Y-155.603
X121.864Y-121.739
X122.162Y-123.731
X122.856Y-128.711
X129.642Y-127.715
X129.642Y-135.683
X132.783Y-127.715
X132.783Y-133.691
X133.082Y-132.695
X133.26Y-125.204
X136.755Y-144.647
X138.739Y-127.715
X141.718Y-123.731
T2
X66.5Y-94.6
X66.5Y-95.8
X66.5Y-97.0
X67.9Y-94.6
X67.9Y-95.8
X67.9Y-97.0
T4
X143.5Y-94.5
X143.5Y-96.5
T5
X127.653Y-116.0
X131.153Y-116.0
T6
X51.862Y-122.5
X51.862Y-127.0
X51.862Y-148.275
X51.862Y-152.775
T7
X62.5Y-137.5
X62.5Y-140.0
X62.5Y-142.5
X77.0Y-137.5
X77.0Y-142.5
X87.96Y-96.9
X87.96Y-99.44
X87.96Y-101.98
X87.96Y-104.52
X87.96Y-107.06
X87.96Y-109.6
X87.96Y-112.14
X87.96Y-114.68
X87.96Y-117.22
X87.96Y-119.76
X87.96Y-122.3
X87.96Y-124.84
X87.96Y-127.38
X87.96Y-129.92
X87.96Y-132.46
X87.96Y-135.0
X87.96Y-137.54
X87.96Y-140.08
X87.96Y-142.62
X87.96Y-145.16
X90.5Y-96.9
X90.5Y-99.44
X90.5Y-101.98
X90.5Y-104.52
X90.5Y-107.06
X90.5Y-109.6
X90.5Y-112.14
X90.5Y-114.68
X90.5Y-117.22
X90.5Y-119.76
X90.5Y-122.3
X90.5Y-124.84
X90.5Y-127.38
X90.5Y-129.92
X90.5Y-132.46
X90.5Y-135.0
X90.5Y-137.54
X90.5Y-140.08
X90.5Y-142.62
X90.5Y-145.16
X102.0Y-161.5
X107.0Y-161.5
X146.0Y-150.5
X146.0Y-153.04
X146.0Y-155.58
X146.0Y-158.12
X146.0Y-160.66
X146.0Y-163.2
X146.0Y-165.74
X146.5Y-112.92
X146.5Y-115.46
X146.5Y-118.0
T8
X54.352Y-121.24
X54.352Y-128.25
X54.352Y-147.015
X54.352Y-154.025
T3
G00X52.25Y-89.18
M15
G01X51.65Y-89.18
M16
G05
G00X52.25Y-97.82
M15
G01X51.65Y-97.82
M16
G05
G00X56.68Y-89.18
M15
G01X55.58Y-89.18
M16
G05
G00X56.68Y-97.82
M15
G01X55.58Y-97.82
M16
G05
T9
G00X69.35Y-134.4
M15
G01X70.65Y-134.4
M16
G05
G00X69.35Y-145.6
M15
G01X70.65Y-145.6
M16
G05
M30
